<?xml version="1.0" encoding="UTF-8" standalone="no"?>
<!DOCTYPE svg PUBLIC "-//W3C//DTD SVG 1.1//EN"
 "http://www.w3.org/Graphics/SVG/1.1/DTD/svg11.dtd">
<!-- Generated by graphviz version 2.42.3 (20191010.1750)
 -->
<!-- Title: cluster/Users/vishweshdkumar/Desktop/gsoc/finalwork/finalrepo/djangotrials/demo_files/demo2.py Pages: 1 -->
<svg width="545pt" height="206pt"
 viewBox="0.00 0.00 544.66 206.00" xmlns="http://www.w3.org/2000/svg" xmlns:xlink="http://www.w3.org/1999/xlink">
<g id="graph0" class="graph" transform="scale(1 1) rotate(0) translate(4 202)">
<title>cluster/Users/vishweshdkumar/Desktop/gsoc/finalwork/finalrepo/djangotrials/demo_files/demo2.py</title>
<polygon fill="darkgray" stroke="transparent" points="-4,4 -4,-202 540.66,-202 540.66,4 -4,4"/>
<text text-anchor="middle" x="268.33" y="-6.8" font-family="Times,serif" font-size="14.00">/Users/vishweshdkumar/Desktop/gsoc/finalwork/finalrepo/djangotrials/demo_files/demo2.py</text>
<g id="clust1" class="cluster">
<title>clusterhasPath</title>
<polygon fill="darkgray" stroke="black" points="127.33,-30 127.33,-190 409.33,-190 409.33,-30 127.33,-30"/>
<text text-anchor="middle" x="268.33" y="-174.8" font-family="Times,serif" font-size="14.00">hasPath</text>
</g>
<!-- 12 -->
<g id="node1" class="node">
<title>12</title>
<polygon fill="#68838b" stroke="black" points="268.33,-160 135.66,-142 268.33,-124 401,-142 268.33,-160"/>
<text text-anchor="middle" x="268.33" y="-137.8" font-family="Times,serif" font-size="14.00">if self.matrix[i][j] == 0:</text>
</g>
<!-- 14 -->
<g id="node2" class="node">
<title>14</title>
<polygon fill="lightblue" stroke="black" points="319.37,-74 217.29,-74 217.29,-38 319.37,-38 319.37,-74"/>
<text text-anchor="middle" x="268.33" y="-58.8" font-family="Times,serif" font-size="14.00">self.dp[i][j] = 3</text>
<text text-anchor="middle" x="268.33" y="-44.8" font-family="Times,serif" font-size="14.00">return False</text>
</g>
<!-- 12&#45;&gt;14 -->
<g id="edge1" class="edge">
<title>12&#45;&gt;14</title>
<path fill="none" stroke="red" d="M268.33,-123.6C268.33,-112.26 268.33,-97.23 268.33,-84.32"/>
<polygon fill="red" stroke="red" points="271.83,-84.1 268.33,-74.1 264.83,-84.1 271.83,-84.1"/>
<text text-anchor="middle" x="326.57" y="-94.8" font-family="Times,serif" font-size="14.00">self.matrix[i][j] == 0</text>
</g>
</g>
</svg>
