<?xml version="1.0" encoding="UTF-8" standalone="no"?>
<!DOCTYPE svg PUBLIC "-//W3C//DTD SVG 1.1//EN"
 "http://www.w3.org/Graphics/SVG/1.1/DTD/svg11.dtd">
<!-- Generated by graphviz version 2.42.3 (20191010.1750)
 -->
<!-- Title: cluster/Users/vishweshdkumar/Desktop/gsoc/finalwork/finalrepo/djangotrials/demo_files/demo1.py Pages: 1 -->
<svg width="374pt" height="248pt"
 viewBox="0.00 0.00 374.00 248.00" xmlns="http://www.w3.org/2000/svg" xmlns:xlink="http://www.w3.org/1999/xlink">
<g id="graph0" class="graph" transform="scale(1 1) rotate(0) translate(4 244)">
<title>cluster/Users/vishweshdkumar/Desktop/gsoc/finalwork/finalrepo/djangotrials/demo_files/demo1.py</title>
<g id="clust1" class="cluster">
<title>clusterinorder</title>
<polygon fill="transparent" stroke="black" points="8,-8 8,-232 358,-232 358,-8 8,-8"/>
</g>
<!-- 19 -->
<g id="node1" class="node">
<title>19</title>
<polygon fill="#68838b" stroke="black" points="183,-224 47.46,-206 183,-188 318.54,-206 183,-224"/>
<text text-anchor="middle" x="183" y="-201.8" font-family="Times,serif" font-size="14.00">if self.nextl is not None:</text>
</g>
<!-- 20 -->
<g id="node2" class="node">
<title>20</title>
<polygon fill="lightblue" stroke="black" points="205.65,-138 16.35,-138 16.35,-102 205.65,-102 205.65,-138"/>
<text text-anchor="middle" x="111" y="-115.8" font-family="Times,serif" font-size="14.00">ans = self.nextl.__str__() + ans</text>
</g>
<!-- 19&#45;&gt;20 -->
<g id="edge3" class="edge">
<title>19&#45;&gt;20</title>
<path fill="none" stroke="red" d="M145.97,-192.88C135.08,-187.54 124.22,-180.11 117.24,-170 112.94,-163.76 110.86,-156 109.99,-148.49"/>
<polygon fill="red" stroke="red" points="113.47,-148.06 109.44,-138.26 106.48,-148.43 113.47,-148.06"/>
<text text-anchor="middle" x="177.88" y="-158.8" font-family="Times,serif" font-size="14.00">self.nextl is not None</text>
</g>
<!-- 21 -->
<g id="node4" class="node">
<title>21</title>
<polygon fill="lightblue" stroke="black" points="267.59,-52 196.41,-52 196.41,-16 267.59,-16 267.59,-52"/>
<text text-anchor="middle" x="232" y="-29.8" font-family="Times,serif" font-size="14.00">return ans</text>
</g>
<!-- 19&#45;&gt;21 -->
<g id="edge4" class="edge">
<title>19&#45;&gt;21</title>
<path fill="none" stroke="black" d="M214.2,-191.95C223.19,-186.55 231.93,-179.32 237,-170 255.35,-136.23 248.16,-90.38 240.61,-61.75"/>
<polygon fill="black" stroke="black" points="243.95,-60.7 237.85,-52.03 237.21,-62.61 243.95,-60.7"/>
<text text-anchor="middle" x="301.85" y="-115.8" font-family="Times,serif" font-size="14.00">(self.nextl is None)</text>
</g>
<!-- 20_calls -->
<g id="node3" class="node">
<title>20_calls</title>
<polygon fill="lightgrey" stroke="black" points="167.71,-52 58.29,-52 54.29,-48 54.29,-16 163.71,-16 167.71,-20 167.71,-52"/>
<polyline fill="none" stroke="black" points="163.71,-48 54.29,-48 "/>
<polyline fill="none" stroke="black" points="163.71,-48 163.71,-16 "/>
<polyline fill="none" stroke="black" points="163.71,-48 167.71,-52 "/>
<text text-anchor="middle" x="111" y="-29.8" font-family="Times,serif" font-size="14.00">self.nextl.__str__</text>
</g>
<!-- 20&#45;&gt;20_calls -->
<g id="edge1" class="edge">
<title>20&#45;&gt;20_calls</title>
<path fill="none" stroke="white" stroke-dasharray="5,2" d="M111,-101.6C111,-90.26 111,-75.23 111,-62.32"/>
<polygon fill="white" stroke="white" points="114.5,-62.1 111,-52.1 107.5,-62.1 114.5,-62.1"/>
<text text-anchor="middle" x="123.83" y="-72.8" font-family="Times,serif" font-size="14.00">calls</text>
</g>
<!-- 20&#45;&gt;21 -->
<g id="edge2" class="edge">
<title>20&#45;&gt;21</title>
<path fill="none" stroke="black" d="M135.78,-101.8C153.97,-89.17 178.87,-71.89 198.78,-58.06"/>
<polygon fill="black" stroke="black" points="201.04,-60.76 207.25,-52.18 197.04,-55.01 201.04,-60.76"/>
</g>
</g>
</svg>
