<?xml version="1.0" encoding="UTF-8" standalone="no"?>
<!DOCTYPE svg PUBLIC "-//W3C//DTD SVG 1.1//EN"
 "http://www.w3.org/Graphics/SVG/1.1/DTD/svg11.dtd">
<!-- Generated by graphviz version 2.42.3 (20191010.1750)
 -->
<!-- Title: cluster/Users/vishweshdkumar/Desktop/gsoc/finalwork/finalrepo/djangotrials/demo_files/demo2.py Pages: 1 -->
<svg width="322pt" height="248pt"
 viewBox="0.00 0.00 322.00 248.00" xmlns="http://www.w3.org/2000/svg" xmlns:xlink="http://www.w3.org/1999/xlink">
<g id="graph0" class="graph" transform="scale(1 1) rotate(0) translate(4 244)">
<title>cluster/Users/vishweshdkumar/Desktop/gsoc/finalwork/finalrepo/djangotrials/demo_files/demo2.py</title>
<g id="clust1" class="cluster">
<title>clusterhasPath</title>
<polygon fill="transparent" stroke="black" points="8,-8 8,-232 306,-232 306,-8 8,-8"/>
</g>
<!-- 24 -->
<g id="node1" class="node">
<title>24</title>
<polygon fill="#68838b" stroke="black" points="157,-224 44.61,-206 157,-188 269.39,-206 157,-224"/>
<text text-anchor="middle" x="157" y="-201.8" font-family="Times,serif" font-size="14.00">if self.dp[i][j] == 4:</text>
</g>
<!-- 26 -->
<g id="curr_block" class="node">
<title>26</title>
<polygon fill="lightblue" stroke="black" points="298.34,-138 15.66,-138 15.66,-102 298.34,-102 298.34,-138"/>
<text text-anchor="middle" x="157" y="-122.8" font-family="Times,serif" font-size="14.00">print(f&#39;i:{i},j:{j} path exists , already recorded&#39;)</text>
<text text-anchor="middle" x="157" y="-108.8" font-family="Times,serif" font-size="14.00">return True</text>
</g>
<!-- 24&#45;&gt;26 -->
<g id="edge2" class="edge">
<title>24&#45;&gt;26</title>
<path fill="none" stroke="red" d="M157,-187.6C157,-176.26 157,-161.23 157,-148.32"/>
<polygon fill="red" stroke="red" points="160.5,-148.1 157,-138.1 153.5,-148.1 160.5,-148.1"/>
<text text-anchor="middle" x="203.97" y="-158.8" font-family="Times,serif" font-size="14.00">self.dp[i][j] == 4</text>
</g>
<!-- 26_calls -->
<g id="node3" class="node">
<title>26_calls</title>
<polygon fill="lightgrey" stroke="black" points="184,-52 134,-52 130,-48 130,-16 180,-16 184,-20 184,-52"/>
<polyline fill="none" stroke="black" points="180,-48 130,-48 "/>
<polyline fill="none" stroke="black" points="180,-48 180,-16 "/>
<polyline fill="none" stroke="black" points="180,-48 184,-52 "/>
<text text-anchor="middle" x="157" y="-29.8" font-family="Times,serif" font-size="14.00">print</text>
</g>
<!-- 26&#45;&gt;26_calls -->
<g id="edge1" class="edge">
<title>26&#45;&gt;26_calls</title>
<path fill="none" stroke="white" stroke-dasharray="5,2" d="M157,-101.6C157,-90.26 157,-75.23 157,-62.32"/>
<polygon fill="white" stroke="white" points="160.5,-62.1 157,-52.1 153.5,-62.1 160.5,-62.1"/>
<text text-anchor="middle" x="169.83" y="-72.8" font-family="Times,serif" font-size="14.00">calls</text>
</g>
</g>
</svg>
