<?xml version="1.0" encoding="UTF-8" standalone="no"?>
<!DOCTYPE svg PUBLIC "-//W3C//DTD SVG 1.1//EN"
 "http://www.w3.org/Graphics/SVG/1.1/DTD/svg11.dtd">
<!-- Generated by graphviz version 2.42.3 (20191010.1750)
 -->
<!-- Title: cluster/Users/vishweshdkumar/Desktop/gsoc/finalwork/finalrepo/djangotrials/demo_files/demo2.py Pages: 1 -->
<svg width="545pt" height="220pt"
 viewBox="0.00 0.00 544.66 220.00" xmlns="http://www.w3.org/2000/svg" xmlns:xlink="http://www.w3.org/1999/xlink">
<g id="graph0" class="graph" transform="scale(1 1) rotate(0) translate(4 216)">
<title>cluster/Users/vishweshdkumar/Desktop/gsoc/finalwork/finalrepo/djangotrials/demo_files/demo2.py</title>
<polygon fill="darkgray" stroke="transparent" points="-4,4 -4,-216 540.66,-216 540.66,4 -4,4"/>
<text text-anchor="middle" x="268.33" y="-6.8" font-family="Times,serif" font-size="14.00">/Users/vishweshdkumar/Desktop/gsoc/finalwork/finalrepo/djangotrials/demo_files/demo2.py</text>
<g id="clust1" class="cluster">
<title>clustermain</title>
<polygon fill="darkgray" stroke="black" points="154.33,-30 154.33,-204 382.33,-204 382.33,-30 154.33,-30"/>
<text text-anchor="middle" x="268.33" y="-188.8" font-family="Times,serif" font-size="14.00">main</text>
</g>
<!-- 29 -->
<g id="node1" class="node">
<title>29</title>
<polygon fill="lightblue" stroke="black" points="374.68,-174 161.98,-174 161.98,-124 374.68,-124 374.68,-174"/>
<text text-anchor="middle" x="268.33" y="-158.8" font-family="Times,serif" font-size="14.00">matr = [[1, 0, 1], [1, 1, 0], [0, 1, 1]]</text>
<text text-anchor="middle" x="268.33" y="-144.8" font-family="Times,serif" font-size="14.00">s = Solution(matr)</text>
<text text-anchor="middle" x="268.33" y="-130.8" font-family="Times,serif" font-size="14.00">s.findPath()</text>
</g>
<!-- 29_calls -->
<g id="node2" class="node">
<title>29_calls</title>
<polygon fill="lightgrey" stroke="black" points="303.95,-74 236.7,-74 232.7,-70 232.7,-38 299.95,-38 303.95,-42 303.95,-74"/>
<polyline fill="none" stroke="black" points="299.95,-70 232.7,-70 "/>
<polyline fill="none" stroke="black" points="299.95,-70 299.95,-38 "/>
<polyline fill="none" stroke="black" points="299.95,-70 303.95,-74 "/>
<text text-anchor="middle" x="268.33" y="-58.8" font-family="Times,serif" font-size="14.00">Solution</text>
<text text-anchor="middle" x="268.33" y="-44.8" font-family="Times,serif" font-size="14.00">s.findPath</text>
</g>
<!-- 29&#45;&gt;29_calls -->
<g id="edge1" class="edge">
<title>29&#45;&gt;29_calls</title>
<path fill="none" stroke="white" stroke-dasharray="5,2" d="M268.33,-123.61C268.33,-111.56 268.33,-96.97 268.33,-84.52"/>
<polygon fill="white" stroke="white" points="271.83,-84.24 268.33,-74.24 264.83,-84.24 271.83,-84.24"/>
<text text-anchor="middle" x="281.16" y="-94.8" font-family="Times,serif" font-size="14.00">calls</text>
</g>
</g>
</svg>
