<?xml version="1.0" encoding="UTF-8" standalone="no"?>
<!DOCTYPE svg PUBLIC "-//W3C//DTD SVG 1.1//EN"
 "http://www.w3.org/Graphics/SVG/1.1/DTD/svg11.dtd">
<!-- Generated by graphviz version 2.42.3 (20191010.1750)
 -->
<!-- Title: cluster/Users/vishweshdkumar/Desktop/gsoc/finalwork/finalrepo/djangotrials/demo_files/demo1.py Pages: 1 -->
<svg width="318pt" height="248pt"
 viewBox="0.00 0.00 318.00 248.00" xmlns="http://www.w3.org/2000/svg" xmlns:xlink="http://www.w3.org/1999/xlink">
<g id="graph0" class="graph" transform="scale(1 1) rotate(0) translate(4 244)">
<title>cluster/Users/vishweshdkumar/Desktop/gsoc/finalwork/finalrepo/djangotrials/demo_files/demo1.py</title>
<g id="clust1" class="cluster">
<title>clusterbinarySearch</title>
<polygon fill="transparent" stroke="black" points="8,-8 8,-232 302,-232 302,-8 8,-8"/>
</g>
<!-- 29 -->
<g id="node1" class="node">
<title>29</title>
<ellipse fill="#68838b" stroke="black" cx="140" cy="-206" rx="81.66" ry="18"/>
<text text-anchor="middle" x="140" y="-201.8" font-family="Times,serif" font-size="14.00">while x is not None:</text>
</g>
<!-- 30 -->
<g id="node2" class="node">
<title>30</title>
<polygon fill="#68838b" stroke="black" points="140,-138 32.79,-120 140,-102 247.21,-120 140,-138"/>
<text text-anchor="middle" x="140" y="-115.8" font-family="Times,serif" font-size="14.00">if x.data == target:</text>
</g>
<!-- 29&#45;&gt;30 -->
<g id="edge3" class="edge">
<title>29&#45;&gt;30</title>
<path fill="none" stroke="black" d="M140,-187.6C140,-176.26 140,-161.23 140,-148.32"/>
<polygon fill="black" stroke="black" points="143.5,-148.1 140,-138.1 136.5,-148.1 143.5,-148.1"/>
<text text-anchor="middle" x="177.53" y="-158.8" font-family="Times,serif" font-size="14.00">x is not None</text>
</g>
<!-- 32 -->
<g id="node3" class="node">
<title>32</title>
<polygon fill="lightblue" stroke="black" points="75.93,-52 16.07,-52 16.07,-16 75.93,-16 75.93,-52"/>
<text text-anchor="middle" x="46" y="-29.8" font-family="Times,serif" font-size="14.00">return x</text>
</g>
<!-- 30&#45;&gt;32 -->
<g id="edge1" class="edge">
<title>30&#45;&gt;32</title>
<path fill="none" stroke="black" d="M106.94,-107.43C94.47,-101.83 80.86,-94.09 70.77,-84 64.44,-77.67 59.43,-69.4 55.61,-61.46"/>
<polygon fill="black" stroke="black" points="58.74,-59.87 51.54,-52.09 52.31,-62.66 58.74,-59.87"/>
<text text-anchor="middle" x="114.12" y="-72.8" font-family="Times,serif" font-size="14.00">x.data == target</text>
</g>
<!-- 33 -->
<g id="node4" class="node">
<title>33</title>
<polygon fill="#68838b" stroke="black" points="194,-52 93.9,-34 194,-16 294.1,-34 194,-52"/>
<text text-anchor="middle" x="194" y="-29.8" font-family="Times,serif" font-size="14.00">if x.data &lt; target:</text>
</g>
<!-- 30&#45;&gt;33 -->
<g id="edge2" class="edge">
<title>30&#45;&gt;33</title>
<path fill="none" stroke="black" d="M149.9,-103.59C157.97,-91.04 169.5,-73.11 178.75,-58.73"/>
<polygon fill="black" stroke="black" points="181.69,-60.61 184.16,-50.31 175.81,-56.83 181.69,-60.61"/>
<text text-anchor="middle" x="217.16" y="-72.8" font-family="Times,serif" font-size="14.00">(x.data != target)</text>
</g>
</g>
</svg>
