<?xml version="1.0" encoding="UTF-8" standalone="no"?>
<!DOCTYPE svg PUBLIC "-//W3C//DTD SVG 1.1//EN"
 "http://www.w3.org/Graphics/SVG/1.1/DTD/svg11.dtd">
<!-- Generated by graphviz version 2.42.3 (20191010.1750)
 -->
<!-- Title: cluster/Users/vishweshdkumar/Desktop/gsoc/finalwork/finalrepo/djangotrials/demo_files/demo1.py Pages: 1 -->
<svg width="259pt" height="248pt"
 viewBox="0.00 0.00 259.00 248.00" xmlns="http://www.w3.org/2000/svg" xmlns:xlink="http://www.w3.org/1999/xlink">
<g id="graph0" class="graph" transform="scale(1 1) rotate(0) translate(4 244)">
<title>cluster/Users/vishweshdkumar/Desktop/gsoc/finalwork/finalrepo/djangotrials/demo_files/demo1.py</title>
<g id="clust1" class="cluster">
<title>clusterbinarySearch</title>
<polygon fill="transparent" stroke="black" points="8,-8 8,-232 243,-232 243,-8 8,-8"/>
</g>
<!-- 30 -->
<g id="node1" class="node">
<title>30</title>
<polygon fill="#68838b" stroke="black" points="125,-224 17.79,-206 125,-188 232.21,-206 125,-224"/>
<text text-anchor="middle" x="125" y="-201.8" font-family="Times,serif" font-size="14.00">if x.data == target:</text>
</g>
<!-- 33 -->
<g id="node2" class="node">
<title>33</title>
<polygon fill="#68838b" stroke="black" points="125,-138 24.9,-120 125,-102 225.1,-120 125,-138"/>
<text text-anchor="middle" x="125" y="-115.8" font-family="Times,serif" font-size="14.00">if x.data &lt; target:</text>
</g>
<!-- 30&#45;&gt;33 -->
<g id="edge3" class="edge">
<title>30&#45;&gt;33</title>
<path fill="none" stroke="black" d="M125,-187.6C125,-176.26 125,-161.23 125,-148.32"/>
<polygon fill="black" stroke="black" points="128.5,-148.1 125,-138.1 121.5,-148.1 128.5,-148.1"/>
<text text-anchor="middle" x="172.16" y="-158.8" font-family="Times,serif" font-size="14.00">(x.data != target)</text>
</g>
<!-- 35 -->
<g id="node3" class="node">
<title>35</title>
<polygon fill="lightblue" stroke="black" points="93.66,-52 16.34,-52 16.34,-16 93.66,-16 93.66,-52"/>
<text text-anchor="middle" x="55" y="-29.8" font-family="Times,serif" font-size="14.00">x = x.nextr</text>
</g>
<!-- 33&#45;&gt;35 -->
<g id="edge1" class="edge">
<title>33&#45;&gt;35</title>
<path fill="none" stroke="black" d="M84.88,-109.14C72.03,-103.88 59.19,-95.93 51.66,-84 47.6,-77.55 46.78,-69.64 47.43,-62.06"/>
<polygon fill="black" stroke="black" points="50.9,-62.55 49.07,-52.11 43.99,-61.41 50.9,-62.55"/>
<text text-anchor="middle" x="91.17" y="-72.8" font-family="Times,serif" font-size="14.00">x.data &lt; target</text>
</g>
<!-- 37 -->
<g id="node4" class="node">
<title>37</title>
<polygon fill="lightblue" stroke="black" points="188.39,-52 111.61,-52 111.61,-16 188.39,-16 188.39,-52"/>
<text text-anchor="middle" x="150" y="-29.8" font-family="Times,serif" font-size="14.00">x = x.nextl</text>
</g>
<!-- 33&#45;&gt;37 -->
<g id="edge2" class="edge">
<title>33&#45;&gt;37</title>
<path fill="none" stroke="black" d="M129.82,-102.8C133.28,-91.18 138.02,-75.25 142.04,-61.75"/>
<polygon fill="black" stroke="black" points="145.44,-62.59 144.94,-52.01 138.73,-60.6 145.44,-62.59"/>
<text text-anchor="middle" x="186.78" y="-72.8" font-family="Times,serif" font-size="14.00">(x.data &gt;= target)</text>
</g>
</g>
</svg>
