<?xml version="1.0" encoding="UTF-8" standalone="no"?>
<!DOCTYPE svg PUBLIC "-//W3C//DTD SVG 1.1//EN"
 "http://www.w3.org/Graphics/SVG/1.1/DTD/svg11.dtd">
<!-- Generated by graphviz version 2.42.3 (20191010.1750)
 -->
<!-- Title: cluster/Users/vishweshdkumar/Desktop/gsoc/finalwork/finalrepo/djangotrials/demo_files/demo1.py Pages: 1 -->
<svg width="240pt" height="235pt"
 viewBox="0.00 0.00 240.00 235.00" xmlns="http://www.w3.org/2000/svg" xmlns:xlink="http://www.w3.org/1999/xlink">
<g id="graph0" class="graph" transform="scale(1 1) rotate(0) translate(4 231)">
<title>cluster/Users/vishweshdkumar/Desktop/gsoc/finalwork/finalrepo/djangotrials/demo_files/demo1.py</title>
<g id="clust1" class="cluster">
<title>clusterbinarySearch</title>
<polygon fill="transparent" stroke="black" points="8,-8 8,-219 224,-219 224,-8 8,-8"/>
</g>
<!-- 29 -->
<g id="node1" class="node">
<title>29</title>
<ellipse fill="#68838b" stroke="black" cx="116" cy="-34" rx="81.66" ry="18"/>
<text text-anchor="middle" x="116" y="-29.8" font-family="Times,serif" font-size="14.00">while x is not None:</text>
</g>
<!-- 33 -->
<g id="node2" class="node">
<title>33</title>
<polygon fill="#68838b" stroke="black" points="116,-211 15.9,-193 116,-175 216.1,-193 116,-211"/>
<text text-anchor="middle" x="116" y="-188.8" font-family="Times,serif" font-size="14.00">if x.data &lt; target:</text>
</g>
<!-- 35 -->
<g id="node3" class="node">
<title>35</title>
<polygon fill="lightblue" stroke="black" points="154.66,-125 77.34,-125 77.34,-89 154.66,-89 154.66,-125"/>
<text text-anchor="middle" x="116" y="-102.8" font-family="Times,serif" font-size="14.00">x = x.nextr</text>
</g>
<!-- 33&#45;&gt;35 -->
<g id="edge2" class="edge">
<title>33&#45;&gt;35</title>
<path fill="none" stroke="red" d="M116,-174.6C116,-163.26 116,-148.23 116,-135.32"/>
<polygon fill="red" stroke="red" points="119.5,-135.1 116,-125.1 112.5,-135.1 119.5,-135.1"/>
<text text-anchor="middle" x="156.17" y="-145.8" font-family="Times,serif" font-size="14.00">x.data &lt; target</text>
</g>
<!-- 35&#45;&gt;29 -->
<g id="edge1" class="edge">
<title>35&#45;&gt;29</title>
<path fill="none" stroke="black" d="M116,-88.81C116,-80.79 116,-71.05 116,-62.07"/>
<polygon fill="black" stroke="black" points="119.5,-62.03 116,-52.03 112.5,-62.03 119.5,-62.03"/>
</g>
</g>
</svg>
