<?xml version="1.0" encoding="UTF-8" standalone="no"?>
<!DOCTYPE svg PUBLIC "-//W3C//DTD SVG 1.1//EN"
 "http://www.w3.org/Graphics/SVG/1.1/DTD/svg11.dtd">
<!-- Generated by graphviz version 2.42.3 (20191010.1750)
 -->
<!-- Title: cluster/Users/vishweshdkumar/Desktop/gsoc/finalwork/finalrepo/djangotrials/demo_files/demo2.py Pages: 1 -->
<svg width="545pt" height="292pt"
 viewBox="0.00 0.00 544.66 292.00" xmlns="http://www.w3.org/2000/svg" xmlns:xlink="http://www.w3.org/1999/xlink">
<g id="graph0" class="graph" transform="scale(1 1) rotate(0) translate(4 288)">
<title>cluster/Users/vishweshdkumar/Desktop/gsoc/finalwork/finalrepo/djangotrials/demo_files/demo2.py</title>
<polygon fill="darkgray" stroke="transparent" points="-4,4 -4,-288 540.66,-288 540.66,4 -4,4"/>
<text text-anchor="middle" x="268.33" y="-6.8" font-family="Times,serif" font-size="14.00">/Users/vishweshdkumar/Desktop/gsoc/finalwork/finalrepo/djangotrials/demo_files/demo2.py</text>
<g id="clust1" class="cluster">
<title>clusterhasPath</title>
<polygon fill="darkgray" stroke="black" points="34.91,-30 34.91,-276 498.91,-276 498.91,-30 34.91,-30"/>
<text text-anchor="middle" x="266.91" y="-260.8" font-family="Times,serif" font-size="14.00">hasPath</text>
</g>
<!-- 10 -->
<g id="node1" class="node">
<title>10</title>
<polygon fill="lightblue" stroke="black" points="362.39,-246 109.42,-246 109.42,-210 362.39,-210 362.39,-246"/>
<text text-anchor="middle" x="235.91" y="-223.8" font-family="Times,serif" font-size="14.00">n, m = len(self.matrix), len(self.matrix[0])</text>
</g>
<!-- 10_calls -->
<g id="node2" class="node">
<title>10_calls</title>
<polygon fill="lightgrey" stroke="black" points="96.91,-160 46.91,-160 42.91,-156 42.91,-124 92.91,-124 96.91,-128 96.91,-160"/>
<polyline fill="none" stroke="black" points="92.91,-156 42.91,-156 "/>
<polyline fill="none" stroke="black" points="92.91,-156 92.91,-124 "/>
<polyline fill="none" stroke="black" points="92.91,-156 96.91,-160 "/>
<text text-anchor="middle" x="69.91" y="-144.8" font-family="Times,serif" font-size="14.00">len</text>
<text text-anchor="middle" x="69.91" y="-130.8" font-family="Times,serif" font-size="14.00">len</text>
</g>
<!-- 10&#45;&gt;10_calls -->
<g id="edge1" class="edge">
<title>10&#45;&gt;10_calls</title>
<path fill="none" stroke="white" stroke-dasharray="5,2" d="M201.91,-209.8C174.05,-195.7 134.7,-175.79 106.22,-161.37"/>
<polygon fill="white" stroke="white" points="107.51,-158.11 97.01,-156.71 104.35,-164.35 107.51,-158.11"/>
<text text-anchor="middle" x="174.73" y="-180.8" font-family="Times,serif" font-size="14.00">calls</text>
</g>
<!-- 31 -->
<g id="node3" class="node">
<title>31</title>
<polygon fill="#68838b" stroke="black" points="302.91,-160 114.87,-142 302.91,-124 490.94,-142 302.91,-160"/>
<text text-anchor="middle" x="302.91" y="-137.8" font-family="Times,serif" font-size="14.00">if i &gt;= n or i &lt; 0 or j &gt;= m or j &lt; 0:</text>
</g>
<!-- 10&#45;&gt;31 -->
<g id="edge4" class="edge">
<title>10&#45;&gt;31</title>
<path fill="none" stroke="red" d="M249.79,-209.6C259.63,-197.26 272.96,-180.55 283.8,-166.96"/>
<polygon fill="red" stroke="red" points="286.68,-168.96 290.18,-158.96 281.2,-164.6 286.68,-168.96"/>
</g>
<!-- 11 -->
<g id="node4" class="node">
<title>11</title>
<polygon fill="lightblue" stroke="black" points="125.39,-74 42.43,-74 42.43,-38 125.39,-38 125.39,-74"/>
<text text-anchor="middle" x="83.91" y="-51.8" font-family="Times,serif" font-size="14.00">return False</text>
</g>
<!-- 31&#45;&gt;11 -->
<g id="edge2" class="edge">
<title>31&#45;&gt;11</title>
<path fill="none" stroke="black" d="M208.34,-133.05C165.38,-127.72 120.52,-119.2 104.1,-106 97.17,-100.43 92.59,-92.07 89.58,-83.84"/>
<polygon fill="black" stroke="black" points="92.86,-82.6 86.63,-74.04 86.16,-84.62 92.86,-82.6"/>
<text text-anchor="middle" x="193.31" y="-94.8" font-family="Times,serif" font-size="14.00">i &gt;= n or i &lt; 0 or j &gt;= m or j &lt; 0</text>
</g>
<!-- 12 -->
<g id="node5" class="node">
<title>12</title>
<polygon fill="#68838b" stroke="black" points="275.91,-74 143.23,-56 275.91,-38 408.58,-56 275.91,-74"/>
<text text-anchor="middle" x="275.91" y="-51.8" font-family="Times,serif" font-size="14.00">if self.matrix[i][j] == 0:</text>
</g>
<!-- 31&#45;&gt;12 -->
<g id="edge3" class="edge">
<title>31&#45;&gt;12</title>
<path fill="none" stroke="black" d="M297.57,-124.4C293.8,-112.67 288.67,-96.7 284.34,-83.24"/>
<polygon fill="black" stroke="black" points="287.62,-82.01 281.23,-73.56 280.96,-84.15 287.62,-82.01"/>
<text text-anchor="middle" x="400.33" y="-94.8" font-family="Times,serif" font-size="14.00">(not (i &gt;= n or i &lt; 0 or j &gt;= m or j &lt; 0))</text>
</g>
</g>
</svg>
