<?xml version="1.0" encoding="UTF-8" standalone="no"?>
<!DOCTYPE svg PUBLIC "-//W3C//DTD SVG 1.1//EN"
 "http://www.w3.org/Graphics/SVG/1.1/DTD/svg11.dtd">
<!-- Generated by graphviz version 2.42.3 (20191010.1750)
 -->
<!-- Title: cluster/Users/vishweshdkumar/Desktop/gsoc/finalwork/finalrepo/djangotrials/demo_files/demo2.py Pages: 1 -->
<svg width="545pt" height="292pt"
 viewBox="0.00 0.00 544.66 292.00" xmlns="http://www.w3.org/2000/svg" xmlns:xlink="http://www.w3.org/1999/xlink">
<g id="graph0" class="graph" transform="scale(1 1) rotate(0) translate(4 288)">
<title>cluster/Users/vishweshdkumar/Desktop/gsoc/finalwork/finalrepo/djangotrials/demo_files/demo2.py</title>
<polygon fill="darkgray" stroke="transparent" points="-4,4 -4,-288 540.66,-288 540.66,4 -4,4"/>
<text text-anchor="middle" x="268.33" y="-6.8" font-family="Times,serif" font-size="14.00">/Users/vishweshdkumar/Desktop/gsoc/finalwork/finalrepo/djangotrials/demo_files/demo2.py</text>
<g id="clust1" class="cluster">
<title>clusterhasPath</title>
<polygon fill="darkgray" stroke="black" points="71.91,-30 71.91,-276 463.91,-276 463.91,-30 71.91,-30"/>
<text text-anchor="middle" x="267.91" y="-260.8" font-family="Times,serif" font-size="14.00">hasPath</text>
</g>
<!-- 31 -->
<g id="node1" class="node">
<title>31</title>
<polygon fill="#68838b" stroke="black" points="267.91,-246 79.87,-228 267.91,-210 455.94,-228 267.91,-246"/>
<text text-anchor="middle" x="267.91" y="-223.8" font-family="Times,serif" font-size="14.00">if i &gt;= n or i &lt; 0 or j &gt;= m or j &lt; 0:</text>
</g>
<!-- 12 -->
<g id="node2" class="node">
<title>12</title>
<polygon fill="#68838b" stroke="black" points="236.91,-160 104.23,-142 236.91,-124 369.58,-142 236.91,-160"/>
<text text-anchor="middle" x="236.91" y="-137.8" font-family="Times,serif" font-size="14.00">if self.matrix[i][j] == 0:</text>
</g>
<!-- 31&#45;&gt;12 -->
<g id="edge3" class="edge">
<title>31&#45;&gt;12</title>
<path fill="none" stroke="red" d="M261.78,-210.4C257.42,-198.59 251.48,-182.49 246.5,-168.98"/>
<polygon fill="red" stroke="red" points="249.66,-167.45 242.91,-159.28 243.09,-169.87 249.66,-167.45"/>
<text text-anchor="middle" x="363.33" y="-180.8" font-family="Times,serif" font-size="14.00">(not (i &gt;= n or i &lt; 0 or j &gt;= m or j &lt; 0))</text>
</g>
<!-- 14 -->
<g id="node3" class="node">
<title>14</title>
<polygon fill="lightblue" stroke="black" points="197.94,-74 95.87,-74 95.87,-38 197.94,-38 197.94,-74"/>
<text text-anchor="middle" x="146.91" y="-58.8" font-family="Times,serif" font-size="14.00">self.dp[i][j] = 3</text>
<text text-anchor="middle" x="146.91" y="-44.8" font-family="Times,serif" font-size="14.00">return False</text>
</g>
<!-- 12&#45;&gt;14 -->
<g id="edge1" class="edge">
<title>12&#45;&gt;14</title>
<path fill="none" stroke="black" d="M208.89,-127.69C198.58,-121.94 187.27,-114.56 178.43,-106 171.57,-99.35 165.47,-90.94 160.52,-82.97"/>
<polygon fill="black" stroke="black" points="163.51,-81.14 155.43,-74.28 157.46,-84.68 163.51,-81.14"/>
<text text-anchor="middle" x="236.15" y="-94.8" font-family="Times,serif" font-size="14.00">self.matrix[i][j] == 0</text>
</g>
<!-- 15 -->
<g id="node4" class="node">
<title>15</title>
<polygon fill="#68838b" stroke="black" points="327.91,-74 215.51,-56 327.91,-38 440.3,-56 327.91,-74"/>
<text text-anchor="middle" x="327.91" y="-51.8" font-family="Times,serif" font-size="14.00">if self.dp[i][j] == 1:</text>
</g>
<!-- 12&#45;&gt;15 -->
<g id="edge2" class="edge">
<title>12&#45;&gt;15</title>
<path fill="none" stroke="black" d="M264.6,-127.55C274.81,-121.79 286.05,-114.43 294.91,-106 302.33,-98.94 308.98,-89.93 314.34,-81.57"/>
<polygon fill="black" stroke="black" points="317.42,-83.23 319.61,-72.87 311.43,-79.6 317.42,-83.23"/>
<text text-anchor="middle" x="367.19" y="-94.8" font-family="Times,serif" font-size="14.00">(self.matrix[i][j] != 0)</text>
</g>
</g>
</svg>
