<?xml version="1.0" encoding="UTF-8" standalone="no"?>
<!DOCTYPE svg PUBLIC "-//W3C//DTD SVG 1.1//EN"
 "http://www.w3.org/Graphics/SVG/1.1/DTD/svg11.dtd">
<!-- Generated by graphviz version 2.42.3 (20191010.1750)
 -->
<!-- Title: cluster/Users/vishweshdkumar/Desktop/gsoc/finalwork/finalrepo/djangotrials/demo_files/demo2.py Pages: 1 -->
<svg width="292pt" height="218pt"
 viewBox="0.00 0.00 292.00 218.00" xmlns="http://www.w3.org/2000/svg" xmlns:xlink="http://www.w3.org/1999/xlink">
<g id="graph0" class="graph" transform="scale(1 1) rotate(0) translate(4 214)">
<title>cluster/Users/vishweshdkumar/Desktop/gsoc/finalwork/finalrepo/djangotrials/demo_files/demo2.py</title>
<g id="clust1" class="cluster">
<title>clusterfindPath</title>
<polygon fill="transparent" stroke="black" points="8,-8 8,-202 276,-202 276,-8 8,-8"/>
</g>
<!-- 6 -->
<g id="curr_block" class="node">
<title>6</title>
<polygon fill="lightblue" stroke="black" points="268.48,-194 15.52,-194 15.52,-130 268.48,-130 268.48,-194"/>
<text text-anchor="middle" x="142" y="-178.8" font-family="Times,serif" font-size="14.00">n, m = len(self.matrix), len(self.matrix[0])</text>
<text text-anchor="middle" x="142" y="-164.8" font-family="Times,serif" font-size="14.00">self.dp = [([0] * m) for i in range(n)]</text>
<text text-anchor="middle" x="142" y="-150.8" font-family="Times,serif" font-size="14.00">self.dp[&#45;1][&#45;1] = 4</text>
<text text-anchor="middle" x="142" y="-136.8" font-family="Times,serif" font-size="14.00">ans = self.hasPath(0, 0)</text>
</g>
<!-- 6_calls -->
<g id="node2" class="node">
<title>6_calls</title>
<polygon fill="lightgrey" stroke="black" points="125.77,-80 46.23,-80 42.23,-76 42.23,-16 121.77,-16 125.77,-20 125.77,-80"/>
<polyline fill="none" stroke="black" points="121.77,-76 42.23,-76 "/>
<polyline fill="none" stroke="black" points="121.77,-76 121.77,-16 "/>
<polyline fill="none" stroke="black" points="121.77,-76 125.77,-80 "/>
<text text-anchor="middle" x="84" y="-64.8" font-family="Times,serif" font-size="14.00">len</text>
<text text-anchor="middle" x="84" y="-50.8" font-family="Times,serif" font-size="14.00">len</text>
<text text-anchor="middle" x="84" y="-36.8" font-family="Times,serif" font-size="14.00">range</text>
<text text-anchor="middle" x="84" y="-22.8" font-family="Times,serif" font-size="14.00">self.hasPath</text>
</g>
<!-- 6&#45;&gt;6_calls -->
<g id="edge1" class="edge">
<title>6&#45;&gt;6_calls</title>
<path fill="none" stroke="white" stroke-dasharray="5,2" d="M125.84,-129.8C119.31,-117.18 111.68,-102.45 104.74,-89.05"/>
<polygon fill="white" stroke="white" points="107.78,-87.3 100.07,-80.03 101.56,-90.52 107.78,-87.3"/>
<text text-anchor="middle" x="128.83" y="-100.8" font-family="Times,serif" font-size="14.00">calls</text>
</g>
<!-- 34 -->
<g id="node3" class="node">
<title>34</title>
<polygon fill="#68838b" stroke="black" points="189,-66 143.59,-48 189,-30 234.41,-48 189,-66"/>
<text text-anchor="middle" x="189" y="-43.8" font-family="Times,serif" font-size="14.00">if ans:</text>
</g>
<!-- 6&#45;&gt;34 -->
<g id="edge2" class="edge">
<title>6&#45;&gt;34</title>
<path fill="none" stroke="black" d="M155.09,-129.8C162.6,-111.9 171.9,-89.76 178.85,-73.18"/>
<polygon fill="black" stroke="black" points="182.2,-74.24 182.84,-63.67 175.75,-71.54 182.2,-74.24"/>
</g>
</g>
</svg>
