<?xml version="1.0" encoding="UTF-8" standalone="no"?>
<!DOCTYPE svg PUBLIC "-//W3C//DTD SVG 1.1//EN"
 "http://www.w3.org/Graphics/SVG/1.1/DTD/svg11.dtd">
<!-- Generated by graphviz version 2.42.3 (20191010.1750)
 -->
<!-- Title: cluster/Users/vishweshdkumar/Desktop/gsoc/finalwork/finalrepo/djangotrials/demo_files/demo2.py Pages: 1 -->
<svg width="545pt" height="206pt"
 viewBox="0.00 0.00 544.66 206.00" xmlns="http://www.w3.org/2000/svg" xmlns:xlink="http://www.w3.org/1999/xlink">
<g id="graph0" class="graph" transform="scale(1 1) rotate(0) translate(4 202)">
<title>cluster/Users/vishweshdkumar/Desktop/gsoc/finalwork/finalrepo/djangotrials/demo_files/demo2.py</title>
<polygon fill="darkgray" stroke="transparent" points="-4,4 -4,-202 540.66,-202 540.66,4 -4,4"/>
<text text-anchor="middle" x="268.33" y="-6.8" font-family="Times,serif" font-size="14.00">/Users/vishweshdkumar/Desktop/gsoc/finalwork/finalrepo/djangotrials/demo_files/demo2.py</text>
<g id="clust1" class="cluster">
<title>clusterhasPath</title>
<polygon fill="darkgray" stroke="black" points="72.33,-30 72.33,-190 464.33,-190 464.33,-30 72.33,-30"/>
<text text-anchor="middle" x="268.33" y="-174.8" font-family="Times,serif" font-size="14.00">hasPath</text>
</g>
<!-- 31 -->
<g id="node1" class="node">
<title>31</title>
<polygon fill="#68838b" stroke="black" points="268.33,-160 80.29,-142 268.33,-124 456.36,-142 268.33,-160"/>
<text text-anchor="middle" x="268.33" y="-137.8" font-family="Times,serif" font-size="14.00">if i &gt;= n or i &lt; 0 or j &gt;= m or j &lt; 0:</text>
</g>
<!-- 11 -->
<g id="node2" class="node">
<title>11</title>
<polygon fill="lightblue" stroke="black" points="309.81,-74 226.85,-74 226.85,-38 309.81,-38 309.81,-74"/>
<text text-anchor="middle" x="268.33" y="-51.8" font-family="Times,serif" font-size="14.00">return False</text>
</g>
<!-- 31&#45;&gt;11 -->
<g id="edge1" class="edge">
<title>31&#45;&gt;11</title>
<path fill="none" stroke="red" d="M268.33,-123.6C268.33,-112.26 268.33,-97.23 268.33,-84.32"/>
<polygon fill="red" stroke="red" points="271.83,-84.1 268.33,-74.1 264.83,-84.1 271.83,-84.1"/>
<text text-anchor="middle" x="357.73" y="-94.8" font-family="Times,serif" font-size="14.00">i &gt;= n or i &lt; 0 or j &gt;= m or j &lt; 0</text>
</g>
</g>
</svg>
