<?xml version="1.0" encoding="UTF-8" standalone="no"?>
<!DOCTYPE svg PUBLIC "-//W3C//DTD SVG 1.1//EN"
 "http://www.w3.org/Graphics/SVG/1.1/DTD/svg11.dtd">
<!-- Generated by graphviz version 2.42.3 (20191010.1750)
 -->
<!-- Title: cluster/Users/vishweshdkumar/Desktop/gsoc/finalwork/finalrepo/djangotrials/demo_files/demo2.py Pages: 1 -->
<svg width="545pt" height="276pt"
 viewBox="0.00 0.00 544.66 276.00" xmlns="http://www.w3.org/2000/svg" xmlns:xlink="http://www.w3.org/1999/xlink">
<g id="graph0" class="graph" transform="scale(1 1) rotate(0) translate(4 272)">
<title>cluster/Users/vishweshdkumar/Desktop/gsoc/finalwork/finalrepo/djangotrials/demo_files/demo2.py</title>
<polygon fill="darkgray" stroke="transparent" points="-4,4 -4,-272 540.66,-272 540.66,4 -4,4"/>
<text text-anchor="middle" x="268.33" y="-6.8" font-family="Times,serif" font-size="14.00">/Users/vishweshdkumar/Desktop/gsoc/finalwork/finalrepo/djangotrials/demo_files/demo2.py</text>
<g id="clust1" class="cluster">
<title>clusterfindPath</title>
<polygon fill="darkgray" stroke="black" points="134.33,-30 134.33,-260 402.33,-260 402.33,-30 134.33,-30"/>
<text text-anchor="middle" x="268.33" y="-244.8" font-family="Times,serif" font-size="14.00">findPath</text>
</g>
<!-- 6 -->
<g id="node1" class="node">
<title>6</title>
<polygon fill="lightblue" stroke="black" points="394.81,-230 141.85,-230 141.85,-152 394.81,-152 394.81,-230"/>
<text text-anchor="middle" x="268.33" y="-214.8" font-family="Times,serif" font-size="14.00">n, m = len(self.matrix), len(self.matrix[0])</text>
<text text-anchor="middle" x="268.33" y="-200.8" font-family="Times,serif" font-size="14.00">self.dp = [([0] * m) for i in range(n)]</text>
<text text-anchor="middle" x="268.33" y="-186.8" font-family="Times,serif" font-size="14.00">self.dp[&#45;1][&#45;1] = 4</text>
<text text-anchor="middle" x="268.33" y="-172.8" font-family="Times,serif" font-size="14.00">ans = self.hasPath(0, 0)</text>
<text text-anchor="middle" x="268.33" y="-158.8" font-family="Times,serif" font-size="14.00">return ans</text>
</g>
<!-- 6_calls -->
<g id="node2" class="node">
<title>6_calls</title>
<polygon fill="lightgrey" stroke="black" points="310.1,-102 230.56,-102 226.56,-98 226.56,-38 306.1,-38 310.1,-42 310.1,-102"/>
<polyline fill="none" stroke="black" points="306.1,-98 226.56,-98 "/>
<polyline fill="none" stroke="black" points="306.1,-98 306.1,-38 "/>
<polyline fill="none" stroke="black" points="306.1,-98 310.1,-102 "/>
<text text-anchor="middle" x="268.33" y="-86.8" font-family="Times,serif" font-size="14.00">len</text>
<text text-anchor="middle" x="268.33" y="-72.8" font-family="Times,serif" font-size="14.00">len</text>
<text text-anchor="middle" x="268.33" y="-58.8" font-family="Times,serif" font-size="14.00">range</text>
<text text-anchor="middle" x="268.33" y="-44.8" font-family="Times,serif" font-size="14.00">self.hasPath</text>
</g>
<!-- 6&#45;&gt;6_calls -->
<g id="edge1" class="edge">
<title>6&#45;&gt;6_calls</title>
<path fill="none" stroke="white" stroke-dasharray="5,2" d="M268.33,-151.69C268.33,-139.17 268.33,-125.2 268.33,-112.45"/>
<polygon fill="white" stroke="white" points="271.83,-112.09 268.33,-102.09 264.83,-112.09 271.83,-112.09"/>
<text text-anchor="middle" x="281.16" y="-122.8" font-family="Times,serif" font-size="14.00">calls</text>
</g>
</g>
</svg>
