<?xml version="1.0" encoding="UTF-8" standalone="no"?>
<!DOCTYPE svg PUBLIC "-//W3C//DTD SVG 1.1//EN"
 "http://www.w3.org/Graphics/SVG/1.1/DTD/svg11.dtd">
<!-- Generated by graphviz version 2.42.3 (20191010.1750)
 -->
<!-- Title: cluster/Users/vishweshdkumar/Desktop/gsoc/finalwork/finalrepo/djangotrials/demo_files/demo2.py Pages: 1 -->
<svg width="488pt" height="162pt"
 viewBox="0.00 0.00 488.00 162.00" xmlns="http://www.w3.org/2000/svg" xmlns:xlink="http://www.w3.org/1999/xlink">
<g id="graph0" class="graph" transform="scale(1 1) rotate(0) translate(4 158)">
<title>cluster/Users/vishweshdkumar/Desktop/gsoc/finalwork/finalrepo/djangotrials/demo_files/demo2.py</title>
<g id="clust1" class="cluster">
<title>clusterhasPath</title>
<polygon fill="transparent" stroke="black" points="8,-8 8,-146 472,-146 472,-8 8,-8"/>
</g>
<!-- 13 -->
<g id="node1" class="node">
<title>13</title>
<polygon fill="lightblue" stroke="black" points="254.3,-138 109.7,-138 109.7,-102 254.3,-102 254.3,-138"/>
<text text-anchor="middle" x="182" y="-122.8" font-family="Times,serif" font-size="14.00">n = len(self.matrix)</text>
<text text-anchor="middle" x="182" y="-108.8" font-family="Times,serif" font-size="14.00">m = len(self.matrix[0])</text>
</g>
<!-- 13_calls -->
<g id="node2" class="node">
<title>13_calls</title>
<polygon fill="lightgrey" stroke="black" points="70,-52 20,-52 16,-48 16,-16 66,-16 70,-20 70,-52"/>
<polyline fill="none" stroke="black" points="66,-48 16,-48 "/>
<polyline fill="none" stroke="black" points="66,-48 66,-16 "/>
<polyline fill="none" stroke="black" points="66,-48 70,-52 "/>
<text text-anchor="middle" x="43" y="-36.8" font-family="Times,serif" font-size="14.00">len</text>
<text text-anchor="middle" x="43" y="-22.8" font-family="Times,serif" font-size="14.00">len</text>
</g>
<!-- 13&#45;&gt;13_calls -->
<g id="edge1" class="edge">
<title>13&#45;&gt;13_calls</title>
<path fill="none" stroke="white" stroke-dasharray="5,2" d="M153.54,-101.8C131.84,-88.69 101.84,-70.56 78.57,-56.49"/>
<polygon fill="white" stroke="white" points="80.38,-53.5 70.01,-51.32 76.76,-59.49 80.38,-53.5"/>
<text text-anchor="middle" x="132.83" y="-72.8" font-family="Times,serif" font-size="14.00">calls</text>
</g>
<!-- 35 -->
<g id="node3" class="node">
<title>35</title>
<polygon fill="#68838b" stroke="black" points="276,-52 87.96,-34 276,-16 464.04,-34 276,-52"/>
<text text-anchor="middle" x="276" y="-29.8" font-family="Times,serif" font-size="14.00">if i &gt;= n or i &lt; 0 or j &gt;= m or j &lt; 0:</text>
</g>
<!-- 13&#45;&gt;35 -->
<g id="edge2" class="edge">
<title>13&#45;&gt;35</title>
<path fill="none" stroke="black" d="M201.48,-101.6C215.86,-88.75 235.54,-71.15 251.07,-57.28"/>
<polygon fill="black" stroke="black" points="253.64,-59.68 258.76,-50.41 248.97,-54.46 253.64,-59.68"/>
</g>
</g>
</svg>
