<?xml version="1.0" encoding="UTF-8" standalone="no"?>
<!DOCTYPE svg PUBLIC "-//W3C//DTD SVG 1.1//EN"
 "http://www.w3.org/Graphics/SVG/1.1/DTD/svg11.dtd">
<!-- Generated by graphviz version 2.42.3 (20191010.1750)
 -->
<!-- Title: cluster/Users/vishweshdkumar/Desktop/gsoc/finalwork/finalrepo/djangotrials/demo_files/demo2.py Pages: 1 -->
<svg width="491pt" height="248pt"
 viewBox="0.00 0.00 490.85 248.00" xmlns="http://www.w3.org/2000/svg" xmlns:xlink="http://www.w3.org/1999/xlink">
<g id="graph0" class="graph" transform="scale(1 1) rotate(0) translate(4 244)">
<title>cluster/Users/vishweshdkumar/Desktop/gsoc/finalwork/finalrepo/djangotrials/demo_files/demo2.py</title>
<polygon fill="darkgray" stroke="transparent" points="-4,4 -4,-244 486.85,-244 486.85,4 -4,4"/>
<g id="clust1" class="cluster">
<title>clusterhasPath</title>
<polygon fill="darkgray" stroke="black" points="8,-8 8,-232 472,-232 472,-8 8,-8"/>
</g>
<!-- 10 -->
<g id="node1" class="node">
<title>10</title>
<polygon fill="lightblue" stroke="black" points="335.48,-224 82.52,-224 82.52,-188 335.48,-188 335.48,-224"/>
<text text-anchor="middle" x="209" y="-201.8" font-family="Times,serif" font-size="14.00">n, m = len(self.matrix), len(self.matrix[0])</text>
</g>
<!-- 10_calls -->
<g id="node2" class="node">
<title>10_calls</title>
<polygon fill="lightgrey" stroke="black" points="70,-138 20,-138 16,-134 16,-102 66,-102 70,-106 70,-138"/>
<polyline fill="none" stroke="black" points="66,-134 16,-134 "/>
<polyline fill="none" stroke="black" points="66,-134 66,-102 "/>
<polyline fill="none" stroke="black" points="66,-134 70,-138 "/>
<text text-anchor="middle" x="43" y="-122.8" font-family="Times,serif" font-size="14.00">len</text>
<text text-anchor="middle" x="43" y="-108.8" font-family="Times,serif" font-size="14.00">len</text>
</g>
<!-- 10&#45;&gt;10_calls -->
<g id="edge1" class="edge">
<title>10&#45;&gt;10_calls</title>
<path fill="none" stroke="white" stroke-dasharray="5,2" d="M175.01,-187.8C147.14,-173.7 107.79,-153.79 79.31,-139.37"/>
<polygon fill="white" stroke="white" points="80.6,-136.11 70.1,-134.71 77.44,-142.35 80.6,-136.11"/>
<text text-anchor="middle" x="147.83" y="-158.8" font-family="Times,serif" font-size="14.00">calls</text>
</g>
<!-- 31 -->
<g id="node3" class="node">
<title>31</title>
<polygon fill="#68838b" stroke="black" points="276,-138 87.96,-120 276,-102 464.04,-120 276,-138"/>
<text text-anchor="middle" x="276" y="-115.8" font-family="Times,serif" font-size="14.00">if i &gt;= n or i &lt; 0 or j &gt;= m or j &lt; 0:</text>
</g>
<!-- 10&#45;&gt;31 -->
<g id="edge4" class="edge">
<title>10&#45;&gt;31</title>
<path fill="none" stroke="red" d="M222.88,-187.6C232.72,-175.26 246.05,-158.55 256.89,-144.96"/>
<polygon fill="red" stroke="red" points="259.77,-146.96 263.27,-136.96 254.3,-142.6 259.77,-146.96"/>
</g>
<!-- 11 -->
<g id="node4" class="node">
<title>11</title>
<polygon fill="lightblue" stroke="black" points="98.48,-52 15.52,-52 15.52,-16 98.48,-16 98.48,-52"/>
<text text-anchor="middle" x="57" y="-29.8" font-family="Times,serif" font-size="14.00">return False</text>
</g>
<!-- 31&#45;&gt;11 -->
<g id="edge2" class="edge">
<title>31&#45;&gt;11</title>
<path fill="none" stroke="black" d="M181.43,-111.05C138.48,-105.72 93.62,-97.2 77.19,-84 70.26,-78.43 65.68,-70.07 62.67,-61.84"/>
<polygon fill="black" stroke="black" points="65.96,-60.6 59.72,-52.04 59.25,-62.62 65.96,-60.6"/>
<text text-anchor="middle" x="166.4" y="-72.8" font-family="Times,serif" font-size="14.00">i &gt;= n or i &lt; 0 or j &gt;= m or j &lt; 0</text>
</g>
<!-- 12 -->
<g id="node5" class="node">
<title>12</title>
<polygon fill="#68838b" stroke="black" points="249,-52 116.33,-34 249,-16 381.67,-34 249,-52"/>
<text text-anchor="middle" x="249" y="-29.8" font-family="Times,serif" font-size="14.00">if self.matrix[i][j] == 0:</text>
</g>
<!-- 31&#45;&gt;12 -->
<g id="edge3" class="edge">
<title>31&#45;&gt;12</title>
<path fill="none" stroke="black" d="M270.67,-102.4C266.89,-90.67 261.76,-74.7 257.44,-61.24"/>
<polygon fill="black" stroke="black" points="260.72,-60.01 254.32,-51.56 254.05,-62.15 260.72,-60.01"/>
<text text-anchor="middle" x="373.42" y="-72.8" font-family="Times,serif" font-size="14.00">(not (i &gt;= n or i &lt; 0 or j &gt;= m or j &lt; 0))</text>
</g>
</g>
</svg>
