<?xml version="1.0" encoding="UTF-8" standalone="no"?>
<!DOCTYPE svg PUBLIC "-//W3C//DTD SVG 1.1//EN"
 "http://www.w3.org/Graphics/SVG/1.1/DTD/svg11.dtd">
<!-- Generated by graphviz version 2.42.3 (20191010.1750)
 -->
<!-- Title: cluster/Users/vishweshdkumar/Desktop/gsoc/finalwork/finalrepo/djangotrials/demo_files/demo2.py Pages: 1 -->
<svg width="551pt" height="334pt"
 viewBox="0.00 0.00 550.85 334.00" xmlns="http://www.w3.org/2000/svg" xmlns:xlink="http://www.w3.org/1999/xlink">
<g id="graph0" class="graph" transform="scale(1 1) rotate(0) translate(4 330)">
<title>cluster/Users/vishweshdkumar/Desktop/gsoc/finalwork/finalrepo/djangotrials/demo_files/demo2.py</title>
<g id="clust1" class="cluster">
<title>clusterhasPath</title>
<polygon fill="transparent" stroke="black" points="8,-8 8,-318 503,-318 503,-8 8,-8"/>
</g>
<!-- 13 -->
<g id="node1" class="node">
<title>13</title>
<polygon fill="lightblue" stroke="black" points="254.3,-310 109.7,-310 109.7,-274 254.3,-274 254.3,-310"/>
<text text-anchor="middle" x="182" y="-294.8" font-family="Times,serif" font-size="14.00">n = len(self.matrix)</text>
<text text-anchor="middle" x="182" y="-280.8" font-family="Times,serif" font-size="14.00">m = len(self.matrix[0])</text>
</g>
<!-- 13_calls -->
<g id="node2" class="node">
<title>13_calls</title>
<polygon fill="lightgrey" stroke="black" points="70,-224 20,-224 16,-220 16,-188 66,-188 70,-192 70,-224"/>
<polyline fill="none" stroke="black" points="66,-220 16,-220 "/>
<polyline fill="none" stroke="black" points="66,-220 66,-188 "/>
<polyline fill="none" stroke="black" points="66,-220 70,-224 "/>
<text text-anchor="middle" x="43" y="-208.8" font-family="Times,serif" font-size="14.00">len</text>
<text text-anchor="middle" x="43" y="-194.8" font-family="Times,serif" font-size="14.00">len</text>
</g>
<!-- 13&#45;&gt;13_calls -->
<g id="edge1" class="edge">
<title>13&#45;&gt;13_calls</title>
<path fill="none" stroke="white" stroke-dasharray="5,2" d="M153.54,-273.8C131.84,-260.69 101.84,-242.56 78.57,-228.49"/>
<polygon fill="white" stroke="white" points="80.38,-225.5 70.01,-223.32 76.76,-231.49 80.38,-225.5"/>
<text text-anchor="middle" x="132.83" y="-244.8" font-family="Times,serif" font-size="14.00">calls</text>
</g>
<!-- 35 -->
<g id="node3" class="node">
<title>35</title>
<polygon fill="#68838b" stroke="black" points="276,-224 87.96,-206 276,-188 464.04,-206 276,-224"/>
<text text-anchor="middle" x="276" y="-201.8" font-family="Times,serif" font-size="14.00">if i &gt;= n or i &lt; 0 or j &gt;= m or j &lt; 0:</text>
</g>
<!-- 13&#45;&gt;35 -->
<g id="edge5" class="edge">
<title>13&#45;&gt;35</title>
<path fill="none" stroke="red" d="M201.48,-273.6C215.86,-260.75 235.54,-243.15 251.07,-229.28"/>
<polygon fill="red" stroke="red" points="253.64,-231.68 258.76,-222.41 248.97,-226.46 253.64,-231.68"/>
</g>
<!-- 14 -->
<g id="node4" class="node">
<title>14</title>
<polygon fill="lightblue" stroke="black" points="211.69,-138 16.31,-138 16.31,-102 211.69,-102 211.69,-138"/>
<text text-anchor="middle" x="114" y="-122.8" font-family="Times,serif" font-size="14.00">print(f&#39;i:{i},j:{j} out of bounds&#39;)</text>
<text text-anchor="middle" x="114" y="-108.8" font-family="Times,serif" font-size="14.00">return False</text>
</g>
<!-- 35&#45;&gt;14 -->
<g id="edge3" class="edge">
<title>35&#45;&gt;14</title>
<path fill="none" stroke="black" d="M181.58,-196.97C162.78,-191.58 144.47,-183.13 130.19,-170 123.98,-164.29 120.15,-156.14 117.78,-148.13"/>
<polygon fill="black" stroke="black" points="121.16,-147.2 115.51,-138.24 114.34,-148.77 121.16,-147.2"/>
<text text-anchor="middle" x="219.4" y="-158.8" font-family="Times,serif" font-size="14.00">i &gt;= n or i &lt; 0 or j &gt;= m or j &lt; 0</text>
</g>
<!-- 15 -->
<g id="node6" class="node">
<title>15</title>
<polygon fill="#68838b" stroke="black" points="362,-138 229.33,-120 362,-102 494.67,-120 362,-138"/>
<text text-anchor="middle" x="362" y="-115.8" font-family="Times,serif" font-size="14.00">if self.matrix[i][j] == 0:</text>
</g>
<!-- 35&#45;&gt;15 -->
<g id="edge4" class="edge">
<title>35&#45;&gt;15</title>
<path fill="none" stroke="black" d="M292.18,-189.2C305.43,-176.25 324.36,-157.77 339.16,-143.31"/>
<polygon fill="black" stroke="black" points="341.77,-145.65 346.48,-136.16 336.88,-140.65 341.77,-145.65"/>
<text text-anchor="middle" x="433.42" y="-158.8" font-family="Times,serif" font-size="14.00">(not (i &gt;= n or i &lt; 0 or j &gt;= m or j &lt; 0))</text>
</g>
<!-- 14_calls -->
<g id="node5" class="node">
<title>14_calls</title>
<polygon fill="lightgrey" stroke="black" points="141,-52 91,-52 87,-48 87,-16 137,-16 141,-20 141,-52"/>
<polyline fill="none" stroke="black" points="137,-48 87,-48 "/>
<polyline fill="none" stroke="black" points="137,-48 137,-16 "/>
<polyline fill="none" stroke="black" points="137,-48 141,-52 "/>
<text text-anchor="middle" x="114" y="-29.8" font-family="Times,serif" font-size="14.00">print</text>
</g>
<!-- 14&#45;&gt;14_calls -->
<g id="edge2" class="edge">
<title>14&#45;&gt;14_calls</title>
<path fill="none" stroke="white" stroke-dasharray="5,2" d="M114,-101.6C114,-90.26 114,-75.23 114,-62.32"/>
<polygon fill="white" stroke="white" points="117.5,-62.1 114,-52.1 110.5,-62.1 117.5,-62.1"/>
<text text-anchor="middle" x="126.83" y="-72.8" font-family="Times,serif" font-size="14.00">calls</text>
</g>
</g>
</svg>
