<?xml version="1.0" encoding="UTF-8" standalone="no"?>
<!DOCTYPE svg PUBLIC "-//W3C//DTD SVG 1.1//EN"
 "http://www.w3.org/Graphics/SVG/1.1/DTD/svg11.dtd">
<!-- Generated by graphviz version 2.42.3 (20191010.1750)
 -->
<!-- Title: cluster/Users/vishweshdkumar/Desktop/gsoc/finalwork/finalrepo/djangotrials/demo_files/demo2.py Pages: 1 -->
<svg width="327pt" height="390pt"
 viewBox="0.00 0.00 327.00 390.00" xmlns="http://www.w3.org/2000/svg" xmlns:xlink="http://www.w3.org/1999/xlink">
<g id="graph0" class="graph" transform="scale(1 1) rotate(0) translate(4 386)">
<title>cluster/Users/vishweshdkumar/Desktop/gsoc/finalwork/finalrepo/djangotrials/demo_files/demo2.py</title>
<g id="clust1" class="cluster">
<title>clusterfindPath</title>
<polygon fill="transparent" stroke="black" points="8,-8 8,-374 311,-374 311,-8 8,-8"/>
</g>
<!-- 6 -->
<g id="node1" class="node">
<title>6</title>
<polygon fill="lightblue" stroke="black" points="278.48,-366 25.52,-366 25.52,-302 278.48,-302 278.48,-366"/>
<text text-anchor="middle" x="152" y="-350.8" font-family="Times,serif" font-size="14.00">n, m = len(self.matrix), len(self.matrix[0])</text>
<text text-anchor="middle" x="152" y="-336.8" font-family="Times,serif" font-size="14.00">self.dp = [([0] * m) for i in range(n)]</text>
<text text-anchor="middle" x="152" y="-322.8" font-family="Times,serif" font-size="14.00">self.dp[&#45;1][&#45;1] = 4</text>
<text text-anchor="middle" x="152" y="-308.8" font-family="Times,serif" font-size="14.00">ans = self.hasPath(0, 0)</text>
</g>
<!-- 6_calls -->
<g id="node2" class="node">
<title>6_calls</title>
<polygon fill="lightgrey" stroke="black" points="130.77,-252 51.23,-252 47.23,-248 47.23,-188 126.77,-188 130.77,-192 130.77,-252"/>
<polyline fill="none" stroke="black" points="126.77,-248 47.23,-248 "/>
<polyline fill="none" stroke="black" points="126.77,-248 126.77,-188 "/>
<polyline fill="none" stroke="black" points="126.77,-248 130.77,-252 "/>
<text text-anchor="middle" x="89" y="-236.8" font-family="Times,serif" font-size="14.00">len</text>
<text text-anchor="middle" x="89" y="-222.8" font-family="Times,serif" font-size="14.00">len</text>
<text text-anchor="middle" x="89" y="-208.8" font-family="Times,serif" font-size="14.00">range</text>
<text text-anchor="middle" x="89" y="-194.8" font-family="Times,serif" font-size="14.00">self.hasPath</text>
</g>
<!-- 6&#45;&gt;6_calls -->
<g id="edge1" class="edge">
<title>6&#45;&gt;6_calls</title>
<path fill="none" stroke="white" stroke-dasharray="5,2" d="M134.45,-301.8C127.35,-289.18 119.07,-274.45 111.53,-261.05"/>
<polygon fill="white" stroke="white" points="114.41,-259.03 106.45,-252.03 108.31,-262.46 114.41,-259.03"/>
<text text-anchor="middle" x="136.83" y="-272.8" font-family="Times,serif" font-size="14.00">calls</text>
</g>
<!-- 34 -->
<g id="curr_block" class="node">
<title>34</title>
<polygon fill="#68838b" stroke="black" points="194,-238 148.59,-220 194,-202 239.41,-220 194,-238"/>
<text text-anchor="middle" x="194" y="-215.8" font-family="Times,serif" font-size="14.00">if ans:</text>
</g>
<!-- 6&#45;&gt;34 -->
<g id="edge6" class="edge">
<title>6&#45;&gt;34</title>
<path fill="none" stroke="black" d="M163.7,-301.8C170.37,-284.01 178.62,-262.02 184.82,-245.48"/>
<polygon fill="black" stroke="black" points="188.15,-246.56 188.39,-235.97 181.6,-244.1 188.15,-246.56"/>
</g>
<!-- 7 -->
<g id="node4" class="node">
<title>7</title>
<polygon fill="lightblue" stroke="black" points="133.59,-138 16.41,-138 16.41,-102 133.59,-102 133.59,-138"/>
<text text-anchor="middle" x="75" y="-115.8" font-family="Times,serif" font-size="14.00">print(&#39;Path exists&#39;)</text>
</g>
<!-- 34&#45;&gt;7 -->
<g id="edge3" class="edge">
<title>34&#45;&gt;7</title>
<path fill="none" stroke="black" d="M179.88,-207.37C161.19,-191.98 127.77,-164.46 103.68,-144.62"/>
<polygon fill="black" stroke="black" points="105.84,-141.86 95.9,-138.21 101.39,-147.27 105.84,-141.86"/>
<text text-anchor="middle" x="143.33" y="-158.8" font-family="Times,serif" font-size="14.00">ans</text>
</g>
<!-- 9 -->
<g id="node6" class="node">
<title>9</title>
<polygon fill="lightblue" stroke="black" points="302.69,-138 151.31,-138 151.31,-102 302.69,-102 302.69,-138"/>
<text text-anchor="middle" x="227" y="-115.8" font-family="Times,serif" font-size="14.00">print(&#39;Path doesnt exist&#39;)</text>
</g>
<!-- 34&#45;&gt;9 -->
<g id="edge5" class="edge">
<title>34&#45;&gt;9</title>
<path fill="none" stroke="black" d="M199.16,-203.69C204.18,-188.77 211.92,-165.77 217.97,-147.81"/>
<polygon fill="black" stroke="black" points="221.34,-148.78 221.21,-138.18 214.71,-146.54 221.34,-148.78"/>
<text text-anchor="middle" x="238.69" y="-158.8" font-family="Times,serif" font-size="14.00">(not ans)</text>
</g>
<!-- 7_calls -->
<g id="node5" class="node">
<title>7_calls</title>
<polygon fill="lightgrey" stroke="black" points="102,-52 52,-52 48,-48 48,-16 98,-16 102,-20 102,-52"/>
<polyline fill="none" stroke="black" points="98,-48 48,-48 "/>
<polyline fill="none" stroke="black" points="98,-48 98,-16 "/>
<polyline fill="none" stroke="black" points="98,-48 102,-52 "/>
<text text-anchor="middle" x="75" y="-29.8" font-family="Times,serif" font-size="14.00">print</text>
</g>
<!-- 7&#45;&gt;7_calls -->
<g id="edge2" class="edge">
<title>7&#45;&gt;7_calls</title>
<path fill="none" stroke="white" stroke-dasharray="5,2" d="M75,-101.6C75,-90.26 75,-75.23 75,-62.32"/>
<polygon fill="white" stroke="white" points="78.5,-62.1 75,-52.1 71.5,-62.1 78.5,-62.1"/>
<text text-anchor="middle" x="87.83" y="-72.8" font-family="Times,serif" font-size="14.00">calls</text>
</g>
<!-- 9_calls -->
<g id="node7" class="node">
<title>9_calls</title>
<polygon fill="lightgrey" stroke="black" points="254,-52 204,-52 200,-48 200,-16 250,-16 254,-20 254,-52"/>
<polyline fill="none" stroke="black" points="250,-48 200,-48 "/>
<polyline fill="none" stroke="black" points="250,-48 250,-16 "/>
<polyline fill="none" stroke="black" points="250,-48 254,-52 "/>
<text text-anchor="middle" x="227" y="-29.8" font-family="Times,serif" font-size="14.00">print</text>
</g>
<!-- 9&#45;&gt;9_calls -->
<g id="edge4" class="edge">
<title>9&#45;&gt;9_calls</title>
<path fill="none" stroke="white" stroke-dasharray="5,2" d="M227,-101.6C227,-90.26 227,-75.23 227,-62.32"/>
<polygon fill="white" stroke="white" points="230.5,-62.1 227,-52.1 223.5,-62.1 230.5,-62.1"/>
<text text-anchor="middle" x="239.83" y="-72.8" font-family="Times,serif" font-size="14.00">calls</text>
</g>
</g>
</svg>
