<?xml version="1.0" encoding="UTF-8" standalone="no"?>
<!DOCTYPE svg PUBLIC "-//W3C//DTD SVG 1.1//EN"
 "http://www.w3.org/Graphics/SVG/1.1/DTD/svg11.dtd">
<!-- Generated by graphviz version 2.42.3 (20191010.1750)
 -->
<!-- Title: cluster/Users/vishweshdkumar/Desktop/gsoc/finalwork/finalrepo/djangotrials/demo_files/demo2.py Pages: 1 -->
<svg width="184pt" height="248pt"
 viewBox="0.00 0.00 184.00 248.00" xmlns="http://www.w3.org/2000/svg" xmlns:xlink="http://www.w3.org/1999/xlink">
<g id="graph0" class="graph" transform="scale(1 1) rotate(0) translate(4 244)">
<title>cluster/Users/vishweshdkumar/Desktop/gsoc/finalwork/finalrepo/djangotrials/demo_files/demo2.py</title>
<g id="clust1" class="cluster">
<title>clusterfindPath</title>
<polygon fill="transparent" stroke="black" points="8,-8 8,-232 168,-232 168,-8 8,-8"/>
</g>
<!-- 34 -->
<g id="node1" class="node">
<title>34</title>
<polygon fill="#68838b" stroke="black" points="75,-224 29.59,-206 75,-188 120.41,-206 75,-224"/>
<text text-anchor="middle" x="75" y="-201.8" font-family="Times,serif" font-size="14.00">if ans:</text>
</g>
<!-- 7 -->
<g id="curr_block" class="node">
<title>7</title>
<polygon fill="lightblue" stroke="black" points="133.59,-138 16.41,-138 16.41,-102 133.59,-102 133.59,-138"/>
<text text-anchor="middle" x="75" y="-115.8" font-family="Times,serif" font-size="14.00">print(&#39;Path exists&#39;)</text>
</g>
<!-- 34&#45;&gt;7 -->
<g id="edge3" class="edge">
<title>34&#45;&gt;7</title>
<path fill="none" stroke="red" d="M75,-187.6C75,-176.26 75,-161.23 75,-148.32"/>
<polygon fill="red" stroke="red" points="78.5,-148.1 75,-138.1 71.5,-148.1 78.5,-148.1"/>
<text text-anchor="middle" x="84.33" y="-158.8" font-family="Times,serif" font-size="14.00">ans</text>
</g>
<!-- 7_calls -->
<g id="node3" class="node">
<title>7_calls</title>
<polygon fill="lightgrey" stroke="black" points="70,-52 20,-52 16,-48 16,-16 66,-16 70,-20 70,-52"/>
<polyline fill="none" stroke="black" points="66,-48 16,-48 "/>
<polyline fill="none" stroke="black" points="66,-48 66,-16 "/>
<polyline fill="none" stroke="black" points="66,-48 70,-52 "/>
<text text-anchor="middle" x="43" y="-29.8" font-family="Times,serif" font-size="14.00">print</text>
</g>
<!-- 7&#45;&gt;7_calls -->
<g id="edge1" class="edge">
<title>7&#45;&gt;7_calls</title>
<path fill="none" stroke="white" stroke-dasharray="5,2" d="M68.37,-101.6C63.96,-90.03 58.1,-74.62 53.11,-61.54"/>
<polygon fill="white" stroke="white" points="56.34,-60.19 49.51,-52.1 49.8,-62.69 56.34,-60.19"/>
<text text-anchor="middle" x="72.83" y="-72.8" font-family="Times,serif" font-size="14.00">calls</text>
</g>
<!-- 8 -->
<g id="node4" class="node">
<title>8</title>
<polygon fill="lightblue" stroke="black" points="159.59,-52 88.41,-52 88.41,-16 159.59,-16 159.59,-52"/>
<text text-anchor="middle" x="124" y="-29.8" font-family="Times,serif" font-size="14.00">return ans</text>
</g>
<!-- 7&#45;&gt;8 -->
<g id="edge2" class="edge">
<title>7&#45;&gt;8</title>
<path fill="none" stroke="black" d="M85.15,-101.6C92.03,-89.8 101.24,-74.02 108.96,-60.78"/>
<polygon fill="black" stroke="black" points="112.01,-62.5 114.03,-52.1 105.97,-58.97 112.01,-62.5"/>
</g>
</g>
</svg>
