<?xml version="1.0" encoding="UTF-8" standalone="no"?>
<!DOCTYPE svg PUBLIC "-//W3C//DTD SVG 1.1//EN"
 "http://www.w3.org/Graphics/SVG/1.1/DTD/svg11.dtd">
<!-- Generated by graphviz version 2.42.3 (20191010.1750)
 -->
<!-- Title: cluster/Users/vishweshdkumar/Desktop/gsoc/finalwork/finalrepo/djangotrials/demo_files/demo2.py Pages: 1 -->
<svg width="327pt" height="162pt"
 viewBox="0.00 0.00 327.00 162.00" xmlns="http://www.w3.org/2000/svg" xmlns:xlink="http://www.w3.org/1999/xlink">
<g id="graph0" class="graph" transform="scale(1 1) rotate(0) translate(4 158)">
<title>cluster/Users/vishweshdkumar/Desktop/gsoc/finalwork/finalrepo/djangotrials/demo_files/demo2.py</title>
<g id="clust1" class="cluster">
<title>clusterfindPath</title>
<polygon fill="transparent" stroke="black" points="8,-8 8,-146 311,-146 311,-8 8,-8"/>
</g>
<!-- 7 -->
<g id="node1" class="node">
<title>7</title>
<polygon fill="lightblue" stroke="black" points="302.59,-138 185.41,-138 185.41,-102 302.59,-102 302.59,-138"/>
<text text-anchor="middle" x="244" y="-115.8" font-family="Times,serif" font-size="14.00">print(&#39;Path exists&#39;)</text>
</g>
<!-- 7_calls -->
<g id="node2" class="node">
<title>7_calls</title>
<polygon fill="lightgrey" stroke="black" points="277,-52 227,-52 223,-48 223,-16 273,-16 277,-20 277,-52"/>
<polyline fill="none" stroke="black" points="273,-48 223,-48 "/>
<polyline fill="none" stroke="black" points="273,-48 273,-16 "/>
<polyline fill="none" stroke="black" points="273,-48 277,-52 "/>
<text text-anchor="middle" x="250" y="-29.8" font-family="Times,serif" font-size="14.00">print</text>
</g>
<!-- 7&#45;&gt;7_calls -->
<g id="edge1" class="edge">
<title>7&#45;&gt;7_calls</title>
<path fill="none" stroke="white" stroke-dasharray="5,2" d="M245.24,-101.6C246.05,-90.26 247.13,-75.23 248.05,-62.32"/>
<polygon fill="white" stroke="white" points="251.56,-62.32 248.78,-52.1 244.58,-61.82 251.56,-62.32"/>
<text text-anchor="middle" x="259.83" y="-72.8" font-family="Times,serif" font-size="14.00">calls</text>
</g>
<!-- 8 -->
<g id="curr_block" class="node">
<title>8</title>
<polygon fill="lightblue" stroke="black" points="204.59,-52 133.41,-52 133.41,-16 204.59,-16 204.59,-52"/>
<text text-anchor="middle" x="169" y="-29.8" font-family="Times,serif" font-size="14.00">return ans</text>
</g>
<!-- 7&#45;&gt;8 -->
<g id="edge2" class="edge">
<title>7&#45;&gt;8</title>
<path fill="none" stroke="red" d="M228.46,-101.6C217.63,-89.46 203.02,-73.1 191,-59.64"/>
<polygon fill="red" stroke="red" points="193.53,-57.22 184.26,-52.1 188.31,-61.89 193.53,-57.22"/>
</g>
<!-- 9 -->
<g id="node4" class="node">
<title>9</title>
<polygon fill="lightblue" stroke="black" points="167.69,-138 16.31,-138 16.31,-102 167.69,-102 167.69,-138"/>
<text text-anchor="middle" x="92" y="-115.8" font-family="Times,serif" font-size="14.00">print(&#39;Path doesnt exist&#39;)</text>
</g>
<!-- 9&#45;&gt;8 -->
<g id="edge4" class="edge">
<title>9&#45;&gt;8</title>
<path fill="none" stroke="black" d="M107.95,-101.6C119.08,-89.46 134.07,-73.1 146.42,-59.64"/>
<polygon fill="black" stroke="black" points="149.15,-61.83 153.33,-52.1 143.99,-57.1 149.15,-61.83"/>
</g>
<!-- 9_calls -->
<g id="node5" class="node">
<title>9_calls</title>
<polygon fill="lightgrey" stroke="black" points="115,-52 65,-52 61,-48 61,-16 111,-16 115,-20 115,-52"/>
<polyline fill="none" stroke="black" points="111,-48 61,-48 "/>
<polyline fill="none" stroke="black" points="111,-48 111,-16 "/>
<polyline fill="none" stroke="black" points="111,-48 115,-52 "/>
<text text-anchor="middle" x="88" y="-29.8" font-family="Times,serif" font-size="14.00">print</text>
</g>
<!-- 9&#45;&gt;9_calls -->
<g id="edge3" class="edge">
<title>9&#45;&gt;9_calls</title>
<path fill="none" stroke="white" stroke-dasharray="5,2" d="M91.17,-101.6C90.63,-90.26 89.92,-75.23 89.3,-62.32"/>
<polygon fill="white" stroke="white" points="92.79,-61.92 88.81,-52.1 85.79,-62.25 92.79,-61.92"/>
<text text-anchor="middle" x="102.83" y="-72.8" font-family="Times,serif" font-size="14.00">calls</text>
</g>
</g>
</svg>
