<?xml version="1.0" encoding="UTF-8" standalone="no"?>
<!DOCTYPE svg PUBLIC "-//W3C//DTD SVG 1.1//EN"
 "http://www.w3.org/Graphics/SVG/1.1/DTD/svg11.dtd">
<!-- Generated by graphviz version 2.42.3 (20191010.1750)
 -->
<!-- Title: cluster/Users/vishweshdkumar/Desktop/gsoc/finalwork/finalrepo/djangotrials/demo_files/demo2.py Pages: 1 -->
<svg width="292pt" height="390pt"
 viewBox="0.00 0.00 292.00 390.00" xmlns="http://www.w3.org/2000/svg" xmlns:xlink="http://www.w3.org/1999/xlink">
<g id="graph0" class="graph" transform="scale(1 1) rotate(0) translate(4 386)">
<title>cluster/Users/vishweshdkumar/Desktop/gsoc/finalwork/finalrepo/djangotrials/demo_files/demo2.py</title>
<g id="clust1" class="cluster">
<title>clusterfindPath</title>
<polygon fill="transparent" stroke="black" points="8,-8 8,-374 276,-374 276,-8 8,-8"/>
</g>
<!-- 6 -->
<g id="node1" class="node">
<title>6</title>
<polygon fill="lightblue" stroke="black" points="268.48,-366 15.52,-366 15.52,-302 268.48,-302 268.48,-366"/>
<text text-anchor="middle" x="142" y="-350.8" font-family="Times,serif" font-size="14.00">n, m = len(self.matrix), len(self.matrix[0])</text>
<text text-anchor="middle" x="142" y="-336.8" font-family="Times,serif" font-size="14.00">self.dp = [([0] * m) for i in range(n)]</text>
<text text-anchor="middle" x="142" y="-322.8" font-family="Times,serif" font-size="14.00">self.dp[&#45;1][&#45;1] = 4</text>
<text text-anchor="middle" x="142" y="-308.8" font-family="Times,serif" font-size="14.00">ans = self.hasPath(0, 0)</text>
</g>
<!-- 6_calls -->
<g id="node2" class="node">
<title>6_calls</title>
<polygon fill="lightgrey" stroke="black" points="120.77,-252 41.23,-252 37.23,-248 37.23,-188 116.77,-188 120.77,-192 120.77,-252"/>
<polyline fill="none" stroke="black" points="116.77,-248 37.23,-248 "/>
<polyline fill="none" stroke="black" points="116.77,-248 116.77,-188 "/>
<polyline fill="none" stroke="black" points="116.77,-248 120.77,-252 "/>
<text text-anchor="middle" x="79" y="-236.8" font-family="Times,serif" font-size="14.00">len</text>
<text text-anchor="middle" x="79" y="-222.8" font-family="Times,serif" font-size="14.00">len</text>
<text text-anchor="middle" x="79" y="-208.8" font-family="Times,serif" font-size="14.00">range</text>
<text text-anchor="middle" x="79" y="-194.8" font-family="Times,serif" font-size="14.00">self.hasPath</text>
</g>
<!-- 6&#45;&gt;6_calls -->
<g id="edge1" class="edge">
<title>6&#45;&gt;6_calls</title>
<path fill="none" stroke="white" stroke-dasharray="5,2" d="M124.45,-301.8C117.35,-289.18 109.07,-274.45 101.53,-261.05"/>
<polygon fill="white" stroke="white" points="104.41,-259.03 96.45,-252.03 98.31,-262.46 104.41,-259.03"/>
<text text-anchor="middle" x="126.83" y="-272.8" font-family="Times,serif" font-size="14.00">calls</text>
</g>
<!-- 34 -->
<g id="curr_block" class="node">
<title>34</title>
<polygon fill="#68838b" stroke="red" stroke-width="3" points="184,-238 138.59,-220 184,-202 229.41,-220 184,-238"/>
<text text-anchor="middle" x="184" y="-215.8" font-family="Times,serif" font-size="14.00">if ans:</text>
</g>
<!-- 6&#45;&gt;34 -->
<g id="edge5" class="edge">
<title>6&#45;&gt;34</title>
<path fill="none" stroke="black" d="M153.7,-301.8C160.37,-284.01 168.62,-262.02 174.82,-245.48"/>
<polygon fill="black" stroke="black" points="178.15,-246.56 178.39,-235.97 171.6,-244.1 178.15,-246.56"/>
</g>
<!-- 7 -->
<g id="node4" class="node">
<title>7</title>
<polygon fill="lightblue" stroke="black" points="242.59,-138 125.41,-138 125.41,-102 242.59,-102 242.59,-138"/>
<text text-anchor="middle" x="184" y="-115.8" font-family="Times,serif" font-size="14.00">print(&#39;Path exists&#39;)</text>
</g>
<!-- 34&#45;&gt;7 -->
<g id="edge4" class="edge">
<title>34&#45;&gt;7</title>
<path fill="none" stroke="black" d="M184,-201.93C184,-187.12 184,-165.43 184,-148.23"/>
<polygon fill="black" stroke="black" points="187.5,-148.2 184,-138.2 180.5,-148.2 187.5,-148.2"/>
<text text-anchor="middle" x="193.33" y="-158.8" font-family="Times,serif" font-size="14.00">ans</text>
</g>
<!-- 7_calls -->
<g id="node5" class="node">
<title>7_calls</title>
<polygon fill="lightgrey" stroke="black" points="120,-52 70,-52 66,-48 66,-16 116,-16 120,-20 120,-52"/>
<polyline fill="none" stroke="black" points="116,-48 66,-48 "/>
<polyline fill="none" stroke="black" points="116,-48 116,-16 "/>
<polyline fill="none" stroke="black" points="116,-48 120,-52 "/>
<text text-anchor="middle" x="93" y="-29.8" font-family="Times,serif" font-size="14.00">print</text>
</g>
<!-- 7&#45;&gt;7_calls -->
<g id="edge2" class="edge">
<title>7&#45;&gt;7_calls</title>
<path fill="none" stroke="white" stroke-dasharray="5,2" d="M165.14,-101.6C151.76,-89.24 133.62,-72.49 118.88,-58.88"/>
<polygon fill="white" stroke="white" points="121.24,-56.31 111.52,-52.1 116.49,-61.45 121.24,-56.31"/>
<text text-anchor="middle" x="155.83" y="-72.8" font-family="Times,serif" font-size="14.00">calls</text>
</g>
<!-- 8 -->
<g id="node6" class="node">
<title>8</title>
<polygon fill="lightblue" stroke="black" points="261.83,-52 138.17,-52 138.17,-16 261.83,-16 261.83,-52"/>
<text text-anchor="middle" x="200" y="-36.8" font-family="Times,serif" font-size="14.00">helper.DEBUG = 0</text>
<text text-anchor="middle" x="200" y="-22.8" font-family="Times,serif" font-size="14.00">return ans</text>
</g>
<!-- 7&#45;&gt;8 -->
<g id="edge3" class="edge">
<title>7&#45;&gt;8</title>
<path fill="none" stroke="black" d="M187.32,-101.6C189.5,-90.14 192.4,-74.93 194.87,-61.93"/>
<polygon fill="black" stroke="black" points="198.31,-62.57 196.74,-52.1 191.43,-61.26 198.31,-62.57"/>
</g>
</g>
</svg>
