<?xml version="1.0" encoding="UTF-8" standalone="no"?>
<!DOCTYPE svg PUBLIC "-//W3C//DTD SVG 1.1//EN"
 "http://www.w3.org/Graphics/SVG/1.1/DTD/svg11.dtd">
<!-- Generated by graphviz version 2.42.3 (20191010.1750)
 -->
<!-- Title: cluster/Users/vishweshdkumar/Desktop/gsoc/finalwork/finalrepo/djangotrials/demo_files/demo2.py Pages: 1 -->
<svg width="446pt" height="348pt"
 viewBox="0.00 0.00 446.00 348.00" xmlns="http://www.w3.org/2000/svg" xmlns:xlink="http://www.w3.org/1999/xlink">
<g id="graph0" class="graph" transform="scale(1 1) rotate(0) translate(4 344)">
<title>cluster/Users/vishweshdkumar/Desktop/gsoc/finalwork/finalrepo/djangotrials/demo_files/demo2.py</title>
<g id="clust1" class="cluster">
<title>clusterhasPath</title>
<polygon fill="transparent" stroke="black" points="8,-8 8,-332 430,-332 430,-8 8,-8"/>
</g>
<!-- 35 -->
<g id="node1" class="node">
<title>35</title>
<polygon fill="#68838b" stroke="black" points="204,-324 15.96,-306 204,-288 392.04,-306 204,-324"/>
<text text-anchor="middle" x="204" y="-301.8" font-family="Times,serif" font-size="14.00">if i &gt;= n or i &lt; 0 or j &gt;= m or j &lt; 0:</text>
</g>
<!-- 15 -->
<g id="node2" class="node">
<title>15</title>
<polygon fill="#68838b" stroke="black" points="203,-238 70.33,-220 203,-202 335.67,-220 203,-238"/>
<text text-anchor="middle" x="203" y="-215.8" font-family="Times,serif" font-size="14.00">if self.matrix[i][j] == 0:</text>
</g>
<!-- 35&#45;&gt;15 -->
<g id="edge4" class="edge">
<title>35&#45;&gt;15</title>
<path fill="none" stroke="red" d="M203.8,-288C203.66,-276.62 203.48,-261.38 203.33,-248.31"/>
<polygon fill="red" stroke="red" points="206.82,-247.93 203.2,-237.97 199.82,-248.01 206.82,-247.93"/>
<text text-anchor="middle" x="312.42" y="-258.8" font-family="Times,serif" font-size="14.00">(not (i &gt;= n or i &lt; 0 or j &gt;= m or j &lt; 0))</text>
</g>
<!-- 17 -->
<g id="node3" class="node">
<title>17</title>
<polygon fill="lightblue" stroke="black" points="179.51,-152 16.49,-152 16.49,-102 179.51,-102 179.51,-152"/>
<text text-anchor="middle" x="98" y="-136.8" font-family="Times,serif" font-size="14.00">print(f&#39;i:{i},j:{j} blocked&#39;)</text>
<text text-anchor="middle" x="98" y="-122.8" font-family="Times,serif" font-size="14.00">self.dp[i][j] = 3</text>
<text text-anchor="middle" x="98" y="-108.8" font-family="Times,serif" font-size="14.00">return False</text>
</g>
<!-- 15&#45;&gt;17 -->
<g id="edge2" class="edge">
<title>15&#45;&gt;17</title>
<path fill="none" stroke="black" d="M176.4,-205.6C165.93,-199.7 154.14,-192.24 144.52,-184 136.3,-176.96 128.38,-168.36 121.47,-160.04"/>
<polygon fill="black" stroke="black" points="124.17,-157.81 115.18,-152.2 118.71,-162.19 124.17,-157.81"/>
<text text-anchor="middle" x="202.24" y="-172.8" font-family="Times,serif" font-size="14.00">self.matrix[i][j] == 0</text>
</g>
<!-- 18 -->
<g id="node5" class="node">
<title>18</title>
<polygon fill="#68838b" stroke="black" points="310,-145 197.61,-127 310,-109 422.39,-127 310,-145"/>
<text text-anchor="middle" x="310" y="-122.8" font-family="Times,serif" font-size="14.00">if self.dp[i][j] == 1:</text>
</g>
<!-- 15&#45;&gt;18 -->
<g id="edge3" class="edge">
<title>15&#45;&gt;18</title>
<path fill="none" stroke="black" d="M229.27,-205.45C239.64,-199.52 251.35,-192.08 261,-184 272.41,-174.44 283.47,-162.15 292.19,-151.51"/>
<polygon fill="black" stroke="black" points="295.14,-153.42 298.64,-143.42 289.67,-149.06 295.14,-153.42"/>
<text text-anchor="middle" x="336.28" y="-172.8" font-family="Times,serif" font-size="14.00">(self.matrix[i][j] != 0)</text>
</g>
<!-- 17_calls -->
<g id="node4" class="node">
<title>17_calls</title>
<polygon fill="lightgrey" stroke="black" points="125,-52 75,-52 71,-48 71,-16 121,-16 125,-20 125,-52"/>
<polyline fill="none" stroke="black" points="121,-48 71,-48 "/>
<polyline fill="none" stroke="black" points="121,-48 121,-16 "/>
<polyline fill="none" stroke="black" points="121,-48 125,-52 "/>
<text text-anchor="middle" x="98" y="-29.8" font-family="Times,serif" font-size="14.00">print</text>
</g>
<!-- 17&#45;&gt;17_calls -->
<g id="edge1" class="edge">
<title>17&#45;&gt;17_calls</title>
<path fill="none" stroke="white" stroke-dasharray="5,2" d="M98,-101.61C98,-89.56 98,-74.97 98,-62.52"/>
<polygon fill="white" stroke="white" points="101.5,-62.24 98,-52.24 94.5,-62.24 101.5,-62.24"/>
<text text-anchor="middle" x="110.83" y="-72.8" font-family="Times,serif" font-size="14.00">calls</text>
</g>
</g>
</svg>
