<?xml version="1.0" encoding="UTF-8" standalone="no"?>
<!DOCTYPE svg PUBLIC "-//W3C//DTD SVG 1.1//EN"
 "http://www.w3.org/Graphics/SVG/1.1/DTD/svg11.dtd">
<!-- Generated by graphviz version 2.42.3 (20191010.1750)
 -->
<!-- Title: cluster/Users/vishweshdkumar/Desktop/gsoc/finalwork/finalrepo/djangotrials/demo_files/demo2.py Pages: 1 -->
<svg width="516pt" height="334pt"
 viewBox="0.00 0.00 516.00 334.00" xmlns="http://www.w3.org/2000/svg" xmlns:xlink="http://www.w3.org/1999/xlink">
<g id="graph0" class="graph" transform="scale(1 1) rotate(0) translate(4 330)">
<title>cluster/Users/vishweshdkumar/Desktop/gsoc/finalwork/finalrepo/djangotrials/demo_files/demo2.py</title>
<g id="clust1" class="cluster">
<title>clusterhasPath</title>
<polygon fill="transparent" stroke="black" points="8,-8 8,-318 500,-318 500,-8 8,-8"/>
</g>
<!-- 15 -->
<g id="node1" class="node">
<title>15</title>
<polygon fill="#68838b" stroke="black" points="199,-310 66.33,-292 199,-274 331.67,-292 199,-310"/>
<text text-anchor="middle" x="199" y="-287.8" font-family="Times,serif" font-size="14.00">if self.matrix[i][j] == 0:</text>
</g>
<!-- 18 -->
<g id="node2" class="node">
<title>18</title>
<polygon fill="#68838b" stroke="black" points="199,-224 86.61,-206 199,-188 311.39,-206 199,-224"/>
<text text-anchor="middle" x="199" y="-201.8" font-family="Times,serif" font-size="14.00">if self.dp[i][j] == 1:</text>
</g>
<!-- 15&#45;&gt;18 -->
<g id="edge4" class="edge">
<title>15&#45;&gt;18</title>
<path fill="none" stroke="red" d="M199,-273.6C199,-262.26 199,-247.23 199,-234.32"/>
<polygon fill="red" stroke="red" points="202.5,-234.1 199,-224.1 195.5,-234.1 202.5,-234.1"/>
<text text-anchor="middle" x="260.28" y="-244.8" font-family="Times,serif" font-size="14.00">(self.matrix[i][j] != 0)</text>
</g>
<!-- 20 -->
<g id="node3" class="node">
<title>20</title>
<polygon fill="lightblue" stroke="black" points="249.87,-138 16.13,-138 16.13,-102 249.87,-102 249.87,-138"/>
<text text-anchor="middle" x="133" y="-122.8" font-family="Times,serif" font-size="14.00">print(f&#39;i:{i},j:{j} in current visit cycle&#39;)</text>
<text text-anchor="middle" x="133" y="-108.8" font-family="Times,serif" font-size="14.00">return False</text>
</g>
<!-- 18&#45;&gt;20 -->
<g id="edge2" class="edge">
<title>18&#45;&gt;20</title>
<path fill="none" stroke="black" d="M186.89,-189.59C177.31,-177.4 163.74,-160.12 152.61,-145.96"/>
<polygon fill="black" stroke="black" points="155.32,-143.74 146.39,-138.04 149.82,-148.07 155.32,-143.74"/>
<text text-anchor="middle" x="215.97" y="-158.8" font-family="Times,serif" font-size="14.00">self.dp[i][j] == 1</text>
</g>
<!-- 21 -->
<g id="node5" class="node">
<title>21</title>
<polygon fill="#68838b" stroke="black" points="380,-138 267.61,-120 380,-102 492.39,-120 380,-138"/>
<text text-anchor="middle" x="380" y="-115.8" font-family="Times,serif" font-size="14.00">if self.dp[i][j] == 3:</text>
</g>
<!-- 18&#45;&gt;21 -->
<g id="edge3" class="edge">
<title>18&#45;&gt;21</title>
<path fill="none" stroke="black" d="M226.49,-192.24C257.68,-177.77 308.68,-154.1 343.26,-138.05"/>
<polygon fill="black" stroke="black" points="344.95,-141.12 352.55,-133.74 342,-134.77 344.95,-141.12"/>
<text text-anchor="middle" x="350.01" y="-158.8" font-family="Times,serif" font-size="14.00">(self.dp[i][j] != 1)</text>
</g>
<!-- 20_calls -->
<g id="node4" class="node">
<title>20_calls</title>
<polygon fill="lightgrey" stroke="black" points="160,-52 110,-52 106,-48 106,-16 156,-16 160,-20 160,-52"/>
<polyline fill="none" stroke="black" points="156,-48 106,-48 "/>
<polyline fill="none" stroke="black" points="156,-48 156,-16 "/>
<polyline fill="none" stroke="black" points="156,-48 160,-52 "/>
<text text-anchor="middle" x="133" y="-29.8" font-family="Times,serif" font-size="14.00">print</text>
</g>
<!-- 20&#45;&gt;20_calls -->
<g id="edge1" class="edge">
<title>20&#45;&gt;20_calls</title>
<path fill="none" stroke="white" stroke-dasharray="5,2" d="M133,-101.6C133,-90.26 133,-75.23 133,-62.32"/>
<polygon fill="white" stroke="white" points="136.5,-62.1 133,-52.1 129.5,-62.1 136.5,-62.1"/>
<text text-anchor="middle" x="145.83" y="-72.8" font-family="Times,serif" font-size="14.00">calls</text>
</g>
</g>
</svg>
