<?xml version="1.0" encoding="UTF-8" standalone="no"?>
<!DOCTYPE svg PUBLIC "-//W3C//DTD SVG 1.1//EN"
 "http://www.w3.org/Graphics/SVG/1.1/DTD/svg11.dtd">
<!-- Generated by graphviz version 2.42.3 (20191010.1750)
 -->
<!-- Title: cluster/Users/vishweshdkumar/Desktop/gsoc/finalwork/finalrepo/djangotrials/demo_files/demo2.py Pages: 1 -->
<svg width="599pt" height="334pt"
 viewBox="0.00 0.00 599.00 334.00" xmlns="http://www.w3.org/2000/svg" xmlns:xlink="http://www.w3.org/1999/xlink">
<g id="graph0" class="graph" transform="scale(1 1) rotate(0) translate(4 330)">
<title>cluster/Users/vishweshdkumar/Desktop/gsoc/finalwork/finalrepo/djangotrials/demo_files/demo2.py</title>
<g id="clust1" class="cluster">
<title>clusterhasPath</title>
<polygon fill="transparent" stroke="black" points="8,-8 8,-318 583,-318 583,-8 8,-8"/>
</g>
<!-- 18 -->
<g id="node1" class="node">
<title>18</title>
<polygon fill="#68838b" stroke="black" points="275,-310 162.61,-292 275,-274 387.39,-292 275,-310"/>
<text text-anchor="middle" x="275" y="-287.8" font-family="Times,serif" font-size="14.00">if self.dp[i][j] == 1:</text>
</g>
<!-- 21 -->
<g id="node2" class="node">
<title>21</title>
<polygon fill="#68838b" stroke="black" points="275,-224 162.61,-206 275,-188 387.39,-206 275,-224"/>
<text text-anchor="middle" x="275" y="-201.8" font-family="Times,serif" font-size="14.00">if self.dp[i][j] == 3:</text>
</g>
<!-- 18&#45;&gt;21 -->
<g id="edge4" class="edge">
<title>18&#45;&gt;21</title>
<path fill="none" stroke="red" d="M275,-273.6C275,-262.26 275,-247.23 275,-234.32"/>
<polygon fill="red" stroke="red" points="278.5,-234.1 275,-224.1 271.5,-234.1 278.5,-234.1"/>
<text text-anchor="middle" x="325.01" y="-244.8" font-family="Times,serif" font-size="14.00">(self.dp[i][j] != 1)</text>
</g>
<!-- 23 -->
<g id="node3" class="node">
<title>23</title>
<polygon fill="lightblue" stroke="black" points="332.45,-138 15.55,-138 15.55,-102 332.45,-102 332.45,-138"/>
<text text-anchor="middle" x="174" y="-122.8" font-family="Times,serif" font-size="14.00">print(f&#39;i:{i},j:{j} path doesnt exist , already recorded&#39;)</text>
<text text-anchor="middle" x="174" y="-108.8" font-family="Times,serif" font-size="14.00">return False</text>
</g>
<!-- 21&#45;&gt;23 -->
<g id="edge2" class="edge">
<title>21&#45;&gt;23</title>
<path fill="none" stroke="black" d="M257.41,-190.37C242.21,-177.73 219.98,-159.24 202.29,-144.53"/>
<polygon fill="black" stroke="black" points="204.45,-141.77 194.52,-138.07 199.97,-147.15 204.45,-141.77"/>
<text text-anchor="middle" x="276.97" y="-158.8" font-family="Times,serif" font-size="14.00">self.dp[i][j] == 3</text>
</g>
<!-- 24 -->
<g id="node5" class="node">
<title>24</title>
<polygon fill="#68838b" stroke="black" points="463,-138 350.61,-120 463,-102 575.39,-120 463,-138"/>
<text text-anchor="middle" x="463" y="-115.8" font-family="Times,serif" font-size="14.00">if self.dp[i][j] == 4:</text>
</g>
<!-- 21&#45;&gt;24 -->
<g id="edge3" class="edge">
<title>21&#45;&gt;24</title>
<path fill="none" stroke="black" d="M303.15,-192.42C335.77,-177.85 389.68,-153.76 425.75,-137.64"/>
<polygon fill="black" stroke="black" points="427.27,-140.8 434.97,-133.52 424.41,-134.41 427.27,-140.8"/>
<text text-anchor="middle" x="430.01" y="-158.8" font-family="Times,serif" font-size="14.00">(self.dp[i][j] != 3)</text>
</g>
<!-- 23_calls -->
<g id="node4" class="node">
<title>23_calls</title>
<polygon fill="lightgrey" stroke="black" points="201,-52 151,-52 147,-48 147,-16 197,-16 201,-20 201,-52"/>
<polyline fill="none" stroke="black" points="197,-48 147,-48 "/>
<polyline fill="none" stroke="black" points="197,-48 197,-16 "/>
<polyline fill="none" stroke="black" points="197,-48 201,-52 "/>
<text text-anchor="middle" x="174" y="-29.8" font-family="Times,serif" font-size="14.00">print</text>
</g>
<!-- 23&#45;&gt;23_calls -->
<g id="edge1" class="edge">
<title>23&#45;&gt;23_calls</title>
<path fill="none" stroke="white" stroke-dasharray="5,2" d="M174,-101.6C174,-90.26 174,-75.23 174,-62.32"/>
<polygon fill="white" stroke="white" points="177.5,-62.1 174,-52.1 170.5,-62.1 177.5,-62.1"/>
<text text-anchor="middle" x="186.83" y="-72.8" font-family="Times,serif" font-size="14.00">calls</text>
</g>
</g>
</svg>
