<?xml version="1.0" encoding="UTF-8" standalone="no"?>
<!DOCTYPE svg PUBLIC "-//W3C//DTD SVG 1.1//EN"
 "http://www.w3.org/Graphics/SVG/1.1/DTD/svg11.dtd">
<!-- Generated by graphviz version 2.42.3 (20191010.1750)
 -->
<!-- Title: cluster/Users/vishweshdkumar/Desktop/gsoc/finalwork/finalrepo/djangotrials/demo_files/demo2.py Pages: 1 -->
<svg width="536pt" height="460pt"
 viewBox="0.00 0.00 536.00 460.00" xmlns="http://www.w3.org/2000/svg" xmlns:xlink="http://www.w3.org/1999/xlink">
<g id="graph0" class="graph" transform="scale(1 1) rotate(0) translate(4 456)">
<title>cluster/Users/vishweshdkumar/Desktop/gsoc/finalwork/finalrepo/djangotrials/demo_files/demo2.py</title>
<g id="clust1" class="cluster">
<title>clusterhasPath</title>
<polygon fill="transparent" stroke="black" points="8,-8 8,-444 520,-444 520,-8 8,-8"/>
</g>
<!-- 21 -->
<g id="node1" class="node">
<title>21</title>
<polygon fill="#68838b" stroke="black" points="249,-436 136.61,-418 249,-400 361.39,-418 249,-436"/>
<text text-anchor="middle" x="249" y="-413.8" font-family="Times,serif" font-size="14.00">if self.dp[i][j] == 3:</text>
</g>
<!-- 24 -->
<g id="node2" class="node">
<title>24</title>
<polygon fill="#68838b" stroke="black" points="249,-350 136.61,-332 249,-314 361.39,-332 249,-350"/>
<text text-anchor="middle" x="249" y="-327.8" font-family="Times,serif" font-size="14.00">if self.dp[i][j] == 4:</text>
</g>
<!-- 21&#45;&gt;24 -->
<g id="edge5" class="edge">
<title>21&#45;&gt;24</title>
<path fill="none" stroke="red" d="M249,-399.6C249,-388.26 249,-373.23 249,-360.32"/>
<polygon fill="red" stroke="red" points="252.5,-360.1 249,-350.1 245.5,-360.1 252.5,-360.1"/>
<text text-anchor="middle" x="299.01" y="-370.8" font-family="Times,serif" font-size="14.00">(self.dp[i][j] != 3)</text>
</g>
<!-- 26 -->
<g id="node3" class="node">
<title>26</title>
<polygon fill="lightblue" stroke="black" points="298.34,-215 15.66,-215 15.66,-179 298.34,-179 298.34,-215"/>
<text text-anchor="middle" x="157" y="-199.8" font-family="Times,serif" font-size="14.00">print(f&#39;i:{i},j:{j} path exists , already recorded&#39;)</text>
<text text-anchor="middle" x="157" y="-185.8" font-family="Times,serif" font-size="14.00">return True</text>
</g>
<!-- 24&#45;&gt;26 -->
<g id="edge2" class="edge">
<title>24&#45;&gt;26</title>
<path fill="none" stroke="black" d="M238.27,-315.48C222.61,-292.85 193.34,-250.54 174.53,-223.35"/>
<polygon fill="black" stroke="black" points="177.39,-221.33 168.82,-215.09 171.63,-225.31 177.39,-221.33"/>
<text text-anchor="middle" x="270.97" y="-284.8" font-family="Times,serif" font-size="14.00">self.dp[i][j] == 4</text>
</g>
<!-- 27 -->
<g id="node5" class="node">
<title>27</title>
<polygon fill="lightblue" stroke="black" points="511.75,-264 316.25,-264 316.25,-130 511.75,-130 511.75,-264"/>
<text text-anchor="middle" x="414" y="-248.8" font-family="Times,serif" font-size="14.00">ans = False</text>
<text text-anchor="middle" x="414" y="-234.8" font-family="Times,serif" font-size="14.00">self.dp[i][j] = 1</text>
<text text-anchor="middle" x="414" y="-220.8" font-family="Times,serif" font-size="14.00">right = self.hasPath(i + 1, j)</text>
<text text-anchor="middle" x="414" y="-206.8" font-family="Times,serif" font-size="14.00">left = self.hasPath(i &#45; 1, j)</text>
<text text-anchor="middle" x="414" y="-192.8" font-family="Times,serif" font-size="14.00">up = self.hasPath(i, j + 1)</text>
<text text-anchor="middle" x="414" y="-178.8" font-family="Times,serif" font-size="14.00">down = self.hasPath(i, j &#45; 1)</text>
<text text-anchor="middle" x="414" y="-164.8" font-family="Times,serif" font-size="14.00">ans = right or left or down or up</text>
<text text-anchor="middle" x="414" y="-150.8" font-family="Times,serif" font-size="14.00">self.dp[i][j] = 4 if ans else 3</text>
<text text-anchor="middle" x="414" y="-136.8" font-family="Times,serif" font-size="14.00">return ans</text>
</g>
<!-- 24&#45;&gt;27 -->
<g id="edge4" class="edge">
<title>24&#45;&gt;27</title>
<path fill="none" stroke="black" d="M280.61,-318.9C294.02,-313.02 309.41,-305.22 322,-296 332.03,-288.66 341.87,-280.13 351.16,-271.22"/>
<polygon fill="black" stroke="black" points="353.81,-273.52 358.49,-264.02 348.9,-268.53 353.81,-273.52"/>
<text text-anchor="middle" x="389.01" y="-284.8" font-family="Times,serif" font-size="14.00">(self.dp[i][j] != 4)</text>
</g>
<!-- 26_calls -->
<g id="node4" class="node">
<title>26_calls</title>
<polygon fill="lightgrey" stroke="black" points="184,-66 134,-66 130,-62 130,-30 180,-30 184,-34 184,-66"/>
<polyline fill="none" stroke="black" points="180,-62 130,-62 "/>
<polyline fill="none" stroke="black" points="180,-62 180,-30 "/>
<polyline fill="none" stroke="black" points="180,-62 184,-66 "/>
<text text-anchor="middle" x="157" y="-43.8" font-family="Times,serif" font-size="14.00">print</text>
</g>
<!-- 26&#45;&gt;26_calls -->
<g id="edge1" class="edge">
<title>26&#45;&gt;26_calls</title>
<path fill="none" stroke="white" stroke-dasharray="5,2" d="M157,-178.85C157,-153.62 157,-106.26 157,-76.24"/>
<polygon fill="white" stroke="white" points="160.5,-76.04 157,-66.04 153.5,-76.04 160.5,-76.04"/>
<text text-anchor="middle" x="169.83" y="-100.8" font-family="Times,serif" font-size="14.00">calls</text>
</g>
<!-- 27_calls -->
<g id="node6" class="node">
<title>27_calls</title>
<polygon fill="lightgrey" stroke="black" points="455.77,-80 376.23,-80 372.23,-76 372.23,-16 451.77,-16 455.77,-20 455.77,-80"/>
<polyline fill="none" stroke="black" points="451.77,-76 372.23,-76 "/>
<polyline fill="none" stroke="black" points="451.77,-76 451.77,-16 "/>
<polyline fill="none" stroke="black" points="451.77,-76 455.77,-80 "/>
<text text-anchor="middle" x="414" y="-64.8" font-family="Times,serif" font-size="14.00">self.hasPath</text>
<text text-anchor="middle" x="414" y="-50.8" font-family="Times,serif" font-size="14.00">self.hasPath</text>
<text text-anchor="middle" x="414" y="-36.8" font-family="Times,serif" font-size="14.00">self.hasPath</text>
<text text-anchor="middle" x="414" y="-22.8" font-family="Times,serif" font-size="14.00">self.hasPath</text>
</g>
<!-- 27&#45;&gt;27_calls -->
<g id="edge3" class="edge">
<title>27&#45;&gt;27_calls</title>
<path fill="none" stroke="white" stroke-dasharray="5,2" d="M414,-129.81C414,-116.49 414,-102.85 414,-90.65"/>
<polygon fill="white" stroke="white" points="417.5,-90.35 414,-80.35 410.5,-90.35 417.5,-90.35"/>
<text text-anchor="middle" x="426.83" y="-100.8" font-family="Times,serif" font-size="14.00">calls</text>
</g>
</g>
</svg>
