<?xml version="1.0" encoding="UTF-8" standalone="no"?>
<!DOCTYPE svg PUBLIC "-//W3C//DTD SVG 1.1//EN"
 "http://www.w3.org/Graphics/SVG/1.1/DTD/svg11.dtd">
<!-- Generated by graphviz version 2.42.3 (20191010.1750)
 -->
<!-- Title: cluster/Users/vishweshdkumar/Desktop/gsoc/finalwork/finalrepo/djangotrials/demo_files/demo1.py Pages: 1 -->
<svg width="412pt" height="334pt"
 viewBox="0.00 0.00 412.00 334.00" xmlns="http://www.w3.org/2000/svg" xmlns:xlink="http://www.w3.org/1999/xlink">
<g id="graph0" class="graph" transform="scale(1 1) rotate(0) translate(4 330)">
<title>cluster/Users/vishweshdkumar/Desktop/gsoc/finalwork/finalrepo/djangotrials/demo_files/demo1.py</title>
<g id="clust1" class="cluster">
<title>clusterinorder</title>
<polygon fill="transparent" stroke="black" points="8,-8 8,-318 396,-318 396,-8 8,-8"/>
</g>
<!-- 17 -->
<g id="node1" class="node">
<title>17</title>
<polygon fill="lightblue" stroke="black" points="217.1,-310 92.9,-310 92.9,-274 217.1,-274 217.1,-310"/>
<text text-anchor="middle" x="155" y="-287.8" font-family="Times,serif" font-size="14.00">ans = self.__str__()</text>
</g>
<!-- 17_calls -->
<g id="node2" class="node">
<title>17_calls</title>
<polygon fill="lightgrey" stroke="black" points="97.71,-224 20.29,-224 16.29,-220 16.29,-188 93.71,-188 97.71,-192 97.71,-224"/>
<polyline fill="none" stroke="black" points="93.71,-220 16.29,-220 "/>
<polyline fill="none" stroke="black" points="93.71,-220 93.71,-188 "/>
<polyline fill="none" stroke="black" points="93.71,-220 97.71,-224 "/>
<text text-anchor="middle" x="57" y="-201.8" font-family="Times,serif" font-size="14.00">self.__str__</text>
</g>
<!-- 17&#45;&gt;17_calls -->
<g id="edge1" class="edge">
<title>17&#45;&gt;17_calls</title>
<path fill="none" stroke="white" stroke-dasharray="5,2" d="M134.69,-273.6C120.28,-261.24 100.74,-244.49 84.87,-230.88"/>
<polygon fill="white" stroke="white" points="86.81,-227.95 76.94,-224.1 82.26,-233.26 86.81,-227.95"/>
<text text-anchor="middle" x="123.83" y="-244.8" font-family="Times,serif" font-size="14.00">calls</text>
</g>
<!-- 46 -->
<g id="node3" class="node">
<title>46</title>
<polygon fill="#68838b" stroke="black" points="252,-224 115.58,-206 252,-188 388.42,-206 252,-224"/>
<text text-anchor="middle" x="252" y="-201.8" font-family="Times,serif" font-size="14.00">if self.nextr is not None:</text>
</g>
<!-- 17&#45;&gt;46 -->
<g id="edge6" class="edge">
<title>17&#45;&gt;46</title>
<path fill="none" stroke="black" d="M175.1,-273.6C190.13,-260.58 210.77,-242.71 226.88,-228.75"/>
<polygon fill="black" stroke="black" points="229.58,-231.05 234.85,-221.86 224.99,-225.76 229.58,-231.05"/>
</g>
<!-- 18 -->
<g id="node4" class="node">
<title>18</title>
<polygon fill="lightblue" stroke="black" points="191.49,-138 58.51,-138 58.51,-102 191.49,-102 191.49,-138"/>
<text text-anchor="middle" x="125" y="-115.8" font-family="Times,serif" font-size="14.00">ans += self.__str__()</text>
</g>
<!-- 46&#45;&gt;18 -->
<g id="edge4" class="edge">
<title>46&#45;&gt;18</title>
<path fill="none" stroke="black" d="M193.88,-195.63C165.32,-189.74 135.19,-181.13 126.47,-170 121.71,-163.92 120.14,-155.99 120.09,-148.29"/>
<polygon fill="black" stroke="black" points="123.6,-148.35 120.82,-138.13 116.62,-147.85 123.6,-148.35"/>
<text text-anchor="middle" x="186.27" y="-158.8" font-family="Times,serif" font-size="14.00">self.nextr is not None</text>
</g>
<!-- 19 -->
<g id="node6" class="node">
<title>19</title>
<polygon fill="#68838b" stroke="black" points="252,-52 116.46,-34 252,-16 387.54,-34 252,-52"/>
<text text-anchor="middle" x="252" y="-29.8" font-family="Times,serif" font-size="14.00">if self.nextl is not None:</text>
</g>
<!-- 46&#45;&gt;19 -->
<g id="edge5" class="edge">
<title>46&#45;&gt;19</title>
<path fill="none" stroke="black" d="M252,-187.76C252,-158.16 252,-97.43 252,-62.11"/>
<polygon fill="black" stroke="black" points="255.5,-62.03 252,-52.03 248.5,-62.03 255.5,-62.03"/>
<text text-anchor="middle" x="306.23" y="-115.8" font-family="Times,serif" font-size="14.00">(self.nextr is None)</text>
</g>
<!-- 18_calls -->
<g id="node5" class="node">
<title>18_calls</title>
<polygon fill="lightgrey" stroke="black" points="98.71,-52 21.29,-52 17.29,-48 17.29,-16 94.71,-16 98.71,-20 98.71,-52"/>
<polyline fill="none" stroke="black" points="94.71,-48 17.29,-48 "/>
<polyline fill="none" stroke="black" points="94.71,-48 94.71,-16 "/>
<polyline fill="none" stroke="black" points="94.71,-48 98.71,-52 "/>
<text text-anchor="middle" x="58" y="-29.8" font-family="Times,serif" font-size="14.00">self.__str__</text>
</g>
<!-- 18&#45;&gt;18_calls -->
<g id="edge2" class="edge">
<title>18&#45;&gt;18_calls</title>
<path fill="none" stroke="white" stroke-dasharray="5,2" d="M111.12,-101.6C101.53,-89.58 88.64,-73.41 77.95,-60.02"/>
<polygon fill="white" stroke="white" points="80.61,-57.73 71.64,-52.1 75.13,-62.1 80.61,-57.73"/>
<text text-anchor="middle" x="107.83" y="-72.8" font-family="Times,serif" font-size="14.00">calls</text>
</g>
<!-- 18&#45;&gt;19 -->
<g id="edge3" class="edge">
<title>18&#45;&gt;19</title>
<path fill="none" stroke="black" d="M151.01,-101.8C171.54,-88.21 200.23,-69.24 221.79,-54.98"/>
<polygon fill="black" stroke="black" points="223.84,-57.82 230.25,-49.38 219.98,-51.98 223.84,-57.82"/>
</g>
</g>
</svg>
