<?xml version="1.0" encoding="UTF-8" standalone="no"?>
<!DOCTYPE svg PUBLIC "-//W3C//DTD SVG 1.1//EN"
 "http://www.w3.org/Graphics/SVG/1.1/DTD/svg11.dtd">
<!-- Generated by graphviz version 2.42.3 (20191010.1750)
 -->
<!-- Title: cluster/Users/vishweshdkumar/Desktop/gsoc/finalwork/finalrepo/flowchart_gen/leetcode_tests/Container with most water/run.py Pages: 1 -->
<svg width="394pt" height="162pt"
 viewBox="0.00 0.00 393.69 162.00" xmlns="http://www.w3.org/2000/svg" xmlns:xlink="http://www.w3.org/1999/xlink">
<g id="graph0" class="graph" transform="scale(1 1) rotate(0) translate(4 158)">
<title>cluster/Users/vishweshdkumar/Desktop/gsoc/finalwork/finalrepo/flowchart_gen/leetcode_tests/Container with most water/run.py</title>
<g id="clust1" class="cluster">
<title>clustergo</title>
<polygon fill="transparent" stroke="black" points="157.69,-8 157.69,-146 377.69,-146 377.69,-8 157.69,-8"/>
</g>
<!-- 1 -->
<g id="node1" class="node">
<title>1</title>
<polygon fill="lightblue" stroke="black" points="147.58,-138 -0.19,-138 -0.19,-102 147.58,-102 147.58,-138"/>
<text text-anchor="middle" x="73.69" y="-122.8" font-family="Times,serif" font-size="14.00">def maxArea(height):...</text>
<text text-anchor="middle" x="73.69" y="-108.8" font-family="Times,serif" font-size="14.00">def go():...</text>
</g>
<!-- 13 -->
<g id="curr_block" class="node">
<title>13</title>
<polygon fill="lightblue" stroke="black" points="370.15,-138 165.24,-138 165.24,-102 370.15,-102 370.15,-138"/>
<text text-anchor="middle" x="267.69" y="-115.8" font-family="Times,serif" font-size="14.00">maxArea([1, 8, 6, 2, 5, 4, 8, 3, 7])</text>
</g>
<!-- 13_calls -->
<g id="node3" class="node">
<title>13_calls</title>
<polygon fill="lightgrey" stroke="black" points="301.5,-52 237.89,-52 233.89,-48 233.89,-16 297.5,-16 301.5,-20 301.5,-52"/>
<polyline fill="none" stroke="black" points="297.5,-48 233.89,-48 "/>
<polyline fill="none" stroke="black" points="297.5,-48 297.5,-16 "/>
<polyline fill="none" stroke="black" points="297.5,-48 301.5,-52 "/>
<text text-anchor="middle" x="267.69" y="-29.8" font-family="Times,serif" font-size="14.00">maxArea</text>
</g>
<!-- 13&#45;&gt;13_calls -->
<g id="edge1" class="edge">
<title>13&#45;&gt;13_calls</title>
<path fill="none" stroke="white" stroke-dasharray="5,2" d="M267.69,-101.6C267.69,-90.26 267.69,-75.23 267.69,-62.32"/>
<polygon fill="white" stroke="white" points="271.19,-62.1 267.69,-52.1 264.19,-62.1 271.19,-62.1"/>
<text text-anchor="middle" x="280.52" y="-72.8" font-family="Times,serif" font-size="14.00">calls</text>
</g>
</g>
</svg>
