<?xml version="1.0" encoding="UTF-8" standalone="no"?>
<!DOCTYPE svg PUBLIC "-//W3C//DTD SVG 1.1//EN"
 "http://www.w3.org/Graphics/SVG/1.1/DTD/svg11.dtd">
<!-- Generated by graphviz version 2.42.3 (20191010.1750)
 -->
<!-- Title: cluster/Users/vishweshdkumar/Desktop/gsoc/finalwork/finalrepo/flowchart_gen/leetcode_tests/KthSsmallestElement/run.py Pages: 1 -->
<svg width="456pt" height="288pt"
 viewBox="0.00 0.00 456.25 288.00" xmlns="http://www.w3.org/2000/svg" xmlns:xlink="http://www.w3.org/1999/xlink">
<g id="graph0" class="graph" transform="scale(1 1) rotate(0) translate(4 284)">
<title>cluster/Users/vishweshdkumar/Desktop/gsoc/finalwork/finalrepo/flowchart_gen/leetcode_tests/KthSsmallestElement/run.py</title>
<g id="clust1" class="cluster">
<title>clustergo</title>
<polygon fill="transparent" stroke="black" points="312.25,-8 312.25,-272 440.25,-272 440.25,-8 312.25,-8"/>
</g>
<!-- 1 -->
<g id="node1" class="node">
<title>1</title>
<polygon fill="lightblue" stroke="black" points="302.26,-257 0.25,-257 0.25,-151 302.26,-151 302.26,-257"/>
<text text-anchor="middle" x="151.25" y="-241.8" font-family="Times,serif" font-size="14.00">def __init__(self, val=0, left=None, right=None):...</text>
<text text-anchor="middle" x="151.25" y="-227.8" font-family="Times,serif" font-size="14.00">def __str__(self):...</text>
<text text-anchor="middle" x="151.25" y="-213.8" font-family="Times,serif" font-size="14.00">def rec(self):...</text>
<text text-anchor="middle" x="151.25" y="-199.8" font-family="Times,serif" font-size="14.00">def __repr__(self):...</text>
<text text-anchor="middle" x="151.25" y="-185.8" font-family="Times,serif" font-size="14.00">def __eq__(self, other):...</text>
<text text-anchor="middle" x="151.25" y="-171.8" font-family="Times,serif" font-size="14.00">def kthSmallest(root, k):...</text>
<text text-anchor="middle" x="151.25" y="-157.8" font-family="Times,serif" font-size="14.00">def go():...</text>
</g>
<!-- 40 -->
<g id="curr_block" class="node">
<title>40</title>
<polygon fill="lightblue" stroke="red" stroke-width="3" points="431.9,-264 320.6,-264 320.6,-144 431.9,-144 431.9,-264"/>
<text text-anchor="middle" x="376.25" y="-248.8" font-family="Times,serif" font-size="14.00">a = TreeNode(3)</text>
<text text-anchor="middle" x="376.25" y="-234.8" font-family="Times,serif" font-size="14.00">b = TreeNode(1)</text>
<text text-anchor="middle" x="376.25" y="-220.8" font-family="Times,serif" font-size="14.00">c = TreeNode(4)</text>
<text text-anchor="middle" x="376.25" y="-206.8" font-family="Times,serif" font-size="14.00">d = TreeNode(2)</text>
<text text-anchor="middle" x="376.25" y="-192.8" font-family="Times,serif" font-size="14.00">a.left = b</text>
<text text-anchor="middle" x="376.25" y="-178.8" font-family="Times,serif" font-size="14.00">b.right = d</text>
<text text-anchor="middle" x="376.25" y="-164.8" font-family="Times,serif" font-size="14.00">a.right = c</text>
<text text-anchor="middle" x="376.25" y="-150.8" font-family="Times,serif" font-size="14.00">kthSmallest(a, 1)</text>
</g>
<!-- 40_calls -->
<g id="node3" class="node">
<title>40_calls</title>
<polygon fill="lightgrey" stroke="black" points="417.36,-94 339.14,-94 335.14,-90 335.14,-16 413.36,-16 417.36,-20 417.36,-94"/>
<polyline fill="none" stroke="black" points="413.36,-90 335.14,-90 "/>
<polyline fill="none" stroke="black" points="413.36,-90 413.36,-16 "/>
<polyline fill="none" stroke="black" points="413.36,-90 417.36,-94 "/>
<text text-anchor="middle" x="376.25" y="-78.8" font-family="Times,serif" font-size="14.00">TreeNode</text>
<text text-anchor="middle" x="376.25" y="-64.8" font-family="Times,serif" font-size="14.00">TreeNode</text>
<text text-anchor="middle" x="376.25" y="-50.8" font-family="Times,serif" font-size="14.00">TreeNode</text>
<text text-anchor="middle" x="376.25" y="-36.8" font-family="Times,serif" font-size="14.00">TreeNode</text>
<text text-anchor="middle" x="376.25" y="-22.8" font-family="Times,serif" font-size="14.00">kthSmallest</text>
</g>
<!-- 40&#45;&gt;40_calls -->
<g id="edge1" class="edge">
<title>40&#45;&gt;40_calls</title>
<path fill="none" stroke="white" stroke-dasharray="5,2" d="M376.25,-143.63C376.25,-130.56 376.25,-116.87 376.25,-104.29"/>
<polygon fill="white" stroke="white" points="379.75,-104.03 376.25,-94.03 372.75,-104.03 379.75,-104.03"/>
<text text-anchor="middle" x="389.08" y="-114.8" font-family="Times,serif" font-size="14.00">calls</text>
</g>
</g>
</svg>
