<?xml version="1.0" encoding="UTF-8" standalone="no"?>
<!DOCTYPE svg PUBLIC "-//W3C//DTD SVG 1.1//EN"
 "http://www.w3.org/Graphics/SVG/1.1/DTD/svg11.dtd">
<!-- Generated by graphviz version 2.42.3 (20191010.1750)
 -->
<!-- Title: cluster/Users/vishweshdkumar/Desktop/gsoc/finalwork/finalrepo/flowchart_gen/leetcode_tests/KthSsmallestElement/run.py Pages: 1 -->
<svg width="152pt" height="288pt"
 viewBox="0.00 0.00 152.00 288.00" xmlns="http://www.w3.org/2000/svg" xmlns:xlink="http://www.w3.org/1999/xlink">
<g id="graph0" class="graph" transform="scale(1 1) rotate(0) translate(4 284)">
<title>cluster/Users/vishweshdkumar/Desktop/gsoc/finalwork/finalrepo/flowchart_gen/leetcode_tests/KthSsmallestElement/run.py</title>
<g id="clust1" class="cluster">
<title>clustergo</title>
<polygon fill="transparent" stroke="black" points="8,-8 8,-272 136,-272 136,-8 8,-8"/>
</g>
<!-- 40 -->
<g id="node1" class="node">
<title>40</title>
<polygon fill="lightblue" stroke="black" points="127.65,-264 16.35,-264 16.35,-144 127.65,-144 127.65,-264"/>
<text text-anchor="middle" x="72" y="-248.8" font-family="Times,serif" font-size="14.00">a = TreeNode(3)</text>
<text text-anchor="middle" x="72" y="-234.8" font-family="Times,serif" font-size="14.00">b = TreeNode(1)</text>
<text text-anchor="middle" x="72" y="-220.8" font-family="Times,serif" font-size="14.00">c = TreeNode(4)</text>
<text text-anchor="middle" x="72" y="-206.8" font-family="Times,serif" font-size="14.00">d = TreeNode(2)</text>
<text text-anchor="middle" x="72" y="-192.8" font-family="Times,serif" font-size="14.00">a.left = b</text>
<text text-anchor="middle" x="72" y="-178.8" font-family="Times,serif" font-size="14.00">b.right = d</text>
<text text-anchor="middle" x="72" y="-164.8" font-family="Times,serif" font-size="14.00">a.right = c</text>
<text text-anchor="middle" x="72" y="-150.8" font-family="Times,serif" font-size="14.00">kthSmallest(a, 1)</text>
</g>
<!-- 40_calls -->
<g id="node2" class="node">
<title>40_calls</title>
<polygon fill="lightgrey" stroke="black" points="113.11,-94 34.89,-94 30.89,-90 30.89,-16 109.11,-16 113.11,-20 113.11,-94"/>
<polyline fill="none" stroke="black" points="109.11,-90 30.89,-90 "/>
<polyline fill="none" stroke="black" points="109.11,-90 109.11,-16 "/>
<polyline fill="none" stroke="black" points="109.11,-90 113.11,-94 "/>
<text text-anchor="middle" x="72" y="-78.8" font-family="Times,serif" font-size="14.00">TreeNode</text>
<text text-anchor="middle" x="72" y="-64.8" font-family="Times,serif" font-size="14.00">TreeNode</text>
<text text-anchor="middle" x="72" y="-50.8" font-family="Times,serif" font-size="14.00">TreeNode</text>
<text text-anchor="middle" x="72" y="-36.8" font-family="Times,serif" font-size="14.00">TreeNode</text>
<text text-anchor="middle" x="72" y="-22.8" font-family="Times,serif" font-size="14.00">kthSmallest</text>
</g>
<!-- 40&#45;&gt;40_calls -->
<g id="edge1" class="edge">
<title>40&#45;&gt;40_calls</title>
<path fill="none" stroke="white" stroke-dasharray="5,2" d="M72,-143.63C72,-130.56 72,-116.87 72,-104.29"/>
<polygon fill="white" stroke="white" points="75.5,-104.03 72,-94.03 68.5,-104.03 75.5,-104.03"/>
<text text-anchor="middle" x="84.83" y="-114.8" font-family="Times,serif" font-size="14.00">calls</text>
</g>
</g>
</svg>
