<?xml version="1.0" encoding="UTF-8" standalone="no"?>
<!DOCTYPE svg PUBLIC "-//W3C//DTD SVG 1.1//EN"
 "http://www.w3.org/Graphics/SVG/1.1/DTD/svg11.dtd">
<!-- Generated by graphviz version 2.42.3 (20191010.1750)
 -->
<!-- Title: cluster/Users/vishweshdkumar/Desktop/gsoc/finalwork/finalrepo/djangotrials/demo_files/demo2.py Pages: 1 -->
<svg width="545pt" height="292pt"
 viewBox="0.00 0.00 544.66 292.00" xmlns="http://www.w3.org/2000/svg" xmlns:xlink="http://www.w3.org/1999/xlink">
<g id="graph0" class="graph" transform="scale(1 1) rotate(0) translate(4 288)">
<title>cluster/Users/vishweshdkumar/Desktop/gsoc/finalwork/finalrepo/djangotrials/demo_files/demo2.py</title>
<polygon fill="darkgray" stroke="transparent" points="-4,4 -4,-288 540.66,-288 540.66,4 -4,4"/>
<text text-anchor="middle" x="268.33" y="-6.8" font-family="Times,serif" font-size="14.00">/Users/vishweshdkumar/Desktop/gsoc/finalwork/finalrepo/djangotrials/demo_files/demo2.py</text>
<g id="clust1" class="cluster">
<title>clusterhasPath</title>
<polygon fill="darkgray" stroke="black" points="97.83,-30 97.83,-276 438.83,-276 438.83,-30 97.83,-30"/>
<text text-anchor="middle" x="268.33" y="-260.8" font-family="Times,serif" font-size="14.00">hasPath</text>
</g>
<!-- 12 -->
<g id="node1" class="node">
<title>12</title>
<polygon fill="#68838b" stroke="black" points="250.83,-246 118.16,-228 250.83,-210 383.5,-228 250.83,-246"/>
<text text-anchor="middle" x="250.83" y="-223.8" font-family="Times,serif" font-size="14.00">if self.matrix[i][j] == 0:</text>
</g>
<!-- 15 -->
<g id="node2" class="node">
<title>15</title>
<polygon fill="#68838b" stroke="black" points="250.83,-160 138.44,-142 250.83,-124 363.22,-142 250.83,-160"/>
<text text-anchor="middle" x="250.83" y="-137.8" font-family="Times,serif" font-size="14.00">if self.dp[i][j] == 1:</text>
</g>
<!-- 12&#45;&gt;15 -->
<g id="edge3" class="edge">
<title>12&#45;&gt;15</title>
<path fill="none" stroke="red" d="M250.83,-209.6C250.83,-198.26 250.83,-183.23 250.83,-170.32"/>
<polygon fill="red" stroke="red" points="254.33,-170.1 250.83,-160.1 247.33,-170.1 254.33,-170.1"/>
<text text-anchor="middle" x="312.11" y="-180.8" font-family="Times,serif" font-size="14.00">(self.matrix[i][j] != 0)</text>
</g>
<!-- 17 -->
<g id="node3" class="node">
<title>17</title>
<polygon fill="lightblue" stroke="black" points="188.31,-74 105.35,-74 105.35,-38 188.31,-38 188.31,-74"/>
<text text-anchor="middle" x="146.83" y="-51.8" font-family="Times,serif" font-size="14.00">return False</text>
</g>
<!-- 15&#45;&gt;17 -->
<g id="edge1" class="edge">
<title>15&#45;&gt;17</title>
<path fill="none" stroke="black" d="M219.38,-128.9C206.88,-123.15 192.89,-115.45 181.9,-106 174.2,-99.39 167.31,-90.76 161.71,-82.59"/>
<polygon fill="black" stroke="black" points="164.54,-80.52 156.17,-74.02 158.66,-84.32 164.54,-80.52"/>
<text text-anchor="middle" x="228.8" y="-94.8" font-family="Times,serif" font-size="14.00">self.dp[i][j] == 1</text>
</g>
<!-- 18 -->
<g id="node4" class="node">
<title>18</title>
<polygon fill="#68838b" stroke="black" points="318.83,-74 206.44,-56 318.83,-38 431.22,-56 318.83,-74"/>
<text text-anchor="middle" x="318.83" y="-51.8" font-family="Times,serif" font-size="14.00">if self.dp[i][j] == 3:</text>
</g>
<!-- 15&#45;&gt;18 -->
<g id="edge2" class="edge">
<title>15&#45;&gt;18</title>
<path fill="none" stroke="black" d="M263.3,-125.59C273.56,-112.92 288.25,-94.77 299.95,-80.32"/>
<polygon fill="black" stroke="black" points="302.86,-82.28 306.44,-72.31 297.42,-77.88 302.86,-82.28"/>
<text text-anchor="middle" x="338.84" y="-94.8" font-family="Times,serif" font-size="14.00">(self.dp[i][j] != 1)</text>
</g>
</g>
</svg>
