<?xml version="1.0" encoding="UTF-8" standalone="no"?>
<!DOCTYPE svg PUBLIC "-//W3C//DTD SVG 1.1//EN"
 "http://www.w3.org/Graphics/SVG/1.1/DTD/svg11.dtd">
<!-- Generated by graphviz version 2.42.3 (20191010.1750)
 -->
<!-- Title: cluster/Users/vishweshdkumar/Desktop/gsoc/finalwork/finalrepo/flowchart_gen/leetcode_tests/KthSsmallestElement/run.py Pages: 1 -->
<svg width="244pt" height="235pt"
 viewBox="0.00 0.00 244.00 235.00" xmlns="http://www.w3.org/2000/svg" xmlns:xlink="http://www.w3.org/1999/xlink">
<g id="graph0" class="graph" transform="scale(1 1) rotate(0) translate(4 231)">
<title>cluster/Users/vishweshdkumar/Desktop/gsoc/finalwork/finalrepo/flowchart_gen/leetcode_tests/KthSsmallestElement/run.py</title>
<g id="clust1" class="cluster">
<title>clusterkthSmallest</title>
<polygon fill="transparent" stroke="black" points="8,-8 8,-219 228,-219 228,-8 8,-8"/>
</g>
<!-- 22 -->
<g id="node1" class="node">
<title>22</title>
<polygon fill="lightblue" stroke="black" points="219.88,-211 140.12,-211 140.12,-175 219.88,-175 219.88,-211"/>
<text text-anchor="middle" x="180" y="-195.8" font-family="Times,serif" font-size="14.00">head = root</text>
<text text-anchor="middle" x="180" y="-181.8" font-family="Times,serif" font-size="14.00">stack = []</text>
</g>
<!-- 23 -->
<g id="node2" class="node">
<title>23</title>
<ellipse fill="#68838b" stroke="black" cx="118" cy="-120" rx="78.75" ry="18"/>
<text text-anchor="middle" x="118" y="-115.8" font-family="Times,serif" font-size="14.00">while root or stack:</text>
</g>
<!-- 22&#45;&gt;23 -->
<g id="edge3" class="edge">
<title>22&#45;&gt;23</title>
<path fill="none" stroke="red" d="M164.99,-174.81C157.38,-166.09 147.99,-155.34 139.61,-145.75"/>
<polygon fill="red" stroke="red" points="142.08,-143.26 132.87,-138.03 136.81,-147.86 142.08,-143.26"/>
</g>
<!-- 24 -->
<g id="node3" class="node">
<title>24</title>
<ellipse fill="#68838b" stroke="black" cx="118" cy="-34" rx="48.84" ry="18"/>
<text text-anchor="middle" x="118" y="-29.8" font-family="Times,serif" font-size="14.00">while root:</text>
</g>
<!-- 23&#45;&gt;24 -->
<g id="edge2" class="edge">
<title>23&#45;&gt;24</title>
<path fill="none" stroke="black" d="M118,-101.6C118,-90.26 118,-75.23 118,-62.32"/>
<polygon fill="black" stroke="black" points="121.5,-62.1 118,-52.1 114.5,-62.1 121.5,-62.1"/>
<text text-anchor="middle" x="152.99" y="-72.8" font-family="Times,serif" font-size="14.00">root or stack</text>
</g>
<!-- 29 -->
<g id="node4" class="node">
<title>29</title>
<polygon fill="lightblue" stroke="black" points="121.94,-211 16.06,-211 16.06,-175 121.94,-175 121.94,-211"/>
<text text-anchor="middle" x="69" y="-188.8" font-family="Times,serif" font-size="14.00">root = root.right</text>
</g>
<!-- 29&#45;&gt;23 -->
<g id="edge1" class="edge">
<title>29&#45;&gt;23</title>
<path fill="none" stroke="black" d="M80.86,-174.81C86.76,-166.27 94,-155.77 100.52,-146.32"/>
<polygon fill="black" stroke="black" points="103.45,-148.25 106.25,-138.03 97.69,-144.27 103.45,-148.25"/>
</g>
</g>
</svg>
