<?xml version="1.0" encoding="UTF-8" standalone="no"?>
<!DOCTYPE svg PUBLIC "-//W3C//DTD SVG 1.1//EN"
 "http://www.w3.org/Graphics/SVG/1.1/DTD/svg11.dtd">
<!-- Generated by graphviz version 2.42.3 (20191010.1750)
 -->
<!-- Title: cluster/Users/vishweshdkumar/Desktop/gsoc/finalwork/finalrepo/flowchart_gen/leetcode_tests/KthSsmallestElement/run.py Pages: 1 -->
<svg width="244pt" height="263pt"
 viewBox="0.00 0.00 244.00 263.00" xmlns="http://www.w3.org/2000/svg" xmlns:xlink="http://www.w3.org/1999/xlink">
<g id="graph0" class="graph" transform="scale(1 1) rotate(0) translate(4 259)">
<title>cluster/Users/vishweshdkumar/Desktop/gsoc/finalwork/finalrepo/flowchart_gen/leetcode_tests/KthSsmallestElement/run.py</title>
<g id="clust1" class="cluster">
<title>clusterkthSmallest</title>
<polygon fill="transparent" stroke="black" points="8,-8 8,-247 228,-247 228,-8 8,-8"/>
</g>
<!-- 29 -->
<g id="node1" class="node">
<title>29</title>
<polygon fill="lightblue" stroke="black" points="219.88,-239 140.12,-239 140.12,-175 219.88,-175 219.88,-239"/>
<text text-anchor="middle" x="180" y="-223.8" font-family="Times,serif" font-size="14.00">head = root</text>
<text text-anchor="middle" x="180" y="-209.8" font-family="Times,serif" font-size="14.00">root</text>
<text text-anchor="middle" x="180" y="-195.8" font-family="Times,serif" font-size="14.00">stack = []</text>
<text text-anchor="middle" x="180" y="-181.8" font-family="Times,serif" font-size="14.00">k</text>
</g>
<!-- 30 -->
<g id="node2" class="node">
<title>30</title>
<ellipse fill="#68838b" stroke="black" cx="118" cy="-120" rx="78.75" ry="18"/>
<text text-anchor="middle" x="118" y="-115.8" font-family="Times,serif" font-size="14.00">while root or stack:</text>
</g>
<!-- 29&#45;&gt;30 -->
<g id="edge3" class="edge">
<title>29&#45;&gt;30</title>
<path fill="none" stroke="red" d="M157.27,-174.83C150.35,-165.35 142.85,-155.06 136.27,-146.04"/>
<polygon fill="red" stroke="red" points="139.01,-143.87 130.29,-137.85 133.36,-147.99 139.01,-143.87"/>
</g>
<!-- 31 -->
<g id="node3" class="node">
<title>31</title>
<ellipse fill="#68838b" stroke="black" cx="118" cy="-34" rx="48.84" ry="18"/>
<text text-anchor="middle" x="118" y="-29.8" font-family="Times,serif" font-size="14.00">while root:</text>
</g>
<!-- 30&#45;&gt;31 -->
<g id="edge2" class="edge">
<title>30&#45;&gt;31</title>
<path fill="none" stroke="black" d="M118,-101.6C118,-90.26 118,-75.23 118,-62.32"/>
<polygon fill="black" stroke="black" points="121.5,-62.1 118,-52.1 114.5,-62.1 121.5,-62.1"/>
<text text-anchor="middle" x="152.99" y="-72.8" font-family="Times,serif" font-size="14.00">root or stack</text>
</g>
<!-- 36 -->
<g id="node4" class="node">
<title>36</title>
<polygon fill="lightblue" stroke="black" points="121.94,-225 16.06,-225 16.06,-189 121.94,-189 121.94,-225"/>
<text text-anchor="middle" x="69" y="-202.8" font-family="Times,serif" font-size="14.00">root = root.right</text>
</g>
<!-- 36&#45;&gt;30 -->
<g id="edge1" class="edge">
<title>36&#45;&gt;30</title>
<path fill="none" stroke="black" d="M78.92,-188.8C85.87,-176.74 95.29,-160.4 103.13,-146.79"/>
<polygon fill="black" stroke="black" points="106.3,-148.3 108.27,-137.89 100.24,-144.8 106.3,-148.3"/>
</g>
</g>
</svg>
