<?xml version="1.0" encoding="UTF-8" standalone="no"?>
<!DOCTYPE svg PUBLIC "-//W3C//DTD SVG 1.1//EN"
 "http://www.w3.org/Graphics/SVG/1.1/DTD/svg11.dtd">
<!-- Generated by graphviz version 2.42.3 (20191010.1750)
 -->
<!-- Title: cluster/Users/vishweshdkumar/Desktop/gsoc/finalwork/finalrepo/flowchart_gen/leetcode_tests/KthSsmallestElement/run.py Pages: 1 -->
<svg width="160pt" height="248pt"
 viewBox="0.00 0.00 160.00 248.00" xmlns="http://www.w3.org/2000/svg" xmlns:xlink="http://www.w3.org/1999/xlink">
<g id="graph0" class="graph" transform="scale(1 1) rotate(0) translate(4 244)">
<title>cluster/Users/vishweshdkumar/Desktop/gsoc/finalwork/finalrepo/flowchart_gen/leetcode_tests/KthSsmallestElement/run.py</title>
<g id="clust1" class="cluster">
<title>clusterkthSmallest</title>
<polygon fill="transparent" stroke="black" points="8,-8 8,-232 144,-232 144,-8 8,-8"/>
</g>
<!-- 31 -->
<g id="node1" class="node">
<title>31</title>
<ellipse fill="#68838b" stroke="black" cx="73" cy="-206" rx="48.84" ry="18"/>
<text text-anchor="middle" x="73" y="-201.8" font-family="Times,serif" font-size="14.00">while root:</text>
</g>
<!-- 33 -->
<g id="node2" class="node">
<title>33</title>
<polygon fill="lightblue" stroke="black" points="136.07,-138 15.93,-138 15.93,-102 136.07,-102 136.07,-138"/>
<text text-anchor="middle" x="76" y="-122.8" font-family="Times,serif" font-size="14.00">stack.append(root)</text>
<text text-anchor="middle" x="76" y="-108.8" font-family="Times,serif" font-size="14.00">root = root.left</text>
</g>
<!-- 31&#45;&gt;33 -->
<g id="edge3" class="edge">
<title>31&#45;&gt;33</title>
<path fill="none" stroke="red" d="M58.01,-188.65C51.3,-179.32 45.66,-167.27 49.45,-156 50.52,-152.82 52,-149.7 53.73,-146.71"/>
<polygon fill="red" stroke="red" points="56.77,-148.46 59.47,-138.22 50.97,-144.55 56.77,-148.46"/>
<text text-anchor="middle" x="61.28" y="-158.8" font-family="Times,serif" font-size="14.00">root</text>
</g>
<!-- 33&#45;&gt;31 -->
<g id="edge2" class="edge">
<title>33&#45;&gt;31</title>
<path fill="none" stroke="black" d="M76.36,-138.24C76.46,-147.64 76.45,-159.46 76,-170 75.89,-172.56 75.74,-175.22 75.55,-177.88"/>
<polygon fill="black" stroke="black" points="72.06,-177.68 74.76,-187.93 79.04,-178.24 72.06,-177.68"/>
</g>
<!-- 33_calls -->
<g id="node3" class="node">
<title>33_calls</title>
<polygon fill="lightgrey" stroke="black" points="120.19,-52 35.81,-52 31.81,-48 31.81,-16 116.19,-16 120.19,-20 120.19,-52"/>
<polyline fill="none" stroke="black" points="116.19,-48 31.81,-48 "/>
<polyline fill="none" stroke="black" points="116.19,-48 116.19,-16 "/>
<polyline fill="none" stroke="black" points="116.19,-48 120.19,-52 "/>
<text text-anchor="middle" x="76" y="-29.8" font-family="Times,serif" font-size="14.00">stack.append</text>
</g>
<!-- 33&#45;&gt;33_calls -->
<g id="edge1" class="edge">
<title>33&#45;&gt;33_calls</title>
<path fill="none" stroke="white" stroke-dasharray="5,2" d="M76,-101.6C76,-90.26 76,-75.23 76,-62.32"/>
<polygon fill="white" stroke="white" points="79.5,-62.1 76,-52.1 72.5,-62.1 79.5,-62.1"/>
<text text-anchor="middle" x="88.83" y="-72.8" font-family="Times,serif" font-size="14.00">calls</text>
</g>
</g>
</svg>
