<?xml version="1.0" encoding="UTF-8" standalone="no"?>
<!DOCTYPE svg PUBLIC "-//W3C//DTD SVG 1.1//EN"
 "http://www.w3.org/Graphics/SVG/1.1/DTD/svg11.dtd">
<!-- Generated by graphviz version 2.42.3 (20191010.1750)
 -->
<!-- Title: cluster/Users/vishweshdkumar/Desktop/gsoc/finalwork/finalrepo/flowchart_gen/leetcode_tests/KthSsmallestElement/run.py Pages: 1 -->
<svg width="659pt" height="547pt"
 viewBox="0.00 0.00 659.25 547.00" xmlns="http://www.w3.org/2000/svg" xmlns:xlink="http://www.w3.org/1999/xlink">
<g id="graph0" class="graph" transform="scale(1 1) rotate(0) translate(4 543)">
<title>cluster/Users/vishweshdkumar/Desktop/gsoc/finalwork/finalrepo/flowchart_gen/leetcode_tests/KthSsmallestElement/run.py</title>
<g id="clust1" class="cluster">
<title>clusterkthSmallest</title>
<polygon fill="transparent" stroke="black" points="310.25,-8 310.25,-526 643.25,-526 643.25,-8 310.25,-8"/>
</g>
<!-- 1 -->
<g id="node1" class="node">
<title>1</title>
<polygon fill="lightblue" stroke="black" points="302.26,-539 0.25,-539 0.25,-433 302.26,-433 302.26,-539"/>
<text text-anchor="middle" x="151.25" y="-523.8" font-family="Times,serif" font-size="14.00">def __init__(self, val=0, left=None, right=None):...</text>
<text text-anchor="middle" x="151.25" y="-509.8" font-family="Times,serif" font-size="14.00">def __str__(self):...</text>
<text text-anchor="middle" x="151.25" y="-495.8" font-family="Times,serif" font-size="14.00">def rec(self):...</text>
<text text-anchor="middle" x="151.25" y="-481.8" font-family="Times,serif" font-size="14.00">def __repr__(self):...</text>
<text text-anchor="middle" x="151.25" y="-467.8" font-family="Times,serif" font-size="14.00">def __eq__(self, other):...</text>
<text text-anchor="middle" x="151.25" y="-453.8" font-family="Times,serif" font-size="14.00">def kthSmallest(root, k):...</text>
<text text-anchor="middle" x="151.25" y="-439.8" font-family="Times,serif" font-size="14.00">def go():...</text>
</g>
<!-- 29 -->
<g id="node2" class="node">
<title>29</title>
<polygon fill="lightblue" stroke="black" points="447.13,-518 367.38,-518 367.38,-454 447.13,-454 447.13,-518"/>
<text text-anchor="middle" x="407.25" y="-502.8" font-family="Times,serif" font-size="14.00">head = root</text>
<text text-anchor="middle" x="407.25" y="-488.8" font-family="Times,serif" font-size="14.00">root</text>
<text text-anchor="middle" x="407.25" y="-474.8" font-family="Times,serif" font-size="14.00">stack = []</text>
<text text-anchor="middle" x="407.25" y="-460.8" font-family="Times,serif" font-size="14.00">k</text>
</g>
<!-- 30 -->
<g id="node3" class="node">
<title>30</title>
<ellipse fill="#68838b" stroke="black" cx="407.25" cy="-378" rx="78.75" ry="18"/>
<text text-anchor="middle" x="407.25" y="-373.8" font-family="Times,serif" font-size="14.00">while root or stack:</text>
</g>
<!-- 29&#45;&gt;30 -->
<g id="edge9" class="edge">
<title>29&#45;&gt;30</title>
<path fill="none" stroke="black" d="M407.25,-453.77C407.25,-438.78 407.25,-420.98 407.25,-406.51"/>
<polygon fill="black" stroke="black" points="410.75,-406.19 407.25,-396.19 403.75,-406.19 410.75,-406.19"/>
</g>
<!-- 31 -->
<g id="node4" class="node">
<title>31</title>
<ellipse fill="#68838b" stroke="black" cx="407.25" cy="-292" rx="48.84" ry="18"/>
<text text-anchor="middle" x="407.25" y="-287.8" font-family="Times,serif" font-size="14.00">while root:</text>
</g>
<!-- 30&#45;&gt;31 -->
<g id="edge8" class="edge">
<title>30&#45;&gt;31</title>
<path fill="none" stroke="black" d="M407.25,-359.6C407.25,-348.26 407.25,-333.23 407.25,-320.32"/>
<polygon fill="black" stroke="black" points="410.75,-320.1 407.25,-310.1 403.75,-320.1 410.75,-320.1"/>
<text text-anchor="middle" x="442.24" y="-330.8" font-family="Times,serif" font-size="14.00">root or stack</text>
</g>
<!-- 33 -->
<g id="curr_block" class="node">
<title>33</title>
<polygon fill="lightblue" stroke="black" points="438.32,-224 318.18,-224 318.18,-188 438.32,-188 438.32,-224"/>
<text text-anchor="middle" x="378.25" y="-208.8" font-family="Times,serif" font-size="14.00">stack.append(root)</text>
<text text-anchor="middle" x="378.25" y="-194.8" font-family="Times,serif" font-size="14.00">root = root.left</text>
</g>
<!-- 31&#45;&gt;33 -->
<g id="edge3" class="edge">
<title>31&#45;&gt;33</title>
<path fill="none" stroke="red" d="M388.65,-275.32C383.45,-269.8 378.46,-263.18 375.7,-256 373.12,-249.27 372.52,-241.63 372.88,-234.42"/>
<polygon fill="red" stroke="red" points="376.38,-234.64 373.97,-224.32 369.42,-233.89 376.38,-234.64"/>
<text text-anchor="middle" x="386.53" y="-244.8" font-family="Times,serif" font-size="14.00">root</text>
</g>
<!-- 34 -->
<g id="node7" class="node">
<title>34</title>
<polygon fill="lightblue" stroke="black" points="572.29,-224 456.22,-224 456.22,-188 572.29,-188 572.29,-224"/>
<text text-anchor="middle" x="514.25" y="-208.8" font-family="Times,serif" font-size="14.00">root = stack.pop()</text>
<text text-anchor="middle" x="514.25" y="-194.8" font-family="Times,serif" font-size="14.00">k &#45;= 1</text>
</g>
<!-- 31&#45;&gt;34 -->
<g id="edge7" class="edge">
<title>31&#45;&gt;34</title>
<path fill="none" stroke="black" d="M427.13,-275.4C443.17,-262.81 465.98,-244.89 484.24,-230.56"/>
<polygon fill="black" stroke="black" points="486.57,-233.18 492.27,-224.26 482.25,-227.68 486.57,-233.18"/>
<text text-anchor="middle" x="492.89" y="-244.8" font-family="Times,serif" font-size="14.00">(not root)</text>
</g>
<!-- 33&#45;&gt;31 -->
<g id="edge2" class="edge">
<title>33&#45;&gt;31</title>
<path fill="none" stroke="black" d="M392.56,-224.21C396.33,-229.6 399.97,-235.77 402.25,-242 404.75,-248.8 406.14,-256.46 406.88,-263.67"/>
<polygon fill="black" stroke="black" points="403.4,-264.01 407.56,-273.75 410.38,-263.54 403.4,-264.01"/>
</g>
<!-- 33_calls -->
<g id="node6" class="node">
<title>33_calls</title>
<polygon fill="lightgrey" stroke="black" points="406.45,-138 322.06,-138 318.06,-134 318.06,-102 402.45,-102 406.45,-106 406.45,-138"/>
<polyline fill="none" stroke="black" points="402.45,-134 318.06,-134 "/>
<polyline fill="none" stroke="black" points="402.45,-134 402.45,-102 "/>
<polyline fill="none" stroke="black" points="402.45,-134 406.45,-138 "/>
<text text-anchor="middle" x="362.25" y="-115.8" font-family="Times,serif" font-size="14.00">stack.append</text>
</g>
<!-- 33&#45;&gt;33_calls -->
<g id="edge1" class="edge">
<title>33&#45;&gt;33_calls</title>
<path fill="none" stroke="white" stroke-dasharray="5,2" d="M374.94,-187.6C372.76,-176.14 369.86,-160.93 367.38,-147.93"/>
<polygon fill="white" stroke="white" points="370.82,-147.26 365.51,-138.1 363.94,-148.57 370.82,-147.26"/>
<text text-anchor="middle" x="383.08" y="-158.8" font-family="Times,serif" font-size="14.00">calls</text>
</g>
<!-- 34_calls -->
<g id="node8" class="node">
<title>34_calls</title>
<polygon fill="lightgrey" stroke="black" points="635.02,-138 569.49,-138 565.49,-134 565.49,-102 631.02,-102 635.02,-106 635.02,-138"/>
<polyline fill="none" stroke="black" points="631.02,-134 565.49,-134 "/>
<polyline fill="none" stroke="black" points="631.02,-134 631.02,-102 "/>
<polyline fill="none" stroke="black" points="631.02,-134 635.02,-138 "/>
<text text-anchor="middle" x="600.25" y="-115.8" font-family="Times,serif" font-size="14.00">stack.pop</text>
</g>
<!-- 34&#45;&gt;34_calls -->
<g id="edge4" class="edge">
<title>34&#45;&gt;34_calls</title>
<path fill="none" stroke="white" stroke-dasharray="5,2" d="M532.07,-187.6C544.61,-175.35 561.56,-158.8 575.42,-145.26"/>
<polygon fill="white" stroke="white" points="578.04,-147.59 582.75,-138.1 573.15,-142.58 578.04,-147.59"/>
<text text-anchor="middle" x="575.08" y="-158.8" font-family="Times,serif" font-size="14.00">calls</text>
</g>
<!-- 43 -->
<g id="node9" class="node">
<title>43</title>
<polygon fill="#68838b" stroke="black" points="486.25,-138 424.95,-120 486.25,-102 547.55,-120 486.25,-138"/>
<text text-anchor="middle" x="486.25" y="-115.8" font-family="Times,serif" font-size="14.00">if k == 0:</text>
</g>
<!-- 34&#45;&gt;43 -->
<g id="edge6" class="edge">
<title>34&#45;&gt;43</title>
<path fill="none" stroke="black" d="M508.45,-187.6C504.47,-175.65 499.12,-159.6 494.67,-146.25"/>
<polygon fill="black" stroke="black" points="497.96,-145.06 491.48,-136.68 491.32,-147.28 497.96,-145.06"/>
</g>
<!-- 35 -->
<g id="node10" class="node">
<title>35</title>
<polygon fill="lightblue" stroke="black" points="534.34,-52 438.17,-52 438.17,-16 534.34,-16 534.34,-52"/>
<text text-anchor="middle" x="486.25" y="-29.8" font-family="Times,serif" font-size="14.00">return root.val</text>
</g>
<!-- 43&#45;&gt;35 -->
<g id="edge5" class="edge">
<title>43&#45;&gt;35</title>
<path fill="none" stroke="black" d="M486.25,-101.6C486.25,-90.26 486.25,-75.23 486.25,-62.32"/>
<polygon fill="black" stroke="black" points="489.75,-62.1 486.25,-52.1 482.75,-62.1 489.75,-62.1"/>
<text text-anchor="middle" x="504.65" y="-72.8" font-family="Times,serif" font-size="14.00">k == 0</text>
</g>
</g>
</svg>
