<?xml version="1.0" encoding="UTF-8" standalone="no"?>
<!DOCTYPE svg PUBLIC "-//W3C//DTD SVG 1.1//EN"
 "http://www.w3.org/Graphics/SVG/1.1/DTD/svg11.dtd">
<!-- Generated by graphviz version 2.42.3 (20191010.1750)
 -->
<!-- Title: cluster/Users/vishweshdkumar/Desktop/gsoc/finalwork/finalrepo/flowchart_gen/leetcode_tests/KthSsmallestElement/run.py Pages: 1 -->
<svg width="294pt" height="334pt"
 viewBox="0.00 0.00 294.00 334.00" xmlns="http://www.w3.org/2000/svg" xmlns:xlink="http://www.w3.org/1999/xlink">
<g id="graph0" class="graph" transform="scale(1 1) rotate(0) translate(4 330)">
<title>cluster/Users/vishweshdkumar/Desktop/gsoc/finalwork/finalrepo/flowchart_gen/leetcode_tests/KthSsmallestElement/run.py</title>
<g id="clust1" class="cluster">
<title>clusterkthSmallest</title>
<polygon fill="transparent" stroke="black" points="8,-8 8,-318 278,-318 278,-8 8,-8"/>
</g>
<!-- 30 -->
<g id="node1" class="node">
<title>30</title>
<ellipse fill="#68838b" stroke="black" cx="105" cy="-292" rx="78.75" ry="18"/>
<text text-anchor="middle" x="105" y="-287.8" font-family="Times,serif" font-size="14.00">while root or stack:</text>
</g>
<!-- 31 -->
<g id="node2" class="node">
<title>31</title>
<ellipse fill="#68838b" stroke="black" cx="105" cy="-206" rx="48.84" ry="18"/>
<text text-anchor="middle" x="105" y="-201.8" font-family="Times,serif" font-size="14.00">while root:</text>
</g>
<!-- 30&#45;&gt;31 -->
<g id="edge6" class="edge">
<title>30&#45;&gt;31</title>
<path fill="none" stroke="black" d="M105,-273.6C105,-262.26 105,-247.23 105,-234.32"/>
<polygon fill="black" stroke="black" points="108.5,-234.1 105,-224.1 101.5,-234.1 108.5,-234.1"/>
<text text-anchor="middle" x="139.99" y="-244.8" font-family="Times,serif" font-size="14.00">root or stack</text>
</g>
<!-- 33 -->
<g id="node3" class="node">
<title>33</title>
<polygon fill="lightblue" stroke="black" points="136.07,-138 15.93,-138 15.93,-102 136.07,-102 136.07,-138"/>
<text text-anchor="middle" x="76" y="-122.8" font-family="Times,serif" font-size="14.00">stack.append(root)</text>
<text text-anchor="middle" x="76" y="-108.8" font-family="Times,serif" font-size="14.00">root = root.left</text>
</g>
<!-- 31&#45;&gt;33 -->
<g id="edge3" class="edge">
<title>31&#45;&gt;33</title>
<path fill="none" stroke="black" d="M86.4,-189.32C81.19,-183.8 76.21,-177.18 73.45,-170 70.86,-163.27 70.27,-155.63 70.62,-148.42"/>
<polygon fill="black" stroke="black" points="74.12,-148.64 71.72,-138.32 67.16,-147.89 74.12,-148.64"/>
<text text-anchor="middle" x="84.28" y="-158.8" font-family="Times,serif" font-size="14.00">root</text>
</g>
<!-- 34 -->
<g id="node5" class="node">
<title>34</title>
<polygon fill="lightblue" stroke="black" points="270.04,-138 153.96,-138 153.96,-102 270.04,-102 270.04,-138"/>
<text text-anchor="middle" x="212" y="-122.8" font-family="Times,serif" font-size="14.00">root = stack.pop()</text>
<text text-anchor="middle" x="212" y="-108.8" font-family="Times,serif" font-size="14.00">k &#45;= 1</text>
</g>
<!-- 31&#45;&gt;34 -->
<g id="edge5" class="edge">
<title>31&#45;&gt;34</title>
<path fill="none" stroke="black" d="M124.88,-189.4C140.91,-176.81 163.73,-158.89 181.99,-144.56"/>
<polygon fill="black" stroke="black" points="184.31,-147.18 190.02,-138.26 179.99,-141.68 184.31,-147.18"/>
<text text-anchor="middle" x="190.63" y="-158.8" font-family="Times,serif" font-size="14.00">(not root)</text>
</g>
<!-- 33&#45;&gt;31 -->
<g id="edge2" class="edge">
<title>33&#45;&gt;31</title>
<path fill="none" stroke="red" d="M90.31,-138.21C94.07,-143.6 97.72,-149.77 100,-156 102.49,-162.8 103.88,-170.46 104.63,-177.67"/>
<polygon fill="red" stroke="red" points="101.14,-178.01 105.31,-187.75 108.13,-177.54 101.14,-178.01"/>
</g>
<!-- 33_calls -->
<g id="node4" class="node">
<title>33_calls</title>
<polygon fill="lightgrey" stroke="black" points="120.19,-52 35.81,-52 31.81,-48 31.81,-16 116.19,-16 120.19,-20 120.19,-52"/>
<polyline fill="none" stroke="black" points="116.19,-48 31.81,-48 "/>
<polyline fill="none" stroke="black" points="116.19,-48 116.19,-16 "/>
<polyline fill="none" stroke="black" points="116.19,-48 120.19,-52 "/>
<text text-anchor="middle" x="76" y="-29.8" font-family="Times,serif" font-size="14.00">stack.append</text>
</g>
<!-- 33&#45;&gt;33_calls -->
<g id="edge1" class="edge">
<title>33&#45;&gt;33_calls</title>
<path fill="none" stroke="white" stroke-dasharray="5,2" d="M76,-101.6C76,-90.26 76,-75.23 76,-62.32"/>
<polygon fill="white" stroke="white" points="79.5,-62.1 76,-52.1 72.5,-62.1 79.5,-62.1"/>
<text text-anchor="middle" x="88.83" y="-72.8" font-family="Times,serif" font-size="14.00">calls</text>
</g>
<!-- 34_calls -->
<g id="node6" class="node">
<title>34_calls</title>
<polygon fill="lightgrey" stroke="black" points="246.77,-52 181.23,-52 177.23,-48 177.23,-16 242.77,-16 246.77,-20 246.77,-52"/>
<polyline fill="none" stroke="black" points="242.77,-48 177.23,-48 "/>
<polyline fill="none" stroke="black" points="242.77,-48 242.77,-16 "/>
<polyline fill="none" stroke="black" points="242.77,-48 246.77,-52 "/>
<text text-anchor="middle" x="212" y="-29.8" font-family="Times,serif" font-size="14.00">stack.pop</text>
</g>
<!-- 34&#45;&gt;34_calls -->
<g id="edge4" class="edge">
<title>34&#45;&gt;34_calls</title>
<path fill="none" stroke="white" stroke-dasharray="5,2" d="M212,-101.6C212,-90.26 212,-75.23 212,-62.32"/>
<polygon fill="white" stroke="white" points="215.5,-62.1 212,-52.1 208.5,-62.1 215.5,-62.1"/>
<text text-anchor="middle" x="224.83" y="-72.8" font-family="Times,serif" font-size="14.00">calls</text>
</g>
</g>
</svg>
