<?xml version="1.0" encoding="UTF-8" standalone="no"?>
<!DOCTYPE svg PUBLIC "-//W3C//DTD SVG 1.1//EN"
 "http://www.w3.org/Graphics/SVG/1.1/DTD/svg11.dtd">
<!-- Generated by graphviz version 2.42.3 (20191010.1750)
 -->
<!-- Title: cluster/Users/vishweshdkumar/Desktop/gsoc/finalwork/finalrepo/djangotrials/demo_files/demo2.py Pages: 1 -->
<svg width="306pt" height="162pt"
 viewBox="0.00 0.00 306.00 162.00" xmlns="http://www.w3.org/2000/svg" xmlns:xlink="http://www.w3.org/1999/xlink">
<g id="graph0" class="graph" transform="scale(1 1) rotate(0) translate(4 158)">
<title>cluster/Users/vishweshdkumar/Desktop/gsoc/finalwork/finalrepo/djangotrials/demo_files/demo2.py</title>
<polygon fill="darkgray" stroke="transparent" points="-4,4 -4,-158 302,-158 302,4 -4,4"/>
<g id="clust1" class="cluster">
<title>clusterhasPath</title>
<polygon fill="darkgray" stroke="black" points="8,-8 8,-146 290,-146 290,-8 8,-8"/>
</g>
<!-- 12 -->
<g id="node1" class="node">
<title>12</title>
<polygon fill="#68838b" stroke="black" points="149,-138 16.33,-120 149,-102 281.67,-120 149,-138"/>
<text text-anchor="middle" x="149" y="-115.8" font-family="Times,serif" font-size="14.00">if self.matrix[i][j] == 0:</text>
</g>
<!-- 14 -->
<g id="node2" class="node">
<title>14</title>
<polygon fill="lightblue" stroke="black" points="200.04,-52 97.96,-52 97.96,-16 200.04,-16 200.04,-52"/>
<text text-anchor="middle" x="149" y="-36.8" font-family="Times,serif" font-size="14.00">self.dp[i][j] = 3</text>
<text text-anchor="middle" x="149" y="-22.8" font-family="Times,serif" font-size="14.00">return False</text>
</g>
<!-- 12&#45;&gt;14 -->
<g id="edge1" class="edge">
<title>12&#45;&gt;14</title>
<path fill="none" stroke="red" d="M149,-101.6C149,-90.26 149,-75.23 149,-62.32"/>
<polygon fill="red" stroke="red" points="152.5,-62.1 149,-52.1 145.5,-62.1 152.5,-62.1"/>
<text text-anchor="middle" x="207.24" y="-72.8" font-family="Times,serif" font-size="14.00">self.matrix[i][j] == 0</text>
</g>
</g>
</svg>
