<?xml version="1.0" encoding="UTF-8" standalone="no"?>
<!DOCTYPE svg PUBLIC "-//W3C//DTD SVG 1.1//EN"
 "http://www.w3.org/Graphics/SVG/1.1/DTD/svg11.dtd">
<!-- Generated by graphviz version 2.42.3 (20191010.1750)
 -->
<!-- Title: cluster/Users/vishweshdkumar/Desktop/gsoc/finalwork/finalrepo/flowchart_gen/leetcode_tests/KthSsmallestElement/run.py Pages: 1 -->
<svg width="250pt" height="248pt"
 viewBox="0.00 0.00 250.00 248.00" xmlns="http://www.w3.org/2000/svg" xmlns:xlink="http://www.w3.org/1999/xlink">
<g id="graph0" class="graph" transform="scale(1 1) rotate(0) translate(4 244)">
<title>cluster/Users/vishweshdkumar/Desktop/gsoc/finalwork/finalrepo/flowchart_gen/leetcode_tests/KthSsmallestElement/run.py</title>
<g id="clust1" class="cluster">
<title>clusterkthSmallest</title>
<polygon fill="transparent" stroke="black" points="8,-8 8,-232 234,-232 234,-8 8,-8"/>
</g>
<!-- 24 -->
<g id="node1" class="node">
<title>24</title>
<ellipse fill="#68838b" stroke="black" cx="78" cy="-206" rx="48.84" ry="18"/>
<text text-anchor="middle" x="78" y="-201.8" font-family="Times,serif" font-size="14.00">while root:</text>
</g>
<!-- 27 -->
<g id="node2" class="node">
<title>27</title>
<polygon fill="lightblue" stroke="black" points="136.04,-138 19.96,-138 19.96,-102 136.04,-102 136.04,-138"/>
<text text-anchor="middle" x="78" y="-122.8" font-family="Times,serif" font-size="14.00">root = stack.pop()</text>
<text text-anchor="middle" x="78" y="-108.8" font-family="Times,serif" font-size="14.00">k &#45;= 1</text>
</g>
<!-- 24&#45;&gt;27 -->
<g id="edge3" class="edge">
<title>24&#45;&gt;27</title>
<path fill="none" stroke="red" d="M78,-187.6C78,-176.26 78,-161.23 78,-148.32"/>
<polygon fill="red" stroke="red" points="81.5,-148.1 78,-138.1 74.5,-148.1 81.5,-148.1"/>
<text text-anchor="middle" x="104.63" y="-158.8" font-family="Times,serif" font-size="14.00">(not root)</text>
</g>
<!-- 27_calls -->
<g id="node3" class="node">
<title>27_calls</title>
<polygon fill="lightgrey" stroke="black" points="85.77,-52 20.23,-52 16.23,-48 16.23,-16 81.77,-16 85.77,-20 85.77,-52"/>
<polyline fill="none" stroke="black" points="81.77,-48 16.23,-48 "/>
<polyline fill="none" stroke="black" points="81.77,-48 81.77,-16 "/>
<polyline fill="none" stroke="black" points="81.77,-48 85.77,-52 "/>
<text text-anchor="middle" x="51" y="-29.8" font-family="Times,serif" font-size="14.00">stack.pop</text>
</g>
<!-- 27&#45;&gt;27_calls -->
<g id="edge1" class="edge">
<title>27&#45;&gt;27_calls</title>
<path fill="none" stroke="white" stroke-dasharray="5,2" d="M72.41,-101.6C68.72,-90.14 63.83,-74.93 59.66,-61.93"/>
<polygon fill="white" stroke="white" points="62.89,-60.54 56.49,-52.1 56.22,-62.69 62.89,-60.54"/>
<text text-anchor="middle" x="78.83" y="-72.8" font-family="Times,serif" font-size="14.00">calls</text>
</g>
<!-- 36 -->
<g id="node4" class="node">
<title>36</title>
<polygon fill="#68838b" stroke="black" points="165,-52 103.7,-34 165,-16 226.3,-34 165,-52"/>
<text text-anchor="middle" x="165" y="-29.8" font-family="Times,serif" font-size="14.00">if k == 0:</text>
</g>
<!-- 27&#45;&gt;36 -->
<g id="edge2" class="edge">
<title>27&#45;&gt;36</title>
<path fill="none" stroke="black" d="M96.03,-101.6C109.88,-88.21 129.07,-69.69 143.69,-55.58"/>
<polygon fill="black" stroke="black" points="146.51,-57.71 151.28,-48.25 141.65,-52.68 146.51,-57.71"/>
</g>
</g>
</svg>
