<?xml version="1.0" encoding="UTF-8" standalone="no"?>
<!DOCTYPE svg PUBLIC "-//W3C//DTD SVG 1.1//EN"
 "http://www.w3.org/Graphics/SVG/1.1/DTD/svg11.dtd">
<!-- Generated by graphviz version 2.42.3 (20191010.1750)
 -->
<!-- Title: cluster/Users/vishweshdkumar/Desktop/gsoc/finalwork/finalrepo/flowchart_gen/leetcode_tests/inorder_Traversal/run.py Pages: 1 -->
<svg width="669pt" height="556pt"
 viewBox="0.00 0.00 669.25 556.00" xmlns="http://www.w3.org/2000/svg" xmlns:xlink="http://www.w3.org/1999/xlink">
<g id="graph0" class="graph" transform="scale(1 1) rotate(0) translate(4 552)">
<title>cluster/Users/vishweshdkumar/Desktop/gsoc/finalwork/finalrepo/flowchart_gen/leetcode_tests/inorder_Traversal/run.py</title>
<g id="clust1" class="cluster">
<title>clusterinorderTraversal</title>
<polygon fill="transparent" stroke="black" points="310.25,-8 310.25,-540 653.25,-540 653.25,-8 310.25,-8"/>
</g>
<!-- 1 -->
<g id="node1" class="node">
<title>1</title>
<polygon fill="lightblue" stroke="black" points="302.26,-539 0.25,-539 0.25,-447 302.26,-447 302.26,-539"/>
<text text-anchor="middle" x="151.25" y="-523.8" font-family="Times,serif" font-size="14.00">def __init__(self, val=0, left=None, right=None):...</text>
<text text-anchor="middle" x="151.25" y="-509.8" font-family="Times,serif" font-size="14.00">def __str__(self):...</text>
<text text-anchor="middle" x="151.25" y="-495.8" font-family="Times,serif" font-size="14.00">def __repr__(self):...</text>
<text text-anchor="middle" x="151.25" y="-481.8" font-family="Times,serif" font-size="14.00">def __eq__(self, other):...</text>
<text text-anchor="middle" x="151.25" y="-467.8" font-family="Times,serif" font-size="14.00">def inorderTraversal(root):...</text>
<text text-anchor="middle" x="151.25" y="-453.8" font-family="Times,serif" font-size="14.00">def go():...</text>
</g>
<!-- 22 -->
<g id="node2" class="node">
<title>22</title>
<polygon fill="lightblue" stroke="black" points="632.69,-532 543.82,-532 543.82,-454 632.69,-454 632.69,-532"/>
<text text-anchor="middle" x="588.25" y="-516.8" font-family="Times,serif" font-size="14.00">head = root</text>
<text text-anchor="middle" x="588.25" y="-502.8" font-family="Times,serif" font-size="14.00">res = []</text>
<text text-anchor="middle" x="588.25" y="-488.8" font-family="Times,serif" font-size="14.00">stack = []</text>
<text text-anchor="middle" x="588.25" y="-474.8" font-family="Times,serif" font-size="14.00">stack</text>
<text text-anchor="middle" x="588.25" y="-460.8" font-family="Times,serif" font-size="14.00">node = None</text>
</g>
<!-- 23 -->
<g id="node3" class="node">
<title>23</title>
<ellipse fill="#68838b" stroke="black" cx="588.25" cy="-392" rx="50.81" ry="18"/>
<text text-anchor="middle" x="588.25" y="-387.8" font-family="Times,serif" font-size="14.00">while True:</text>
</g>
<!-- 22&#45;&gt;23 -->
<g id="edge10" class="edge">
<title>22&#45;&gt;23</title>
<path fill="none" stroke="black" d="M588.25,-453.72C588.25,-442.58 588.25,-430.63 588.25,-420.31"/>
<polygon fill="black" stroke="black" points="591.75,-420.24 588.25,-410.24 584.75,-420.24 591.75,-420.24"/>
</g>
<!-- 24 -->
<g id="node4" class="node">
<title>24</title>
<ellipse fill="#68838b" stroke="black" cx="489.25" cy="-306" rx="48.84" ry="18"/>
<text text-anchor="middle" x="489.25" y="-301.8" font-family="Times,serif" font-size="14.00">while root:</text>
</g>
<!-- 23&#45;&gt;24 -->
<g id="edge9" class="edge">
<title>23&#45;&gt;24</title>
<path fill="none" stroke="black" d="M569.63,-375.2C554.42,-362.29 532.73,-343.89 515.72,-329.46"/>
<polygon fill="black" stroke="black" points="517.68,-326.53 507.79,-322.73 513.15,-331.87 517.68,-326.53"/>
<text text-anchor="middle" x="557.23" y="-344.8" font-family="Times,serif" font-size="14.00">True</text>
</g>
<!-- 26 -->
<g id="node5" class="node">
<title>26</title>
<polygon fill="lightblue" stroke="black" points="438.32,-238 318.18,-238 318.18,-202 438.32,-202 438.32,-238"/>
<text text-anchor="middle" x="378.25" y="-222.8" font-family="Times,serif" font-size="14.00">stack.append(root)</text>
<text text-anchor="middle" x="378.25" y="-208.8" font-family="Times,serif" font-size="14.00">root = root.left</text>
</g>
<!-- 24&#45;&gt;26 -->
<g id="edge3" class="edge">
<title>24&#45;&gt;26</title>
<path fill="none" stroke="black" d="M448.02,-296.25C431.34,-290.97 412.94,-282.72 399.7,-270 393.42,-263.96 388.86,-255.77 385.6,-247.81"/>
<polygon fill="black" stroke="black" points="388.9,-246.63 382.25,-238.37 382.3,-248.97 388.9,-246.63"/>
<text text-anchor="middle" x="410.53" y="-258.8" font-family="Times,serif" font-size="14.00">root</text>
</g>
<!-- 27 -->
<g id="curr_block" class="node">
<title>27</title>
<polygon fill="#68838b" stroke="black" points="530.25,-238 457.08,-220 530.25,-202 603.43,-220 530.25,-238"/>
<text text-anchor="middle" x="530.25" y="-215.8" font-family="Times,serif" font-size="14.00">if not stack:</text>
</g>
<!-- 24&#45;&gt;27 -->
<g id="curr_link" class="edge">
<title>24&#45;&gt;27</title>
<path fill="none" stroke="red" d="M497.55,-288C503.5,-275.81 511.61,-259.2 518.26,-245.57"/>
<polygon fill="red" stroke="red" points="521.56,-246.8 522.8,-236.28 515.26,-243.73 521.56,-246.8"/>
<text text-anchor="middle" x="537.89" y="-258.8" font-family="Times,serif" font-size="14.00">(not root)</text>
</g>
<!-- 26&#45;&gt;24 -->
<g id="edge2" class="edge">
<title>26&#45;&gt;24</title>
<path fill="none" stroke="black" d="M400.77,-238.04C418.08,-251.14 442.1,-269.32 460.75,-283.43"/>
<polygon fill="black" stroke="black" points="458.81,-286.35 468.89,-289.59 463.03,-280.77 458.81,-286.35"/>
</g>
<!-- 26_calls -->
<g id="node6" class="node">
<title>26_calls</title>
<polygon fill="lightgrey" stroke="black" points="406.45,-145 322.06,-145 318.06,-141 318.06,-109 402.45,-109 406.45,-113 406.45,-145"/>
<polyline fill="none" stroke="black" points="402.45,-141 318.06,-141 "/>
<polyline fill="none" stroke="black" points="402.45,-141 402.45,-109 "/>
<polyline fill="none" stroke="black" points="402.45,-141 406.45,-145 "/>
<text text-anchor="middle" x="362.25" y="-122.8" font-family="Times,serif" font-size="14.00">stack.append</text>
</g>
<!-- 26&#45;&gt;26_calls -->
<g id="edge1" class="edge">
<title>26&#45;&gt;26_calls</title>
<path fill="none" stroke="white" stroke-dasharray="5,2" d="M375.24,-201.88C372.92,-188.66 369.66,-170.12 366.99,-154.92"/>
<polygon fill="white" stroke="white" points="370.43,-154.28 365.25,-145.04 363.53,-155.49 370.43,-154.28"/>
<text text-anchor="middle" x="384.08" y="-172.8" font-family="Times,serif" font-size="14.00">calls</text>
</g>
<!-- 28 -->
<g id="node8" class="node">
<title>28</title>
<polygon fill="lightblue" stroke="black" points="494.01,-145 424.5,-145 424.5,-109 494.01,-109 494.01,-145"/>
<text text-anchor="middle" x="459.25" y="-122.8" font-family="Times,serif" font-size="14.00">return res</text>
</g>
<!-- 27&#45;&gt;28 -->
<g id="edge4" class="edge">
<title>27&#45;&gt;28</title>
<path fill="none" stroke="black" d="M506.08,-207.75C495.88,-201.94 484.64,-193.95 477.1,-184 470.69,-175.55 466.55,-164.73 463.88,-154.86"/>
<polygon fill="black" stroke="black" points="467.28,-154.01 461.61,-145.06 460.46,-155.59 467.28,-154.01"/>
<text text-anchor="middle" x="501.33" y="-172.8" font-family="Times,serif" font-size="14.00">not stack</text>
</g>
<!-- 29 -->
<g id="node9" class="node">
<title>29</title>
<polygon fill="lightblue" stroke="black" points="645.15,-152 511.36,-152 511.36,-102 645.15,-102 645.15,-152"/>
<text text-anchor="middle" x="578.25" y="-136.8" font-family="Times,serif" font-size="14.00">node = stack.pop()</text>
<text text-anchor="middle" x="578.25" y="-122.8" font-family="Times,serif" font-size="14.00">res.append(node.val)</text>
<text text-anchor="middle" x="578.25" y="-108.8" font-family="Times,serif" font-size="14.00">root = node.right</text>
</g>
<!-- 27&#45;&gt;29 -->
<g id="edge7" class="edge">
<title>27&#45;&gt;29</title>
<path fill="none" stroke="black" d="M529.71,-201.9C530.04,-192.11 531.57,-179.86 536.38,-170 538.11,-166.46 540.26,-163.04 542.67,-159.78"/>
<polygon fill="black" stroke="black" points="545.39,-161.97 549.07,-152.04 540,-157.51 545.39,-161.97"/>
<text text-anchor="middle" x="576.69" y="-172.8" font-family="Times,serif" font-size="14.00">(not not stack)</text>
</g>
<!-- 29&#45;&gt;23 -->
<g id="edge6" class="edge">
<title>29&#45;&gt;23</title>
<path fill="none" stroke="black" d="M606.07,-152.03C610.64,-157.44 614.71,-163.52 617.25,-170 643.38,-236.53 616.71,-322.09 599.83,-364.6"/>
<polygon fill="black" stroke="black" points="596.55,-363.38 595.99,-373.96 603.02,-366.03 596.55,-363.38"/>
</g>
<!-- 29_calls -->
<g id="node10" class="node">
<title>29_calls</title>
<polygon fill="lightgrey" stroke="black" points="616.51,-52 544,-52 540,-48 540,-16 612.51,-16 616.51,-20 616.51,-52"/>
<polyline fill="none" stroke="black" points="612.51,-48 540,-48 "/>
<polyline fill="none" stroke="black" points="612.51,-48 612.51,-16 "/>
<polyline fill="none" stroke="black" points="612.51,-48 616.51,-52 "/>
<text text-anchor="middle" x="578.25" y="-36.8" font-family="Times,serif" font-size="14.00">stack.pop</text>
<text text-anchor="middle" x="578.25" y="-22.8" font-family="Times,serif" font-size="14.00">res.append</text>
</g>
<!-- 29&#45;&gt;29_calls -->
<g id="edge5" class="edge">
<title>29&#45;&gt;29_calls</title>
<path fill="none" stroke="white" stroke-dasharray="5,2" d="M578.25,-101.61C578.25,-89.56 578.25,-74.97 578.25,-62.52"/>
<polygon fill="white" stroke="white" points="581.75,-62.24 578.25,-52.24 574.75,-62.24 581.75,-62.24"/>
<text text-anchor="middle" x="591.08" y="-72.8" font-family="Times,serif" font-size="14.00">calls</text>
</g>
</g>
</svg>
