<?xml version="1.0" encoding="UTF-8" standalone="no"?>
<!DOCTYPE svg PUBLIC "-//W3C//DTD SVG 1.1//EN"
 "http://www.w3.org/Graphics/SVG/1.1/DTD/svg11.dtd">
<!-- Generated by graphviz version 2.42.3 (20191010.1750)
 -->
<!-- Title: cluster/Users/vishweshdkumar/Desktop/gsoc/finalwork/finalrepo/flowchart_gen/leetcode_tests/KthSsmallestElement/run.py Pages: 1 -->
<svg width="260pt" height="248pt"
 viewBox="0.00 0.00 260.00 248.00" xmlns="http://www.w3.org/2000/svg" xmlns:xlink="http://www.w3.org/1999/xlink">
<g id="graph0" class="graph" transform="scale(1 1) rotate(0) translate(4 244)">
<title>cluster/Users/vishweshdkumar/Desktop/gsoc/finalwork/finalrepo/flowchart_gen/leetcode_tests/KthSsmallestElement/run.py</title>
<g id="clust1" class="cluster">
<title>clusterkthSmallest</title>
<polygon fill="transparent" stroke="black" points="8,-8 8,-232 244,-232 244,-8 8,-8"/>
</g>
<!-- 34 -->
<g id="node1" class="node">
<title>34</title>
<polygon fill="lightblue" stroke="black" points="171.04,-224 54.96,-224 54.96,-188 171.04,-188 171.04,-224"/>
<text text-anchor="middle" x="113" y="-208.8" font-family="Times,serif" font-size="14.00">root = stack.pop()</text>
<text text-anchor="middle" x="113" y="-194.8" font-family="Times,serif" font-size="14.00">k &#45;= 1</text>
</g>
<!-- 34_calls -->
<g id="node2" class="node">
<title>34_calls</title>
<polygon fill="lightgrey" stroke="black" points="90.77,-138 25.23,-138 21.23,-134 21.23,-102 86.77,-102 90.77,-106 90.77,-138"/>
<polyline fill="none" stroke="black" points="86.77,-134 21.23,-134 "/>
<polyline fill="none" stroke="black" points="86.77,-134 86.77,-102 "/>
<polyline fill="none" stroke="black" points="86.77,-134 90.77,-138 "/>
<text text-anchor="middle" x="56" y="-115.8" font-family="Times,serif" font-size="14.00">stack.pop</text>
</g>
<!-- 34&#45;&gt;34_calls -->
<g id="edge1" class="edge">
<title>34&#45;&gt;34_calls</title>
<path fill="none" stroke="white" stroke-dasharray="5,2" d="M101.19,-187.6C93.11,-175.69 82.27,-159.71 73.23,-146.4"/>
<polygon fill="white" stroke="white" points="76.11,-144.4 67.6,-138.1 70.32,-148.34 76.11,-144.4"/>
<text text-anchor="middle" x="99.83" y="-158.8" font-family="Times,serif" font-size="14.00">calls</text>
</g>
<!-- 43 -->
<g id="node3" class="node">
<title>43</title>
<polygon fill="#68838b" stroke="black" points="170,-138 108.7,-120 170,-102 231.3,-120 170,-138"/>
<text text-anchor="middle" x="170" y="-115.8" font-family="Times,serif" font-size="14.00">if k == 0:</text>
</g>
<!-- 34&#45;&gt;43 -->
<g id="edge4" class="edge">
<title>34&#45;&gt;43</title>
<path fill="none" stroke="red" d="M124.81,-187.6C133.42,-174.9 145.18,-157.58 154.54,-143.79"/>
<polygon fill="red" stroke="red" points="157.57,-145.55 160.29,-135.31 151.78,-141.62 157.57,-145.55"/>
</g>
<!-- 35 -->
<g id="node4" class="node">
<title>35</title>
<polygon fill="lightblue" stroke="black" points="112.08,-52 15.92,-52 15.92,-16 112.08,-16 112.08,-52"/>
<text text-anchor="middle" x="64" y="-29.8" font-family="Times,serif" font-size="14.00">return root.val</text>
</g>
<!-- 43&#45;&gt;35 -->
<g id="edge2" class="edge">
<title>43&#45;&gt;35</title>
<path fill="none" stroke="black" d="M153.9,-106.24C137.99,-93.63 113.27,-74.04 93.77,-58.59"/>
<polygon fill="black" stroke="black" points="95.79,-55.72 85.78,-52.26 91.44,-61.21 95.79,-55.72"/>
<text text-anchor="middle" x="141.4" y="-72.8" font-family="Times,serif" font-size="14.00">k == 0</text>
</g>
<!-- 36 -->
<g id="node5" class="node">
<title>36</title>
<polygon fill="lightblue" stroke="black" points="235.94,-52 130.06,-52 130.06,-16 235.94,-16 235.94,-52"/>
<text text-anchor="middle" x="183" y="-29.8" font-family="Times,serif" font-size="14.00">root = root.right</text>
</g>
<!-- 43&#45;&gt;36 -->
<g id="edge3" class="edge">
<title>43&#45;&gt;36</title>
<path fill="none" stroke="black" d="M172.57,-102.4C174.34,-90.94 176.74,-75.42 178.8,-62.16"/>
<polygon fill="black" stroke="black" points="182.28,-62.56 180.35,-52.14 175.36,-61.48 182.28,-62.56"/>
<text text-anchor="middle" x="198.44" y="-72.8" font-family="Times,serif" font-size="14.00">(k != 0)</text>
</g>
</g>
</svg>
