<?xml version="1.0" encoding="UTF-8" standalone="no"?>
<!DOCTYPE svg PUBLIC "-//W3C//DTD SVG 1.1//EN"
 "http://www.w3.org/Graphics/SVG/1.1/DTD/svg11.dtd">
<!-- Generated by graphviz version 2.42.3 (20191010.1750)
 -->
<!-- Title: cluster/Users/vishweshdkumar/Desktop/gsoc/finalwork/finalrepo/djangotrials/demo_files/demo2.py Pages: 1 -->
<svg width="264pt" height="374pt"
 viewBox="0.00 0.00 264.00 374.00" xmlns="http://www.w3.org/2000/svg" xmlns:xlink="http://www.w3.org/1999/xlink">
<g id="graph0" class="graph" transform="scale(1 1) rotate(0) translate(4 370)">
<title>cluster/Users/vishweshdkumar/Desktop/gsoc/finalwork/finalrepo/djangotrials/demo_files/demo2.py</title>
<g id="clust1" class="cluster">
<title>clusterhasPath</title>
<polygon fill="transparent" stroke="black" points="8,-8 8,-358 248,-358 248,-8 8,-8"/>
</g>
<!-- 24 -->
<g id="node1" class="node">
<title>24</title>
<polygon fill="#68838b" stroke="black" points="128,-350 15.61,-332 128,-314 240.39,-332 128,-350"/>
<text text-anchor="middle" x="128" y="-327.8" font-family="Times,serif" font-size="14.00">if self.dp[i][j] == 4:</text>
</g>
<!-- 27 -->
<g id="curr_block" class="node">
<title>27</title>
<polygon fill="lightblue" stroke="black" points="225.75,-264 30.25,-264 30.25,-130 225.75,-130 225.75,-264"/>
<text text-anchor="middle" x="128" y="-248.8" font-family="Times,serif" font-size="14.00">ans = False</text>
<text text-anchor="middle" x="128" y="-234.8" font-family="Times,serif" font-size="14.00">self.dp[i][j] = 1</text>
<text text-anchor="middle" x="128" y="-220.8" font-family="Times,serif" font-size="14.00">right = self.hasPath(i + 1, j)</text>
<text text-anchor="middle" x="128" y="-206.8" font-family="Times,serif" font-size="14.00">left = self.hasPath(i &#45; 1, j)</text>
<text text-anchor="middle" x="128" y="-192.8" font-family="Times,serif" font-size="14.00">up = self.hasPath(i, j + 1)</text>
<text text-anchor="middle" x="128" y="-178.8" font-family="Times,serif" font-size="14.00">down = self.hasPath(i, j &#45; 1)</text>
<text text-anchor="middle" x="128" y="-164.8" font-family="Times,serif" font-size="14.00">ans = right or left or down or up</text>
<text text-anchor="middle" x="128" y="-150.8" font-family="Times,serif" font-size="14.00">self.dp[i][j] = 4 if ans else 3</text>
<text text-anchor="middle" x="128" y="-136.8" font-family="Times,serif" font-size="14.00">return ans</text>
</g>
<!-- 24&#45;&gt;27 -->
<g id="edge2" class="edge">
<title>24&#45;&gt;27</title>
<path fill="none" stroke="black" d="M128,-313.88C128,-303.45 128,-289.31 128,-274.48"/>
<polygon fill="black" stroke="black" points="131.5,-274.15 128,-264.15 124.5,-274.15 131.5,-274.15"/>
<text text-anchor="middle" x="178.01" y="-284.8" font-family="Times,serif" font-size="14.00">(self.dp[i][j] != 4)</text>
</g>
<!-- 27_calls -->
<g id="node3" class="node">
<title>27_calls</title>
<polygon fill="lightgrey" stroke="black" points="169.77,-80 90.23,-80 86.23,-76 86.23,-16 165.77,-16 169.77,-20 169.77,-80"/>
<polyline fill="none" stroke="black" points="165.77,-76 86.23,-76 "/>
<polyline fill="none" stroke="black" points="165.77,-76 165.77,-16 "/>
<polyline fill="none" stroke="black" points="165.77,-76 169.77,-80 "/>
<text text-anchor="middle" x="128" y="-64.8" font-family="Times,serif" font-size="14.00">self.hasPath</text>
<text text-anchor="middle" x="128" y="-50.8" font-family="Times,serif" font-size="14.00">self.hasPath</text>
<text text-anchor="middle" x="128" y="-36.8" font-family="Times,serif" font-size="14.00">self.hasPath</text>
<text text-anchor="middle" x="128" y="-22.8" font-family="Times,serif" font-size="14.00">self.hasPath</text>
</g>
<!-- 27&#45;&gt;27_calls -->
<g id="edge1" class="edge">
<title>27&#45;&gt;27_calls</title>
<path fill="none" stroke="white" stroke-dasharray="5,2" d="M128,-129.81C128,-116.49 128,-102.85 128,-90.65"/>
<polygon fill="white" stroke="white" points="131.5,-90.35 128,-80.35 124.5,-90.35 131.5,-90.35"/>
<text text-anchor="middle" x="140.83" y="-100.8" font-family="Times,serif" font-size="14.00">calls</text>
</g>
</g>
</svg>
