<?xml version="1.0" encoding="UTF-8" standalone="no"?>
<!DOCTYPE svg PUBLIC "-//W3C//DTD SVG 1.1//EN"
 "http://www.w3.org/Graphics/SVG/1.1/DTD/svg11.dtd">
<!-- Generated by graphviz version 2.42.3 (20191010.1750)
 -->
<!-- Title: cluster/Users/vishweshdkumar/Desktop/gsoc/finalwork/finalrepo/djangotrials/demo_files/demo1.py Pages: 1 -->
<svg width="208pt" height="274pt"
 viewBox="0.00 0.00 208.00 274.00" xmlns="http://www.w3.org/2000/svg" xmlns:xlink="http://www.w3.org/1999/xlink">
<g id="graph0" class="graph" transform="scale(1 1) rotate(0) translate(4 270)">
<title>cluster/Users/vishweshdkumar/Desktop/gsoc/finalwork/finalrepo/djangotrials/demo_files/demo1.py</title>
<g id="clust1" class="cluster">
<title>clustergo2</title>
<polygon fill="transparent" stroke="black" points="8,-8 8,-258 192,-258 192,-8 8,-8"/>
</g>
<!-- 25 -->
<g id="node1" class="node">
<title>25</title>
<polygon fill="lightblue" stroke="black" points="183.74,-250 16.26,-250 16.26,-158 183.74,-158 183.74,-250"/>
<text text-anchor="middle" x="100" y="-234.8" font-family="Times,serif" font-size="14.00">root = Node(1)</text>
<text text-anchor="middle" x="100" y="-220.8" font-family="Times,serif" font-size="14.00">root.nextr = Node(2)</text>
<text text-anchor="middle" x="100" y="-206.8" font-family="Times,serif" font-size="14.00">root.nextl = Node(0)</text>
<text text-anchor="middle" x="100" y="-192.8" font-family="Times,serif" font-size="14.00">root.nextl.nextl = Node(&#45;2)</text>
<text text-anchor="middle" x="100" y="-178.8" font-family="Times,serif" font-size="14.00">root.nextr.nextr = Node(2)</text>
<text text-anchor="middle" x="100" y="-164.8" font-family="Times,serif" font-size="14.00">binarySearch(root, &#45;2)</text>
</g>
<!-- 25_calls -->
<g id="node2" class="node">
<title>25_calls</title>
<polygon fill="lightgrey" stroke="black" points="144.86,-108 59.14,-108 55.14,-104 55.14,-16 140.86,-16 144.86,-20 144.86,-108"/>
<polyline fill="none" stroke="black" points="140.86,-104 55.14,-104 "/>
<polyline fill="none" stroke="black" points="140.86,-104 140.86,-16 "/>
<polyline fill="none" stroke="black" points="140.86,-104 144.86,-108 "/>
<text text-anchor="middle" x="100" y="-92.8" font-family="Times,serif" font-size="14.00">Node</text>
<text text-anchor="middle" x="100" y="-78.8" font-family="Times,serif" font-size="14.00">Node</text>
<text text-anchor="middle" x="100" y="-64.8" font-family="Times,serif" font-size="14.00">Node</text>
<text text-anchor="middle" x="100" y="-50.8" font-family="Times,serif" font-size="14.00">Node</text>
<text text-anchor="middle" x="100" y="-36.8" font-family="Times,serif" font-size="14.00">Node</text>
<text text-anchor="middle" x="100" y="-22.8" font-family="Times,serif" font-size="14.00">binarySearch</text>
</g>
<!-- 25&#45;&gt;25_calls -->
<g id="edge1" class="edge">
<title>25&#45;&gt;25_calls</title>
<path fill="none" stroke="white" stroke-dasharray="5,2" d="M100,-157.93C100,-145.44 100,-131.74 100,-118.72"/>
<polygon fill="white" stroke="white" points="103.5,-118.46 100,-108.46 96.5,-118.46 103.5,-118.46"/>
<text text-anchor="middle" x="112.83" y="-128.8" font-family="Times,serif" font-size="14.00">calls</text>
</g>
</g>
</svg>
