<?xml version="1.0" encoding="UTF-8" standalone="no"?>
<!DOCTYPE svg PUBLIC "-//W3C//DTD SVG 1.1//EN"
 "http://www.w3.org/Graphics/SVG/1.1/DTD/svg11.dtd">
<!-- Generated by graphviz version 2.42.3 (20191010.1750)
 -->
<!-- Title: cluster/Users/vishweshdkumar/Desktop/gsoc/finalwork/finalrepo/flowchart_gen/leetcode_tests/KthSsmallestElement/run.py Pages: 1 -->
<svg width="666pt" height="633pt"
 viewBox="0.00 0.00 666.25 633.00" xmlns="http://www.w3.org/2000/svg" xmlns:xlink="http://www.w3.org/1999/xlink">
<g id="graph0" class="graph" transform="scale(1 1) rotate(0) translate(4 629)">
<title>cluster/Users/vishweshdkumar/Desktop/gsoc/finalwork/finalrepo/flowchart_gen/leetcode_tests/KthSsmallestElement/run.py</title>
<g id="clust1" class="cluster">
<title>clusterkthSmallest</title>
<polygon fill="transparent" stroke="black" points="310.25,-8 310.25,-612 650.25,-612 650.25,-8 310.25,-8"/>
</g>
<!-- 1 -->
<g id="node1" class="node">
<title>1</title>
<polygon fill="lightblue" stroke="black" points="302.26,-625 0.25,-625 0.25,-519 302.26,-519 302.26,-625"/>
<text text-anchor="middle" x="151.25" y="-609.8" font-family="Times,serif" font-size="14.00">def __init__(self, val=0, left=None, right=None):...</text>
<text text-anchor="middle" x="151.25" y="-595.8" font-family="Times,serif" font-size="14.00">def __str__(self):...</text>
<text text-anchor="middle" x="151.25" y="-581.8" font-family="Times,serif" font-size="14.00">def rec(self):...</text>
<text text-anchor="middle" x="151.25" y="-567.8" font-family="Times,serif" font-size="14.00">def __repr__(self):...</text>
<text text-anchor="middle" x="151.25" y="-553.8" font-family="Times,serif" font-size="14.00">def __eq__(self, other):...</text>
<text text-anchor="middle" x="151.25" y="-539.8" font-family="Times,serif" font-size="14.00">def kthSmallest(root, k):...</text>
<text text-anchor="middle" x="151.25" y="-525.8" font-family="Times,serif" font-size="14.00">def go():...</text>
</g>
<!-- 29 -->
<g id="node2" class="node">
<title>29</title>
<polygon fill="lightblue" stroke="black" points="447.13,-604 367.38,-604 367.38,-540 447.13,-540 447.13,-604"/>
<text text-anchor="middle" x="407.25" y="-588.8" font-family="Times,serif" font-size="14.00">head = root</text>
<text text-anchor="middle" x="407.25" y="-574.8" font-family="Times,serif" font-size="14.00">root</text>
<text text-anchor="middle" x="407.25" y="-560.8" font-family="Times,serif" font-size="14.00">stack = []</text>
<text text-anchor="middle" x="407.25" y="-546.8" font-family="Times,serif" font-size="14.00">k</text>
</g>
<!-- 30 -->
<g id="node3" class="node">
<title>30</title>
<ellipse fill="#68838b" stroke="black" cx="407.25" cy="-464" rx="78.75" ry="18"/>
<text text-anchor="middle" x="407.25" y="-459.8" font-family="Times,serif" font-size="14.00">while root or stack:</text>
</g>
<!-- 29&#45;&gt;30 -->
<g id="edge10" class="edge">
<title>29&#45;&gt;30</title>
<path fill="none" stroke="black" d="M407.25,-539.77C407.25,-524.78 407.25,-506.98 407.25,-492.51"/>
<polygon fill="black" stroke="black" points="410.75,-492.19 407.25,-482.19 403.75,-492.19 410.75,-492.19"/>
</g>
<!-- 31 -->
<g id="node4" class="node">
<title>31</title>
<ellipse fill="#68838b" stroke="black" cx="407.25" cy="-378" rx="48.84" ry="18"/>
<text text-anchor="middle" x="407.25" y="-373.8" font-family="Times,serif" font-size="14.00">while root:</text>
</g>
<!-- 30&#45;&gt;31 -->
<g id="edge9" class="edge">
<title>30&#45;&gt;31</title>
<path fill="none" stroke="black" d="M407.25,-445.6C407.25,-434.26 407.25,-419.23 407.25,-406.32"/>
<polygon fill="black" stroke="black" points="410.75,-406.1 407.25,-396.1 403.75,-406.1 410.75,-406.1"/>
<text text-anchor="middle" x="442.24" y="-416.8" font-family="Times,serif" font-size="14.00">root or stack</text>
</g>
<!-- 33 -->
<g id="node5" class="node">
<title>33</title>
<polygon fill="lightblue" stroke="black" points="438.32,-310 318.18,-310 318.18,-274 438.32,-274 438.32,-310"/>
<text text-anchor="middle" x="378.25" y="-294.8" font-family="Times,serif" font-size="14.00">stack.append(root)</text>
<text text-anchor="middle" x="378.25" y="-280.8" font-family="Times,serif" font-size="14.00">root = root.left</text>
</g>
<!-- 31&#45;&gt;33 -->
<g id="edge3" class="edge">
<title>31&#45;&gt;33</title>
<path fill="none" stroke="black" d="M388.65,-361.32C383.45,-355.8 378.46,-349.18 375.7,-342 373.12,-335.27 372.52,-327.63 372.88,-320.42"/>
<polygon fill="black" stroke="black" points="376.38,-320.64 373.97,-310.32 369.42,-319.89 376.38,-320.64"/>
<text text-anchor="middle" x="386.53" y="-330.8" font-family="Times,serif" font-size="14.00">root</text>
</g>
<!-- 34 -->
<g id="node7" class="node">
<title>34</title>
<polygon fill="lightblue" stroke="black" points="572.29,-310 456.22,-310 456.22,-274 572.29,-274 572.29,-310"/>
<text text-anchor="middle" x="514.25" y="-294.8" font-family="Times,serif" font-size="14.00">root = stack.pop()</text>
<text text-anchor="middle" x="514.25" y="-280.8" font-family="Times,serif" font-size="14.00">k &#45;= 1</text>
</g>
<!-- 31&#45;&gt;34 -->
<g id="edge8" class="edge">
<title>31&#45;&gt;34</title>
<path fill="none" stroke="black" d="M427.13,-361.4C443.17,-348.81 465.98,-330.89 484.24,-316.56"/>
<polygon fill="black" stroke="black" points="486.57,-319.18 492.27,-310.26 482.25,-313.68 486.57,-319.18"/>
<text text-anchor="middle" x="492.89" y="-330.8" font-family="Times,serif" font-size="14.00">(not root)</text>
</g>
<!-- 33&#45;&gt;31 -->
<g id="edge2" class="edge">
<title>33&#45;&gt;31</title>
<path fill="none" stroke="black" d="M392.56,-310.21C396.33,-315.6 399.97,-321.77 402.25,-328 404.75,-334.8 406.14,-342.46 406.88,-349.67"/>
<polygon fill="black" stroke="black" points="403.4,-350.01 407.56,-359.75 410.38,-349.54 403.4,-350.01"/>
</g>
<!-- 33_calls -->
<g id="node6" class="node">
<title>33_calls</title>
<polygon fill="lightgrey" stroke="black" points="408.45,-224 324.06,-224 320.06,-220 320.06,-188 404.45,-188 408.45,-192 408.45,-224"/>
<polyline fill="none" stroke="black" points="404.45,-220 320.06,-220 "/>
<polyline fill="none" stroke="black" points="404.45,-220 404.45,-188 "/>
<polyline fill="none" stroke="black" points="404.45,-220 408.45,-224 "/>
<text text-anchor="middle" x="364.25" y="-201.8" font-family="Times,serif" font-size="14.00">stack.append</text>
</g>
<!-- 33&#45;&gt;33_calls -->
<g id="edge1" class="edge">
<title>33&#45;&gt;33_calls</title>
<path fill="none" stroke="white" stroke-dasharray="5,2" d="M375.35,-273.6C373.46,-262.26 370.96,-247.23 368.81,-234.32"/>
<polygon fill="white" stroke="white" points="372.2,-233.38 367.1,-224.1 365.29,-234.53 372.2,-233.38"/>
<text text-anchor="middle" x="384.08" y="-244.8" font-family="Times,serif" font-size="14.00">calls</text>
</g>
<!-- 34_calls -->
<g id="node8" class="node">
<title>34_calls</title>
<polygon fill="lightgrey" stroke="black" points="637.02,-224 571.49,-224 567.49,-220 567.49,-188 633.02,-188 637.02,-192 637.02,-224"/>
<polyline fill="none" stroke="black" points="633.02,-220 567.49,-220 "/>
<polyline fill="none" stroke="black" points="633.02,-220 633.02,-188 "/>
<polyline fill="none" stroke="black" points="633.02,-220 637.02,-224 "/>
<text text-anchor="middle" x="602.25" y="-201.8" font-family="Times,serif" font-size="14.00">stack.pop</text>
</g>
<!-- 34&#45;&gt;34_calls -->
<g id="edge4" class="edge">
<title>34&#45;&gt;34_calls</title>
<path fill="none" stroke="white" stroke-dasharray="5,2" d="M532.49,-273.6C545.32,-261.35 562.66,-244.8 576.84,-231.26"/>
<polygon fill="white" stroke="white" points="579.53,-233.53 584.34,-224.1 574.69,-228.47 579.53,-233.53"/>
<text text-anchor="middle" x="576.08" y="-244.8" font-family="Times,serif" font-size="14.00">calls</text>
</g>
<!-- 43 -->
<g id="node9" class="node">
<title>43</title>
<polygon fill="#68838b" stroke="black" points="488.25,-224 426.95,-206 488.25,-188 549.55,-206 488.25,-224"/>
<text text-anchor="middle" x="488.25" y="-201.8" font-family="Times,serif" font-size="14.00">if k == 0:</text>
</g>
<!-- 34&#45;&gt;43 -->
<g id="edge7" class="edge">
<title>34&#45;&gt;43</title>
<path fill="none" stroke="black" d="M508.87,-273.6C505.17,-261.65 500.2,-245.6 496.07,-232.25"/>
<polygon fill="black" stroke="black" points="499.41,-231.2 493.11,-222.68 492.72,-233.27 499.41,-231.2"/>
</g>
<!-- 35 -->
<g id="curr_block" class="node">
<title>35</title>
<polygon fill="lightblue" stroke="red" stroke-width="3" points="642.24,-138 318.27,-138 318.27,-102 642.24,-102 642.24,-138"/>
<text text-anchor="middle" x="480.25" y="-122.8" font-family="Times,serif" font-size="14.00">print(f&#39;Found Root at stack : {stack} , root: {root.val}&#39;)</text>
<text text-anchor="middle" x="480.25" y="-108.8" font-family="Times,serif" font-size="14.00">return root.val</text>
</g>
<!-- 43&#45;&gt;35 -->
<g id="edge6" class="edge">
<title>43&#45;&gt;35</title>
<path fill="none" stroke="black" d="M486.67,-188.4C485.58,-176.94 484.1,-161.42 482.84,-148.16"/>
<polygon fill="black" stroke="black" points="486.32,-147.76 481.89,-138.14 479.35,-148.42 486.32,-147.76"/>
<text text-anchor="middle" x="502.65" y="-158.8" font-family="Times,serif" font-size="14.00">k == 0</text>
</g>
<!-- 35_calls -->
<g id="node11" class="node">
<title>35_calls</title>
<polygon fill="lightgrey" stroke="black" points="507.25,-52 457.25,-52 453.25,-48 453.25,-16 503.25,-16 507.25,-20 507.25,-52"/>
<polyline fill="none" stroke="black" points="503.25,-48 453.25,-48 "/>
<polyline fill="none" stroke="black" points="503.25,-48 503.25,-16 "/>
<polyline fill="none" stroke="black" points="503.25,-48 507.25,-52 "/>
<text text-anchor="middle" x="480.25" y="-29.8" font-family="Times,serif" font-size="14.00">print</text>
</g>
<!-- 35&#45;&gt;35_calls -->
<g id="edge5" class="edge">
<title>35&#45;&gt;35_calls</title>
<path fill="none" stroke="white" stroke-dasharray="5,2" d="M480.25,-101.6C480.25,-90.26 480.25,-75.23 480.25,-62.32"/>
<polygon fill="white" stroke="white" points="483.75,-62.1 480.25,-52.1 476.75,-62.1 483.75,-62.1"/>
<text text-anchor="middle" x="493.08" y="-72.8" font-family="Times,serif" font-size="14.00">calls</text>
</g>
</g>
</svg>
