<?xml version="1.0" encoding="UTF-8" standalone="no"?>
<!DOCTYPE svg PUBLIC "-//W3C//DTD SVG 1.1//EN"
 "http://www.w3.org/Graphics/SVG/1.1/DTD/svg11.dtd">
<!-- Generated by graphviz version 2.42.3 (20191010.1750)
 -->
<!-- Title: cluster/Users/vishweshdkumar/Desktop/gsoc/finalwork/finalrepo/djangotrials/demo_files/demo2.py Pages: 1 -->
<svg width="274pt" height="248pt"
 viewBox="0.00 0.00 274.00 248.00" xmlns="http://www.w3.org/2000/svg" xmlns:xlink="http://www.w3.org/1999/xlink">
<g id="graph0" class="graph" transform="scale(1 1) rotate(0) translate(4 244)">
<title>cluster/Users/vishweshdkumar/Desktop/gsoc/finalwork/finalrepo/djangotrials/demo_files/demo2.py</title>
<g id="clust1" class="cluster">
<title>clusterhasPath</title>
<polygon fill="transparent" stroke="black" points="8,-8 8,-232 258,-232 258,-8 8,-8"/>
</g>
<!-- 18 -->
<g id="node1" class="node">
<title>18</title>
<polygon fill="#68838b" stroke="black" points="133,-224 20.61,-206 133,-188 245.39,-206 133,-224"/>
<text text-anchor="middle" x="133" y="-201.8" font-family="Times,serif" font-size="14.00">if self.dp[i][j] == 1:</text>
</g>
<!-- 20 -->
<g id="node2" class="node">
<title>20</title>
<polygon fill="lightblue" stroke="black" points="249.87,-138 16.13,-138 16.13,-102 249.87,-102 249.87,-138"/>
<text text-anchor="middle" x="133" y="-122.8" font-family="Times,serif" font-size="14.00">print(f&#39;i:{i},j:{j} in current visit cycle&#39;)</text>
<text text-anchor="middle" x="133" y="-108.8" font-family="Times,serif" font-size="14.00">return False</text>
</g>
<!-- 18&#45;&gt;20 -->
<g id="edge2" class="edge">
<title>18&#45;&gt;20</title>
<path fill="none" stroke="red" d="M133,-187.6C133,-176.26 133,-161.23 133,-148.32"/>
<polygon fill="red" stroke="red" points="136.5,-148.1 133,-138.1 129.5,-148.1 136.5,-148.1"/>
<text text-anchor="middle" x="179.97" y="-158.8" font-family="Times,serif" font-size="14.00">self.dp[i][j] == 1</text>
</g>
<!-- 20_calls -->
<g id="node3" class="node">
<title>20_calls</title>
<polygon fill="lightgrey" stroke="black" points="160,-52 110,-52 106,-48 106,-16 156,-16 160,-20 160,-52"/>
<polyline fill="none" stroke="black" points="156,-48 106,-48 "/>
<polyline fill="none" stroke="black" points="156,-48 156,-16 "/>
<polyline fill="none" stroke="black" points="156,-48 160,-52 "/>
<text text-anchor="middle" x="133" y="-29.8" font-family="Times,serif" font-size="14.00">print</text>
</g>
<!-- 20&#45;&gt;20_calls -->
<g id="edge1" class="edge">
<title>20&#45;&gt;20_calls</title>
<path fill="none" stroke="white" stroke-dasharray="5,2" d="M133,-101.6C133,-90.26 133,-75.23 133,-62.32"/>
<polygon fill="white" stroke="white" points="136.5,-62.1 133,-52.1 129.5,-62.1 136.5,-62.1"/>
<text text-anchor="middle" x="145.83" y="-72.8" font-family="Times,serif" font-size="14.00">calls</text>
</g>
</g>
</svg>
