<?xml version="1.0" encoding="UTF-8" standalone="no"?>
<!DOCTYPE svg PUBLIC "-//W3C//DTD SVG 1.1//EN"
 "http://www.w3.org/Graphics/SVG/1.1/DTD/svg11.dtd">
<!-- Generated by graphviz version 2.42.3 (20191010.1750)
 -->
<!-- Title: cluster/Users/vishweshdkumar/Desktop/gsoc/finalwork/finalrepo/djangotrials/demo_files/demo2.py Pages: 1 -->
<svg width="545pt" height="418pt"
 viewBox="0.00 0.00 544.66 418.00" xmlns="http://www.w3.org/2000/svg" xmlns:xlink="http://www.w3.org/1999/xlink">
<g id="graph0" class="graph" transform="scale(1 1) rotate(0) translate(4 414)">
<title>cluster/Users/vishweshdkumar/Desktop/gsoc/finalwork/finalrepo/djangotrials/demo_files/demo2.py</title>
<polygon fill="darkgray" stroke="transparent" points="-4,4 -4,-414 540.66,-414 540.66,4 -4,4"/>
<text text-anchor="middle" x="268.33" y="-6.8" font-family="Times,serif" font-size="14.00">/Users/vishweshdkumar/Desktop/gsoc/finalwork/finalrepo/djangotrials/demo_files/demo2.py</text>
<g id="clust1" class="cluster">
<title>clusterhasPath</title>
<polygon fill="darkgray" stroke="black" points="148.33,-30 148.33,-402 388.33,-402 388.33,-30 148.33,-30"/>
<text text-anchor="middle" x="268.33" y="-386.8" font-family="Times,serif" font-size="14.00">hasPath</text>
</g>
<!-- 21 -->
<g id="node1" class="node">
<title>21</title>
<polygon fill="#68838b" stroke="black" points="268.33,-372 155.94,-354 268.33,-336 380.72,-354 268.33,-372"/>
<text text-anchor="middle" x="268.33" y="-349.8" font-family="Times,serif" font-size="14.00">if self.dp[i][j] == 4:</text>
</g>
<!-- 24 -->
<g id="node2" class="node">
<title>24</title>
<polygon fill="lightblue" stroke="black" points="366.08,-286 170.58,-286 170.58,-152 366.08,-152 366.08,-286"/>
<text text-anchor="middle" x="268.33" y="-270.8" font-family="Times,serif" font-size="14.00">ans = False</text>
<text text-anchor="middle" x="268.33" y="-256.8" font-family="Times,serif" font-size="14.00">self.dp[i][j] = 1</text>
<text text-anchor="middle" x="268.33" y="-242.8" font-family="Times,serif" font-size="14.00">right = self.hasPath(i + 1, j)</text>
<text text-anchor="middle" x="268.33" y="-228.8" font-family="Times,serif" font-size="14.00">left = self.hasPath(i &#45; 1, j)</text>
<text text-anchor="middle" x="268.33" y="-214.8" font-family="Times,serif" font-size="14.00">up = self.hasPath(i, j + 1)</text>
<text text-anchor="middle" x="268.33" y="-200.8" font-family="Times,serif" font-size="14.00">down = self.hasPath(i, j &#45; 1)</text>
<text text-anchor="middle" x="268.33" y="-186.8" font-family="Times,serif" font-size="14.00">ans = right or left or down or up</text>
<text text-anchor="middle" x="268.33" y="-172.8" font-family="Times,serif" font-size="14.00">self.dp[i][j] = 4 if ans else 3</text>
<text text-anchor="middle" x="268.33" y="-158.8" font-family="Times,serif" font-size="14.00">return ans</text>
</g>
<!-- 21&#45;&gt;24 -->
<g id="edge2" class="edge">
<title>21&#45;&gt;24</title>
<path fill="none" stroke="red" d="M268.33,-335.88C268.33,-325.45 268.33,-311.31 268.33,-296.48"/>
<polygon fill="red" stroke="red" points="271.83,-296.15 268.33,-286.15 264.83,-296.15 271.83,-296.15"/>
<text text-anchor="middle" x="318.34" y="-306.8" font-family="Times,serif" font-size="14.00">(self.dp[i][j] != 4)</text>
</g>
<!-- 24_calls -->
<g id="node3" class="node">
<title>24_calls</title>
<polygon fill="lightgrey" stroke="black" points="310.1,-102 230.56,-102 226.56,-98 226.56,-38 306.1,-38 310.1,-42 310.1,-102"/>
<polyline fill="none" stroke="black" points="306.1,-98 226.56,-98 "/>
<polyline fill="none" stroke="black" points="306.1,-98 306.1,-38 "/>
<polyline fill="none" stroke="black" points="306.1,-98 310.1,-102 "/>
<text text-anchor="middle" x="268.33" y="-86.8" font-family="Times,serif" font-size="14.00">self.hasPath</text>
<text text-anchor="middle" x="268.33" y="-72.8" font-family="Times,serif" font-size="14.00">self.hasPath</text>
<text text-anchor="middle" x="268.33" y="-58.8" font-family="Times,serif" font-size="14.00">self.hasPath</text>
<text text-anchor="middle" x="268.33" y="-44.8" font-family="Times,serif" font-size="14.00">self.hasPath</text>
</g>
<!-- 24&#45;&gt;24_calls -->
<g id="edge1" class="edge">
<title>24&#45;&gt;24_calls</title>
<path fill="none" stroke="white" stroke-dasharray="5,2" d="M268.33,-151.81C268.33,-138.49 268.33,-124.85 268.33,-112.65"/>
<polygon fill="white" stroke="white" points="271.83,-112.35 268.33,-102.35 264.83,-112.35 271.83,-112.35"/>
<text text-anchor="middle" x="281.16" y="-122.8" font-family="Times,serif" font-size="14.00">calls</text>
</g>
</g>
</svg>
