<?xml version="1.0" encoding="UTF-8" standalone="no"?>
<!DOCTYPE svg PUBLIC "-//W3C//DTD SVG 1.1//EN"
 "http://www.w3.org/Graphics/SVG/1.1/DTD/svg11.dtd">
<!-- Generated by graphviz version 2.42.3 (20191010.1750)
 -->
<!-- Title: cluster/Users/vishweshdkumar/Desktop/gsoc/finalwork/finalrepo/djangotrials/demo_files/demo1.py Pages: 1 -->
<svg width="356pt" height="235pt"
 viewBox="0.00 0.00 356.00 235.00" xmlns="http://www.w3.org/2000/svg" xmlns:xlink="http://www.w3.org/1999/xlink">
<g id="graph0" class="graph" transform="scale(1 1) rotate(0) translate(4 231)">
<title>cluster/Users/vishweshdkumar/Desktop/gsoc/finalwork/finalrepo/djangotrials/demo_files/demo1.py</title>
<g id="clust1" class="cluster">
<title>clusterbinarySearch</title>
<polygon fill="transparent" stroke="black" points="8,-8 8,-219 340,-219 340,-8 8,-8"/>
</g>
<!-- 28 -->
<g id="node1" class="node">
<title>28</title>
<polygon fill="lightblue" stroke="black" points="299.45,-211 238.55,-211 238.55,-175 299.45,-175 299.45,-211"/>
<text text-anchor="middle" x="269" y="-188.8" font-family="Times,serif" font-size="14.00">x = root</text>
</g>
<!-- 29 -->
<g id="node2" class="node">
<title>29</title>
<ellipse fill="#68838b" stroke="black" cx="182" cy="-120" rx="81.66" ry="18"/>
<text text-anchor="middle" x="182" y="-115.8" font-family="Times,serif" font-size="14.00">while x is not None:</text>
</g>
<!-- 28&#45;&gt;29 -->
<g id="edge5" class="edge">
<title>28&#45;&gt;29</title>
<path fill="none" stroke="black" d="M247.94,-174.81C236.55,-165.52 222.34,-153.92 210.03,-143.88"/>
<polygon fill="black" stroke="black" points="212.23,-141.15 202.27,-137.54 207.8,-146.57 212.23,-141.15"/>
</g>
<!-- 30 -->
<g id="node3" class="node">
<title>30</title>
<polygon fill="#68838b" stroke="black" points="123,-52 15.79,-34 123,-16 230.21,-34 123,-52"/>
<text text-anchor="middle" x="123" y="-29.8" font-family="Times,serif" font-size="14.00">if x.data == target:</text>
</g>
<!-- 29&#45;&gt;30 -->
<g id="edge3" class="edge">
<title>29&#45;&gt;30</title>
<path fill="none" stroke="black" d="M170.06,-102C161.33,-89.57 149.38,-72.56 139.7,-58.78"/>
<polygon fill="black" stroke="black" points="142.34,-56.45 133.73,-50.28 136.62,-60.47 142.34,-56.45"/>
<text text-anchor="middle" x="193.53" y="-72.8" font-family="Times,serif" font-size="14.00">x is not None</text>
</g>
<!-- 31 -->
<g id="node6" class="node">
<title>31</title>
<polygon fill="lightblue" stroke="black" points="331.75,-52 248.25,-52 248.25,-16 331.75,-16 331.75,-52"/>
<text text-anchor="middle" x="290" y="-29.8" font-family="Times,serif" font-size="14.00">return None</text>
</g>
<!-- 29&#45;&gt;31 -->
<g id="edge4" class="edge">
<title>29&#45;&gt;31</title>
<path fill="none" stroke="black" d="M208.13,-102.81C216.86,-97.13 226.52,-90.52 235,-84 245.04,-76.28 255.53,-67.2 264.64,-58.97"/>
<polygon fill="black" stroke="black" points="267.22,-61.35 272.23,-52.01 262.49,-56.19 267.22,-61.35"/>
<text text-anchor="middle" x="281.49" y="-72.8" font-family="Times,serif" font-size="14.00">(x is None)</text>
</g>
<!-- 35 -->
<g id="node4" class="node">
<title>35</title>
<polygon fill="lightblue" stroke="black" points="220.66,-211 143.34,-211 143.34,-175 220.66,-175 220.66,-211"/>
<text text-anchor="middle" x="182" y="-188.8" font-family="Times,serif" font-size="14.00">x = x.nextr</text>
</g>
<!-- 35&#45;&gt;29 -->
<g id="edge1" class="edge">
<title>35&#45;&gt;29</title>
<path fill="none" stroke="black" d="M182,-174.81C182,-166.79 182,-157.05 182,-148.07"/>
<polygon fill="black" stroke="black" points="185.5,-148.03 182,-138.03 178.5,-148.03 185.5,-148.03"/>
</g>
<!-- 37 -->
<g id="node5" class="node">
<title>37</title>
<polygon fill="lightblue" stroke="black" points="125.39,-211 48.61,-211 48.61,-175 125.39,-175 125.39,-211"/>
<text text-anchor="middle" x="87" y="-188.8" font-family="Times,serif" font-size="14.00">x = x.nextl</text>
</g>
<!-- 37&#45;&gt;29 -->
<g id="edge2" class="edge">
<title>37&#45;&gt;29</title>
<path fill="none" stroke="black" d="M110,-174.81C122.55,-165.43 138.24,-153.7 151.77,-143.59"/>
<polygon fill="black" stroke="black" points="153.95,-146.33 159.87,-137.54 149.76,-140.72 153.95,-146.33"/>
</g>
</g>
</svg>
