<?xml version="1.0" encoding="UTF-8" standalone="no"?>
<!DOCTYPE svg PUBLIC "-//W3C//DTD SVG 1.1//EN"
 "http://www.w3.org/Graphics/SVG/1.1/DTD/svg11.dtd">
<!-- Generated by graphviz version 2.42.3 (20191010.1750)
 -->
<!-- Title: cluster/Users/vishweshdkumar/Desktop/gsoc/finalwork/finalrepo/djangotrials/demo_files/demo2.py Pages: 1 -->
<svg width="545pt" height="206pt"
 viewBox="0.00 0.00 544.66 206.00" xmlns="http://www.w3.org/2000/svg" xmlns:xlink="http://www.w3.org/1999/xlink">
<g id="graph0" class="graph" transform="scale(1 1) rotate(0) translate(4 202)">
<title>cluster/Users/vishweshdkumar/Desktop/gsoc/finalwork/finalrepo/djangotrials/demo_files/demo2.py</title>
<polygon fill="darkgray" stroke="transparent" points="-4,4 -4,-202 540.66,-202 540.66,4 -4,4"/>
<text text-anchor="middle" x="268.33" y="-6.8" font-family="Times,serif" font-size="14.00">/Users/vishweshdkumar/Desktop/gsoc/finalwork/finalrepo/djangotrials/demo_files/demo2.py</text>
<g id="clust1" class="cluster">
<title>clusterhasPath</title>
<polygon fill="darkgray" stroke="black" points="36.33,-30 36.33,-190 500.33,-190 500.33,-30 36.33,-30"/>
<text text-anchor="middle" x="268.33" y="-174.8" font-family="Times,serif" font-size="14.00">hasPath</text>
</g>
<!-- 10 -->
<g id="node1" class="node">
<title>10</title>
<polygon fill="lightblue" stroke="black" points="363.81,-160 110.85,-160 110.85,-124 363.81,-124 363.81,-160"/>
<text text-anchor="middle" x="237.33" y="-137.8" font-family="Times,serif" font-size="14.00">n, m = len(self.matrix), len(self.matrix[0])</text>
</g>
<!-- 10_calls -->
<g id="node2" class="node">
<title>10_calls</title>
<polygon fill="lightgrey" stroke="black" points="98.33,-74 48.33,-74 44.33,-70 44.33,-38 94.33,-38 98.33,-42 98.33,-74"/>
<polyline fill="none" stroke="black" points="94.33,-70 44.33,-70 "/>
<polyline fill="none" stroke="black" points="94.33,-70 94.33,-38 "/>
<polyline fill="none" stroke="black" points="94.33,-70 98.33,-74 "/>
<text text-anchor="middle" x="71.33" y="-58.8" font-family="Times,serif" font-size="14.00">len</text>
<text text-anchor="middle" x="71.33" y="-44.8" font-family="Times,serif" font-size="14.00">len</text>
</g>
<!-- 10&#45;&gt;10_calls -->
<g id="edge1" class="edge">
<title>10&#45;&gt;10_calls</title>
<path fill="none" stroke="white" stroke-dasharray="5,2" d="M203.34,-123.8C175.47,-109.7 136.12,-89.79 107.64,-75.37"/>
<polygon fill="white" stroke="white" points="108.93,-72.11 98.43,-70.71 105.77,-78.35 108.93,-72.11"/>
<text text-anchor="middle" x="176.16" y="-94.8" font-family="Times,serif" font-size="14.00">calls</text>
</g>
<!-- 31 -->
<g id="node3" class="node">
<title>31</title>
<polygon fill="#68838b" stroke="black" points="304.33,-74 116.29,-56 304.33,-38 492.36,-56 304.33,-74"/>
<text text-anchor="middle" x="304.33" y="-51.8" font-family="Times,serif" font-size="14.00">if i &gt;= n or i &lt; 0 or j &gt;= m or j &lt; 0:</text>
</g>
<!-- 10&#45;&gt;31 -->
<g id="edge2" class="edge">
<title>10&#45;&gt;31</title>
<path fill="none" stroke="black" d="M251.21,-123.6C261.05,-111.26 274.38,-94.55 285.22,-80.96"/>
<polygon fill="black" stroke="black" points="288.1,-82.96 291.6,-72.96 282.63,-78.6 288.1,-82.96"/>
</g>
</g>
</svg>
