<?xml version="1.0" encoding="UTF-8" standalone="no"?>
<!DOCTYPE svg PUBLIC "-//W3C//DTD SVG 1.1//EN"
 "http://www.w3.org/Graphics/SVG/1.1/DTD/svg11.dtd">
<!-- Generated by graphviz version 2.42.3 (20191010.1750)
 -->
<!-- Title: cluster/Users/vishweshdkumar/Desktop/gsoc/finalwork/finalrepo/djangotrials/demo_files/demo1.py Pages: 1 -->
<svg width="222pt" height="176pt"
 viewBox="0.00 0.00 222.00 176.00" xmlns="http://www.w3.org/2000/svg" xmlns:xlink="http://www.w3.org/1999/xlink">
<g id="graph0" class="graph" transform="scale(1 1) rotate(0) translate(4 172)">
<title>cluster/Users/vishweshdkumar/Desktop/gsoc/finalwork/finalrepo/djangotrials/demo_files/demo1.py</title>
<g id="clust1" class="cluster">
<title>clustergo</title>
<polygon fill="transparent" stroke="black" points="8,-8 8,-160 206,-160 206,-8 8,-8"/>
</g>
<!-- 3 -->
<g id="curr_block" class="node">
<title>3</title>
<polygon fill="lightblue" stroke="red" stroke-width="3" points="198.16,-152 15.84,-152 15.84,-102 198.16,-102 198.16,-152"/>
<text text-anchor="middle" x="107" y="-136.8" font-family="Times,serif" font-size="14.00">helper.DEBUG = 1</text>
<text text-anchor="middle" x="107" y="-122.8" font-family="Times,serif" font-size="14.00">sol = demo2.Solution(matrix)</text>
<text text-anchor="middle" x="107" y="-108.8" font-family="Times,serif" font-size="14.00">ans = sol.findPath()</text>
</g>
<!-- 3_calls -->
<g id="node2" class="node">
<title>3_calls</title>
<polygon fill="lightgrey" stroke="black" points="159.56,-52 58.44,-52 54.44,-48 54.44,-16 155.56,-16 159.56,-20 159.56,-52"/>
<polyline fill="none" stroke="black" points="155.56,-48 54.44,-48 "/>
<polyline fill="none" stroke="black" points="155.56,-48 155.56,-16 "/>
<polyline fill="none" stroke="black" points="155.56,-48 159.56,-52 "/>
<text text-anchor="middle" x="107" y="-36.8" font-family="Times,serif" font-size="14.00">demo2.Solution</text>
<text text-anchor="middle" x="107" y="-22.8" font-family="Times,serif" font-size="14.00">sol.findPath</text>
</g>
<!-- 3&#45;&gt;3_calls -->
<g id="edge1" class="edge">
<title>3&#45;&gt;3_calls</title>
<path fill="none" stroke="white" stroke-dasharray="5,2" d="M107,-101.61C107,-89.56 107,-74.97 107,-62.52"/>
<polygon fill="white" stroke="white" points="110.5,-62.24 107,-52.24 103.5,-62.24 110.5,-62.24"/>
<text text-anchor="middle" x="119.83" y="-72.8" font-family="Times,serif" font-size="14.00">calls</text>
</g>
</g>
</svg>
