<?xml version="1.0" encoding="UTF-8" standalone="no"?>
<!DOCTYPE svg PUBLIC "-//W3C//DTD SVG 1.1//EN"
 "http://www.w3.org/Graphics/SVG/1.1/DTD/svg11.dtd">
<!-- Generated by graphviz version 2.42.3 (20191010.1750)
 -->
<!-- Title: cluster/Users/vishweshdkumar/Desktop/gsoc/finalwork/finalrepo/djangotrials/demo_files/demo2.py Pages: 1 -->
<svg width="416pt" height="162pt"
 viewBox="0.00 0.00 416.00 162.00" xmlns="http://www.w3.org/2000/svg" xmlns:xlink="http://www.w3.org/1999/xlink">
<g id="graph0" class="graph" transform="scale(1 1) rotate(0) translate(4 158)">
<title>cluster/Users/vishweshdkumar/Desktop/gsoc/finalwork/finalrepo/djangotrials/demo_files/demo2.py</title>
<polygon fill="darkgray" stroke="transparent" points="-4,4 -4,-158 412,-158 412,4 -4,4"/>
<g id="clust1" class="cluster">
<title>clusterhasPath</title>
<polygon fill="darkgray" stroke="black" points="8,-8 8,-146 400,-146 400,-8 8,-8"/>
</g>
<!-- 31 -->
<g id="node1" class="node">
<title>31</title>
<polygon fill="#68838b" stroke="black" points="204,-138 15.96,-120 204,-102 392.04,-120 204,-138"/>
<text text-anchor="middle" x="204" y="-115.8" font-family="Times,serif" font-size="14.00">if i &gt;= n or i &lt; 0 or j &gt;= m or j &lt; 0:</text>
</g>
<!-- 11 -->
<g id="node2" class="node">
<title>11</title>
<polygon fill="lightblue" stroke="black" points="245.48,-52 162.52,-52 162.52,-16 245.48,-16 245.48,-52"/>
<text text-anchor="middle" x="204" y="-29.8" font-family="Times,serif" font-size="14.00">return False</text>
</g>
<!-- 31&#45;&gt;11 -->
<g id="edge1" class="edge">
<title>31&#45;&gt;11</title>
<path fill="none" stroke="red" d="M204,-101.6C204,-90.26 204,-75.23 204,-62.32"/>
<polygon fill="red" stroke="red" points="207.5,-62.1 204,-52.1 200.5,-62.1 207.5,-62.1"/>
<text text-anchor="middle" x="293.4" y="-72.8" font-family="Times,serif" font-size="14.00">i &gt;= n or i &lt; 0 or j &gt;= m or j &lt; 0</text>
</g>
</g>
</svg>
