<?xml version="1.0" encoding="UTF-8" standalone="no"?>
<!DOCTYPE svg PUBLIC "-//W3C//DTD SVG 1.1//EN"
 "http://www.w3.org/Graphics/SVG/1.1/DTD/svg11.dtd">
<!-- Generated by graphviz version 2.42.3 (20191010.1750)
 -->
<!-- Title: cluster/Users/vishweshdkumar/Desktop/gsoc/finalwork/finalrepo/djangotrials/demo_files/demo2.py Pages: 1 -->
<svg width="416pt" height="248pt"
 viewBox="0.00 0.00 416.00 248.00" xmlns="http://www.w3.org/2000/svg" xmlns:xlink="http://www.w3.org/1999/xlink">
<g id="graph0" class="graph" transform="scale(1 1) rotate(0) translate(4 244)">
<title>cluster/Users/vishweshdkumar/Desktop/gsoc/finalwork/finalrepo/djangotrials/demo_files/demo2.py</title>
<g id="clust1" class="cluster">
<title>clusterhasPath</title>
<polygon fill="transparent" stroke="black" points="8,-8 8,-232 400,-232 400,-8 8,-8"/>
</g>
<!-- 35 -->
<g id="node1" class="node">
<title>35</title>
<polygon fill="#68838b" stroke="black" points="204,-224 15.96,-206 204,-188 392.04,-206 204,-224"/>
<text text-anchor="middle" x="204" y="-201.8" font-family="Times,serif" font-size="14.00">if i &gt;= n or i &lt; 0 or j &gt;= m or j &lt; 0:</text>
</g>
<!-- 14 -->
<g id="node2" class="node">
<title>14</title>
<polygon fill="lightblue" stroke="black" points="301.69,-138 106.31,-138 106.31,-102 301.69,-102 301.69,-138"/>
<text text-anchor="middle" x="204" y="-122.8" font-family="Times,serif" font-size="14.00">print(f&#39;i:{i},j:{j} out of bounds&#39;)</text>
<text text-anchor="middle" x="204" y="-108.8" font-family="Times,serif" font-size="14.00">return False</text>
</g>
<!-- 35&#45;&gt;14 -->
<g id="edge2" class="edge">
<title>35&#45;&gt;14</title>
<path fill="none" stroke="red" d="M204,-187.6C204,-176.26 204,-161.23 204,-148.32"/>
<polygon fill="red" stroke="red" points="207.5,-148.1 204,-138.1 200.5,-148.1 207.5,-148.1"/>
<text text-anchor="middle" x="293.4" y="-158.8" font-family="Times,serif" font-size="14.00">i &gt;= n or i &lt; 0 or j &gt;= m or j &lt; 0</text>
</g>
<!-- 14_calls -->
<g id="node3" class="node">
<title>14_calls</title>
<polygon fill="lightgrey" stroke="black" points="231,-52 181,-52 177,-48 177,-16 227,-16 231,-20 231,-52"/>
<polyline fill="none" stroke="black" points="227,-48 177,-48 "/>
<polyline fill="none" stroke="black" points="227,-48 227,-16 "/>
<polyline fill="none" stroke="black" points="227,-48 231,-52 "/>
<text text-anchor="middle" x="204" y="-29.8" font-family="Times,serif" font-size="14.00">print</text>
</g>
<!-- 14&#45;&gt;14_calls -->
<g id="edge1" class="edge">
<title>14&#45;&gt;14_calls</title>
<path fill="none" stroke="white" stroke-dasharray="5,2" d="M204,-101.6C204,-90.26 204,-75.23 204,-62.32"/>
<polygon fill="white" stroke="white" points="207.5,-62.1 204,-52.1 200.5,-62.1 207.5,-62.1"/>
<text text-anchor="middle" x="216.83" y="-72.8" font-family="Times,serif" font-size="14.00">calls</text>
</g>
</g>
</svg>
