<?xml version="1.0" encoding="UTF-8" standalone="no"?>
<!DOCTYPE svg PUBLIC "-//W3C//DTD SVG 1.1//EN"
 "http://www.w3.org/Graphics/SVG/1.1/DTD/svg11.dtd">
<!-- Generated by graphviz version 2.42.3 (20191010.1750)
 -->
<!-- Title: cluster/Users/vishweshdkumar/Desktop/gsoc/finalwork/finalrepo/djangotrials/demo_files/demo2.py Pages: 1 -->
<svg width="588pt" height="818pt"
 viewBox="0.00 0.00 588.00 818.00" xmlns="http://www.w3.org/2000/svg" xmlns:xlink="http://www.w3.org/1999/xlink">
<g id="graph0" class="graph" transform="scale(1 1) rotate(0) translate(4 814)">
<title>cluster/Users/vishweshdkumar/Desktop/gsoc/finalwork/finalrepo/djangotrials/demo_files/demo2.py</title>
<g id="clust1" class="cluster">
<title>clusterhasPath</title>
<polygon fill="transparent" stroke="black" points="8,-8 8,-802 572,-802 572,-8 8,-8"/>
</g>
<!-- 13 -->
<g id="node1" class="node">
<title>13</title>
<polygon fill="lightblue" stroke="black" points="262.3,-794 117.7,-794 117.7,-758 262.3,-758 262.3,-794"/>
<text text-anchor="middle" x="190" y="-778.8" font-family="Times,serif" font-size="14.00">n = len(self.matrix)</text>
<text text-anchor="middle" x="190" y="-764.8" font-family="Times,serif" font-size="14.00">m = len(self.matrix[0])</text>
</g>
<!-- 13_calls -->
<g id="node2" class="node">
<title>13_calls</title>
<polygon fill="lightgrey" stroke="black" points="101,-708 51,-708 47,-704 47,-672 97,-672 101,-676 101,-708"/>
<polyline fill="none" stroke="black" points="97,-704 47,-704 "/>
<polyline fill="none" stroke="black" points="97,-704 97,-672 "/>
<polyline fill="none" stroke="black" points="97,-704 101,-708 "/>
<text text-anchor="middle" x="74" y="-692.8" font-family="Times,serif" font-size="14.00">len</text>
<text text-anchor="middle" x="74" y="-678.8" font-family="Times,serif" font-size="14.00">len</text>
</g>
<!-- 13&#45;&gt;13_calls -->
<g id="edge1" class="edge">
<title>13&#45;&gt;13_calls</title>
<path fill="none" stroke="white" stroke-dasharray="5,2" d="M166.25,-757.8C148.81,-745.17 124.94,-727.89 105.85,-714.06"/>
<polygon fill="white" stroke="white" points="107.87,-711.21 97.72,-708.18 103.77,-716.88 107.87,-711.21"/>
<text text-anchor="middle" x="150.83" y="-728.8" font-family="Times,serif" font-size="14.00">calls</text>
</g>
<!-- 35 -->
<g id="node3" class="node">
<title>35</title>
<polygon fill="#68838b" stroke="black" points="307,-708 118.96,-690 307,-672 495.04,-690 307,-708"/>
<text text-anchor="middle" x="307" y="-685.8" font-family="Times,serif" font-size="14.00">if i &gt;= n or i &lt; 0 or j &gt;= m or j &lt; 0:</text>
</g>
<!-- 13&#45;&gt;35 -->
<g id="edge16" class="edge">
<title>13&#45;&gt;35</title>
<path fill="none" stroke="black" d="M213.96,-757.8C232.36,-744.59 257.87,-726.27 277.52,-712.16"/>
<polygon fill="black" stroke="black" points="279.74,-714.88 285.82,-706.2 275.66,-709.19 279.74,-714.88"/>
</g>
<!-- 14 -->
<g id="curr_block" class="node">
<title>14</title>
<polygon fill="lightblue" stroke="red" stroke-width="3" points="211.69,-622 16.31,-622 16.31,-586 211.69,-586 211.69,-622"/>
<text text-anchor="middle" x="114" y="-606.8" font-family="Times,serif" font-size="14.00">print(f&#39;i:{i},j:{j} out of bounds&#39;)</text>
<text text-anchor="middle" x="114" y="-592.8" font-family="Times,serif" font-size="14.00">return False</text>
</g>
<!-- 35&#45;&gt;14 -->
<g id="curr_link" class="edge">
<title>35&#45;&gt;14</title>
<path fill="none" stroke="red" d="M214.97,-680.68C191.78,-675.48 167.91,-667.18 148.19,-654 139.49,-648.18 132.33,-639.33 126.86,-630.75"/>
<polygon fill="red" stroke="red" points="129.83,-628.91 121.76,-622.04 123.79,-632.44 129.83,-628.91"/>
<text text-anchor="middle" x="237.4" y="-642.8" font-family="Times,serif" font-size="14.00">i &gt;= n or i &lt; 0 or j &gt;= m or j &lt; 0</text>
</g>
<!-- 15 -->
<g id="node6" class="node">
<title>15</title>
<polygon fill="#68838b" stroke="black" points="362,-622 229.33,-604 362,-586 494.67,-604 362,-622"/>
<text text-anchor="middle" x="362" y="-599.8" font-family="Times,serif" font-size="14.00">if self.matrix[i][j] == 0:</text>
</g>
<!-- 35&#45;&gt;15 -->
<g id="edge15" class="edge">
<title>35&#45;&gt;15</title>
<path fill="none" stroke="black" d="M317.6,-672.8C325.64,-660.52 336.83,-643.44 345.96,-629.49"/>
<polygon fill="black" stroke="black" points="349.06,-631.14 351.61,-620.86 343.21,-627.31 349.06,-631.14"/>
<text text-anchor="middle" x="446.42" y="-642.8" font-family="Times,serif" font-size="14.00">(not (i &gt;= n or i &lt; 0 or j &gt;= m or j &lt; 0))</text>
</g>
<!-- 14_calls -->
<g id="node5" class="node">
<title>14_calls</title>
<polygon fill="lightgrey" stroke="black" points="96,-529 46,-529 42,-525 42,-493 92,-493 96,-497 96,-529"/>
<polyline fill="none" stroke="black" points="92,-525 42,-525 "/>
<polyline fill="none" stroke="black" points="92,-525 92,-493 "/>
<polyline fill="none" stroke="black" points="92,-525 96,-529 "/>
<text text-anchor="middle" x="69" y="-506.8" font-family="Times,serif" font-size="14.00">print</text>
</g>
<!-- 14&#45;&gt;14_calls -->
<g id="edge2" class="edge">
<title>14&#45;&gt;14_calls</title>
<path fill="none" stroke="white" stroke-dasharray="5,2" d="M105.54,-585.88C98.87,-572.41 89.48,-553.41 81.88,-538.05"/>
<polygon fill="white" stroke="white" points="85,-536.45 77.43,-529.04 78.72,-539.56 85,-536.45"/>
<text text-anchor="middle" x="107.83" y="-556.8" font-family="Times,serif" font-size="14.00">calls</text>
</g>
<!-- 17 -->
<g id="node7" class="node">
<title>17</title>
<polygon fill="lightblue" stroke="black" points="277.51,-536 114.49,-536 114.49,-486 277.51,-486 277.51,-536"/>
<text text-anchor="middle" x="196" y="-520.8" font-family="Times,serif" font-size="14.00">print(f&#39;i:{i},j:{j} blocked&#39;)</text>
<text text-anchor="middle" x="196" y="-506.8" font-family="Times,serif" font-size="14.00">self.dp[i][j] = 3</text>
<text text-anchor="middle" x="196" y="-492.8" font-family="Times,serif" font-size="14.00">return False</text>
</g>
<!-- 15&#45;&gt;17 -->
<g id="edge5" class="edge">
<title>15&#45;&gt;17</title>
<path fill="none" stroke="black" d="M317.48,-591.96C298.84,-586.3 277.41,-578.38 259.52,-568 247.88,-561.25 236.45,-552.16 226.56,-543.28"/>
<polygon fill="black" stroke="black" points="228.69,-540.48 218.98,-536.25 223.93,-545.61 228.69,-540.48"/>
<text text-anchor="middle" x="317.24" y="-556.8" font-family="Times,serif" font-size="14.00">self.matrix[i][j] == 0</text>
</g>
<!-- 18 -->
<g id="node9" class="node">
<title>18</title>
<polygon fill="#68838b" stroke="black" points="408,-529 295.61,-511 408,-493 520.39,-511 408,-529"/>
<text text-anchor="middle" x="408" y="-506.8" font-family="Times,serif" font-size="14.00">if self.dp[i][j] == 1:</text>
</g>
<!-- 15&#45;&gt;18 -->
<g id="edge14" class="edge">
<title>15&#45;&gt;18</title>
<path fill="none" stroke="black" d="M370.22,-586.73C377.2,-572.93 387.32,-552.91 395.33,-537.06"/>
<polygon fill="black" stroke="black" points="398.61,-538.33 400,-527.82 392.37,-535.17 398.61,-538.33"/>
<text text-anchor="middle" x="447.28" y="-556.8" font-family="Times,serif" font-size="14.00">(self.matrix[i][j] != 0)</text>
</g>
<!-- 17_calls -->
<g id="node8" class="node">
<title>17_calls</title>
<polygon fill="lightgrey" stroke="black" points="70,-436 20,-436 16,-432 16,-400 66,-400 70,-404 70,-436"/>
<polyline fill="none" stroke="black" points="66,-432 16,-432 "/>
<polyline fill="none" stroke="black" points="66,-432 66,-400 "/>
<polyline fill="none" stroke="black" points="66,-432 70,-436 "/>
<text text-anchor="middle" x="43" y="-413.8" font-family="Times,serif" font-size="14.00">print</text>
</g>
<!-- 17&#45;&gt;17_calls -->
<g id="edge4" class="edge">
<title>17&#45;&gt;17_calls</title>
<path fill="none" stroke="white" stroke-dasharray="5,2" d="M155.4,-485.85C131.64,-471.72 101.91,-454.04 78.99,-440.41"/>
<polygon fill="white" stroke="white" points="80.64,-437.31 70.25,-435.21 77.06,-443.33 80.64,-437.31"/>
<text text-anchor="middle" x="136.83" y="-456.8" font-family="Times,serif" font-size="14.00">calls</text>
</g>
<!-- 20 -->
<g id="node10" class="node">
<title>20</title>
<polygon fill="lightblue" stroke="black" points="321.87,-436 88.13,-436 88.13,-400 321.87,-400 321.87,-436"/>
<text text-anchor="middle" x="205" y="-420.8" font-family="Times,serif" font-size="14.00">print(f&#39;i:{i},j:{j} in current visit cycle&#39;)</text>
<text text-anchor="middle" x="205" y="-406.8" font-family="Times,serif" font-size="14.00">return False</text>
</g>
<!-- 18&#45;&gt;20 -->
<g id="edge7" class="edge">
<title>18&#45;&gt;20</title>
<path fill="none" stroke="black" d="M379.77,-497.35C346.79,-482.56 291.71,-457.87 252.2,-440.16"/>
<polygon fill="black" stroke="black" points="253.57,-436.94 243.01,-436.04 250.7,-443.32 253.57,-436.94"/>
<text text-anchor="middle" x="358.97" y="-456.8" font-family="Times,serif" font-size="14.00">self.dp[i][j] == 1</text>
</g>
<!-- 21 -->
<g id="node12" class="node">
<title>21</title>
<polygon fill="#68838b" stroke="black" points="452,-436 339.61,-418 452,-400 564.39,-418 452,-436"/>
<text text-anchor="middle" x="452" y="-413.8" font-family="Times,serif" font-size="14.00">if self.dp[i][j] == 3:</text>
</g>
<!-- 18&#45;&gt;21 -->
<g id="edge13" class="edge">
<title>18&#45;&gt;21</title>
<path fill="none" stroke="black" d="M415.66,-494.15C422.31,-480.4 432.05,-460.26 439.77,-444.29"/>
<polygon fill="black" stroke="black" points="443.07,-445.5 444.28,-434.97 436.77,-442.45 443.07,-445.5"/>
<text text-anchor="middle" x="483.01" y="-456.8" font-family="Times,serif" font-size="14.00">(self.dp[i][j] != 1)</text>
</g>
<!-- 20_calls -->
<g id="node11" class="node">
<title>20_calls</title>
<polygon fill="lightgrey" stroke="black" points="232,-350 182,-350 178,-346 178,-314 228,-314 232,-318 232,-350"/>
<polyline fill="none" stroke="black" points="228,-346 178,-346 "/>
<polyline fill="none" stroke="black" points="228,-346 228,-314 "/>
<polyline fill="none" stroke="black" points="228,-346 232,-350 "/>
<text text-anchor="middle" x="205" y="-327.8" font-family="Times,serif" font-size="14.00">print</text>
</g>
<!-- 20&#45;&gt;20_calls -->
<g id="edge6" class="edge">
<title>20&#45;&gt;20_calls</title>
<path fill="none" stroke="white" stroke-dasharray="5,2" d="M205,-399.6C205,-388.26 205,-373.23 205,-360.32"/>
<polygon fill="white" stroke="white" points="208.5,-360.1 205,-350.1 201.5,-360.1 208.5,-360.1"/>
<text text-anchor="middle" x="217.83" y="-370.8" font-family="Times,serif" font-size="14.00">calls</text>
</g>
<!-- 24 -->
<g id="node13" class="node">
<title>24</title>
<polygon fill="#68838b" stroke="black" points="452,-350 339.61,-332 452,-314 564.39,-332 452,-350"/>
<text text-anchor="middle" x="452" y="-327.8" font-family="Times,serif" font-size="14.00">if self.dp[i][j] == 4:</text>
</g>
<!-- 21&#45;&gt;24 -->
<g id="edge12" class="edge">
<title>21&#45;&gt;24</title>
<path fill="none" stroke="black" d="M452,-399.6C452,-388.26 452,-373.23 452,-360.32"/>
<polygon fill="black" stroke="black" points="455.5,-360.1 452,-350.1 448.5,-360.1 455.5,-360.1"/>
<text text-anchor="middle" x="502.01" y="-370.8" font-family="Times,serif" font-size="14.00">(self.dp[i][j] != 3)</text>
</g>
<!-- 26 -->
<g id="node14" class="node">
<title>26</title>
<polygon fill="lightblue" stroke="black" points="346.34,-215 63.66,-215 63.66,-179 346.34,-179 346.34,-215"/>
<text text-anchor="middle" x="205" y="-199.8" font-family="Times,serif" font-size="14.00">print(f&#39;i:{i},j:{j} path exists , already recorded&#39;)</text>
<text text-anchor="middle" x="205" y="-185.8" font-family="Times,serif" font-size="14.00">return True</text>
</g>
<!-- 24&#45;&gt;26 -->
<g id="edge9" class="edge">
<title>24&#45;&gt;26</title>
<path fill="none" stroke="black" d="M415.2,-319.75C397,-313.64 374.95,-305.42 356.07,-296 312.4,-274.22 265.82,-242.57 236.11,-221.18"/>
<polygon fill="black" stroke="black" points="237.98,-218.2 227.83,-215.16 233.87,-223.87 237.98,-218.2"/>
<text text-anchor="middle" x="402.97" y="-284.8" font-family="Times,serif" font-size="14.00">self.dp[i][j] == 4</text>
</g>
<!-- 27 -->
<g id="node16" class="node">
<title>27</title>
<polygon fill="lightblue" stroke="black" points="559.75,-264 364.25,-264 364.25,-130 559.75,-130 559.75,-264"/>
<text text-anchor="middle" x="462" y="-248.8" font-family="Times,serif" font-size="14.00">ans = False</text>
<text text-anchor="middle" x="462" y="-234.8" font-family="Times,serif" font-size="14.00">self.dp[i][j] = 1</text>
<text text-anchor="middle" x="462" y="-220.8" font-family="Times,serif" font-size="14.00">right = self.hasPath(i + 1, j)</text>
<text text-anchor="middle" x="462" y="-206.8" font-family="Times,serif" font-size="14.00">left = self.hasPath(i &#45; 1, j)</text>
<text text-anchor="middle" x="462" y="-192.8" font-family="Times,serif" font-size="14.00">up = self.hasPath(i, j + 1)</text>
<text text-anchor="middle" x="462" y="-178.8" font-family="Times,serif" font-size="14.00">down = self.hasPath(i, j &#45; 1)</text>
<text text-anchor="middle" x="462" y="-164.8" font-family="Times,serif" font-size="14.00">ans = right or left or down or up</text>
<text text-anchor="middle" x="462" y="-150.8" font-family="Times,serif" font-size="14.00">self.dp[i][j] = 4 if ans else 3</text>
<text text-anchor="middle" x="462" y="-136.8" font-family="Times,serif" font-size="14.00">return ans</text>
</g>
<!-- 24&#45;&gt;27 -->
<g id="edge11" class="edge">
<title>24&#45;&gt;27</title>
<path fill="none" stroke="black" d="M453.27,-314.16C454.06,-303.61 455.14,-289.18 456.28,-274.08"/>
<polygon fill="black" stroke="black" points="459.77,-274.33 457.03,-264.1 452.79,-273.81 459.77,-274.33"/>
<text text-anchor="middle" x="505.01" y="-284.8" font-family="Times,serif" font-size="14.00">(self.dp[i][j] != 4)</text>
</g>
<!-- 26_calls -->
<g id="node15" class="node">
<title>26_calls</title>
<polygon fill="lightgrey" stroke="black" points="232,-66 182,-66 178,-62 178,-30 228,-30 232,-34 232,-66"/>
<polyline fill="none" stroke="black" points="228,-62 178,-62 "/>
<polyline fill="none" stroke="black" points="228,-62 228,-30 "/>
<polyline fill="none" stroke="black" points="228,-62 232,-66 "/>
<text text-anchor="middle" x="205" y="-43.8" font-family="Times,serif" font-size="14.00">print</text>
</g>
<!-- 26&#45;&gt;26_calls -->
<g id="edge8" class="edge">
<title>26&#45;&gt;26_calls</title>
<path fill="none" stroke="white" stroke-dasharray="5,2" d="M205,-178.85C205,-153.62 205,-106.26 205,-76.24"/>
<polygon fill="white" stroke="white" points="208.5,-76.04 205,-66.04 201.5,-76.04 208.5,-76.04"/>
<text text-anchor="middle" x="217.83" y="-100.8" font-family="Times,serif" font-size="14.00">calls</text>
</g>
<!-- 27_calls -->
<g id="node17" class="node">
<title>27_calls</title>
<polygon fill="lightgrey" stroke="black" points="503.77,-80 424.23,-80 420.23,-76 420.23,-16 499.77,-16 503.77,-20 503.77,-80"/>
<polyline fill="none" stroke="black" points="499.77,-76 420.23,-76 "/>
<polyline fill="none" stroke="black" points="499.77,-76 499.77,-16 "/>
<polyline fill="none" stroke="black" points="499.77,-76 503.77,-80 "/>
<text text-anchor="middle" x="462" y="-64.8" font-family="Times,serif" font-size="14.00">self.hasPath</text>
<text text-anchor="middle" x="462" y="-50.8" font-family="Times,serif" font-size="14.00">self.hasPath</text>
<text text-anchor="middle" x="462" y="-36.8" font-family="Times,serif" font-size="14.00">self.hasPath</text>
<text text-anchor="middle" x="462" y="-22.8" font-family="Times,serif" font-size="14.00">self.hasPath</text>
</g>
<!-- 27&#45;&gt;27_calls -->
<g id="edge10" class="edge">
<title>27&#45;&gt;27_calls</title>
<path fill="none" stroke="white" stroke-dasharray="5,2" d="M462,-129.81C462,-116.49 462,-102.85 462,-90.65"/>
<polygon fill="white" stroke="white" points="465.5,-90.35 462,-80.35 458.5,-90.35 465.5,-90.35"/>
<text text-anchor="middle" x="474.83" y="-100.8" font-family="Times,serif" font-size="14.00">calls</text>
</g>
</g>
</svg>
