<?xml version="1.0" encoding="UTF-8" standalone="no"?>
<!DOCTYPE svg PUBLIC "-//W3C//DTD SVG 1.1//EN"
 "http://www.w3.org/Graphics/SVG/1.1/DTD/svg11.dtd">
<!-- Generated by graphviz version 2.42.3 (20191010.1750)
 -->
<!-- Title: cluster/Users/vishweshdkumar/Desktop/gsoc/finalwork/finalrepo/djangotrials/demo_files/demo1.py Pages: 1 -->
<svg width="412pt" height="162pt"
 viewBox="0.00 0.00 412.00 162.00" xmlns="http://www.w3.org/2000/svg" xmlns:xlink="http://www.w3.org/1999/xlink">
<g id="graph0" class="graph" transform="scale(1 1) rotate(0) translate(4 158)">
<title>cluster/Users/vishweshdkumar/Desktop/gsoc/finalwork/finalrepo/djangotrials/demo_files/demo1.py</title>
<g id="clust1" class="cluster">
<title>clusterinorder</title>
<polygon fill="transparent" stroke="black" points="8,-8 8,-146 396,-146 396,-8 8,-8"/>
</g>
<!-- 17 -->
<g id="node1" class="node">
<title>17</title>
<polygon fill="lightblue" stroke="black" points="217.1,-138 92.9,-138 92.9,-102 217.1,-102 217.1,-138"/>
<text text-anchor="middle" x="155" y="-115.8" font-family="Times,serif" font-size="14.00">ans = self.__str__()</text>
</g>
<!-- 17_calls -->
<g id="node2" class="node">
<title>17_calls</title>
<polygon fill="lightgrey" stroke="black" points="97.71,-52 20.29,-52 16.29,-48 16.29,-16 93.71,-16 97.71,-20 97.71,-52"/>
<polyline fill="none" stroke="black" points="93.71,-48 16.29,-48 "/>
<polyline fill="none" stroke="black" points="93.71,-48 93.71,-16 "/>
<polyline fill="none" stroke="black" points="93.71,-48 97.71,-52 "/>
<text text-anchor="middle" x="57" y="-29.8" font-family="Times,serif" font-size="14.00">self.__str__</text>
</g>
<!-- 17&#45;&gt;17_calls -->
<g id="edge1" class="edge">
<title>17&#45;&gt;17_calls</title>
<path fill="none" stroke="white" stroke-dasharray="5,2" d="M134.69,-101.6C120.28,-89.24 100.74,-72.49 84.87,-58.88"/>
<polygon fill="white" stroke="white" points="86.81,-55.95 76.94,-52.1 82.26,-61.26 86.81,-55.95"/>
<text text-anchor="middle" x="123.83" y="-72.8" font-family="Times,serif" font-size="14.00">calls</text>
</g>
<!-- 46 -->
<g id="node3" class="node">
<title>46</title>
<polygon fill="#68838b" stroke="black" points="252,-52 115.58,-34 252,-16 388.42,-34 252,-52"/>
<text text-anchor="middle" x="252" y="-29.8" font-family="Times,serif" font-size="14.00">if self.nextr is not None:</text>
</g>
<!-- 17&#45;&gt;46 -->
<g id="edge2" class="edge">
<title>17&#45;&gt;46</title>
<path fill="none" stroke="black" d="M175.1,-101.6C190.13,-88.58 210.77,-70.71 226.88,-56.75"/>
<polygon fill="black" stroke="black" points="229.58,-59.05 234.85,-49.86 224.99,-53.76 229.58,-59.05"/>
</g>
</g>
</svg>
