<?xml version="1.0" encoding="UTF-8" standalone="no"?>
<!DOCTYPE svg PUBLIC "-//W3C//DTD SVG 1.1//EN"
 "http://www.w3.org/Graphics/SVG/1.1/DTD/svg11.dtd">
<!-- Generated by graphviz version 2.42.3 (20191010.1750)
 -->
<!-- Title: cluster/Users/vishweshdkumar/Desktop/gsoc/finalwork/finalrepo/flowchart_gen/leetcode_tests/Container with most water/run.py Pages: 1 -->
<svg width="576pt" height="507pt"
 viewBox="0.00 0.00 575.69 507.00" xmlns="http://www.w3.org/2000/svg" xmlns:xlink="http://www.w3.org/1999/xlink">
<g id="graph0" class="graph" transform="scale(1 1) rotate(0) translate(4 503)">
<title>cluster/Users/vishweshdkumar/Desktop/gsoc/finalwork/finalrepo/flowchart_gen/leetcode_tests/Container with most water/run.py</title>
<g id="clust1" class="cluster">
<title>clustermaxArea</title>
<polygon fill="transparent" stroke="black" points="155.69,-8 155.69,-491 559.69,-491 559.69,-8 155.69,-8"/>
</g>
<!-- 1 -->
<g id="node1" class="node">
<title>1</title>
<polygon fill="lightblue" stroke="black" points="147.58,-476 -0.19,-476 -0.19,-440 147.58,-440 147.58,-476"/>
<text text-anchor="middle" x="73.69" y="-460.8" font-family="Times,serif" font-size="14.00">def maxArea(height):...</text>
<text text-anchor="middle" x="73.69" y="-446.8" font-family="Times,serif" font-size="14.00">def go():...</text>
</g>
<!-- 3 -->
<g id="node2" class="node">
<title>3</title>
<polygon fill="lightblue" stroke="black" points="502.06,-483 387.33,-483 387.33,-433 502.06,-433 502.06,-483"/>
<text text-anchor="middle" x="444.69" y="-467.8" font-family="Times,serif" font-size="14.00">i = 0</text>
<text text-anchor="middle" x="444.69" y="-453.8" font-family="Times,serif" font-size="14.00">j = len(height) &#45; 1</text>
<text text-anchor="middle" x="444.69" y="-439.8" font-family="Times,serif" font-size="14.00">maxi = 0</text>
</g>
<!-- 3_calls -->
<g id="node3" class="node">
<title>3_calls</title>
<polygon fill="lightgrey" stroke="black" points="424.69,-383 374.69,-383 370.69,-379 370.69,-347 420.69,-347 424.69,-351 424.69,-383"/>
<polyline fill="none" stroke="black" points="420.69,-379 370.69,-379 "/>
<polyline fill="none" stroke="black" points="420.69,-379 420.69,-347 "/>
<polyline fill="none" stroke="black" points="420.69,-379 424.69,-383 "/>
<text text-anchor="middle" x="397.69" y="-360.8" font-family="Times,serif" font-size="14.00">len</text>
</g>
<!-- 3&#45;&gt;3_calls -->
<g id="edge1" class="edge">
<title>3&#45;&gt;3_calls</title>
<path fill="none" stroke="white" stroke-dasharray="5,2" d="M432.1,-432.61C425.68,-420.2 417.88,-405.08 411.32,-392.39"/>
<polygon fill="white" stroke="white" points="414.3,-390.52 406.6,-383.24 408.08,-393.73 414.3,-390.52"/>
<text text-anchor="middle" x="434.52" y="-403.8" font-family="Times,serif" font-size="14.00">calls</text>
</g>
<!-- 4 -->
<g id="node4" class="node">
<title>4</title>
<ellipse fill="#68838b" stroke="black" cx="491.69" cy="-365" rx="48.99" ry="18"/>
<text text-anchor="middle" x="491.69" y="-360.8" font-family="Times,serif" font-size="14.00">while i &lt; j:</text>
</g>
<!-- 3&#45;&gt;4 -->
<g id="edge10" class="edge">
<title>3&#45;&gt;4</title>
<path fill="none" stroke="black" d="M457.29,-432.61C463.75,-420.11 471.61,-404.88 478.2,-392.13"/>
<polygon fill="black" stroke="black" points="481.45,-393.45 482.93,-382.96 475.23,-390.24 481.45,-393.45"/>
</g>
<!-- 5 -->
<g id="curr_block" class="node">
<title>5</title>
<polygon fill="#68838b" stroke="black" points="298.69,-297 163.65,-279 298.69,-261 433.74,-279 298.69,-297"/>
<text text-anchor="middle" x="298.69" y="-274.8" font-family="Times,serif" font-size="14.00">if height[i] &lt;= height[j]:</text>
</g>
<!-- 4&#45;&gt;5 -->
<g id="edge8" class="edge">
<title>4&#45;&gt;5</title>
<path fill="none" stroke="red" d="M461.11,-350.69C427.84,-336.21 374.54,-313.01 338.14,-297.17"/>
<polygon fill="red" stroke="red" points="339.38,-293.89 328.81,-293.11 336.59,-300.31 339.38,-293.89"/>
<text text-anchor="middle" x="418.03" y="-317.8" font-family="Times,serif" font-size="14.00">i &lt; j</text>
</g>
<!-- 6 -->
<g id="node10" class="node">
<title>6</title>
<polygon fill="lightblue" stroke="black" points="532.11,-297 451.27,-297 451.27,-261 532.11,-261 532.11,-297"/>
<text text-anchor="middle" x="491.69" y="-274.8" font-family="Times,serif" font-size="14.00">return maxi</text>
</g>
<!-- 4&#45;&gt;6 -->
<g id="edge9" class="edge">
<title>4&#45;&gt;6</title>
<path fill="none" stroke="black" d="M491.69,-346.6C491.69,-335.26 491.69,-320.23 491.69,-307.32"/>
<polygon fill="black" stroke="black" points="495.19,-307.1 491.69,-297.1 488.19,-307.1 495.19,-307.1"/>
<text text-anchor="middle" x="511.64" y="-317.8" font-family="Times,serif" font-size="14.00">(i &gt;= j)</text>
</g>
<!-- 7 -->
<g id="node6" class="node">
<title>7</title>
<polygon fill="lightblue" stroke="black" points="338.66,-211 178.73,-211 178.73,-175 338.66,-175 338.66,-211"/>
<text text-anchor="middle" x="258.69" y="-195.8" font-family="Times,serif" font-size="14.00">overall_height = height[i]</text>
<text text-anchor="middle" x="258.69" y="-181.8" font-family="Times,serif" font-size="14.00">i += 1</text>
</g>
<!-- 5&#45;&gt;7 -->
<g id="edge5" class="edge">
<title>5&#45;&gt;7</title>
<path fill="none" stroke="black" d="M288.96,-262.22C285.47,-256.3 281.63,-249.43 278.49,-243 275,-235.86 271.61,-227.94 268.65,-220.58"/>
<polygon fill="black" stroke="black" points="271.81,-219.07 264.9,-211.04 265.3,-221.62 271.81,-219.07"/>
<text text-anchor="middle" x="337.3" y="-231.8" font-family="Times,serif" font-size="14.00">height[i] &lt;= height[j]</text>
</g>
<!-- 9 -->
<g id="node9" class="node">
<title>9</title>
<polygon fill="lightblue" stroke="black" points="516.66,-211 356.73,-211 356.73,-175 516.66,-175 516.66,-211"/>
<text text-anchor="middle" x="436.69" y="-195.8" font-family="Times,serif" font-size="14.00">overall_height = height[j]</text>
<text text-anchor="middle" x="436.69" y="-181.8" font-family="Times,serif" font-size="14.00">j &#45;= 1</text>
</g>
<!-- 5&#45;&gt;9 -->
<g id="edge7" class="edge">
<title>5&#45;&gt;9</title>
<path fill="none" stroke="black" d="M345.87,-267.19C363.2,-261.77 382.33,-253.95 397.69,-243 406.59,-236.66 414.51,-227.74 420.86,-219.25"/>
<polygon fill="black" stroke="black" points="423.76,-221.21 426.65,-211.02 418.03,-217.18 423.76,-221.21"/>
<text text-anchor="middle" x="473.01" y="-231.8" font-family="Times,serif" font-size="14.00">(height[i] &gt; height[j])</text>
</g>
<!-- 8 -->
<g id="node7" class="node">
<title>8</title>
<polygon fill="lightblue" stroke="black" points="552.03,-138 279.36,-138 279.36,-102 552.03,-102 552.03,-138"/>
<text text-anchor="middle" x="415.69" y="-115.8" font-family="Times,serif" font-size="14.00">maxi = max(maxi, (j &#45; i + 1) * overall_height)</text>
</g>
<!-- 7&#45;&gt;8 -->
<g id="edge4" class="edge">
<title>7&#45;&gt;8</title>
<path fill="none" stroke="black" d="M296.3,-174.99C317.99,-165.19 345.45,-152.77 368.57,-142.31"/>
<polygon fill="black" stroke="black" points="370.18,-145.42 377.85,-138.11 367.3,-139.05 370.18,-145.42"/>
</g>
<!-- 8&#45;&gt;4 -->
<g id="edge3" class="edge">
<title>8&#45;&gt;4</title>
<path fill="none" stroke="black" d="M473.8,-138.09C492.88,-146.38 512.54,-158.28 525.69,-175 568.1,-228.91 570.18,-269.71 535.69,-329 532.81,-333.96 528.93,-338.48 524.67,-342.51"/>
<polygon fill="black" stroke="black" points="522.1,-340.1 516.71,-349.22 526.61,-345.45 522.1,-340.1"/>
</g>
<!-- 8_calls -->
<g id="node8" class="node">
<title>8_calls</title>
<polygon fill="lightgrey" stroke="black" points="442.69,-52 392.69,-52 388.69,-48 388.69,-16 438.69,-16 442.69,-20 442.69,-52"/>
<polyline fill="none" stroke="black" points="438.69,-48 388.69,-48 "/>
<polyline fill="none" stroke="black" points="438.69,-48 438.69,-16 "/>
<polyline fill="none" stroke="black" points="438.69,-48 442.69,-52 "/>
<text text-anchor="middle" x="415.69" y="-29.8" font-family="Times,serif" font-size="14.00">max</text>
</g>
<!-- 8&#45;&gt;8_calls -->
<g id="edge2" class="edge">
<title>8&#45;&gt;8_calls</title>
<path fill="none" stroke="white" stroke-dasharray="5,2" d="M415.69,-101.6C415.69,-90.26 415.69,-75.23 415.69,-62.32"/>
<polygon fill="white" stroke="white" points="419.19,-62.1 415.69,-52.1 412.19,-62.1 419.19,-62.1"/>
<text text-anchor="middle" x="428.52" y="-72.8" font-family="Times,serif" font-size="14.00">calls</text>
</g>
<!-- 9&#45;&gt;8 -->
<g id="edge6" class="edge">
<title>9&#45;&gt;8</title>
<path fill="none" stroke="black" d="M431.61,-174.81C429.21,-166.7 426.29,-156.84 423.61,-147.78"/>
<polygon fill="black" stroke="black" points="426.92,-146.63 420.73,-138.03 420.21,-148.61 426.92,-146.63"/>
</g>
</g>
</svg>
