<?xml version="1.0" encoding="UTF-8" standalone="no"?>
<!DOCTYPE svg PUBLIC "-//W3C//DTD SVG 1.1//EN"
 "http://www.w3.org/Graphics/SVG/1.1/DTD/svg11.dtd">
<!-- Generated by graphviz version 2.42.3 (20191010.1750)
 -->
<!-- Title: cluster/Users/vishweshdkumar/Desktop/gsoc/finalwork/finalrepo/djangotrials/demo_files/demo2.py Pages: 1 -->
<svg width="545pt" height="292pt"
 viewBox="0.00 0.00 544.66 292.00" xmlns="http://www.w3.org/2000/svg" xmlns:xlink="http://www.w3.org/1999/xlink">
<g id="graph0" class="graph" transform="scale(1 1) rotate(0) translate(4 288)">
<title>cluster/Users/vishweshdkumar/Desktop/gsoc/finalwork/finalrepo/djangotrials/demo_files/demo2.py</title>
<polygon fill="darkgray" stroke="transparent" points="-4,4 -4,-288 540.66,-288 540.66,4 -4,4"/>
<text text-anchor="middle" x="268.33" y="-6.8" font-family="Times,serif" font-size="14.00">/Users/vishweshdkumar/Desktop/gsoc/finalwork/finalrepo/djangotrials/demo_files/demo2.py</text>
<g id="clust1" class="cluster">
<title>clusterhasPath</title>
<polygon fill="darkgray" stroke="black" points="97.83,-30 97.83,-276 438.83,-276 438.83,-30 97.83,-30"/>
<text text-anchor="middle" x="268.33" y="-260.8" font-family="Times,serif" font-size="14.00">hasPath</text>
</g>
<!-- 15 -->
<g id="node1" class="node">
<title>15</title>
<polygon fill="#68838b" stroke="black" points="240.83,-246 128.44,-228 240.83,-210 353.22,-228 240.83,-246"/>
<text text-anchor="middle" x="240.83" y="-223.8" font-family="Times,serif" font-size="14.00">if self.dp[i][j] == 1:</text>
</g>
<!-- 18 -->
<g id="node2" class="node">
<title>18</title>
<polygon fill="#68838b" stroke="black" points="240.83,-160 128.44,-142 240.83,-124 353.22,-142 240.83,-160"/>
<text text-anchor="middle" x="240.83" y="-137.8" font-family="Times,serif" font-size="14.00">if self.dp[i][j] == 3:</text>
</g>
<!-- 15&#45;&gt;18 -->
<g id="edge3" class="edge">
<title>15&#45;&gt;18</title>
<path fill="none" stroke="red" d="M240.83,-209.6C240.83,-198.26 240.83,-183.23 240.83,-170.32"/>
<polygon fill="red" stroke="red" points="244.33,-170.1 240.83,-160.1 237.33,-170.1 244.33,-170.1"/>
<text text-anchor="middle" x="290.84" y="-180.8" font-family="Times,serif" font-size="14.00">(self.dp[i][j] != 1)</text>
</g>
<!-- 20 -->
<g id="node3" class="node">
<title>20</title>
<polygon fill="lightblue" stroke="black" points="188.31,-74 105.35,-74 105.35,-38 188.31,-38 188.31,-74"/>
<text text-anchor="middle" x="146.83" y="-51.8" font-family="Times,serif" font-size="14.00">return False</text>
</g>
<!-- 18&#45;&gt;20 -->
<g id="edge1" class="edge">
<title>18&#45;&gt;20</title>
<path fill="none" stroke="black" d="M211.03,-128.72C199.48,-122.98 186.7,-115.33 176.9,-106 170.14,-99.57 164.31,-91.31 159.63,-83.4"/>
<polygon fill="black" stroke="black" points="162.57,-81.49 154.68,-74.43 156.44,-84.87 162.57,-81.49"/>
<text text-anchor="middle" x="223.8" y="-94.8" font-family="Times,serif" font-size="14.00">self.dp[i][j] == 3</text>
</g>
<!-- 21 -->
<g id="node4" class="node">
<title>21</title>
<polygon fill="#68838b" stroke="black" points="318.83,-74 206.44,-56 318.83,-38 431.22,-56 318.83,-74"/>
<text text-anchor="middle" x="318.83" y="-51.8" font-family="Times,serif" font-size="14.00">if self.dp[i][j] == 4:</text>
</g>
<!-- 18&#45;&gt;21 -->
<g id="edge2" class="edge">
<title>18&#45;&gt;21</title>
<path fill="none" stroke="black" d="M254.77,-125.98C266.75,-113.08 284.2,-94.29 297.86,-79.58"/>
<polygon fill="black" stroke="black" points="300.77,-81.6 305.01,-71.89 295.64,-76.83 300.77,-81.6"/>
<text text-anchor="middle" x="333.84" y="-94.8" font-family="Times,serif" font-size="14.00">(self.dp[i][j] != 3)</text>
</g>
</g>
</svg>
