<?xml version="1.0" encoding="UTF-8" standalone="no"?>
<!DOCTYPE svg PUBLIC "-//W3C//DTD SVG 1.1//EN"
 "http://www.w3.org/Graphics/SVG/1.1/DTD/svg11.dtd">
<!-- Generated by graphviz version 2.42.3 (20191010.1750)
 -->
<!-- Title: cluster/Users/vishweshdkumar/Desktop/gsoc/finalwork/finalrepo/djangotrials/demo_files/demo2.py Pages: 1 -->
<svg width="545pt" height="504pt"
 viewBox="0.00 0.00 544.66 504.00" xmlns="http://www.w3.org/2000/svg" xmlns:xlink="http://www.w3.org/1999/xlink">
<g id="graph0" class="graph" transform="scale(1 1) rotate(0) translate(4 500)">
<title>cluster/Users/vishweshdkumar/Desktop/gsoc/finalwork/finalrepo/djangotrials/demo_files/demo2.py</title>
<polygon fill="darkgray" stroke="transparent" points="-4,4 -4,-500 540.66,-500 540.66,4 -4,4"/>
<text text-anchor="middle" x="268.33" y="-6.8" font-family="Times,serif" font-size="14.00">/Users/vishweshdkumar/Desktop/gsoc/finalwork/finalrepo/djangotrials/demo_files/demo2.py</text>
<g id="clust1" class="cluster">
<title>clusterhasPath</title>
<polygon fill="darkgray" stroke="black" points="114.33,-30 114.33,-488 422.33,-488 422.33,-30 114.33,-30"/>
<text text-anchor="middle" x="268.33" y="-472.8" font-family="Times,serif" font-size="14.00">hasPath</text>
</g>
<!-- 18 -->
<g id="node1" class="node">
<title>18</title>
<polygon fill="#68838b" stroke="black" points="256.33,-458 143.94,-440 256.33,-422 368.72,-440 256.33,-458"/>
<text text-anchor="middle" x="256.33" y="-435.8" font-family="Times,serif" font-size="14.00">if self.dp[i][j] == 3:</text>
</g>
<!-- 21 -->
<g id="node2" class="node">
<title>21</title>
<polygon fill="#68838b" stroke="black" points="256.33,-372 143.94,-354 256.33,-336 368.72,-354 256.33,-372"/>
<text text-anchor="middle" x="256.33" y="-349.8" font-family="Times,serif" font-size="14.00">if self.dp[i][j] == 4:</text>
</g>
<!-- 18&#45;&gt;21 -->
<g id="edge4" class="edge">
<title>18&#45;&gt;21</title>
<path fill="none" stroke="red" d="M256.33,-421.6C256.33,-410.26 256.33,-395.23 256.33,-382.32"/>
<polygon fill="red" stroke="red" points="259.83,-382.1 256.33,-372.1 252.83,-382.1 259.83,-382.1"/>
<text text-anchor="middle" x="306.34" y="-392.8" font-family="Times,serif" font-size="14.00">(self.dp[i][j] != 3)</text>
</g>
<!-- 23 -->
<g id="node3" class="node">
<title>23</title>
<polygon fill="lightblue" stroke="black" points="200.45,-237 122.2,-237 122.2,-201 200.45,-201 200.45,-237"/>
<text text-anchor="middle" x="161.33" y="-214.8" font-family="Times,serif" font-size="14.00">return True</text>
</g>
<!-- 21&#45;&gt;23 -->
<g id="edge1" class="edge">
<title>21&#45;&gt;23</title>
<path fill="none" stroke="black" d="M211.28,-343.09C197.44,-337.86 183.47,-329.95 174.4,-318 159.12,-297.89 157.08,-268.52 158.12,-247.18"/>
<polygon fill="black" stroke="black" points="161.62,-247.37 158.86,-237.14 154.63,-246.85 161.62,-247.37"/>
<text text-anchor="middle" x="221.3" y="-306.8" font-family="Times,serif" font-size="14.00">self.dp[i][j] == 4</text>
</g>
<!-- 24 -->
<g id="node4" class="node">
<title>24</title>
<polygon fill="lightblue" stroke="black" points="414.08,-286 218.58,-286 218.58,-152 414.08,-152 414.08,-286"/>
<text text-anchor="middle" x="316.33" y="-270.8" font-family="Times,serif" font-size="14.00">ans = False</text>
<text text-anchor="middle" x="316.33" y="-256.8" font-family="Times,serif" font-size="14.00">self.dp[i][j] = 1</text>
<text text-anchor="middle" x="316.33" y="-242.8" font-family="Times,serif" font-size="14.00">right = self.hasPath(i + 1, j)</text>
<text text-anchor="middle" x="316.33" y="-228.8" font-family="Times,serif" font-size="14.00">left = self.hasPath(i &#45; 1, j)</text>
<text text-anchor="middle" x="316.33" y="-214.8" font-family="Times,serif" font-size="14.00">up = self.hasPath(i, j + 1)</text>
<text text-anchor="middle" x="316.33" y="-200.8" font-family="Times,serif" font-size="14.00">down = self.hasPath(i, j &#45; 1)</text>
<text text-anchor="middle" x="316.33" y="-186.8" font-family="Times,serif" font-size="14.00">ans = right or left or down or up</text>
<text text-anchor="middle" x="316.33" y="-172.8" font-family="Times,serif" font-size="14.00">self.dp[i][j] = 4 if ans else 3</text>
<text text-anchor="middle" x="316.33" y="-158.8" font-family="Times,serif" font-size="14.00">return ans</text>
</g>
<!-- 21&#45;&gt;24 -->
<g id="edge3" class="edge">
<title>21&#45;&gt;24</title>
<path fill="none" stroke="black" d="M263.57,-336.96C268.41,-326.21 275.18,-311.21 282.26,-295.52"/>
<polygon fill="black" stroke="black" points="285.53,-296.79 286.45,-286.24 279.15,-293.91 285.53,-296.79"/>
<text text-anchor="middle" x="327.34" y="-306.8" font-family="Times,serif" font-size="14.00">(self.dp[i][j] != 4)</text>
</g>
<!-- 24_calls -->
<g id="node5" class="node">
<title>24_calls</title>
<polygon fill="lightgrey" stroke="black" points="358.1,-102 278.56,-102 274.56,-98 274.56,-38 354.1,-38 358.1,-42 358.1,-102"/>
<polyline fill="none" stroke="black" points="354.1,-98 274.56,-98 "/>
<polyline fill="none" stroke="black" points="354.1,-98 354.1,-38 "/>
<polyline fill="none" stroke="black" points="354.1,-98 358.1,-102 "/>
<text text-anchor="middle" x="316.33" y="-86.8" font-family="Times,serif" font-size="14.00">self.hasPath</text>
<text text-anchor="middle" x="316.33" y="-72.8" font-family="Times,serif" font-size="14.00">self.hasPath</text>
<text text-anchor="middle" x="316.33" y="-58.8" font-family="Times,serif" font-size="14.00">self.hasPath</text>
<text text-anchor="middle" x="316.33" y="-44.8" font-family="Times,serif" font-size="14.00">self.hasPath</text>
</g>
<!-- 24&#45;&gt;24_calls -->
<g id="edge2" class="edge">
<title>24&#45;&gt;24_calls</title>
<path fill="none" stroke="white" stroke-dasharray="5,2" d="M316.33,-151.81C316.33,-138.49 316.33,-124.85 316.33,-112.65"/>
<polygon fill="white" stroke="white" points="319.83,-112.35 316.33,-102.35 312.83,-112.35 319.83,-112.35"/>
<text text-anchor="middle" x="329.16" y="-122.8" font-family="Times,serif" font-size="14.00">calls</text>
</g>
</g>
</svg>
