<?xml version="1.0" encoding="UTF-8" standalone="no"?>
<!DOCTYPE svg PUBLIC "-//W3C//DTD SVG 1.1//EN"
 "http://www.w3.org/Graphics/SVG/1.1/DTD/svg11.dtd">
<!-- Generated by graphviz version 2.42.3 (20191010.1750)
 -->
<!-- Title: cluster/Users/vishweshdkumar/Desktop/gsoc/finalwork/finalrepo/djangotrials/demo_files/demo2.py Pages: 1 -->
<svg width="264pt" height="162pt"
 viewBox="0.00 0.00 264.00 162.00" xmlns="http://www.w3.org/2000/svg" xmlns:xlink="http://www.w3.org/1999/xlink">
<g id="graph0" class="graph" transform="scale(1 1) rotate(0) translate(4 158)">
<title>cluster/Users/vishweshdkumar/Desktop/gsoc/finalwork/finalrepo/djangotrials/demo_files/demo2.py</title>
<polygon fill="darkgray" stroke="transparent" points="-4,4 -4,-158 260,-158 260,4 -4,4"/>
<g id="clust1" class="cluster">
<title>clusterhasPath</title>
<polygon fill="darkgray" stroke="black" points="8,-8 8,-146 248,-146 248,-8 8,-8"/>
</g>
<!-- 21 -->
<g id="node1" class="node">
<title>21</title>
<polygon fill="#68838b" stroke="black" points="128,-138 15.61,-120 128,-102 240.39,-120 128,-138"/>
<text text-anchor="middle" x="128" y="-115.8" font-family="Times,serif" font-size="14.00">if self.dp[i][j] == 4:</text>
</g>
<!-- 23 -->
<g id="node2" class="node">
<title>23</title>
<polygon fill="lightblue" stroke="black" points="167.12,-52 88.88,-52 88.88,-16 167.12,-16 167.12,-52"/>
<text text-anchor="middle" x="128" y="-29.8" font-family="Times,serif" font-size="14.00">return True</text>
</g>
<!-- 21&#45;&gt;23 -->
<g id="edge1" class="edge">
<title>21&#45;&gt;23</title>
<path fill="none" stroke="red" d="M128,-101.6C128,-90.26 128,-75.23 128,-62.32"/>
<polygon fill="red" stroke="red" points="131.5,-62.1 128,-52.1 124.5,-62.1 131.5,-62.1"/>
<text text-anchor="middle" x="174.97" y="-72.8" font-family="Times,serif" font-size="14.00">self.dp[i][j] == 4</text>
</g>
</g>
</svg>
