<?xml version="1.0" encoding="UTF-8" standalone="no"?>
<!DOCTYPE svg PUBLIC "-//W3C//DTD SVG 1.1//EN"
 "http://www.w3.org/Graphics/SVG/1.1/DTD/svg11.dtd">
<!-- Generated by graphviz version 2.42.3 (20191010.1750)
 -->
<!-- Title: %3 Pages: 1 -->
<svg width="157pt" height="238pt"
 viewBox="0.00 0.00 156.55 238.00" xmlns="http://www.w3.org/2000/svg" xmlns:xlink="http://www.w3.org/1999/xlink">
<g id="graph0" class="graph" transform="scale(1 1) rotate(0) translate(4 234)">
<title>%3</title>
<text text-anchor="middle" x="74.27" y="-6.8" font-family="Times,serif" font-size="14.00">Graph of variable: head</text>
<!-- 40 -->
<g id="node1" class="node">
<title>40</title>
<ellipse fill="lightblue" stroke="black" cx="74.27" cy="-212" rx="27" ry="18"/>
<text text-anchor="middle" x="74.27" y="-207.8" font-family="Times,serif" font-size="14.00">3</text>
</g>
<!-- 41 -->
<g id="node2" class="node">
<title>41</title>
<ellipse fill="lightblue" stroke="black" cx="38.27" cy="-126" rx="27" ry="18"/>
<text text-anchor="middle" x="38.27" y="-121.8" font-family="Times,serif" font-size="14.00">1</text>
</g>
<!-- 40&#45;&gt;41 -->
<g id="edge1" class="edge">
<title>40&#45;&gt;41</title>
<path fill="none" stroke="black" d="M67.16,-194.4C62.08,-182.55 55.15,-166.38 49.35,-152.85"/>
<polygon fill="black" stroke="black" points="52.53,-151.37 45.37,-143.56 46.09,-154.13 52.53,-151.37"/>
<text text-anchor="middle" x="68.6" y="-164.8" font-family="Times,serif" font-size="14.00">left</text>
</g>
<!-- 43 -->
<g id="node4" class="node">
<title>43</title>
<ellipse fill="lightblue" stroke="black" cx="110.27" cy="-126" rx="27" ry="18"/>
<text text-anchor="middle" x="110.27" y="-121.8" font-family="Times,serif" font-size="14.00">4</text>
</g>
<!-- 40&#45;&gt;43 -->
<g id="edge3" class="edge">
<title>40&#45;&gt;43</title>
<path fill="none" stroke="black" d="M81.39,-194.4C86.47,-182.55 93.4,-166.38 99.2,-152.85"/>
<polygon fill="black" stroke="black" points="102.45,-154.13 103.18,-143.56 96.02,-151.37 102.45,-154.13"/>
<text text-anchor="middle" x="107.5" y="-164.8" font-family="Times,serif" font-size="14.00">right</text>
</g>
<!-- 42 -->
<g id="node3" class="node">
<title>42</title>
<ellipse fill="lightblue" stroke="black" cx="38.27" cy="-40" rx="27" ry="18"/>
<text text-anchor="middle" x="38.27" y="-35.8" font-family="Times,serif" font-size="14.00">2</text>
</g>
<!-- 41&#45;&gt;42 -->
<g id="edge2" class="edge">
<title>41&#45;&gt;42</title>
<path fill="none" stroke="black" d="M38.27,-107.6C38.27,-96.26 38.27,-81.23 38.27,-68.32"/>
<polygon fill="black" stroke="black" points="41.77,-68.1 38.27,-58.1 34.77,-68.1 41.77,-68.1"/>
<text text-anchor="middle" x="51.5" y="-78.8" font-family="Times,serif" font-size="14.00">right</text>
</g>
</g>
</svg>
