<?xml version="1.0" encoding="UTF-8" standalone="no"?>
<!DOCTYPE svg PUBLIC "-//W3C//DTD SVG 1.1//EN"
 "http://www.w3.org/Graphics/SVG/1.1/DTD/svg11.dtd">
<!-- Generated by graphviz version 2.42.3 (20191010.1750)
 -->
<!-- Title: %3 Pages: 1 -->
<svg width="174pt" height="259pt"
 viewBox="0.00 0.00 173.84 258.70" xmlns="http://www.w3.org/2000/svg" xmlns:xlink="http://www.w3.org/1999/xlink">
<g id="graph0" class="graph" transform="scale(1 1) rotate(0) translate(4 254.7)">
<title>%3</title>
<text text-anchor="middle" x="82.92" y="-6.8" font-family="Times,serif" font-size="14.00">Graph of variable: head</text>
<!-- 28 -->
<g id="node1" class="node">
<title>28</title>
<ellipse fill="lightblue" stroke="black" cx="36" cy="-222.35" rx="27" ry="18"/>
<text text-anchor="middle" x="36" y="-218.15" font-family="Times,serif" font-size="14.00">3</text>
</g>
<!-- 29 -->
<g id="node2" class="node">
<title>29</title>
<ellipse fill="lightblue" stroke="black" cx="108" cy="-126" rx="27" ry="18"/>
<text text-anchor="middle" x="108" y="-121.8" font-family="Times,serif" font-size="14.00">1</text>
</g>
<!-- 28&#45;&gt;29 -->
<g id="edge1" class="edge">
<title>28&#45;&gt;29</title>
<path fill="none" stroke="black" d="M47.89,-205.77C59.42,-190.66 77.07,-167.54 90.26,-150.25"/>
<polygon fill="black" stroke="black" points="93.05,-152.36 96.33,-142.29 87.48,-148.12 93.05,-152.36"/>
<text text-anchor="middle" x="90.33" y="-164.8" font-family="Times,serif" font-size="14.00">left</text>
</g>
<!-- 32 -->
<g id="node5" class="node">
<title>32</title>
<ellipse fill="lightblue" stroke="black" cx="27" cy="-126" rx="27" ry="18"/>
<text text-anchor="middle" x="27" y="-121.8" font-family="Times,serif" font-size="14.00">4</text>
</g>
<!-- 28&#45;&gt;32 -->
<g id="edge4" class="edge">
<title>28&#45;&gt;32</title>
<path fill="none" stroke="black" d="M32.09,-204.22C30.35,-195.78 28.48,-185.41 27.56,-176 26.88,-169.11 26.58,-161.65 26.48,-154.68"/>
<polygon fill="black" stroke="black" points="29.98,-154.27 26.47,-144.27 22.98,-154.28 29.98,-154.27"/>
<text text-anchor="middle" x="41.22" y="-164.8" font-family="Times,serif" font-size="14.00">right</text>
</g>
<!-- 31 -->
<g id="node4" class="node">
<title>31</title>
<ellipse fill="lightblue" stroke="black" cx="108" cy="-40" rx="27" ry="18"/>
<text text-anchor="middle" x="108" y="-35.8" font-family="Times,serif" font-size="14.00">2</text>
</g>
<!-- 29&#45;&gt;31 -->
<g id="edge3" class="edge">
<title>29&#45;&gt;31</title>
<path fill="none" stroke="black" d="M108,-107.6C108,-96.26 108,-81.23 108,-68.32"/>
<polygon fill="black" stroke="black" points="111.5,-68.1 108,-58.1 104.5,-68.1 111.5,-68.1"/>
<text text-anchor="middle" x="121.22" y="-78.8" font-family="Times,serif" font-size="14.00">right</text>
</g>
<!-- 30 -->
<g id="node3" class="node">
<title>30</title>
<ellipse fill="#68838b" stroke="black" cx="118" cy="-222.35" rx="24.23" ry="24.23"/>
<ellipse fill="none" stroke="black" cx="118" cy="-222.35" rx="28.21" ry="28.21"/>
<text text-anchor="middle" x="118" y="-218.15" font-family="Times,serif" font-size="14.00">root</text>
</g>
<!-- 30&#45;&gt;29 -->
<g id="edge2" class="edge">
<title>30&#45;&gt;29</title>
<path fill="none" stroke="black" d="M115.11,-194.06C113.79,-181.6 112.23,-166.88 110.9,-154.4"/>
<polygon fill="black" stroke="black" points="114.35,-153.71 109.82,-144.13 107.39,-154.45 114.35,-153.71"/>
<text text-anchor="middle" x="139.42" y="-164.8" font-family="Times,serif" font-size="14.00">Points To</text>
</g>
</g>
</svg>
