<?xml version="1.0" encoding="UTF-8" standalone="no"?>
<!DOCTYPE svg PUBLIC "-//W3C//DTD SVG 1.1//EN"
 "http://www.w3.org/Graphics/SVG/1.1/DTD/svg11.dtd">
<!-- Generated by graphviz version 2.42.3 (20191010.1750)
 -->
<!-- Title: %3 Pages: 1 -->
<svg width="153pt" height="238pt"
 viewBox="0.00 0.00 152.67 238.00" xmlns="http://www.w3.org/2000/svg" xmlns:xlink="http://www.w3.org/1999/xlink">
<g id="graph0" class="graph" transform="scale(1 1) rotate(0) translate(4 234)">
<title>%3</title>
<polygon fill="white" stroke="transparent" points="-4,4 -4,-234 148.67,-234 148.67,4 -4,4"/>
<text text-anchor="middle" x="72.34" y="-6.8" font-family="Times,serif" font-size="14.00">Graph of variable: root</text>
<!-- 1 -->
<g id="node1" class="node">
<title>1</title>
<ellipse fill="none" stroke="black" cx="70.45" cy="-212" rx="27" ry="18"/>
<text text-anchor="middle" x="70.45" y="-207.8" font-family="Times,serif" font-size="14.00">1</text>
</g>
<!-- 2 -->
<g id="node2" class="node">
<title>2</title>
<ellipse fill="none" stroke="black" cx="35.45" cy="-126" rx="27" ry="18"/>
<text text-anchor="middle" x="35.45" y="-121.8" font-family="Times,serif" font-size="14.00">0</text>
</g>
<!-- 1&#45;&gt;2 -->
<g id="edge1" class="edge">
<title>1&#45;&gt;2</title>
<path fill="none" stroke="black" d="M60.94,-194.92C57.69,-189.08 54.19,-182.35 51.46,-176 48.4,-168.88 45.57,-160.97 43.18,-153.61"/>
<polygon fill="black" stroke="black" points="46.52,-152.56 40.2,-144.06 39.83,-154.65 46.52,-152.56"/>
<text text-anchor="middle" x="66.45" y="-164.8" font-family="Times,serif" font-size="14.00">nextl</text>
</g>
<!-- 4 -->
<g id="node4" class="node">
<title>4</title>
<ellipse fill="none" stroke="black" cx="107.45" cy="-126" rx="27" ry="18"/>
<text text-anchor="middle" x="107.45" y="-121.8" font-family="Times,serif" font-size="14.00">2</text>
</g>
<!-- 1&#45;&gt;4 -->
<g id="edge3" class="edge">
<title>1&#45;&gt;4</title>
<path fill="none" stroke="black" d="M77.76,-194.4C82.98,-182.55 90.11,-166.38 96.07,-152.85"/>
<polygon fill="black" stroke="black" points="99.33,-154.12 100.16,-143.56 92.92,-151.3 99.33,-154.12"/>
<text text-anchor="middle" x="105.84" y="-164.8" font-family="Times,serif" font-size="14.00">nextr</text>
</g>
<!-- 3 -->
<g id="node3" class="node">
<title>3</title>
<ellipse fill="none" stroke="black" cx="35.45" cy="-40" rx="27" ry="18"/>
<text text-anchor="middle" x="35.45" y="-35.8" font-family="Times,serif" font-size="14.00">&#45;2</text>
</g>
<!-- 2&#45;&gt;3 -->
<g id="edge2" class="edge">
<title>2&#45;&gt;3</title>
<path fill="none" stroke="black" d="M35.45,-107.6C35.45,-96.26 35.45,-81.23 35.45,-68.32"/>
<polygon fill="black" stroke="black" points="38.95,-68.1 35.45,-58.1 31.95,-68.1 38.95,-68.1"/>
<text text-anchor="middle" x="49.45" y="-78.8" font-family="Times,serif" font-size="14.00">nextl</text>
</g>
<!-- 5 -->
<g id="node5" class="node">
<title>5</title>
<ellipse fill="none" stroke="black" cx="107.45" cy="-40" rx="27" ry="18"/>
<text text-anchor="middle" x="107.45" y="-35.8" font-family="Times,serif" font-size="14.00">2</text>
</g>
<!-- 4&#45;&gt;5 -->
<g id="edge4" class="edge">
<title>4&#45;&gt;5</title>
<path fill="none" stroke="black" d="M107.45,-107.6C107.45,-96.26 107.45,-81.23 107.45,-68.32"/>
<polygon fill="black" stroke="black" points="110.95,-68.1 107.45,-58.1 103.95,-68.1 110.95,-68.1"/>
<text text-anchor="middle" x="121.84" y="-78.8" font-family="Times,serif" font-size="14.00">nextr</text>
</g>
</g>
</svg>
