<?xml version="1.0" encoding="UTF-8" standalone="no"?>
<!DOCTYPE svg PUBLIC "-//W3C//DTD SVG 1.1//EN"
 "http://www.w3.org/Graphics/SVG/1.1/DTD/svg11.dtd">
<!-- Generated by graphviz version 2.42.3 (20191010.1750)
 -->
<!-- Title: %3 Pages: 1 -->
<svg width="183pt" height="238pt"
 viewBox="0.00 0.00 182.84 238.00" xmlns="http://www.w3.org/2000/svg" xmlns:xlink="http://www.w3.org/1999/xlink">
<g id="graph0" class="graph" transform="scale(1 1) rotate(0) translate(4 234)">
<title>%3</title>
<polygon fill="white" stroke="transparent" points="-4,4 -4,-234 178.84,-234 178.84,4 -4,4"/>
<text text-anchor="middle" x="87.42" y="-6.8" font-family="Times,serif" font-size="14.00">Graph of variable: root</text>
<!-- 44 -->
<g id="node1" class="node">
<title>44</title>
<ellipse fill="none" stroke="black" cx="43" cy="-212" rx="27" ry="18"/>
<text text-anchor="middle" x="43" y="-207.8" font-family="Times,serif" font-size="14.00">1</text>
</g>
<!-- 45 -->
<g id="node2" class="node">
<title>45</title>
<ellipse fill="none" stroke="black" cx="114" cy="-126" rx="27" ry="18"/>
<text text-anchor="middle" x="114" y="-121.8" font-family="Times,serif" font-size="14.00">0</text>
</g>
<!-- 44&#45;&gt;45 -->
<g id="edge1" class="edge">
<title>44&#45;&gt;45</title>
<path fill="none" stroke="black" d="M55.69,-195.98C66.53,-183.16 82.28,-164.52 94.69,-149.85"/>
<polygon fill="black" stroke="black" points="97.39,-152.07 101.18,-142.17 92.05,-147.55 97.39,-152.07"/>
<text text-anchor="middle" x="97" y="-164.8" font-family="Times,serif" font-size="14.00">nextl</text>
</g>
<!-- 48 -->
<g id="node5" class="node">
<title>48</title>
<ellipse fill="none" stroke="black" cx="27" cy="-126" rx="27" ry="18"/>
<text text-anchor="middle" x="27" y="-121.8" font-family="Times,serif" font-size="14.00">2</text>
</g>
<!-- 44&#45;&gt;48 -->
<g id="edge4" class="edge">
<title>44&#45;&gt;48</title>
<path fill="none" stroke="black" d="M34.62,-194.68C32.08,-188.93 29.6,-182.32 28.23,-176 26.78,-169.23 26.12,-161.81 25.9,-154.85"/>
<polygon fill="black" stroke="black" points="29.4,-154.41 25.87,-144.42 22.4,-154.43 29.4,-154.41"/>
<text text-anchor="middle" x="43.38" y="-164.8" font-family="Times,serif" font-size="14.00">nextr</text>
</g>
<!-- 47 -->
<g id="node4" class="node">
<title>47</title>
<ellipse fill="none" stroke="black" cx="114" cy="-40" rx="27" ry="18"/>
<text text-anchor="middle" x="114" y="-35.8" font-family="Times,serif" font-size="14.00">&#45;2</text>
</g>
<!-- 45&#45;&gt;47 -->
<g id="edge3" class="edge">
<title>45&#45;&gt;47</title>
<path fill="none" stroke="black" d="M114,-107.6C114,-96.26 114,-81.23 114,-68.32"/>
<polygon fill="black" stroke="black" points="117.5,-68.1 114,-58.1 110.5,-68.1 117.5,-68.1"/>
<text text-anchor="middle" x="128" y="-78.8" font-family="Times,serif" font-size="14.00">nextl</text>
</g>
<!-- 46 -->
<g id="node3" class="node">
<title>46</title>
<text text-anchor="middle" x="130" y="-207.8" font-family="Times,serif" font-size="14.00">x</text>
</g>
<!-- 46&#45;&gt;45 -->
<g id="edge2" class="edge">
<title>46&#45;&gt;45</title>
<path fill="none" stroke="black" d="M126.68,-193.6C124.5,-182.14 121.6,-166.93 119.13,-153.93"/>
<polygon fill="black" stroke="black" points="122.57,-153.26 117.26,-144.1 115.69,-154.57 122.57,-153.26"/>
<text text-anchor="middle" x="148.42" y="-164.8" font-family="Times,serif" font-size="14.00">Points To</text>
</g>
<!-- 49 -->
<g id="node6" class="node">
<title>49</title>
<ellipse fill="none" stroke="black" cx="27" cy="-40" rx="27" ry="18"/>
<text text-anchor="middle" x="27" y="-35.8" font-family="Times,serif" font-size="14.00">2</text>
</g>
<!-- 48&#45;&gt;49 -->
<g id="edge5" class="edge">
<title>48&#45;&gt;49</title>
<path fill="none" stroke="black" d="M27,-107.6C27,-96.26 27,-81.23 27,-68.32"/>
<polygon fill="black" stroke="black" points="30.5,-68.1 27,-58.1 23.5,-68.1 30.5,-68.1"/>
<text text-anchor="middle" x="41.38" y="-78.8" font-family="Times,serif" font-size="14.00">nextr</text>
</g>
</g>
</svg>
