<?xml version="1.0" encoding="UTF-8" standalone="no"?>
<!DOCTYPE svg PUBLIC "-//W3C//DTD SVG 1.1//EN"
 "http://www.w3.org/Graphics/SVG/1.1/DTD/svg11.dtd">
<!-- Generated by graphviz version 2.42.3 (20191010.1750)
 -->
<!-- Title: %3 Pages: 1 -->
<svg width="153pt" height="238pt"
 viewBox="0.00 0.00 152.67 238.00" xmlns="http://www.w3.org/2000/svg" xmlns:xlink="http://www.w3.org/1999/xlink">
<g id="graph0" class="graph" transform="scale(1 1) rotate(0) translate(4 234)">
<title>%3</title>
<polygon fill="white" stroke="transparent" points="-4,4 -4,-234 148.67,-234 148.67,4 -4,4"/>
<text text-anchor="middle" x="72.34" y="-6.8" font-family="Times,serif" font-size="14.00">Graph of variable: root</text>
<!-- 4 -->
<g id="node1" class="node">
<title>4</title>
<ellipse fill="none" stroke="black" cx="72.34" cy="-212" rx="27" ry="18"/>
<text text-anchor="middle" x="72.34" y="-207.8" font-family="Times,serif" font-size="14.00">1</text>
</g>
<!-- 5 -->
<g id="node2" class="node">
<title>5</title>
<ellipse fill="none" stroke="black" cx="36.34" cy="-126" rx="27" ry="18"/>
<text text-anchor="middle" x="36.34" y="-121.8" font-family="Times,serif" font-size="14.00">0</text>
</g>
<!-- 4&#45;&gt;5 -->
<g id="edge1" class="edge">
<title>4&#45;&gt;5</title>
<path fill="none" stroke="black" d="M65.22,-194.4C60.15,-182.55 53.21,-166.38 47.41,-152.85"/>
<polygon fill="black" stroke="black" points="50.59,-151.37 43.43,-143.56 44.16,-154.13 50.59,-151.37"/>
<text text-anchor="middle" x="70.33" y="-164.8" font-family="Times,serif" font-size="14.00">nextl</text>
</g>
<!-- 7 -->
<g id="node4" class="node">
<title>7</title>
<ellipse fill="none" stroke="black" cx="108.34" cy="-126" rx="27" ry="18"/>
<text text-anchor="middle" x="108.34" y="-121.8" font-family="Times,serif" font-size="14.00">2</text>
</g>
<!-- 4&#45;&gt;7 -->
<g id="edge3" class="edge">
<title>4&#45;&gt;7</title>
<path fill="none" stroke="black" d="M79.45,-194.4C84.53,-182.55 91.46,-166.38 97.26,-152.85"/>
<polygon fill="black" stroke="black" points="100.52,-154.13 101.24,-143.56 94.08,-151.37 100.52,-154.13"/>
<text text-anchor="middle" x="106.72" y="-164.8" font-family="Times,serif" font-size="14.00">nextr</text>
</g>
<!-- 6 -->
<g id="node3" class="node">
<title>6</title>
<ellipse fill="none" stroke="black" cx="36.34" cy="-40" rx="27" ry="18"/>
<text text-anchor="middle" x="36.34" y="-35.8" font-family="Times,serif" font-size="14.00">&#45;2</text>
</g>
<!-- 5&#45;&gt;6 -->
<g id="edge2" class="edge">
<title>5&#45;&gt;6</title>
<path fill="none" stroke="black" d="M36.34,-107.6C36.34,-96.26 36.34,-81.23 36.34,-68.32"/>
<polygon fill="black" stroke="black" points="39.84,-68.1 36.34,-58.1 32.84,-68.1 39.84,-68.1"/>
<text text-anchor="middle" x="50.33" y="-78.8" font-family="Times,serif" font-size="14.00">nextl</text>
</g>
</g>
</svg>
