<?xml version="1.0" encoding="UTF-8" standalone="no"?>
<!DOCTYPE svg PUBLIC "-//W3C//DTD SVG 1.1//EN"
 "http://www.w3.org/Graphics/SVG/1.1/DTD/svg11.dtd">
<!-- Generated by graphviz version 2.42.3 (20191010.1750)
 -->
<!-- Title: %3 Pages: 1 -->
<svg width="211pt" height="238pt"
 viewBox="0.00 0.00 210.77 238.00" xmlns="http://www.w3.org/2000/svg" xmlns:xlink="http://www.w3.org/1999/xlink">
<g id="graph0" class="graph" transform="scale(1 1) rotate(0) translate(4 234)">
<title>%3</title>
<polygon fill="white" stroke="transparent" points="-4,4 -4,-234 206.77,-234 206.77,4 -4,4"/>
<text text-anchor="middle" x="101.38" y="-6.8" font-family="Times,serif" font-size="14.00">Graph of variable: root</text>
<!-- 64 -->
<g id="node1" class="node">
<title>64</title>
<ellipse fill="none" stroke="black" cx="98" cy="-212" rx="27" ry="18"/>
<text text-anchor="middle" x="98" y="-207.8" font-family="Times,serif" font-size="14.00">1</text>
</g>
<!-- 65 -->
<g id="node2" class="node">
<title>65</title>
<ellipse fill="none" stroke="black" cx="27" cy="-126" rx="27" ry="18"/>
<text text-anchor="middle" x="27" y="-121.8" font-family="Times,serif" font-size="14.00">0</text>
</g>
<!-- 64&#45;&gt;65 -->
<g id="edge1" class="edge">
<title>64&#45;&gt;65</title>
<path fill="none" stroke="black" d="M85.31,-195.98C74.47,-183.16 58.72,-164.52 46.31,-149.85"/>
<polygon fill="black" stroke="black" points="48.95,-147.55 39.82,-142.17 43.61,-152.07 48.95,-147.55"/>
<text text-anchor="middle" x="81" y="-164.8" font-family="Times,serif" font-size="14.00">nextl</text>
</g>
<!-- 68 -->
<g id="node5" class="node">
<title>68</title>
<ellipse fill="none" stroke="black" cx="173" cy="-126" rx="27" ry="18"/>
<text text-anchor="middle" x="173" y="-121.8" font-family="Times,serif" font-size="14.00">2</text>
</g>
<!-- 64&#45;&gt;68 -->
<g id="edge4" class="edge">
<title>64&#45;&gt;68</title>
<path fill="none" stroke="black" d="M111.41,-195.98C122.93,-183.08 139.7,-164.29 152.84,-149.58"/>
<polygon fill="black" stroke="black" points="155.66,-151.68 159.71,-141.89 150.44,-147.02 155.66,-151.68"/>
<text text-anchor="middle" x="154.38" y="-164.8" font-family="Times,serif" font-size="14.00">nextr</text>
</g>
<!-- 66 -->
<g id="node3" class="node">
<title>66</title>
<ellipse fill="none" stroke="black" cx="73" cy="-40" rx="27" ry="18"/>
<text text-anchor="middle" x="73" y="-35.8" font-family="Times,serif" font-size="14.00">&#45;2</text>
</g>
<!-- 65&#45;&gt;66 -->
<g id="edge2" class="edge">
<title>65&#45;&gt;66</title>
<path fill="none" stroke="black" d="M35.54,-108.6C40.56,-99.05 47.06,-86.8 53.01,-76 54.84,-72.68 56.79,-69.2 58.73,-65.77"/>
<polygon fill="black" stroke="black" points="61.83,-67.39 63.74,-56.97 55.75,-63.93 61.83,-67.39"/>
<text text-anchor="middle" x="68" y="-78.8" font-family="Times,serif" font-size="14.00">nextl</text>
</g>
<!-- 67 -->
<g id="node4" class="node">
<title>67</title>
<text text-anchor="middle" x="99" y="-121.8" font-family="Times,serif" font-size="14.00">x</text>
</g>
<!-- 67&#45;&gt;66 -->
<g id="edge3" class="edge">
<title>67&#45;&gt;66</title>
<path fill="none" stroke="black" d="M93.61,-107.6C90.04,-96.07 85.3,-80.72 81.26,-67.67"/>
<polygon fill="black" stroke="black" points="84.5,-66.33 78.2,-57.81 77.82,-68.4 84.5,-66.33"/>
<text text-anchor="middle" x="114.42" y="-78.8" font-family="Times,serif" font-size="14.00">Points To</text>
</g>
<!-- 69 -->
<g id="node6" class="node">
<title>69</title>
<ellipse fill="none" stroke="black" cx="174" cy="-40" rx="27" ry="18"/>
<text text-anchor="middle" x="174" y="-35.8" font-family="Times,serif" font-size="14.00">2</text>
</g>
<!-- 68&#45;&gt;69 -->
<g id="edge5" class="edge">
<title>68&#45;&gt;69</title>
<path fill="none" stroke="black" d="M173.21,-107.6C173.34,-96.26 173.52,-81.23 173.67,-68.32"/>
<polygon fill="black" stroke="black" points="177.18,-68.14 173.8,-58.1 170.18,-68.05 177.18,-68.14"/>
<text text-anchor="middle" x="188.38" y="-78.8" font-family="Times,serif" font-size="14.00">nextr</text>
</g>
</g>
</svg>
