<?xml version="1.0" encoding="UTF-8" standalone="no"?>
<!DOCTYPE svg PUBLIC "-//W3C//DTD SVG 1.1//EN"
 "http://www.w3.org/Graphics/SVG/1.1/DTD/svg11.dtd">
<!-- Generated by graphviz version 2.42.3 (20191010.1750)
 -->
<!-- Title: %3 Pages: 1 -->
<svg width="153pt" height="152pt"
 viewBox="0.00 0.00 152.67 152.00" xmlns="http://www.w3.org/2000/svg" xmlns:xlink="http://www.w3.org/1999/xlink">
<g id="graph0" class="graph" transform="scale(1 1) rotate(0) translate(4 148)">
<title>%3</title>
<polygon fill="white" stroke="transparent" points="-4,4 -4,-148 148.67,-148 148.67,4 -4,4"/>
<text text-anchor="middle" x="72.34" y="-6.8" font-family="Times,serif" font-size="14.00">Graph of variable: root</text>
<!-- 2 -->
<g id="node1" class="node">
<title>2</title>
<ellipse fill="none" stroke="black" cx="72.34" cy="-126" rx="27" ry="18"/>
<text text-anchor="middle" x="72.34" y="-121.8" font-family="Times,serif" font-size="14.00">1</text>
</g>
<!-- 3 -->
<g id="node2" class="node">
<title>3</title>
<ellipse fill="none" stroke="black" cx="36.34" cy="-40" rx="27" ry="18"/>
<text text-anchor="middle" x="36.34" y="-35.8" font-family="Times,serif" font-size="14.00">0</text>
</g>
<!-- 2&#45;&gt;3 -->
<g id="edge1" class="edge">
<title>2&#45;&gt;3</title>
<path fill="none" stroke="black" d="M65.22,-108.4C60.15,-96.55 53.21,-80.38 47.41,-66.85"/>
<polygon fill="black" stroke="black" points="50.59,-65.37 43.43,-57.56 44.16,-68.13 50.59,-65.37"/>
<text text-anchor="middle" x="70.33" y="-78.8" font-family="Times,serif" font-size="14.00">nextl</text>
</g>
<!-- 4 -->
<g id="node3" class="node">
<title>4</title>
<ellipse fill="none" stroke="black" cx="108.34" cy="-40" rx="27" ry="18"/>
<text text-anchor="middle" x="108.34" y="-35.8" font-family="Times,serif" font-size="14.00">2</text>
</g>
<!-- 2&#45;&gt;4 -->
<g id="edge2" class="edge">
<title>2&#45;&gt;4</title>
<path fill="none" stroke="black" d="M79.45,-108.4C84.53,-96.55 91.46,-80.38 97.26,-66.85"/>
<polygon fill="black" stroke="black" points="100.52,-68.13 101.24,-57.56 94.08,-65.37 100.52,-68.13"/>
<text text-anchor="middle" x="106.72" y="-78.8" font-family="Times,serif" font-size="14.00">nextr</text>
</g>
</g>
</svg>
