<?xml version="1.0" encoding="UTF-8" standalone="no"?>
<!DOCTYPE svg PUBLIC "-//W3C//DTD SVG 1.1//EN"
 "http://www.w3.org/Graphics/SVG/1.1/DTD/svg11.dtd">
<!-- Generated by graphviz version 2.42.3 (20191010.1750)
 -->
<!-- Title: %3 Pages: 1 -->
<svg width="150pt" height="238pt"
 viewBox="0.00 0.00 150.33 238.00" xmlns="http://www.w3.org/2000/svg" xmlns:xlink="http://www.w3.org/1999/xlink">
<g id="graph0" class="graph" transform="scale(1 1) rotate(0) translate(4 234)">
<title>%3</title>
<text text-anchor="middle" x="71.17" y="-6.8" font-family="Times,serif" font-size="14.00">Graph of variable: self</text>
<!-- 4 -->
<g id="node1" class="node">
<title>4</title>
<ellipse fill="lightblue" stroke="black" cx="71.17" cy="-212" rx="27" ry="18"/>
<text text-anchor="middle" x="71.17" y="-207.8" font-family="Times,serif" font-size="14.00">3</text>
</g>
<!-- 5 -->
<g id="node2" class="node">
<title>5</title>
<ellipse fill="lightblue" stroke="black" cx="35.17" cy="-126" rx="27" ry="18"/>
<text text-anchor="middle" x="35.17" y="-121.8" font-family="Times,serif" font-size="14.00">1</text>
</g>
<!-- 4&#45;&gt;5 -->
<g id="edge1" class="edge">
<title>4&#45;&gt;5</title>
<path fill="none" stroke="black" d="M64.06,-194.4C58.98,-182.55 52.05,-166.38 46.25,-152.85"/>
<polygon fill="black" stroke="black" points="49.42,-151.37 42.27,-143.56 42.99,-154.13 49.42,-151.37"/>
<text text-anchor="middle" x="65.5" y="-164.8" font-family="Times,serif" font-size="14.00">left</text>
</g>
<!-- 7 -->
<g id="node4" class="node">
<title>7</title>
<ellipse fill="lightblue" stroke="black" cx="107.17" cy="-126" rx="27" ry="18"/>
<text text-anchor="middle" x="107.17" y="-121.8" font-family="Times,serif" font-size="14.00">4</text>
</g>
<!-- 4&#45;&gt;7 -->
<g id="edge3" class="edge">
<title>4&#45;&gt;7</title>
<path fill="none" stroke="black" d="M78.28,-194.4C83.36,-182.55 90.29,-166.38 96.09,-152.85"/>
<polygon fill="black" stroke="black" points="99.35,-154.13 100.07,-143.56 92.91,-151.37 99.35,-154.13"/>
<text text-anchor="middle" x="104.39" y="-164.8" font-family="Times,serif" font-size="14.00">right</text>
</g>
<!-- 6 -->
<g id="node3" class="node">
<title>6</title>
<ellipse fill="lightblue" stroke="black" cx="35.17" cy="-40" rx="27" ry="18"/>
<text text-anchor="middle" x="35.17" y="-35.8" font-family="Times,serif" font-size="14.00">2</text>
</g>
<!-- 5&#45;&gt;6 -->
<g id="edge2" class="edge">
<title>5&#45;&gt;6</title>
<path fill="none" stroke="black" d="M35.17,-107.6C35.17,-96.26 35.17,-81.23 35.17,-68.32"/>
<polygon fill="black" stroke="black" points="38.67,-68.1 35.17,-58.1 31.67,-68.1 38.67,-68.1"/>
<text text-anchor="middle" x="48.39" y="-78.8" font-family="Times,serif" font-size="14.00">right</text>
</g>
</g>
</svg>
