<?xml version="1.0" encoding="iso-8859-1"?>
<!-- Generator: Adobe Illustrator 19.0.0, SVG Export Plug-In . SVG Version: 6.00 Build 0)  -->
<svg version="1.1" id="Capa_1" xmlns="http://www.w3.org/2000/svg" xmlns:xlink="http://www.w3.org/1999/xlink" x="0px" y="0px"
	 viewBox="0 0 480.084 480.084" style="enable-background:new 0 0 480.084 480.084;" xml:space="preserve">
<g>
	<g>
		<path d="M456.042,208h-32v-56c0-4.418-3.582-8-8-8H337.33l-89.288-29.76V96h56c13.255,0,24-10.745,24-24V24
			c0-13.255-10.745-24-24-24h-128c-13.255,0-24,10.745-24,24v48c0,13.255,10.745,24,24,24h56v18.24l-90.528,30.176
			c-4.197,1.38-6.482,5.901-5.102,10.098c0.794,2.415,2.687,4.308,5.102,5.102l90.528,30.144V208h-32c-13.255,0-24,10.745-24,24v8
			h-48v-8c0-13.255-10.745-24-24-24h-80c-13.255,0-24,10.745-24,24v32c0,13.255,10.745,24,24,24h32v80.64
			C25.425,373.016,4.153,401.383,8.529,432c4.376,30.617,32.743,51.889,63.36,47.513c24.636-3.521,43.992-22.878,47.513-47.513
			h65.28c4.418,30.611,32.815,51.844,63.426,47.426c30.611-4.418,51.844-32.815,47.426-63.426s-32.815-51.844-63.426-47.426
			c-24.574,3.547-43.879,22.852-47.426,47.426h-65.28c-3.566-24.528-22.832-43.794-47.36-47.36V288h32c13.255,0,24-10.745,24-24v-8
			h48v8c0,13.255,10.745,24,24,24h80c13.255,0,24-10.745,24-24v-8h48v8c0,13.255,10.745,24,24,24h32v80.64
			c-30.611,4.418-51.844,32.815-47.426,63.426s32.815,51.844,63.426,47.426s51.844-32.815,47.426-63.426
			c-3.547-24.574-22.852-43.879-47.426-47.426V288h32c13.255,0,24-10.745,24-24v-32C480.042,218.745,469.297,208,456.042,208z
			 M240.042,384c22.091,0,40,17.909,40,40c0,22.091-17.909,40-40,40c-22.091,0-40-17.909-40-40
			C200.068,401.92,217.961,384.026,240.042,384z M104.042,424c0,22.091-17.909,40-40,40s-40-17.909-40-40c0-22.091,17.909-40,40-40
			C86.122,384.026,104.015,401.92,104.042,424z M112.042,264c0,4.418-3.582,8-8,8h-80c-4.418,0-8-3.582-8-8v-32c0-4.418,3.582-8,8-8
			h80c4.418,0,8,3.582,8,8V264z M176.042,80c-4.418,0-8-3.582-8-8V24c0-4.418,3.582-8,8-8h128c4.418,0,8,3.582,8,8v48
			c0,4.418-3.582,8-8,8H176.042z M169.338,152l70.704-23.568L310.746,152l-70.704,23.568L169.338,152z M288.042,264
			c0,4.418-3.582,8-8,8h-80c-4.418,0-8-3.582-8-8v-32c0-4.418,3.582-8,8-8h80c4.418,0,8,3.582,8,8V264z M352.042,232v8h-48v-8
			c0-13.255-10.745-24-24-24h-32v-18.24L337.33,160h70.712v48h-32C362.787,208,352.042,218.745,352.042,232z M456.042,424
			c0,22.091-17.909,40-40,40c-22.091,0-40-17.909-40-40c0-22.091,17.909-40,40-40C438.122,384.026,456.015,401.92,456.042,424z
			 M464.042,264c0,4.418-3.582,8-8,8h-80c-4.418,0-8-3.582-8-8v-32c0-4.418,3.582-8,8-8h80c4.418,0,8,3.582,8,8V264z"/>
	</g>
</g>
<g>
</g>
<g>
</g>
<g>
</g>
<g>
</g>
<g>
</g>
<g>
</g>
<g>
</g>
<g>
</g>
<g>
</g>
<g>
</g>
<g>
</g>
<g>
</g>
<g>
</g>
<g>
</g>
<g>
</g>
</svg>
