<?xml version="1.0" encoding="UTF-8" standalone="no"?>
<!DOCTYPE svg PUBLIC "-//W3C//DTD SVG 1.1//EN"
 "http://www.w3.org/Graphics/SVG/1.1/DTD/svg11.dtd">
<!-- Generated by graphviz version 2.42.3 (20191010.1750)
 -->
<!-- Title: Call Stack Pages: 1 -->
<svg width="525pt" height="207pt"
 viewBox="0.00 0.00 524.84 206.54" xmlns="http://www.w3.org/2000/svg" xmlns:xlink="http://www.w3.org/1999/xlink">
<g id="graph0" class="graph" transform="scale(1 1) rotate(0) translate(4 202.54)">
<title>Call Stack</title>
<!-- return_node -->
<g id="node1" class="node">
<title>return_node</title>
<ellipse fill="#68838b" stroke="#68838b" cx="212.27" cy="-36.77" rx="212.03" ry="36.54"/>
<text text-anchor="middle" x="212.27" y="-47.57" font-family="Times,serif" font-size="14.00">Condition used : (i &gt;= n or i &lt; 0 or j &gt;= m or j &lt; 0)</text>
<text text-anchor="middle" x="212.27" y="-17.57" font-family="Times,serif" font-size="14.00"> Return Value : False</text>
</g>
<!-- call_stack -->
<g id="node2" class="node">
<title>call_stack</title>
<polygon fill="lightblue" stroke="black" points="135.69,-110.04 135.69,-198.04 516.84,-198.04 516.84,-110.04 135.69,-110.04"/>
<text text-anchor="middle" x="168.18" y="-182.84" font-family="Times,serif" font-size="14.00">go(matr)</text>
<polyline fill="none" stroke="black" points="200.67,-176.04 200.67,-198.04 "/>
<text text-anchor="middle" x="228.11" y="-182.84" font-family="Times,serif" font-size="14.00">line:59</text>
<polyline fill="none" stroke="black" points="255.55,-176.04 255.55,-198.04 "/>
<text text-anchor="middle" x="386.2" y="-182.84" font-family="Times,serif" font-size="14.00">args {&#39;matrix&#39;: [[1, 0, 1], [1, 1, 0], [0, 1, 1]]}</text>
<polyline fill="none" stroke="black" points="135.69,-176.04 516.84,-176.04 "/>
<text text-anchor="middle" x="212.11" y="-160.84" font-family="Times,serif" font-size="14.00">sol.findPath()</text>
<polyline fill="none" stroke="black" points="288.53,-154.04 288.53,-176.04 "/>
<text text-anchor="middle" x="343.47" y="-160.84" font-family="Times,serif" font-size="14.00">line:9</text>
<polyline fill="none" stroke="black" points="398.41,-154.04 398.41,-176.04 "/>
<text text-anchor="middle" x="457.42" y="-160.84" font-family="Times,serif" font-size="14.00">args {}</text>
<polyline fill="none" stroke="black" points="135.69,-154.04 516.84,-154.04 "/>
<text text-anchor="middle" x="209.48" y="-138.84" font-family="Times,serif" font-size="14.00">self.hasPath(0, 0)</text>
<polyline fill="none" stroke="black" points="283.28,-132.04 283.28,-154.04 "/>
<text text-anchor="middle" x="327.72" y="-138.84" font-family="Times,serif" font-size="14.00">line:12</text>
<polyline fill="none" stroke="black" points="372.16,-132.04 372.16,-154.04 "/>
<text text-anchor="middle" x="444.49" y="-138.84" font-family="Times,serif" font-size="14.00">args {&#39;i&#39;: 0, &#39;j&#39;: 0}</text>
<polyline fill="none" stroke="black" points="135.69,-132.04 516.84,-132.04 "/>
<text text-anchor="middle" x="212.7" y="-116.84" font-family="Times,serif" font-size="14.00">self.hasPath(i &#45; 1, j)</text>
<polyline fill="none" stroke="black" points="289.72,-110.04 289.72,-132.04 "/>
<text text-anchor="middle" x="331.66" y="-116.84" font-family="Times,serif" font-size="14.00">line:44</text>
<polyline fill="none" stroke="black" points="373.6,-110.04 373.6,-132.04 "/>
<text text-anchor="middle" x="444.77" y="-116.84" font-family="Times,serif" font-size="14.00">args {&#39;i&#39;: &#45;1, &#39;j&#39;: 0}</text>
</g>
<!-- call_stack&#45;&gt;return_node -->
<g id="edge1" class="edge">
<title>call_stack:f3&#45;&gt;return_node</title>
<path fill="none" stroke="black" d="M212.27,-109.54C212.27,-101.21 212.27,-92.34 212.27,-83.78"/>
<polygon fill="black" stroke="black" points="215.77,-83.55 212.27,-73.55 208.77,-83.55 215.77,-83.55"/>
</g>
</g>
</svg>
