<?xml version="1.0" encoding="UTF-8" standalone="no"?>
<!DOCTYPE svg PUBLIC "-//W3C//DTD SVG 1.1//EN"
 "http://www.w3.org/Graphics/SVG/1.1/DTD/svg11.dtd">
<!-- Generated by graphviz version 2.42.3 (20191010.1750)
 -->
<!-- Title: Call Stack Pages: 1 -->
<svg width="522pt" height="273pt"
 viewBox="0.00 0.00 521.84 272.54" xmlns="http://www.w3.org/2000/svg" xmlns:xlink="http://www.w3.org/1999/xlink">
<g id="graph0" class="graph" transform="scale(1 1) rotate(0) translate(4 268.54)">
<title>Call Stack</title>
<!-- return_node -->
<g id="node1" class="node">
<title>return_node</title>
<ellipse fill="#68838b" stroke="#68838b" cx="212.27" cy="-36.77" rx="212.03" ry="36.54"/>
<text text-anchor="middle" x="212.27" y="-47.57" font-family="Times,serif" font-size="14.00">Condition used : (i &gt;= n or i &lt; 0 or j &gt;= m or j &lt; 0)</text>
<text text-anchor="middle" x="212.27" y="-17.57" font-family="Times,serif" font-size="14.00"> Return Value : False</text>
</g>
<!-- call_stack -->
<g id="node2" class="node">
<title>call_stack</title>
<polygon fill="lightblue" stroke="black" points="132.69,-110.04 132.69,-264.04 513.84,-264.04 513.84,-110.04 132.69,-110.04"/>
<text text-anchor="middle" x="165.18" y="-248.84" font-family="Times,serif" font-size="14.00">go(matr)</text>
<polyline fill="none" stroke="black" points="197.67,-242.04 197.67,-264.04 "/>
<text text-anchor="middle" x="225.11" y="-248.84" font-family="Times,serif" font-size="14.00">line:59</text>
<polyline fill="none" stroke="black" points="252.55,-242.04 252.55,-264.04 "/>
<text text-anchor="middle" x="383.2" y="-248.84" font-family="Times,serif" font-size="14.00">args {&#39;matrix&#39;: [[1, 0, 1], [1, 1, 0], [0, 1, 1]]}</text>
<polyline fill="none" stroke="black" points="132.69,-242.04 513.84,-242.04 "/>
<text text-anchor="middle" x="209.11" y="-226.84" font-family="Times,serif" font-size="14.00">sol.findPath()</text>
<polyline fill="none" stroke="black" points="285.53,-220.04 285.53,-242.04 "/>
<text text-anchor="middle" x="340.47" y="-226.84" font-family="Times,serif" font-size="14.00">line:9</text>
<polyline fill="none" stroke="black" points="395.41,-220.04 395.41,-242.04 "/>
<text text-anchor="middle" x="454.42" y="-226.84" font-family="Times,serif" font-size="14.00">args {}</text>
<polyline fill="none" stroke="black" points="132.69,-220.04 513.84,-220.04 "/>
<text text-anchor="middle" x="206.48" y="-204.84" font-family="Times,serif" font-size="14.00">self.hasPath(0, 0)</text>
<polyline fill="none" stroke="black" points="280.28,-198.04 280.28,-220.04 "/>
<text text-anchor="middle" x="324.72" y="-204.84" font-family="Times,serif" font-size="14.00">line:12</text>
<polyline fill="none" stroke="black" points="369.16,-198.04 369.16,-220.04 "/>
<text text-anchor="middle" x="441.49" y="-204.84" font-family="Times,serif" font-size="14.00">args {&#39;i&#39;: 0, &#39;j&#39;: 0}</text>
<polyline fill="none" stroke="black" points="132.69,-198.04 513.84,-198.04 "/>
<text text-anchor="middle" x="211.82" y="-182.84" font-family="Times,serif" font-size="14.00">self.hasPath(i + 1, j)</text>
<polyline fill="none" stroke="black" points="290.95,-176.04 290.95,-198.04 "/>
<text text-anchor="middle" x="332.89" y="-182.84" font-family="Times,serif" font-size="14.00">line:43</text>
<polyline fill="none" stroke="black" points="374.84,-176.04 374.84,-198.04 "/>
<text text-anchor="middle" x="444.17" y="-182.84" font-family="Times,serif" font-size="14.00">args {&#39;i&#39;: 1, &#39;j&#39;: 0}</text>
<polyline fill="none" stroke="black" points="132.69,-176.04 513.84,-176.04 "/>
<text text-anchor="middle" x="211.82" y="-160.84" font-family="Times,serif" font-size="14.00">self.hasPath(i, j + 1)</text>
<polyline fill="none" stroke="black" points="290.95,-154.04 290.95,-176.04 "/>
<text text-anchor="middle" x="332.89" y="-160.84" font-family="Times,serif" font-size="14.00">line:45</text>
<polyline fill="none" stroke="black" points="374.84,-154.04 374.84,-176.04 "/>
<text text-anchor="middle" x="444.17" y="-160.84" font-family="Times,serif" font-size="14.00">args {&#39;i&#39;: 1, &#39;j&#39;: 1}</text>
<polyline fill="none" stroke="black" points="132.69,-154.04 513.84,-154.04 "/>
<text text-anchor="middle" x="211.82" y="-138.84" font-family="Times,serif" font-size="14.00">self.hasPath(i + 1, j)</text>
<polyline fill="none" stroke="black" points="290.95,-132.04 290.95,-154.04 "/>
<text text-anchor="middle" x="332.89" y="-138.84" font-family="Times,serif" font-size="14.00">line:43</text>
<polyline fill="none" stroke="black" points="374.84,-132.04 374.84,-154.04 "/>
<text text-anchor="middle" x="444.17" y="-138.84" font-family="Times,serif" font-size="14.00">args {&#39;i&#39;: 2, &#39;j&#39;: 1}</text>
<polyline fill="none" stroke="black" points="132.69,-132.04 513.84,-132.04 "/>
<text text-anchor="middle" x="211.82" y="-116.84" font-family="Times,serif" font-size="14.00">self.hasPath(i + 1, j)</text>
<polyline fill="none" stroke="black" points="290.95,-110.04 290.95,-132.04 "/>
<text text-anchor="middle" x="332.89" y="-116.84" font-family="Times,serif" font-size="14.00">line:43</text>
<polyline fill="none" stroke="black" points="374.84,-110.04 374.84,-132.04 "/>
<text text-anchor="middle" x="444.17" y="-116.84" font-family="Times,serif" font-size="14.00">args {&#39;i&#39;: 3, &#39;j&#39;: 1}</text>
</g>
<!-- call_stack&#45;&gt;return_node -->
<g id="edge1" class="edge">
<title>call_stack:f6&#45;&gt;return_node</title>
<path fill="none" stroke="black" d="M212.27,-109.54C212.27,-101.21 212.27,-92.34 212.27,-83.78"/>
<polygon fill="black" stroke="black" points="215.77,-83.55 212.27,-73.55 208.77,-83.55 215.77,-83.55"/>
</g>
</g>
</svg>
