<?xml version="1.0" encoding="UTF-8" standalone="no"?>
<!DOCTYPE svg PUBLIC "-//W3C//DTD SVG 1.1//EN"
 "http://www.w3.org/Graphics/SVG/1.1/DTD/svg11.dtd">
<!-- Generated by graphviz version 2.42.3 (20191010.1750)
 -->
<!-- Title: Call Stack Pages: 1 -->
<svg width="420pt" height="206pt"
 viewBox="0.00 0.00 419.57 205.91" xmlns="http://www.w3.org/2000/svg" xmlns:xlink="http://www.w3.org/1999/xlink">
<g id="graph0" class="graph" transform="scale(1 1) rotate(0) translate(4 201.91)">
<title>Call Stack</title>
<!-- return_node -->
<g id="node1" class="node">
<title>return_node</title>
<ellipse fill="#68838b" stroke="#68838b" cx="109.99" cy="-25.46" rx="109.98" ry="25.41"/>
<text text-anchor="middle" x="109.99" y="-28.26" font-family="Times,serif" font-size="14.00">Condition used : No Test</text>
<text text-anchor="middle" x="109.99" y="-14.26" font-family="Times,serif" font-size="14.00"> Return Value : True</text>
</g>
<!-- call_stack -->
<g id="node2" class="node">
<title>call_stack</title>
<polygon fill="lightblue" stroke="black" points="30.41,-87.41 30.41,-197.41 411.57,-197.41 411.57,-87.41 30.41,-87.41"/>
<text text-anchor="middle" x="62.9" y="-182.21" font-family="Times,serif" font-size="14.00">go(matr)</text>
<polyline fill="none" stroke="black" points="95.39,-175.41 95.39,-197.41 "/>
<text text-anchor="middle" x="122.83" y="-182.21" font-family="Times,serif" font-size="14.00">line:59</text>
<polyline fill="none" stroke="black" points="150.27,-175.41 150.27,-197.41 "/>
<text text-anchor="middle" x="280.92" y="-182.21" font-family="Times,serif" font-size="14.00">args {&#39;matrix&#39;: [[1, 0, 1], [1, 1, 0], [0, 1, 1]]}</text>
<polyline fill="none" stroke="black" points="30.41,-175.41 411.57,-175.41 "/>
<text text-anchor="middle" x="106.83" y="-160.21" font-family="Times,serif" font-size="14.00">sol.findPath()</text>
<polyline fill="none" stroke="black" points="183.25,-153.41 183.25,-175.41 "/>
<text text-anchor="middle" x="238.19" y="-160.21" font-family="Times,serif" font-size="14.00">line:9</text>
<polyline fill="none" stroke="black" points="293.13,-153.41 293.13,-175.41 "/>
<text text-anchor="middle" x="352.14" y="-160.21" font-family="Times,serif" font-size="14.00">args {}</text>
<polyline fill="none" stroke="black" points="30.41,-153.41 411.57,-153.41 "/>
<text text-anchor="middle" x="104.21" y="-138.21" font-family="Times,serif" font-size="14.00">self.hasPath(0, 0)</text>
<polyline fill="none" stroke="black" points="178,-131.41 178,-153.41 "/>
<text text-anchor="middle" x="222.44" y="-138.21" font-family="Times,serif" font-size="14.00">line:12</text>
<polyline fill="none" stroke="black" points="266.88,-131.41 266.88,-153.41 "/>
<text text-anchor="middle" x="339.22" y="-138.21" font-family="Times,serif" font-size="14.00">args {&#39;i&#39;: 0, &#39;j&#39;: 0}</text>
<polyline fill="none" stroke="black" points="30.41,-131.41 411.57,-131.41 "/>
<text text-anchor="middle" x="109.54" y="-116.21" font-family="Times,serif" font-size="14.00">self.hasPath(i + 1, j)</text>
<polyline fill="none" stroke="black" points="188.68,-109.41 188.68,-131.41 "/>
<text text-anchor="middle" x="230.62" y="-116.21" font-family="Times,serif" font-size="14.00">line:43</text>
<polyline fill="none" stroke="black" points="272.56,-109.41 272.56,-131.41 "/>
<text text-anchor="middle" x="341.89" y="-116.21" font-family="Times,serif" font-size="14.00">args {&#39;i&#39;: 1, &#39;j&#39;: 0}</text>
<polyline fill="none" stroke="black" points="30.41,-109.41 411.57,-109.41 "/>
<text text-anchor="middle" x="109.54" y="-94.21" font-family="Times,serif" font-size="14.00">self.hasPath(i, j + 1)</text>
<polyline fill="none" stroke="black" points="188.68,-87.41 188.68,-109.41 "/>
<text text-anchor="middle" x="230.62" y="-94.21" font-family="Times,serif" font-size="14.00">line:45</text>
<polyline fill="none" stroke="black" points="272.56,-87.41 272.56,-109.41 "/>
<text text-anchor="middle" x="341.89" y="-94.21" font-family="Times,serif" font-size="14.00">args {&#39;i&#39;: 1, &#39;j&#39;: 1}</text>
</g>
<!-- call_stack&#45;&gt;return_node -->
<g id="edge1" class="edge">
<title>call_stack:f4&#45;&gt;return_node</title>
<path fill="none" stroke="black" d="M109.99,-86.91C109.99,-78.65 109.99,-69.75 109.99,-61.38"/>
<polygon fill="black" stroke="black" points="113.49,-61.16 109.99,-51.16 106.49,-61.16 113.49,-61.16"/>
</g>
</g>
</svg>
