<?xml version="1.0" encoding="UTF-8" standalone="no"?>
<!DOCTYPE svg PUBLIC "-//W3C//DTD SVG 1.1//EN"
 "http://www.w3.org/Graphics/SVG/1.1/DTD/svg11.dtd">
<!-- Generated by graphviz version 2.42.3 (20191010.1750)
 -->
<!-- Title: Call Stack Pages: 1 -->
<svg width="503pt" height="140pt"
 viewBox="0.00 0.00 503.04 139.91" xmlns="http://www.w3.org/2000/svg" xmlns:xlink="http://www.w3.org/1999/xlink">
<g id="graph0" class="graph" transform="scale(1 1) rotate(0) translate(4 135.91)">
<title>Call Stack</title>
<!-- return_node -->
<g id="node1" class="node">
<title>return_node</title>
<ellipse fill="#68838b" stroke="#68838b" cx="109.99" cy="-25.46" rx="109.98" ry="25.41"/>
<text text-anchor="middle" x="109.99" y="-28.26" font-family="Times,serif" font-size="14.00">Condition used : No Test</text>
<text text-anchor="middle" x="109.99" y="-14.26" font-family="Times,serif" font-size="14.00"> Return Value : None</text>
</g>
<!-- call_stack -->
<g id="node2" class="node">
<title>call_stack</title>
<polygon fill="lightblue" stroke="black" points="34.94,-87.41 34.94,-131.41 495.04,-131.41 495.04,-87.41 34.94,-87.41"/>
<text text-anchor="middle" x="80.43" y="-116.21" font-family="Times,serif" font-size="14.00">go(matr)</text>
<polyline fill="none" stroke="black" points="125.92,-109.41 125.92,-131.41 "/>
<text text-anchor="middle" x="166.36" y="-116.21" font-family="Times,serif" font-size="14.00">line:59</text>
<polyline fill="none" stroke="black" points="206.8,-109.41 206.8,-131.41 "/>
<text text-anchor="middle" x="350.45" y="-116.21" font-family="Times,serif" font-size="14.00">args {&#39;matrix&#39;: [[1, 0, 1], [1, 1, 0], [0, 1, 1]]}</text>
<polyline fill="none" stroke="black" points="34.94,-109.41 495.04,-109.41 "/>
<text text-anchor="middle" x="110.4" y="-94.21" font-family="Times,serif" font-size="14.00">demo2.Solution(matrix)</text>
<polyline fill="none" stroke="black" points="185.87,-87.41 185.87,-109.41 "/>
<text text-anchor="middle" x="209.81" y="-94.21" font-family="Times,serif" font-size="14.00">line:8</text>
<polyline fill="none" stroke="black" points="233.75,-87.41 233.75,-109.41 "/>
<text text-anchor="middle" x="364.39" y="-94.21" font-family="Times,serif" font-size="14.00">args {&#39;matrix&#39;: [[1, 0, 1], [1, 1, 0], [0, 1, 1]]}</text>
</g>
<!-- call_stack&#45;&gt;return_node -->
<g id="edge1" class="edge">
<title>call_stack:f1&#45;&gt;return_node</title>
<path fill="none" stroke="black" d="M109.99,-86.91C109.99,-78.65 109.99,-69.75 109.99,-61.38"/>
<polygon fill="black" stroke="black" points="113.49,-61.16 109.99,-51.16 106.49,-61.16 113.49,-61.16"/>
</g>
</g>
</svg>
