<?xml version="1.0" encoding="UTF-8" standalone="no"?>
<!DOCTYPE svg PUBLIC "-//W3C//DTD SVG 1.1//EN"
 "http://www.w3.org/Graphics/SVG/1.1/DTD/svg11.dtd">
<!-- Generated by graphviz version 2.42.3 (20191010.1750)
 -->
<!-- Title: Call Stack Pages: 1 -->
<svg width="478pt" height="207pt"
 viewBox="0.00 0.00 477.77 206.54" xmlns="http://www.w3.org/2000/svg" xmlns:xlink="http://www.w3.org/1999/xlink">
<g id="graph0" class="graph" transform="scale(1 1) rotate(0) translate(4 202.54)">
<title>Call Stack</title>
<!-- return_node -->
<g id="node1" class="node">
<title>return_node</title>
<ellipse fill="#68838b" stroke="#68838b" cx="168.19" cy="-36.77" rx="168.39" ry="36.54"/>
<text text-anchor="middle" x="168.19" y="-47.57" font-family="Times,serif" font-size="14.00">Condition used : (self.matrix[i][j] == 0)</text>
<text text-anchor="middle" x="168.19" y="-17.57" font-family="Times,serif" font-size="14.00"> Return Value : False</text>
</g>
<!-- call_stack -->
<g id="node2" class="node">
<title>call_stack</title>
<polygon fill="lightblue" stroke="black" points="88.61,-110.04 88.61,-198.04 469.77,-198.04 469.77,-110.04 88.61,-110.04"/>
<text text-anchor="middle" x="121.1" y="-182.84" font-family="Times,serif" font-size="14.00">go(matr)</text>
<polyline fill="none" stroke="black" points="153.59,-176.04 153.59,-198.04 "/>
<text text-anchor="middle" x="181.04" y="-182.84" font-family="Times,serif" font-size="14.00">line:59</text>
<polyline fill="none" stroke="black" points="208.48,-176.04 208.48,-198.04 "/>
<text text-anchor="middle" x="339.12" y="-182.84" font-family="Times,serif" font-size="14.00">args {&#39;matrix&#39;: [[1, 0, 1], [1, 1, 0], [0, 1, 1]]}</text>
<polyline fill="none" stroke="black" points="88.61,-176.04 469.77,-176.04 "/>
<text text-anchor="middle" x="165.03" y="-160.84" font-family="Times,serif" font-size="14.00">sol.findPath()</text>
<polyline fill="none" stroke="black" points="241.45,-154.04 241.45,-176.04 "/>
<text text-anchor="middle" x="296.39" y="-160.84" font-family="Times,serif" font-size="14.00">line:9</text>
<polyline fill="none" stroke="black" points="351.34,-154.04 351.34,-176.04 "/>
<text text-anchor="middle" x="410.34" y="-160.84" font-family="Times,serif" font-size="14.00">args {}</text>
<polyline fill="none" stroke="black" points="88.61,-154.04 469.77,-154.04 "/>
<text text-anchor="middle" x="162.41" y="-138.84" font-family="Times,serif" font-size="14.00">self.hasPath(0, 0)</text>
<polyline fill="none" stroke="black" points="236.2,-132.04 236.2,-154.04 "/>
<text text-anchor="middle" x="280.65" y="-138.84" font-family="Times,serif" font-size="14.00">line:12</text>
<polyline fill="none" stroke="black" points="325.09,-132.04 325.09,-154.04 "/>
<text text-anchor="middle" x="397.42" y="-138.84" font-family="Times,serif" font-size="14.00">args {&#39;i&#39;: 0, &#39;j&#39;: 0}</text>
<polyline fill="none" stroke="black" points="88.61,-132.04 469.77,-132.04 "/>
<text text-anchor="middle" x="167.75" y="-116.84" font-family="Times,serif" font-size="14.00">self.hasPath(i, j + 1)</text>
<polyline fill="none" stroke="black" points="246.88,-110.04 246.88,-132.04 "/>
<text text-anchor="middle" x="288.82" y="-116.84" font-family="Times,serif" font-size="14.00">line:45</text>
<polyline fill="none" stroke="black" points="330.76,-110.04 330.76,-132.04 "/>
<text text-anchor="middle" x="400.1" y="-116.84" font-family="Times,serif" font-size="14.00">args {&#39;i&#39;: 0, &#39;j&#39;: 1}</text>
</g>
<!-- call_stack&#45;&gt;return_node -->
<g id="edge1" class="edge">
<title>call_stack:f3&#45;&gt;return_node</title>
<path fill="none" stroke="black" d="M168.19,-109.54C168.19,-101.21 168.19,-92.34 168.19,-83.78"/>
<polygon fill="black" stroke="black" points="171.69,-83.55 168.19,-73.55 164.69,-83.55 171.69,-83.55"/>
</g>
</g>
</svg>
