<?xml version="1.0" encoding="UTF-8" standalone="no"?>
<!DOCTYPE svg PUBLIC "-//W3C//DTD SVG 1.1//EN"
 "http://www.w3.org/Graphics/SVG/1.1/DTD/svg11.dtd">
<!-- Generated by graphviz version 2.42.3 (20191010.1750)
 -->
<!-- Title: Call Stack Pages: 1 -->
<svg width="443pt" height="140pt"
 viewBox="0.00 0.00 442.89 139.91" xmlns="http://www.w3.org/2000/svg" xmlns:xlink="http://www.w3.org/1999/xlink">
<g id="graph0" class="graph" transform="scale(1 1) rotate(0) translate(4 135.91)">
<title>Call Stack</title>
<!-- return_node -->
<g id="node1" class="node">
<title>return_node</title>
<ellipse fill="#68838b" stroke="#68838b" cx="162.44" cy="-25.46" rx="109.98" ry="25.41"/>
<text text-anchor="middle" x="162.44" y="-28.26" font-family="Times,serif" font-size="14.00">Condition used : No Test</text>
<text text-anchor="middle" x="162.44" y="-14.26" font-family="Times,serif" font-size="14.00"> Return Value : 3</text>
</g>
<!-- call_stack -->
<g id="node2" class="node">
<title>call_stack</title>
<polygon fill="lightblue" stroke="black" points="0,-87.41 0,-131.41 434.89,-131.41 434.89,-87.41 0,-87.41"/>
<text text-anchor="middle" x="78.32" y="-116.21" font-family="Times,serif" font-size="14.00">kthSmallest(a, 1)</text>
<polyline fill="none" stroke="black" points="156.65,-109.41 156.65,-131.41 "/>
<text text-anchor="middle" x="207.09" y="-116.21" font-family="Times,serif" font-size="14.00">line:47</text>
<polyline fill="none" stroke="black" points="257.53,-109.41 257.53,-131.41 "/>
<text text-anchor="middle" x="345.75" y="-116.21" font-family="Times,serif" font-size="14.00">args {&#39;root&#39;: 3, &#39;k&#39;: 1}</text>
<polyline fill="none" stroke="black" points="0,-109.41 434.89,-109.41 "/>
<text text-anchor="middle" x="161.99" y="-94.21" font-family="Times,serif" font-size="14.00">print(f&#39;Found Root at stack : {stack} , root: {root.val}&#39;)</text>
<polyline fill="none" stroke="black" points="323.99,-87.41 323.99,-109.41 "/>
<text text-anchor="middle" x="351.43" y="-94.21" font-family="Times,serif" font-size="14.00">line:35</text>
<polyline fill="none" stroke="black" points="378.87,-87.41 378.87,-109.41 "/>
<text text-anchor="middle" x="406.88" y="-94.21" font-family="Times,serif" font-size="14.00">args {}</text>
</g>
<!-- call_stack&#45;&gt;return_node -->
<g id="edge1" class="edge">
<title>call_stack:f1&#45;&gt;return_node</title>
<path fill="none" stroke="black" d="M162.44,-86.91C162.44,-78.65 162.44,-69.75 162.44,-61.38"/>
<polygon fill="black" stroke="black" points="165.94,-61.16 162.44,-51.16 158.94,-61.16 165.94,-61.16"/>
</g>
</g>
</svg>
