<?xml version="1.0" encoding="UTF-8" standalone="no"?>
<!DOCTYPE svg PUBLIC "-//W3C//DTD SVG 1.1//EN"
 "http://www.w3.org/Graphics/SVG/1.1/DTD/svg11.dtd">
<!-- Generated by graphviz version 2.42.3 (20191010.1750)
 -->
<!-- Title: Call Stack Pages: 1 -->
<svg width="576pt" height="321pt"
 viewBox="0.00 0.00 576.00 321.28" xmlns="http://www.w3.org/2000/svg" xmlns:xlink="http://www.w3.org/1999/xlink">
<g id="graph0" class="graph" transform="scale(0.78 0.78) rotate(0) translate(4 246.54)">
<title>Call Stack</title>
<polygon fill="white" stroke="transparent" points="-4,4 -4,-246.54 445.17,-246.54 445.17,4 -4,4"/>
<!-- return_node -->
<g id="node1" class="node">
<title>return_node</title>
<ellipse fill="none" stroke="red" cx="212.27" cy="-36.77" rx="212.03" ry="36.54"/>
<text text-anchor="middle" x="212.27" y="-47.57" font-family="Times,serif" font-size="14.00">Condition used : (i &gt;= n or i &lt; 0 or j &gt;= m or j &lt; 0)</text>
<text text-anchor="middle" x="212.27" y="-17.57" font-family="Times,serif" font-size="14.00"> Return Value : False</text>
</g>
<!-- call_stack -->
<g id="node2" class="node">
<title>call_stack</title>
<polygon fill="none" stroke="black" points="147.36,-110.04 147.36,-242.04 441.17,-242.04 441.17,-110.04 147.36,-110.04"/>
<text text-anchor="middle" x="204.33" y="-226.84" font-family="Times,serif" font-size="14.00">s.findPath()</text>
<polyline fill="none" stroke="black" points="261.31,-220.04 261.31,-242.04 "/>
<text text-anchor="middle" x="305.75" y="-226.84" font-family="Times,serif" font-size="14.00">line:51</text>
<polyline fill="none" stroke="black" points="350.19,-220.04 350.19,-242.04 "/>
<text text-anchor="middle" x="395.2" y="-226.84" font-family="Times,serif" font-size="14.00">args {}</text>
<polyline fill="none" stroke="black" points="147.36,-220.04 441.17,-220.04 "/>
<text text-anchor="middle" x="206.65" y="-204.84" font-family="Times,serif" font-size="14.00">self.hasPath(0, 0)</text>
<polyline fill="none" stroke="black" points="265.95,-198.04 265.95,-220.04 "/>
<text text-anchor="middle" x="295.89" y="-204.84" font-family="Times,serif" font-size="14.00">line:12</text>
<polyline fill="none" stroke="black" points="325.83,-198.04 325.83,-220.04 "/>
<text text-anchor="middle" x="383.17" y="-204.84" font-family="Times,serif" font-size="14.00">args {&#39;i&#39;: 0, &#39;j&#39;: 0}</text>
<polyline fill="none" stroke="black" points="147.36,-198.04 441.17,-198.04 "/>
<text text-anchor="middle" x="211.99" y="-182.84" font-family="Times,serif" font-size="14.00">self.hasPath(i + 1, j)</text>
<polyline fill="none" stroke="black" points="276.62,-176.04 276.62,-198.04 "/>
<text text-anchor="middle" x="304.07" y="-182.84" font-family="Times,serif" font-size="14.00">line:33</text>
<polyline fill="none" stroke="black" points="331.51,-176.04 331.51,-198.04 "/>
<text text-anchor="middle" x="386.34" y="-182.84" font-family="Times,serif" font-size="14.00">args {&#39;i&#39;: 1, &#39;j&#39;: 0}</text>
<polyline fill="none" stroke="black" points="147.36,-176.04 441.17,-176.04 "/>
<text text-anchor="middle" x="211.99" y="-160.84" font-family="Times,serif" font-size="14.00">self.hasPath(i, j + 1)</text>
<polyline fill="none" stroke="black" points="276.62,-154.04 276.62,-176.04 "/>
<text text-anchor="middle" x="304.07" y="-160.84" font-family="Times,serif" font-size="14.00">line:35</text>
<polyline fill="none" stroke="black" points="331.51,-154.04 331.51,-176.04 "/>
<text text-anchor="middle" x="386.34" y="-160.84" font-family="Times,serif" font-size="14.00">args {&#39;i&#39;: 1, &#39;j&#39;: 1}</text>
<polyline fill="none" stroke="black" points="147.36,-154.04 441.17,-154.04 "/>
<text text-anchor="middle" x="211.99" y="-138.84" font-family="Times,serif" font-size="14.00">self.hasPath(i + 1, j)</text>
<polyline fill="none" stroke="black" points="276.62,-132.04 276.62,-154.04 "/>
<text text-anchor="middle" x="304.07" y="-138.84" font-family="Times,serif" font-size="14.00">line:33</text>
<polyline fill="none" stroke="black" points="331.51,-132.04 331.51,-154.04 "/>
<text text-anchor="middle" x="386.34" y="-138.84" font-family="Times,serif" font-size="14.00">args {&#39;i&#39;: 2, &#39;j&#39;: 1}</text>
<polyline fill="none" stroke="black" points="147.36,-132.04 441.17,-132.04 "/>
<text text-anchor="middle" x="211.99" y="-116.84" font-family="Times,serif" font-size="14.00">self.hasPath(i + 1, j)</text>
<polyline fill="none" stroke="black" points="276.62,-110.04 276.62,-132.04 "/>
<text text-anchor="middle" x="304.07" y="-116.84" font-family="Times,serif" font-size="14.00">line:33</text>
<polyline fill="none" stroke="black" points="331.51,-110.04 331.51,-132.04 "/>
<text text-anchor="middle" x="386.34" y="-116.84" font-family="Times,serif" font-size="14.00">args {&#39;i&#39;: 3, &#39;j&#39;: 1}</text>
</g>
<!-- call_stack&#45;&gt;return_node -->
<g id="edge1" class="edge">
<title>call_stack:f5&#45;&gt;return_node</title>
<path fill="none" stroke="red" d="M212.27,-109.54C212.27,-101.21 212.27,-92.34 212.27,-83.78"/>
<polygon fill="red" stroke="red" points="215.77,-83.55 212.27,-73.55 208.77,-83.55 215.77,-83.55"/>
</g>
</g>
</svg>
