<?xml version="1.0" encoding="UTF-8" standalone="no"?>
<!DOCTYPE svg PUBLIC "-//W3C//DTD SVG 1.1//EN"
 "http://www.w3.org/Graphics/SVG/1.1/DTD/svg11.dtd">
<!-- Generated by graphviz version 2.42.3 (20191010.1750)
 -->
<!-- Title: Call Stack Pages: 1 -->
<svg width="576pt" height="238pt"
 viewBox="0.00 0.00 576.00 237.68" xmlns="http://www.w3.org/2000/svg" xmlns:xlink="http://www.w3.org/1999/xlink">
<g id="graph0" class="graph" transform="scale(0.59 0.59) rotate(0) translate(4 135.91)">
<title>Call Stack</title>
<polygon fill="white" stroke="transparent" points="-4,4 -4,-135.91 335.06,-135.91 335.06,4 -4,4"/>
<!-- return_node -->
<g id="node1" class="node">
<title>return_node</title>
<ellipse fill="none" stroke="red" cx="109.99" cy="-25.46" rx="109.98" ry="25.41"/>
<text text-anchor="middle" x="109.99" y="-28.26" font-family="Times,serif" font-size="14.00">Condition used : No Test</text>
<text text-anchor="middle" x="109.99" y="-14.26" font-family="Times,serif" font-size="14.00"> Return Value : True</text>
</g>
<!-- call_stack -->
<g id="node2" class="node">
<title>call_stack</title>
<polygon fill="none" stroke="black" points="52.92,-87.41 52.92,-131.41 331.06,-131.41 331.06,-87.41 52.92,-87.41"/>
<text text-anchor="middle" x="107.39" y="-116.21" font-family="Times,serif" font-size="14.00">s.findPath()</text>
<polyline fill="none" stroke="black" points="161.87,-109.41 161.87,-131.41 "/>
<text text-anchor="middle" x="203.81" y="-116.21" font-family="Times,serif" font-size="14.00">line:51</text>
<polyline fill="none" stroke="black" points="245.75,-109.41 245.75,-131.41 "/>
<text text-anchor="middle" x="288.26" y="-116.21" font-family="Times,serif" font-size="14.00">args {}</text>
<polyline fill="none" stroke="black" points="52.92,-109.41 331.06,-109.41 "/>
<text text-anchor="middle" x="109.72" y="-94.21" font-family="Times,serif" font-size="14.00">self.hasPath(0, 0)</text>
<polyline fill="none" stroke="black" points="166.51,-87.41 166.51,-109.41 "/>
<text text-anchor="middle" x="193.95" y="-94.21" font-family="Times,serif" font-size="14.00">line:12</text>
<polyline fill="none" stroke="black" points="221.39,-87.41 221.39,-109.41 "/>
<text text-anchor="middle" x="276.23" y="-94.21" font-family="Times,serif" font-size="14.00">args {&#39;i&#39;: 0, &#39;j&#39;: 0}</text>
</g>
<!-- call_stack&#45;&gt;return_node -->
<g id="edge1" class="edge">
<title>call_stack:f1&#45;&gt;return_node</title>
<path fill="none" stroke="red" d="M109.99,-86.91C109.99,-78.65 109.99,-69.75 109.99,-61.38"/>
<polygon fill="red" stroke="red" points="113.49,-61.16 109.99,-51.16 106.49,-61.16 113.49,-61.16"/>
</g>
</g>
</svg>
