<?xml version="1.0" encoding="UTF-8" standalone="no"?>
<!DOCTYPE svg PUBLIC "-//W3C//DTD SVG 1.1//EN"
 "http://www.w3.org/Graphics/SVG/1.1/DTD/svg11.dtd">
<!-- Generated by graphviz version 2.42.3 (20191010.1750)
 -->
<!-- Title: Call Stack Pages: 1 -->
<svg width="423pt" height="140pt"
 viewBox="0.00 0.00 422.57 139.91" xmlns="http://www.w3.org/2000/svg" xmlns:xlink="http://www.w3.org/1999/xlink">
<g id="graph0" class="graph" transform="scale(1 1) rotate(0) translate(4 135.91)">
<title>Call Stack</title>
<!-- return_node -->
<g id="node1" class="node">
<title>return_node</title>
<ellipse fill="#68838b" stroke="#68838b" cx="109.99" cy="-25.46" rx="109.98" ry="25.41"/>
<text text-anchor="middle" x="109.99" y="-28.26" font-family="Times,serif" font-size="14.00">Condition used : No Test</text>
<text text-anchor="middle" x="109.99" y="-14.26" font-family="Times,serif" font-size="14.00"> Return Value : True</text>
</g>
<!-- call_stack -->
<g id="node2" class="node">
<title>call_stack</title>
<polygon fill="lightblue" stroke="black" points="33.41,-87.41 33.41,-131.41 414.57,-131.41 414.57,-87.41 33.41,-87.41"/>
<text text-anchor="middle" x="65.9" y="-116.21" font-family="Times,serif" font-size="14.00">go(matr)</text>
<polyline fill="none" stroke="black" points="98.39,-109.41 98.39,-131.41 "/>
<text text-anchor="middle" x="125.83" y="-116.21" font-family="Times,serif" font-size="14.00">line:59</text>
<polyline fill="none" stroke="black" points="153.27,-109.41 153.27,-131.41 "/>
<text text-anchor="middle" x="283.92" y="-116.21" font-family="Times,serif" font-size="14.00">args {&#39;matrix&#39;: [[1, 0, 1], [1, 1, 0], [0, 1, 1]]}</text>
<polyline fill="none" stroke="black" points="33.41,-109.41 414.57,-109.41 "/>
<text text-anchor="middle" x="109.83" y="-94.21" font-family="Times,serif" font-size="14.00">sol.findPath()</text>
<polyline fill="none" stroke="black" points="186.25,-87.41 186.25,-109.41 "/>
<text text-anchor="middle" x="241.19" y="-94.21" font-family="Times,serif" font-size="14.00">line:9</text>
<polyline fill="none" stroke="black" points="296.13,-87.41 296.13,-109.41 "/>
<text text-anchor="middle" x="355.14" y="-94.21" font-family="Times,serif" font-size="14.00">args {}</text>
</g>
<!-- call_stack&#45;&gt;return_node -->
<g id="edge1" class="edge">
<title>call_stack:f1&#45;&gt;return_node</title>
<path fill="none" stroke="black" d="M109.99,-86.91C109.99,-78.65 109.99,-69.75 109.99,-61.38"/>
<polygon fill="black" stroke="black" points="113.49,-61.16 109.99,-51.16 106.49,-61.16 113.49,-61.16"/>
</g>
</g>
</svg>
