<?xml version="1.0" encoding="UTF-8" standalone="no"?>
<!DOCTYPE svg PUBLIC "-//W3C//DTD SVG 1.1//EN"
 "http://www.w3.org/Graphics/SVG/1.1/DTD/svg11.dtd">
<!-- Generated by graphviz version 2.42.3 (20191010.1750)
 -->
<!-- Title: Call Stack Pages: 1 -->
<svg width="468pt" height="162pt"
 viewBox="0.00 0.00 468.43 161.91" xmlns="http://www.w3.org/2000/svg" xmlns:xlink="http://www.w3.org/1999/xlink">
<g id="graph0" class="graph" transform="scale(1 1) rotate(0) translate(4 157.91)">
<title>Call Stack</title>
<!-- return_node -->
<g id="node1" class="node">
<title>return_node</title>
<ellipse fill="#68838b" stroke="#68838b" cx="109.99" cy="-25.46" rx="109.98" ry="25.41"/>
<text text-anchor="middle" x="109.99" y="-28.26" font-family="Times,serif" font-size="14.00">Condition used : No Test</text>
<text text-anchor="middle" x="109.99" y="-14.26" font-family="Times,serif" font-size="14.00"> Return Value : 3</text>
</g>
<!-- call_stack -->
<g id="node2" class="node">
<title>call_stack</title>
<polygon fill="lightblue" stroke="black" points="25.55,-87.41 25.55,-153.41 460.43,-153.41 460.43,-87.41 25.55,-87.41"/>
<text text-anchor="middle" x="103.87" y="-138.21" font-family="Times,serif" font-size="14.00">kthSmallest(a, 1)</text>
<polyline fill="none" stroke="black" points="182.19,-131.41 182.19,-153.41 "/>
<text text-anchor="middle" x="232.64" y="-138.21" font-family="Times,serif" font-size="14.00">line:47</text>
<polyline fill="none" stroke="black" points="283.08,-131.41 283.08,-153.41 "/>
<text text-anchor="middle" x="371.3" y="-138.21" font-family="Times,serif" font-size="14.00">args {&#39;root&#39;: 3, &#39;k&#39;: 1}</text>
<polyline fill="none" stroke="black" points="25.55,-131.41 460.43,-131.41 "/>
<text text-anchor="middle" x="187.54" y="-116.21" font-family="Times,serif" font-size="14.00">print(f&#39;Found Root at stack : {stack} , root: {root.val}&#39;)</text>
<polyline fill="none" stroke="black" points="349.53,-109.41 349.53,-131.41 "/>
<text text-anchor="middle" x="376.97" y="-116.21" font-family="Times,serif" font-size="14.00">line:35</text>
<polyline fill="none" stroke="black" points="404.42,-109.41 404.42,-131.41 "/>
<text text-anchor="middle" x="432.42" y="-116.21" font-family="Times,serif" font-size="14.00">args {}</text>
<polyline fill="none" stroke="black" points="25.55,-109.41 460.43,-109.41 "/>
<text text-anchor="middle" x="109.57" y="-94.21" font-family="Times,serif" font-size="14.00">self.__str__()</text>
<polyline fill="none" stroke="black" points="193.58,-87.41 193.58,-109.41 "/>
<text text-anchor="middle" x="260.03" y="-94.21" font-family="Times,serif" font-size="14.00">line:16</text>
<polyline fill="none" stroke="black" points="326.47,-87.41 326.47,-109.41 "/>
<text text-anchor="middle" x="392.98" y="-94.21" font-family="Times,serif" font-size="14.00">args {}</text>
</g>
<!-- call_stack&#45;&gt;return_node -->
<g id="edge1" class="edge">
<title>call_stack:f2&#45;&gt;return_node</title>
<path fill="none" stroke="black" d="M109.99,-86.91C109.99,-78.65 109.99,-69.75 109.99,-61.38"/>
<polygon fill="black" stroke="black" points="113.49,-61.16 109.99,-51.16 106.49,-61.16 113.49,-61.16"/>
</g>
</g>
</svg>
