<?xml version="1.0" encoding="UTF-8" standalone="no"?>
<!DOCTYPE svg PUBLIC "-//W3C//DTD SVG 1.1//EN"
 "http://www.w3.org/Graphics/SVG/1.1/DTD/svg11.dtd">
<!-- Generated by graphviz version 2.42.3 (20191010.1750)
 -->
<!-- Title: Call Stack Pages: 1 -->
<svg width="576pt" height="142pt"
 viewBox="0.00 0.00 576.00 142.46" xmlns="http://www.w3.org/2000/svg" xmlns:xlink="http://www.w3.org/1999/xlink">
<g id="graph0" class="graph" transform="scale(0.53 0.53) rotate(0) translate(4 71)">
<title>Call Stack</title>
<polygon fill="white" stroke="transparent" points="-4,4 -4,-71 299.24,-71 299.24,4 -4,4"/>
<!-- call_stack -->
<g id="node1" class="node">
<title>call_stack</title>
<polygon fill="none" stroke="black" points="0,-0.5 0,-66.5 295.24,-66.5 295.24,-0.5 0,-0.5"/>
<text text-anchor="middle" x="57.47" y="-51.3" font-family="Times,serif" font-size="14.00">s.findPath()</text>
<polyline fill="none" stroke="black" points="114.95,-44.5 114.95,-66.5 "/>
<text text-anchor="middle" x="159.39" y="-51.3" font-family="Times,serif" font-size="14.00">line:51</text>
<polyline fill="none" stroke="black" points="203.83,-44.5 203.83,-66.5 "/>
<text text-anchor="middle" x="249.34" y="-51.3" font-family="Times,serif" font-size="14.00">args {}</text>
<polyline fill="none" stroke="black" points="0,-44.5 295.24,-44.5 "/>
<text text-anchor="middle" x="59.29" y="-29.3" font-family="Times,serif" font-size="14.00">self.hasPath(0, 0)</text>
<polyline fill="none" stroke="black" points="118.59,-22.5 118.59,-44.5 "/>
<text text-anchor="middle" x="149.03" y="-29.3" font-family="Times,serif" font-size="14.00">line:12</text>
<polyline fill="none" stroke="black" points="179.47,-22.5 179.47,-44.5 "/>
<text text-anchor="middle" x="237.31" y="-29.3" font-family="Times,serif" font-size="14.00">args {&#39;i&#39;: 0, &#39;j&#39;: 0}</text>
<polyline fill="none" stroke="black" points="0,-22.5 295.24,-22.5 "/>
<text text-anchor="middle" x="63.02" y="-7.3" font-family="Times,serif" font-size="14.00">self.hasPath(i, j &#45; 1)</text>
<polyline fill="none" stroke="black" points="126.03,-0.5 126.03,-22.5 "/>
<text text-anchor="middle" x="153.47" y="-7.3" font-family="Times,serif" font-size="14.00">line:36</text>
<polyline fill="none" stroke="black" points="180.91,-0.5 180.91,-22.5 "/>
<text text-anchor="middle" x="238.08" y="-7.3" font-family="Times,serif" font-size="14.00">args {&#39;i&#39;: 0, &#39;j&#39;: &#45;1}</text>
</g>
</g>
</svg>
