<?xml version="1.0" encoding="UTF-8" standalone="no"?>
<!DOCTYPE svg PUBLIC "-//W3C//DTD SVG 1.1//EN"
 "http://www.w3.org/Graphics/SVG/1.1/DTD/svg11.dtd">
<!-- Generated by graphviz version 2.42.3 (20191010.1750)
 -->
<!-- Title: Call Stack Pages: 1 -->
<svg width="426pt" height="162pt"
 viewBox="0.00 0.00 425.57 161.91" xmlns="http://www.w3.org/2000/svg" xmlns:xlink="http://www.w3.org/1999/xlink">
<g id="graph0" class="graph" transform="scale(1 1) rotate(0) translate(4 157.91)">
<title>Call Stack</title>
<!-- return_node -->
<g id="node1" class="node">
<title>return_node</title>
<ellipse fill="#68838b" stroke="#68838b" cx="109.99" cy="-25.46" rx="109.98" ry="25.41"/>
<text text-anchor="middle" x="109.99" y="-28.26" font-family="Times,serif" font-size="14.00">Condition used : No Test</text>
<text text-anchor="middle" x="109.99" y="-14.26" font-family="Times,serif" font-size="14.00"> Return Value : True</text>
</g>
<!-- call_stack -->
<g id="node2" class="node">
<title>call_stack</title>
<polygon fill="lightblue" stroke="black" points="36.41,-87.41 36.41,-153.41 417.57,-153.41 417.57,-87.41 36.41,-87.41"/>
<text text-anchor="middle" x="68.9" y="-138.21" font-family="Times,serif" font-size="14.00">go(matr)</text>
<polyline fill="none" stroke="black" points="101.39,-131.41 101.39,-153.41 "/>
<text text-anchor="middle" x="128.83" y="-138.21" font-family="Times,serif" font-size="14.00">line:59</text>
<polyline fill="none" stroke="black" points="156.27,-131.41 156.27,-153.41 "/>
<text text-anchor="middle" x="286.92" y="-138.21" font-family="Times,serif" font-size="14.00">args {&#39;matrix&#39;: [[1, 0, 1], [1, 1, 0], [0, 1, 1]]}</text>
<polyline fill="none" stroke="black" points="36.41,-131.41 417.57,-131.41 "/>
<text text-anchor="middle" x="112.83" y="-116.21" font-family="Times,serif" font-size="14.00">sol.findPath()</text>
<polyline fill="none" stroke="black" points="189.25,-109.41 189.25,-131.41 "/>
<text text-anchor="middle" x="244.19" y="-116.21" font-family="Times,serif" font-size="14.00">line:9</text>
<polyline fill="none" stroke="black" points="299.13,-109.41 299.13,-131.41 "/>
<text text-anchor="middle" x="358.14" y="-116.21" font-family="Times,serif" font-size="14.00">args {}</text>
<polyline fill="none" stroke="black" points="36.41,-109.41 417.57,-109.41 "/>
<text text-anchor="middle" x="110.21" y="-94.21" font-family="Times,serif" font-size="14.00">self.hasPath(0, 0)</text>
<polyline fill="none" stroke="black" points="184,-87.41 184,-109.41 "/>
<text text-anchor="middle" x="228.44" y="-94.21" font-family="Times,serif" font-size="14.00">line:12</text>
<polyline fill="none" stroke="black" points="272.88,-87.41 272.88,-109.41 "/>
<text text-anchor="middle" x="345.22" y="-94.21" font-family="Times,serif" font-size="14.00">args {&#39;i&#39;: 0, &#39;j&#39;: 0}</text>
</g>
<!-- call_stack&#45;&gt;return_node -->
<g id="edge1" class="edge">
<title>call_stack:f2&#45;&gt;return_node</title>
<path fill="none" stroke="black" d="M109.99,-86.91C109.99,-78.65 109.99,-69.75 109.99,-61.38"/>
<polygon fill="black" stroke="black" points="113.49,-61.16 109.99,-51.16 106.49,-61.16 113.49,-61.16"/>
</g>
</g>
</svg>
