<?xml version="1.0" encoding="UTF-8" standalone="no"?>
<!DOCTYPE svg PUBLIC "-//W3C//DTD SVG 1.1//EN"
 "http://www.w3.org/Graphics/SVG/1.1/DTD/svg11.dtd">
<!-- Generated by graphviz version 2.42.3 (20191010.1750)
 -->
<!-- Title: Call Stack Pages: 1 -->
<svg width="559pt" height="360pt"
 viewBox="0.00 0.00 559.18 360.00" xmlns="http://www.w3.org/2000/svg" xmlns:xlink="http://www.w3.org/1999/xlink">
<g id="graph0" class="graph" transform="scale(0.7 0.7) rotate(0) translate(4 246.54)">
<title>Call Stack</title>
<polygon fill="white" stroke="transparent" points="-4,4 -4,-246.54 385.16,-246.54 385.16,4 -4,4"/>
<!-- return_node -->
<g id="node1" class="node">
<title>return_node</title>
<ellipse fill="none" stroke="red" cx="152.25" cy="-36.77" rx="152" ry="36.54"/>
<text text-anchor="middle" x="152.25" y="-47.57" font-family="Times,serif" font-size="14.00">Condition used : (self.dp[i][j] == 4)</text>
<text text-anchor="middle" x="152.25" y="-17.57" font-family="Times,serif" font-size="14.00"> Return Value : True</text>
</g>
<!-- call_stack -->
<g id="node2" class="node">
<title>call_stack</title>
<polygon fill="none" stroke="black" points="87.34,-110.04 87.34,-242.04 381.16,-242.04 381.16,-110.04 87.34,-110.04"/>
<text text-anchor="middle" x="144.32" y="-226.84" font-family="Times,serif" font-size="14.00">s.findPath()</text>
<polyline fill="none" stroke="black" points="201.29,-220.04 201.29,-242.04 "/>
<text text-anchor="middle" x="245.73" y="-226.84" font-family="Times,serif" font-size="14.00">line:51</text>
<polyline fill="none" stroke="black" points="290.18,-220.04 290.18,-242.04 "/>
<text text-anchor="middle" x="335.18" y="-226.84" font-family="Times,serif" font-size="14.00">args {}</text>
<polyline fill="none" stroke="black" points="87.34,-220.04 381.16,-220.04 "/>
<text text-anchor="middle" x="146.64" y="-204.84" font-family="Times,serif" font-size="14.00">self.hasPath(0, 0)</text>
<polyline fill="none" stroke="black" points="205.93,-198.04 205.93,-220.04 "/>
<text text-anchor="middle" x="235.88" y="-204.84" font-family="Times,serif" font-size="14.00">line:12</text>
<polyline fill="none" stroke="black" points="265.82,-198.04 265.82,-220.04 "/>
<text text-anchor="middle" x="323.15" y="-204.84" font-family="Times,serif" font-size="14.00">args {&#39;i&#39;: 0, &#39;j&#39;: 0}</text>
<polyline fill="none" stroke="black" points="87.34,-198.04 381.16,-198.04 "/>
<text text-anchor="middle" x="151.98" y="-182.84" font-family="Times,serif" font-size="14.00">self.hasPath(i + 1, j)</text>
<polyline fill="none" stroke="black" points="216.61,-176.04 216.61,-198.04 "/>
<text text-anchor="middle" x="244.05" y="-182.84" font-family="Times,serif" font-size="14.00">line:33</text>
<polyline fill="none" stroke="black" points="271.49,-176.04 271.49,-198.04 "/>
<text text-anchor="middle" x="326.32" y="-182.84" font-family="Times,serif" font-size="14.00">args {&#39;i&#39;: 1, &#39;j&#39;: 0}</text>
<polyline fill="none" stroke="black" points="87.34,-176.04 381.16,-176.04 "/>
<text text-anchor="middle" x="151.98" y="-160.84" font-family="Times,serif" font-size="14.00">self.hasPath(i, j + 1)</text>
<polyline fill="none" stroke="black" points="216.61,-154.04 216.61,-176.04 "/>
<text text-anchor="middle" x="244.05" y="-160.84" font-family="Times,serif" font-size="14.00">line:35</text>
<polyline fill="none" stroke="black" points="271.49,-154.04 271.49,-176.04 "/>
<text text-anchor="middle" x="326.32" y="-160.84" font-family="Times,serif" font-size="14.00">args {&#39;i&#39;: 1, &#39;j&#39;: 1}</text>
<polyline fill="none" stroke="black" points="87.34,-154.04 381.16,-154.04 "/>
<text text-anchor="middle" x="151.98" y="-138.84" font-family="Times,serif" font-size="14.00">self.hasPath(i + 1, j)</text>
<polyline fill="none" stroke="black" points="216.61,-132.04 216.61,-154.04 "/>
<text text-anchor="middle" x="244.05" y="-138.84" font-family="Times,serif" font-size="14.00">line:33</text>
<polyline fill="none" stroke="black" points="271.49,-132.04 271.49,-154.04 "/>
<text text-anchor="middle" x="326.32" y="-138.84" font-family="Times,serif" font-size="14.00">args {&#39;i&#39;: 2, &#39;j&#39;: 1}</text>
<polyline fill="none" stroke="black" points="87.34,-132.04 381.16,-132.04 "/>
<text text-anchor="middle" x="151.98" y="-116.84" font-family="Times,serif" font-size="14.00">self.hasPath(i, j + 1)</text>
<polyline fill="none" stroke="black" points="216.61,-110.04 216.61,-132.04 "/>
<text text-anchor="middle" x="244.05" y="-116.84" font-family="Times,serif" font-size="14.00">line:35</text>
<polyline fill="none" stroke="black" points="271.49,-110.04 271.49,-132.04 "/>
<text text-anchor="middle" x="326.32" y="-116.84" font-family="Times,serif" font-size="14.00">args {&#39;i&#39;: 2, &#39;j&#39;: 2}</text>
</g>
<!-- call_stack&#45;&gt;return_node -->
<g id="edge1" class="edge">
<title>call_stack:f5&#45;&gt;return_node</title>
<path fill="none" stroke="red" d="M152.25,-109.54C152.25,-101.21 152.25,-92.34 152.25,-83.78"/>
<polygon fill="red" stroke="red" points="155.75,-83.55 152.25,-73.55 148.75,-83.55 155.75,-83.55"/>
</g>
</g>
</svg>
