<?xml version="1.0" encoding="UTF-8" standalone="no"?>
<!DOCTYPE svg PUBLIC "-//W3C//DTD SVG 1.1//EN"
 "http://www.w3.org/Graphics/SVG/1.1/DTD/svg11.dtd">
<!-- Generated by graphviz version 2.42.3 (20191010.1750)
 -->
<!-- Title: Call Stack Pages: 1 -->
<svg width="389pt" height="163pt"
 viewBox="0.00 0.00 389.16 163.00" xmlns="http://www.w3.org/2000/svg" xmlns:xlink="http://www.w3.org/1999/xlink">
<g id="graph0" class="graph" transform="scale(1 1) rotate(0) translate(4 159)">
<title>Call Stack</title>
<!-- call_stack -->
<g id="node1" class="node">
<title>call_stack</title>
<polygon fill="lightblue" stroke="black" points="0,-0.5 0,-154.5 381.16,-154.5 381.16,-0.5 0,-0.5"/>
<text text-anchor="middle" x="32.49" y="-139.3" font-family="Times,serif" font-size="14.00">go(matr)</text>
<polyline fill="none" stroke="black" points="64.98,-132.5 64.98,-154.5 "/>
<text text-anchor="middle" x="92.42" y="-139.3" font-family="Times,serif" font-size="14.00">line:59</text>
<polyline fill="none" stroke="black" points="119.86,-132.5 119.86,-154.5 "/>
<text text-anchor="middle" x="250.51" y="-139.3" font-family="Times,serif" font-size="14.00">args {&#39;matrix&#39;: [[1, 0, 1], [1, 1, 0], [0, 1, 1]]}</text>
<polyline fill="none" stroke="black" points="0,-132.5 381.16,-132.5 "/>
<text text-anchor="middle" x="76.42" y="-117.3" font-family="Times,serif" font-size="14.00">sol.findPath()</text>
<polyline fill="none" stroke="black" points="152.84,-110.5 152.84,-132.5 "/>
<text text-anchor="middle" x="207.78" y="-117.3" font-family="Times,serif" font-size="14.00">line:9</text>
<polyline fill="none" stroke="black" points="262.72,-110.5 262.72,-132.5 "/>
<text text-anchor="middle" x="321.73" y="-117.3" font-family="Times,serif" font-size="14.00">args {}</text>
<polyline fill="none" stroke="black" points="0,-110.5 381.16,-110.5 "/>
<text text-anchor="middle" x="73.79" y="-95.3" font-family="Times,serif" font-size="14.00">self.hasPath(0, 0)</text>
<polyline fill="none" stroke="black" points="147.59,-88.5 147.59,-110.5 "/>
<text text-anchor="middle" x="192.03" y="-95.3" font-family="Times,serif" font-size="14.00">line:12</text>
<polyline fill="none" stroke="black" points="236.47,-88.5 236.47,-110.5 "/>
<text text-anchor="middle" x="308.81" y="-95.3" font-family="Times,serif" font-size="14.00">args {&#39;i&#39;: 0, &#39;j&#39;: 0}</text>
<polyline fill="none" stroke="black" points="0,-88.5 381.16,-88.5 "/>
<text text-anchor="middle" x="79.13" y="-73.3" font-family="Times,serif" font-size="14.00">self.hasPath(i + 1, j)</text>
<polyline fill="none" stroke="black" points="158.26,-66.5 158.26,-88.5 "/>
<text text-anchor="middle" x="200.21" y="-73.3" font-family="Times,serif" font-size="14.00">line:43</text>
<polyline fill="none" stroke="black" points="242.15,-66.5 242.15,-88.5 "/>
<text text-anchor="middle" x="311.48" y="-73.3" font-family="Times,serif" font-size="14.00">args {&#39;i&#39;: 1, &#39;j&#39;: 0}</text>
<polyline fill="none" stroke="black" points="0,-66.5 381.16,-66.5 "/>
<text text-anchor="middle" x="79.13" y="-51.3" font-family="Times,serif" font-size="14.00">self.hasPath(i, j + 1)</text>
<polyline fill="none" stroke="black" points="158.26,-44.5 158.26,-66.5 "/>
<text text-anchor="middle" x="200.21" y="-51.3" font-family="Times,serif" font-size="14.00">line:45</text>
<polyline fill="none" stroke="black" points="242.15,-44.5 242.15,-66.5 "/>
<text text-anchor="middle" x="311.48" y="-51.3" font-family="Times,serif" font-size="14.00">args {&#39;i&#39;: 1, &#39;j&#39;: 1}</text>
<polyline fill="none" stroke="black" points="0,-44.5 381.16,-44.5 "/>
<text text-anchor="middle" x="79.13" y="-29.3" font-family="Times,serif" font-size="14.00">self.hasPath(i + 1, j)</text>
<polyline fill="none" stroke="black" points="158.26,-22.5 158.26,-44.5 "/>
<text text-anchor="middle" x="200.21" y="-29.3" font-family="Times,serif" font-size="14.00">line:43</text>
<polyline fill="none" stroke="black" points="242.15,-22.5 242.15,-44.5 "/>
<text text-anchor="middle" x="311.48" y="-29.3" font-family="Times,serif" font-size="14.00">args {&#39;i&#39;: 2, &#39;j&#39;: 1}</text>
<polyline fill="none" stroke="black" points="0,-22.5 381.16,-22.5 "/>
<text text-anchor="middle" x="79.13" y="-7.3" font-family="Times,serif" font-size="14.00">self.hasPath(i, j + 1)</text>
<polyline fill="none" stroke="black" points="158.26,-0.5 158.26,-22.5 "/>
<text text-anchor="middle" x="200.21" y="-7.3" font-family="Times,serif" font-size="14.00">line:45</text>
<polyline fill="none" stroke="black" points="242.15,-0.5 242.15,-22.5 "/>
<text text-anchor="middle" x="311.48" y="-7.3" font-family="Times,serif" font-size="14.00">args {&#39;i&#39;: 2, &#39;j&#39;: 2}</text>
</g>
</g>
</svg>
