<?xml version="1.0" encoding="UTF-8" standalone="no"?>
<!DOCTYPE svg PUBLIC "-//W3C//DTD SVG 1.1//EN"
 "http://www.w3.org/Graphics/SVG/1.1/DTD/svg11.dtd">
<!-- Generated by graphviz version 2.42.3 (20191010.1750)
 -->
<!-- Title: Call Stack Pages: 1 -->
<svg width="576pt" height="157pt"
 viewBox="0.00 0.00 576.00 157.21" xmlns="http://www.w3.org/2000/svg" xmlns:xlink="http://www.w3.org/1999/xlink">
<g id="graph0" class="graph" transform="scale(0.84 0.84) rotate(0) translate(4 127.91)">
<title>Call Stack</title>
<polygon fill="white" stroke="transparent" points="-4,4 -4,-127.91 479.3,-127.91 479.3,4 -4,4"/>
<!-- return_node -->
<g id="node1" class="node">
<title>return_node</title>
<ellipse fill="none" stroke="red" cx="109.99" cy="-25.46" rx="109.98" ry="25.41"/>
<text text-anchor="middle" x="109.99" y="-28.26" font-family="Times,serif" font-size="14.00">Condition used : No Test</text>
<text text-anchor="middle" x="109.99" y="-14.26" font-family="Times,serif" font-size="14.00"> Return Value : None</text>
</g>
<!-- call_stack -->
<g id="node2" class="node">
<title>call_stack</title>
<polygon fill="none" stroke="black" points="60.68,-87.41 60.68,-123.41 475.3,-123.41 475.3,-87.41 60.68,-87.41"/>
<text text-anchor="middle" x="109.9" y="-101.21" font-family="Times,serif" font-size="14.00">Solution(matr)</text>
<polyline fill="none" stroke="black" points="159.12,-87.41 159.12,-123.41 "/>
<text text-anchor="middle" x="186.56" y="-101.21" font-family="Times,serif" font-size="14.00">line:50</text>
<polyline fill="none" stroke="black" points="214,-87.41 214,-123.41 "/>
<text text-anchor="middle" x="344.65" y="-101.21" font-family="Times,serif" font-size="14.00">args {&#39;matrix&#39;: [[1, 0, 1], [1, 1, 0], [0, 1, 1]]}</text>
</g>
<!-- call_stack&#45;&gt;return_node -->
<g id="edge1" class="edge">
<title>call_stack:f0&#45;&gt;return_node</title>
<path fill="none" stroke="red" d="M109.99,-86.91C109.99,-78.65 109.99,-69.75 109.99,-61.38"/>
<polygon fill="red" stroke="red" points="113.49,-61.16 109.99,-51.16 106.49,-61.16 113.49,-61.16"/>
</g>
</g>
</svg>
