<?xml version="1.0" encoding="UTF-8" standalone="no"?>
<!DOCTYPE svg PUBLIC "-//W3C//DTD SVG 1.1//EN"
 "http://www.w3.org/Graphics/SVG/1.1/DTD/svg11.dtd">
<!-- Generated by graphviz version 2.42.3 (20191010.1750)
 -->
<!-- Title: Call Stack Pages: 1 -->
<svg width="462pt" height="273pt"
 viewBox="0.00 0.00 461.83 272.54" xmlns="http://www.w3.org/2000/svg" xmlns:xlink="http://www.w3.org/1999/xlink">
<g id="graph0" class="graph" transform="scale(1 1) rotate(0) translate(4 268.54)">
<title>Call Stack</title>
<!-- return_node -->
<g id="node1" class="node">
<title>return_node</title>
<ellipse fill="#68838b" stroke="#68838b" cx="152.25" cy="-36.77" rx="152" ry="36.54"/>
<text text-anchor="middle" x="152.25" y="-47.57" font-family="Times,serif" font-size="14.00">Condition used : (self.dp[i][j] == 4)</text>
<text text-anchor="middle" x="152.25" y="-17.57" font-family="Times,serif" font-size="14.00"> Return Value : True</text>
</g>
<!-- call_stack -->
<g id="node2" class="node">
<title>call_stack</title>
<polygon fill="lightblue" stroke="black" points="72.67,-110.04 72.67,-264.04 453.83,-264.04 453.83,-110.04 72.67,-110.04"/>
<text text-anchor="middle" x="105.16" y="-248.84" font-family="Times,serif" font-size="14.00">go(matr)</text>
<polyline fill="none" stroke="black" points="137.65,-242.04 137.65,-264.04 "/>
<text text-anchor="middle" x="165.09" y="-248.84" font-family="Times,serif" font-size="14.00">line:59</text>
<polyline fill="none" stroke="black" points="192.54,-242.04 192.54,-264.04 "/>
<text text-anchor="middle" x="323.18" y="-248.84" font-family="Times,serif" font-size="14.00">args {&#39;matrix&#39;: [[1, 0, 1], [1, 1, 0], [0, 1, 1]]}</text>
<polyline fill="none" stroke="black" points="72.67,-242.04 453.83,-242.04 "/>
<text text-anchor="middle" x="149.09" y="-226.84" font-family="Times,serif" font-size="14.00">sol.findPath()</text>
<polyline fill="none" stroke="black" points="225.51,-220.04 225.51,-242.04 "/>
<text text-anchor="middle" x="280.45" y="-226.84" font-family="Times,serif" font-size="14.00">line:9</text>
<polyline fill="none" stroke="black" points="335.39,-220.04 335.39,-242.04 "/>
<text text-anchor="middle" x="394.4" y="-226.84" font-family="Times,serif" font-size="14.00">args {}</text>
<polyline fill="none" stroke="black" points="72.67,-220.04 453.83,-220.04 "/>
<text text-anchor="middle" x="146.47" y="-204.84" font-family="Times,serif" font-size="14.00">self.hasPath(0, 0)</text>
<polyline fill="none" stroke="black" points="220.26,-198.04 220.26,-220.04 "/>
<text text-anchor="middle" x="264.7" y="-204.84" font-family="Times,serif" font-size="14.00">line:12</text>
<polyline fill="none" stroke="black" points="309.15,-198.04 309.15,-220.04 "/>
<text text-anchor="middle" x="381.48" y="-204.84" font-family="Times,serif" font-size="14.00">args {&#39;i&#39;: 0, &#39;j&#39;: 0}</text>
<polyline fill="none" stroke="black" points="72.67,-198.04 453.83,-198.04 "/>
<text text-anchor="middle" x="151.81" y="-182.84" font-family="Times,serif" font-size="14.00">self.hasPath(i + 1, j)</text>
<polyline fill="none" stroke="black" points="230.94,-176.04 230.94,-198.04 "/>
<text text-anchor="middle" x="272.88" y="-182.84" font-family="Times,serif" font-size="14.00">line:43</text>
<polyline fill="none" stroke="black" points="314.82,-176.04 314.82,-198.04 "/>
<text text-anchor="middle" x="384.15" y="-182.84" font-family="Times,serif" font-size="14.00">args {&#39;i&#39;: 1, &#39;j&#39;: 0}</text>
<polyline fill="none" stroke="black" points="72.67,-176.04 453.83,-176.04 "/>
<text text-anchor="middle" x="151.81" y="-160.84" font-family="Times,serif" font-size="14.00">self.hasPath(i, j + 1)</text>
<polyline fill="none" stroke="black" points="230.94,-154.04 230.94,-176.04 "/>
<text text-anchor="middle" x="272.88" y="-160.84" font-family="Times,serif" font-size="14.00">line:45</text>
<polyline fill="none" stroke="black" points="314.82,-154.04 314.82,-176.04 "/>
<text text-anchor="middle" x="384.15" y="-160.84" font-family="Times,serif" font-size="14.00">args {&#39;i&#39;: 1, &#39;j&#39;: 1}</text>
<polyline fill="none" stroke="black" points="72.67,-154.04 453.83,-154.04 "/>
<text text-anchor="middle" x="151.81" y="-138.84" font-family="Times,serif" font-size="14.00">self.hasPath(i + 1, j)</text>
<polyline fill="none" stroke="black" points="230.94,-132.04 230.94,-154.04 "/>
<text text-anchor="middle" x="272.88" y="-138.84" font-family="Times,serif" font-size="14.00">line:43</text>
<polyline fill="none" stroke="black" points="314.82,-132.04 314.82,-154.04 "/>
<text text-anchor="middle" x="384.15" y="-138.84" font-family="Times,serif" font-size="14.00">args {&#39;i&#39;: 2, &#39;j&#39;: 1}</text>
<polyline fill="none" stroke="black" points="72.67,-132.04 453.83,-132.04 "/>
<text text-anchor="middle" x="151.81" y="-116.84" font-family="Times,serif" font-size="14.00">self.hasPath(i, j + 1)</text>
<polyline fill="none" stroke="black" points="230.94,-110.04 230.94,-132.04 "/>
<text text-anchor="middle" x="272.88" y="-116.84" font-family="Times,serif" font-size="14.00">line:45</text>
<polyline fill="none" stroke="black" points="314.82,-110.04 314.82,-132.04 "/>
<text text-anchor="middle" x="384.15" y="-116.84" font-family="Times,serif" font-size="14.00">args {&#39;i&#39;: 2, &#39;j&#39;: 2}</text>
</g>
<!-- call_stack&#45;&gt;return_node -->
<g id="edge1" class="edge">
<title>call_stack:f6&#45;&gt;return_node</title>
<path fill="none" stroke="black" d="M152.25,-109.54C152.25,-101.21 152.25,-92.34 152.25,-83.78"/>
<polygon fill="black" stroke="black" points="155.75,-83.55 152.25,-73.55 148.75,-83.55 155.75,-83.55"/>
</g>
</g>
</svg>
