<?xml version="1.0" encoding="UTF-8" standalone="no"?>
<!DOCTYPE svg PUBLIC "-//W3C//DTD SVG 1.1//EN"
 "http://www.w3.org/Graphics/SVG/1.1/DTD/svg11.dtd">
<!-- Generated by graphviz version 2.42.3 (20191010.1750)
 -->
<!-- Title: Call Stack Pages: 1 -->
<svg width="576pt" height="235pt"
 viewBox="0.00 0.00 576.00 234.70" xmlns="http://www.w3.org/2000/svg" xmlns:xlink="http://www.w3.org/1999/xlink">
<g id="graph0" class="graph" transform="scale(0.79 0.79) rotate(0) translate(4 180.54)">
<title>Call Stack</title>
<polygon fill="white" stroke="transparent" points="-4,4 -4,-180.54 448.89,-180.54 448.89,4 -4,4"/>
<!-- return_node -->
<g id="node1" class="node">
<title>return_node</title>
<ellipse fill="none" stroke="red" cx="212.27" cy="-36.77" rx="212.03" ry="36.54"/>
<text text-anchor="middle" x="212.27" y="-47.57" font-family="Times,serif" font-size="14.00">Condition used : (i &gt;= n or i &lt; 0 or j &gt;= m or j &lt; 0)</text>
<text text-anchor="middle" x="212.27" y="-17.57" font-family="Times,serif" font-size="14.00"> Return Value : False</text>
</g>
<!-- call_stack -->
<g id="node2" class="node">
<title>call_stack</title>
<polygon fill="none" stroke="black" points="149.65,-110.04 149.65,-176.04 444.89,-176.04 444.89,-110.04 149.65,-110.04"/>
<text text-anchor="middle" x="207.12" y="-160.84" font-family="Times,serif" font-size="14.00">s.findPath()</text>
<polyline fill="none" stroke="black" points="264.59,-154.04 264.59,-176.04 "/>
<text text-anchor="middle" x="309.04" y="-160.84" font-family="Times,serif" font-size="14.00">line:51</text>
<polyline fill="none" stroke="black" points="353.48,-154.04 353.48,-176.04 "/>
<text text-anchor="middle" x="398.99" y="-160.84" font-family="Times,serif" font-size="14.00">args {}</text>
<polyline fill="none" stroke="black" points="149.65,-154.04 444.89,-154.04 "/>
<text text-anchor="middle" x="208.94" y="-138.84" font-family="Times,serif" font-size="14.00">self.hasPath(0, 0)</text>
<polyline fill="none" stroke="black" points="268.24,-132.04 268.24,-154.04 "/>
<text text-anchor="middle" x="298.68" y="-138.84" font-family="Times,serif" font-size="14.00">line:12</text>
<polyline fill="none" stroke="black" points="329.12,-132.04 329.12,-154.04 "/>
<text text-anchor="middle" x="386.95" y="-138.84" font-family="Times,serif" font-size="14.00">args {&#39;i&#39;: 0, &#39;j&#39;: 0}</text>
<polyline fill="none" stroke="black" points="149.65,-132.04 444.89,-132.04 "/>
<text text-anchor="middle" x="212.66" y="-116.84" font-family="Times,serif" font-size="14.00">self.hasPath(i, j &#45; 1)</text>
<polyline fill="none" stroke="black" points="275.68,-110.04 275.68,-132.04 "/>
<text text-anchor="middle" x="303.12" y="-116.84" font-family="Times,serif" font-size="14.00">line:36</text>
<polyline fill="none" stroke="black" points="330.56,-110.04 330.56,-132.04 "/>
<text text-anchor="middle" x="387.72" y="-116.84" font-family="Times,serif" font-size="14.00">args {&#39;i&#39;: 0, &#39;j&#39;: &#45;1}</text>
</g>
<!-- call_stack&#45;&gt;return_node -->
<g id="edge1" class="edge">
<title>call_stack:f2&#45;&gt;return_node</title>
<path fill="none" stroke="red" d="M212.27,-109.54C212.27,-101.21 212.27,-92.34 212.27,-83.78"/>
<polygon fill="red" stroke="red" points="215.77,-83.55 212.27,-73.55 208.77,-83.55 215.77,-83.55"/>
</g>
</g>
</svg>
