<?xml version="1.0" encoding="UTF-8" standalone="no"?>
<!DOCTYPE svg PUBLIC "-//W3C//DTD SVG 1.1//EN"
 "http://www.w3.org/Graphics/SVG/1.1/DTD/svg11.dtd">
<!-- Generated by graphviz version 2.42.3 (20191010.1750)
 -->
<!-- Title: Call Stack Pages: 1 -->
<svg width="576pt" height="337pt"
 viewBox="0.00 0.00 576.00 337.40" xmlns="http://www.w3.org/2000/svg" xmlns:xlink="http://www.w3.org/1999/xlink">
<g id="graph0" class="graph" transform="scale(0.68 0.68) rotate(0) translate(4 224.54)">
<title>Call Stack</title>
<polygon fill="white" stroke="transparent" points="-4,4 -4,-224.54 386.16,-224.54 386.16,4 -4,4"/>
<!-- return_node -->
<g id="node1" class="node">
<title>return_node</title>
<ellipse fill="none" stroke="red" cx="152.25" cy="-36.77" rx="152" ry="36.54"/>
<text text-anchor="middle" x="152.25" y="-47.57" font-family="Times,serif" font-size="14.00">Condition used : (self.dp[i][j] == 1)</text>
<text text-anchor="middle" x="152.25" y="-17.57" font-family="Times,serif" font-size="14.00"> Return Value : False</text>
</g>
<!-- call_stack -->
<g id="node2" class="node">
<title>call_stack</title>
<polygon fill="none" stroke="black" points="88.34,-110.04 88.34,-220.04 382.16,-220.04 382.16,-110.04 88.34,-110.04"/>
<text text-anchor="middle" x="145.32" y="-204.84" font-family="Times,serif" font-size="14.00">s.findPath()</text>
<polyline fill="none" stroke="black" points="202.29,-198.04 202.29,-220.04 "/>
<text text-anchor="middle" x="246.73" y="-204.84" font-family="Times,serif" font-size="14.00">line:51</text>
<polyline fill="none" stroke="black" points="291.18,-198.04 291.18,-220.04 "/>
<text text-anchor="middle" x="336.18" y="-204.84" font-family="Times,serif" font-size="14.00">args {}</text>
<polyline fill="none" stroke="black" points="88.34,-198.04 382.16,-198.04 "/>
<text text-anchor="middle" x="147.64" y="-182.84" font-family="Times,serif" font-size="14.00">self.hasPath(0, 0)</text>
<polyline fill="none" stroke="black" points="206.93,-176.04 206.93,-198.04 "/>
<text text-anchor="middle" x="236.88" y="-182.84" font-family="Times,serif" font-size="14.00">line:12</text>
<polyline fill="none" stroke="black" points="266.82,-176.04 266.82,-198.04 "/>
<text text-anchor="middle" x="324.15" y="-182.84" font-family="Times,serif" font-size="14.00">args {&#39;i&#39;: 0, &#39;j&#39;: 0}</text>
<polyline fill="none" stroke="black" points="88.34,-176.04 382.16,-176.04 "/>
<text text-anchor="middle" x="152.98" y="-160.84" font-family="Times,serif" font-size="14.00">self.hasPath(i + 1, j)</text>
<polyline fill="none" stroke="black" points="217.61,-154.04 217.61,-176.04 "/>
<text text-anchor="middle" x="245.05" y="-160.84" font-family="Times,serif" font-size="14.00">line:33</text>
<polyline fill="none" stroke="black" points="272.49,-154.04 272.49,-176.04 "/>
<text text-anchor="middle" x="327.32" y="-160.84" font-family="Times,serif" font-size="14.00">args {&#39;i&#39;: 1, &#39;j&#39;: 0}</text>
<polyline fill="none" stroke="black" points="88.34,-154.04 382.16,-154.04 "/>
<text text-anchor="middle" x="152.98" y="-138.84" font-family="Times,serif" font-size="14.00">self.hasPath(i, j + 1)</text>
<polyline fill="none" stroke="black" points="217.61,-132.04 217.61,-154.04 "/>
<text text-anchor="middle" x="245.05" y="-138.84" font-family="Times,serif" font-size="14.00">line:35</text>
<polyline fill="none" stroke="black" points="272.49,-132.04 272.49,-154.04 "/>
<text text-anchor="middle" x="327.32" y="-138.84" font-family="Times,serif" font-size="14.00">args {&#39;i&#39;: 1, &#39;j&#39;: 1}</text>
<polyline fill="none" stroke="black" points="88.34,-132.04 382.16,-132.04 "/>
<text text-anchor="middle" x="151.86" y="-116.84" font-family="Times,serif" font-size="14.00">self.hasPath(i, j &#45; 1)</text>
<polyline fill="none" stroke="black" points="215.38,-110.04 215.38,-132.04 "/>
<text text-anchor="middle" x="243.32" y="-116.84" font-family="Times,serif" font-size="14.00">line:36</text>
<polyline fill="none" stroke="black" points="271.26,-110.04 271.26,-132.04 "/>
<text text-anchor="middle" x="326.59" y="-116.84" font-family="Times,serif" font-size="14.00">args {&#39;i&#39;: 1, &#39;j&#39;: 0}</text>
</g>
<!-- call_stack&#45;&gt;return_node -->
<g id="edge1" class="edge">
<title>call_stack:f4&#45;&gt;return_node</title>
<path fill="none" stroke="red" d="M152.25,-109.54C152.25,-101.21 152.25,-92.34 152.25,-83.78"/>
<polygon fill="red" stroke="red" points="155.75,-83.55 152.25,-73.55 148.75,-83.55 155.75,-83.55"/>
</g>
</g>
</svg>
