<?xml version="1.0" encoding="UTF-8" standalone="no"?>
<!DOCTYPE svg PUBLIC "-//W3C//DTD SVG 1.1//EN"
 "http://www.w3.org/Graphics/SVG/1.1/DTD/svg11.dtd">
<!-- Generated by graphviz version 2.42.3 (20191010.1750)
 -->
<!-- Title: Call Stack Pages: 1 -->
<svg width="576pt" height="143pt"
 viewBox="0.00 0.00 576.00 143.13" xmlns="http://www.w3.org/2000/svg" xmlns:xlink="http://www.w3.org/1999/xlink">
<g id="graph0" class="graph" transform="scale(0.52 0.52) rotate(0) translate(4 71)">
<title>Call Stack</title>
<polygon fill="white" stroke="transparent" points="-4,4 -4,-71 297.81,-71 297.81,4 -4,4"/>
<!-- call_stack -->
<g id="node1" class="node">
<title>call_stack</title>
<polygon fill="none" stroke="black" points="0,-0.5 0,-66.5 293.81,-66.5 293.81,-0.5 0,-0.5"/>
<text text-anchor="middle" x="56.97" y="-51.3" font-family="Times,serif" font-size="14.00">s.findPath()</text>
<polyline fill="none" stroke="black" points="113.95,-44.5 113.95,-66.5 "/>
<text text-anchor="middle" x="158.39" y="-51.3" font-family="Times,serif" font-size="14.00">line:51</text>
<polyline fill="none" stroke="black" points="202.83,-44.5 202.83,-66.5 "/>
<text text-anchor="middle" x="247.84" y="-51.3" font-family="Times,serif" font-size="14.00">args {}</text>
<polyline fill="none" stroke="black" points="0,-44.5 293.81,-44.5 "/>
<text text-anchor="middle" x="59.29" y="-29.3" font-family="Times,serif" font-size="14.00">self.hasPath(0, 0)</text>
<polyline fill="none" stroke="black" points="118.59,-22.5 118.59,-44.5 "/>
<text text-anchor="middle" x="148.53" y="-29.3" font-family="Times,serif" font-size="14.00">line:12</text>
<polyline fill="none" stroke="black" points="178.47,-22.5 178.47,-44.5 "/>
<text text-anchor="middle" x="235.81" y="-29.3" font-family="Times,serif" font-size="14.00">args {&#39;i&#39;: 0, &#39;j&#39;: 0}</text>
<polyline fill="none" stroke="black" points="0,-22.5 293.81,-22.5 "/>
<text text-anchor="middle" x="64.63" y="-7.3" font-family="Times,serif" font-size="14.00">self.hasPath(i, j + 1)</text>
<polyline fill="none" stroke="black" points="129.26,-0.5 129.26,-22.5 "/>
<text text-anchor="middle" x="156.71" y="-7.3" font-family="Times,serif" font-size="14.00">line:35</text>
<polyline fill="none" stroke="black" points="184.15,-0.5 184.15,-22.5 "/>
<text text-anchor="middle" x="238.98" y="-7.3" font-family="Times,serif" font-size="14.00">args {&#39;i&#39;: 0, &#39;j&#39;: 1}</text>
</g>
</g>
</svg>
