<?xml version="1.0" encoding="UTF-8" standalone="no"?>
<!DOCTYPE svg PUBLIC "-//W3C//DTD SVG 1.1//EN"
 "http://www.w3.org/Graphics/SVG/1.1/DTD/svg11.dtd">
<!-- Generated by graphviz version 2.42.3 (20191010.1750)
 -->
<!-- Title: Call Stack Pages: 1 -->
<svg width="576pt" height="269pt"
 viewBox="0.00 0.00 576.00 268.84" xmlns="http://www.w3.org/2000/svg" xmlns:xlink="http://www.w3.org/1999/xlink">
<g id="graph0" class="graph" transform="scale(0.6 0.6) rotate(0) translate(4 157.91)">
<title>Call Stack</title>
<polygon fill="white" stroke="transparent" points="-4,4 -4,-157.91 342.9,-157.91 342.9,4 -4,4"/>
<!-- return_node -->
<g id="node1" class="node">
<title>return_node</title>
<ellipse fill="none" stroke="red" cx="109.99" cy="-25.46" rx="109.98" ry="25.41"/>
<text text-anchor="middle" x="109.99" y="-28.26" font-family="Times,serif" font-size="14.00">Condition used : No Test</text>
<text text-anchor="middle" x="109.99" y="-14.26" font-family="Times,serif" font-size="14.00"> Return Value : True</text>
</g>
<!-- call_stack -->
<g id="node2" class="node">
<title>call_stack</title>
<polygon fill="none" stroke="black" points="45.08,-87.41 45.08,-153.41 338.9,-153.41 338.9,-87.41 45.08,-87.41"/>
<text text-anchor="middle" x="102.06" y="-138.21" font-family="Times,serif" font-size="14.00">s.findPath()</text>
<polyline fill="none" stroke="black" points="159.03,-131.41 159.03,-153.41 "/>
<text text-anchor="middle" x="203.47" y="-138.21" font-family="Times,serif" font-size="14.00">line:51</text>
<polyline fill="none" stroke="black" points="247.91,-131.41 247.91,-153.41 "/>
<text text-anchor="middle" x="292.92" y="-138.21" font-family="Times,serif" font-size="14.00">args {}</text>
<polyline fill="none" stroke="black" points="45.08,-131.41 338.9,-131.41 "/>
<text text-anchor="middle" x="104.38" y="-116.21" font-family="Times,serif" font-size="14.00">self.hasPath(0, 0)</text>
<polyline fill="none" stroke="black" points="163.67,-109.41 163.67,-131.41 "/>
<text text-anchor="middle" x="193.61" y="-116.21" font-family="Times,serif" font-size="14.00">line:12</text>
<polyline fill="none" stroke="black" points="223.56,-109.41 223.56,-131.41 "/>
<text text-anchor="middle" x="280.89" y="-116.21" font-family="Times,serif" font-size="14.00">args {&#39;i&#39;: 0, &#39;j&#39;: 0}</text>
<polyline fill="none" stroke="black" points="45.08,-109.41 338.9,-109.41 "/>
<text text-anchor="middle" x="109.72" y="-94.21" font-family="Times,serif" font-size="14.00">self.hasPath(i + 1, j)</text>
<polyline fill="none" stroke="black" points="174.35,-87.41 174.35,-109.41 "/>
<text text-anchor="middle" x="201.79" y="-94.21" font-family="Times,serif" font-size="14.00">line:33</text>
<polyline fill="none" stroke="black" points="229.23,-87.41 229.23,-109.41 "/>
<text text-anchor="middle" x="284.06" y="-94.21" font-family="Times,serif" font-size="14.00">args {&#39;i&#39;: 1, &#39;j&#39;: 0}</text>
</g>
<!-- call_stack&#45;&gt;return_node -->
<g id="edge1" class="edge">
<title>call_stack:f2&#45;&gt;return_node</title>
<path fill="none" stroke="red" d="M109.99,-86.91C109.99,-78.65 109.99,-69.75 109.99,-61.38"/>
<polygon fill="red" stroke="red" points="113.49,-61.16 109.99,-51.16 106.49,-61.16 113.49,-61.16"/>
</g>
</g>
</svg>
