<?xml version="1.0" encoding="UTF-8" standalone="no"?>
<!DOCTYPE svg PUBLIC "-//W3C//DTD SVG 1.1//EN"
 "http://www.w3.org/Graphics/SVG/1.1/DTD/svg11.dtd">
<!-- Generated by graphviz version 2.42.3 (20191010.1750)
 -->
<!-- Title: Call Stack Pages: 1 -->
<svg width="480pt" height="273pt"
 viewBox="0.00 0.00 479.77 272.54" xmlns="http://www.w3.org/2000/svg" xmlns:xlink="http://www.w3.org/1999/xlink">
<g id="graph0" class="graph" transform="scale(1 1) rotate(0) translate(4 268.54)">
<title>Call Stack</title>
<!-- return_node -->
<g id="node1" class="node">
<title>return_node</title>
<ellipse fill="#68838b" stroke="#68838b" cx="168.19" cy="-36.77" rx="168.39" ry="36.54"/>
<text text-anchor="middle" x="168.19" y="-47.57" font-family="Times,serif" font-size="14.00">Condition used : (self.matrix[i][j] == 0)</text>
<text text-anchor="middle" x="168.19" y="-17.57" font-family="Times,serif" font-size="14.00"> Return Value : False</text>
</g>
<!-- call_stack -->
<g id="node2" class="node">
<title>call_stack</title>
<polygon fill="lightblue" stroke="black" points="90.61,-110.04 90.61,-264.04 471.77,-264.04 471.77,-110.04 90.61,-110.04"/>
<text text-anchor="middle" x="123.1" y="-248.84" font-family="Times,serif" font-size="14.00">go(matr)</text>
<polyline fill="none" stroke="black" points="155.59,-242.04 155.59,-264.04 "/>
<text text-anchor="middle" x="183.04" y="-248.84" font-family="Times,serif" font-size="14.00">line:59</text>
<polyline fill="none" stroke="black" points="210.48,-242.04 210.48,-264.04 "/>
<text text-anchor="middle" x="341.12" y="-248.84" font-family="Times,serif" font-size="14.00">args {&#39;matrix&#39;: [[1, 0, 1], [1, 1, 0], [0, 1, 1]]}</text>
<polyline fill="none" stroke="black" points="90.61,-242.04 471.77,-242.04 "/>
<text text-anchor="middle" x="167.03" y="-226.84" font-family="Times,serif" font-size="14.00">sol.findPath()</text>
<polyline fill="none" stroke="black" points="243.45,-220.04 243.45,-242.04 "/>
<text text-anchor="middle" x="298.39" y="-226.84" font-family="Times,serif" font-size="14.00">line:9</text>
<polyline fill="none" stroke="black" points="353.34,-220.04 353.34,-242.04 "/>
<text text-anchor="middle" x="412.34" y="-226.84" font-family="Times,serif" font-size="14.00">args {}</text>
<polyline fill="none" stroke="black" points="90.61,-220.04 471.77,-220.04 "/>
<text text-anchor="middle" x="164.41" y="-204.84" font-family="Times,serif" font-size="14.00">self.hasPath(0, 0)</text>
<polyline fill="none" stroke="black" points="238.2,-198.04 238.2,-220.04 "/>
<text text-anchor="middle" x="282.65" y="-204.84" font-family="Times,serif" font-size="14.00">line:12</text>
<polyline fill="none" stroke="black" points="327.09,-198.04 327.09,-220.04 "/>
<text text-anchor="middle" x="399.42" y="-204.84" font-family="Times,serif" font-size="14.00">args {&#39;i&#39;: 0, &#39;j&#39;: 0}</text>
<polyline fill="none" stroke="black" points="90.61,-198.04 471.77,-198.04 "/>
<text text-anchor="middle" x="169.75" y="-182.84" font-family="Times,serif" font-size="14.00">self.hasPath(i + 1, j)</text>
<polyline fill="none" stroke="black" points="248.88,-176.04 248.88,-198.04 "/>
<text text-anchor="middle" x="290.82" y="-182.84" font-family="Times,serif" font-size="14.00">line:43</text>
<polyline fill="none" stroke="black" points="332.76,-176.04 332.76,-198.04 "/>
<text text-anchor="middle" x="402.1" y="-182.84" font-family="Times,serif" font-size="14.00">args {&#39;i&#39;: 1, &#39;j&#39;: 0}</text>
<polyline fill="none" stroke="black" points="90.61,-176.04 471.77,-176.04 "/>
<text text-anchor="middle" x="169.75" y="-160.84" font-family="Times,serif" font-size="14.00">self.hasPath(i, j + 1)</text>
<polyline fill="none" stroke="black" points="248.88,-154.04 248.88,-176.04 "/>
<text text-anchor="middle" x="290.82" y="-160.84" font-family="Times,serif" font-size="14.00">line:45</text>
<polyline fill="none" stroke="black" points="332.76,-154.04 332.76,-176.04 "/>
<text text-anchor="middle" x="402.1" y="-160.84" font-family="Times,serif" font-size="14.00">args {&#39;i&#39;: 1, &#39;j&#39;: 1}</text>
<polyline fill="none" stroke="black" points="90.61,-154.04 471.77,-154.04 "/>
<text text-anchor="middle" x="169.75" y="-138.84" font-family="Times,serif" font-size="14.00">self.hasPath(i + 1, j)</text>
<polyline fill="none" stroke="black" points="248.88,-132.04 248.88,-154.04 "/>
<text text-anchor="middle" x="290.82" y="-138.84" font-family="Times,serif" font-size="14.00">line:43</text>
<polyline fill="none" stroke="black" points="332.76,-132.04 332.76,-154.04 "/>
<text text-anchor="middle" x="402.1" y="-138.84" font-family="Times,serif" font-size="14.00">args {&#39;i&#39;: 2, &#39;j&#39;: 1}</text>
<polyline fill="none" stroke="black" points="90.61,-132.04 471.77,-132.04 "/>
<text text-anchor="middle" x="168.63" y="-116.84" font-family="Times,serif" font-size="14.00">self.hasPath(i, j &#45; 1)</text>
<polyline fill="none" stroke="black" points="246.65,-110.04 246.65,-132.04 "/>
<text text-anchor="middle" x="289.09" y="-116.84" font-family="Times,serif" font-size="14.00">line:46</text>
<polyline fill="none" stroke="black" points="331.53,-110.04 331.53,-132.04 "/>
<text text-anchor="middle" x="401.36" y="-116.84" font-family="Times,serif" font-size="14.00">args {&#39;i&#39;: 2, &#39;j&#39;: 0}</text>
</g>
<!-- call_stack&#45;&gt;return_node -->
<g id="edge1" class="edge">
<title>call_stack:f6&#45;&gt;return_node</title>
<path fill="none" stroke="black" d="M168.19,-109.54C168.19,-101.21 168.19,-92.34 168.19,-83.78"/>
<polygon fill="black" stroke="black" points="171.69,-83.55 168.19,-73.55 164.69,-83.55 171.69,-83.55"/>
</g>
</g>
</svg>
