<?xml version="1.0" encoding="UTF-8" standalone="no"?>
<!DOCTYPE svg PUBLIC "-//W3C//DTD SVG 1.1//EN"
 "http://www.w3.org/Graphics/SVG/1.1/DTD/svg11.dtd">
<!-- Generated by graphviz version 2.42.3 (20191010.1750)
 -->
<!-- Title: Call Stack Pages: 1 -->
<svg width="576pt" height="324pt"
 viewBox="0.00 0.00 576.00 324.15" xmlns="http://www.w3.org/2000/svg" xmlns:xlink="http://www.w3.org/1999/xlink">
<g id="graph0" class="graph" transform="scale(0.71 0.71) rotate(0) translate(4 224.54)">
<title>Call Stack</title>
<polygon fill="white" stroke="transparent" points="-4,4 -4,-224.54 402.1,-224.54 402.1,4 -4,4"/>
<!-- return_node -->
<g id="node1" class="node">
<title>return_node</title>
<ellipse fill="none" stroke="red" cx="168.19" cy="-36.77" rx="168.39" ry="36.54"/>
<text text-anchor="middle" x="168.19" y="-47.57" font-family="Times,serif" font-size="14.00">Condition used : (self.matrix[i][j] == 0)</text>
<text text-anchor="middle" x="168.19" y="-17.57" font-family="Times,serif" font-size="14.00"> Return Value : False</text>
</g>
<!-- call_stack -->
<g id="node2" class="node">
<title>call_stack</title>
<polygon fill="none" stroke="black" points="104.29,-110.04 104.29,-220.04 398.1,-220.04 398.1,-110.04 104.29,-110.04"/>
<text text-anchor="middle" x="161.26" y="-204.84" font-family="Times,serif" font-size="14.00">s.findPath()</text>
<polyline fill="none" stroke="black" points="218.23,-198.04 218.23,-220.04 "/>
<text text-anchor="middle" x="262.68" y="-204.84" font-family="Times,serif" font-size="14.00">line:51</text>
<polyline fill="none" stroke="black" points="307.12,-198.04 307.12,-220.04 "/>
<text text-anchor="middle" x="352.13" y="-204.84" font-family="Times,serif" font-size="14.00">args {}</text>
<polyline fill="none" stroke="black" points="104.29,-198.04 398.1,-198.04 "/>
<text text-anchor="middle" x="163.58" y="-182.84" font-family="Times,serif" font-size="14.00">self.hasPath(0, 0)</text>
<polyline fill="none" stroke="black" points="222.88,-176.04 222.88,-198.04 "/>
<text text-anchor="middle" x="252.82" y="-182.84" font-family="Times,serif" font-size="14.00">line:12</text>
<polyline fill="none" stroke="black" points="282.76,-176.04 282.76,-198.04 "/>
<text text-anchor="middle" x="340.09" y="-182.84" font-family="Times,serif" font-size="14.00">args {&#39;i&#39;: 0, &#39;j&#39;: 0}</text>
<polyline fill="none" stroke="black" points="104.29,-176.04 398.1,-176.04 "/>
<text text-anchor="middle" x="168.92" y="-160.84" font-family="Times,serif" font-size="14.00">self.hasPath(i + 1, j)</text>
<polyline fill="none" stroke="black" points="233.55,-154.04 233.55,-176.04 "/>
<text text-anchor="middle" x="260.99" y="-160.84" font-family="Times,serif" font-size="14.00">line:33</text>
<polyline fill="none" stroke="black" points="288.43,-154.04 288.43,-176.04 "/>
<text text-anchor="middle" x="343.27" y="-160.84" font-family="Times,serif" font-size="14.00">args {&#39;i&#39;: 1, &#39;j&#39;: 0}</text>
<polyline fill="none" stroke="black" points="104.29,-154.04 398.1,-154.04 "/>
<text text-anchor="middle" x="168.92" y="-138.84" font-family="Times,serif" font-size="14.00">self.hasPath(i, j + 1)</text>
<polyline fill="none" stroke="black" points="233.55,-132.04 233.55,-154.04 "/>
<text text-anchor="middle" x="260.99" y="-138.84" font-family="Times,serif" font-size="14.00">line:35</text>
<polyline fill="none" stroke="black" points="288.43,-132.04 288.43,-154.04 "/>
<text text-anchor="middle" x="343.27" y="-138.84" font-family="Times,serif" font-size="14.00">args {&#39;i&#39;: 1, &#39;j&#39;: 1}</text>
<polyline fill="none" stroke="black" points="104.29,-132.04 398.1,-132.04 "/>
<text text-anchor="middle" x="167.8" y="-116.84" font-family="Times,serif" font-size="14.00">self.hasPath(i &#45; 1, j)</text>
<polyline fill="none" stroke="black" points="231.32,-110.04 231.32,-132.04 "/>
<text text-anchor="middle" x="259.26" y="-116.84" font-family="Times,serif" font-size="14.00">line:34</text>
<polyline fill="none" stroke="black" points="287.2,-110.04 287.2,-132.04 "/>
<text text-anchor="middle" x="342.53" y="-116.84" font-family="Times,serif" font-size="14.00">args {&#39;i&#39;: 0, &#39;j&#39;: 1}</text>
</g>
<!-- call_stack&#45;&gt;return_node -->
<g id="edge1" class="edge">
<title>call_stack:f4&#45;&gt;return_node</title>
<path fill="none" stroke="red" d="M168.19,-109.54C168.19,-101.21 168.19,-92.34 168.19,-83.78"/>
<polygon fill="red" stroke="red" points="171.69,-83.55 168.19,-73.55 164.69,-83.55 171.69,-83.55"/>
</g>
</g>
</svg>
