<?xml version="1.0" encoding="UTF-8" standalone="no"?>
<!DOCTYPE svg PUBLIC "-//W3C//DTD SVG 1.1//EN"
 "http://www.w3.org/Graphics/SVG/1.1/DTD/svg11.dtd">
<!-- Generated by graphviz version 2.42.3 (20191010.1750)
 -->
<!-- Title: Call Stack Pages: 1 -->
<svg width="464pt" height="251pt"
 viewBox="0.00 0.00 463.83 250.54" xmlns="http://www.w3.org/2000/svg" xmlns:xlink="http://www.w3.org/1999/xlink">
<g id="graph0" class="graph" transform="scale(1 1) rotate(0) translate(4 246.54)">
<title>Call Stack</title>
<!-- return_node -->
<g id="node1" class="node">
<title>return_node</title>
<ellipse fill="#68838b" stroke="#68838b" cx="152.25" cy="-36.77" rx="152" ry="36.54"/>
<text text-anchor="middle" x="152.25" y="-47.57" font-family="Times,serif" font-size="14.00">Condition used : (self.dp[i][j] == 1)</text>
<text text-anchor="middle" x="152.25" y="-17.57" font-family="Times,serif" font-size="14.00"> Return Value : False</text>
</g>
<!-- call_stack -->
<g id="node2" class="node">
<title>call_stack</title>
<polygon fill="lightblue" stroke="black" points="74.67,-110.04 74.67,-242.04 455.83,-242.04 455.83,-110.04 74.67,-110.04"/>
<text text-anchor="middle" x="107.16" y="-226.84" font-family="Times,serif" font-size="14.00">go(matr)</text>
<polyline fill="none" stroke="black" points="139.65,-220.04 139.65,-242.04 "/>
<text text-anchor="middle" x="167.09" y="-226.84" font-family="Times,serif" font-size="14.00">line:59</text>
<polyline fill="none" stroke="black" points="194.54,-220.04 194.54,-242.04 "/>
<text text-anchor="middle" x="325.18" y="-226.84" font-family="Times,serif" font-size="14.00">args {&#39;matrix&#39;: [[1, 0, 1], [1, 1, 0], [0, 1, 1]]}</text>
<polyline fill="none" stroke="black" points="74.67,-220.04 455.83,-220.04 "/>
<text text-anchor="middle" x="151.09" y="-204.84" font-family="Times,serif" font-size="14.00">sol.findPath()</text>
<polyline fill="none" stroke="black" points="227.51,-198.04 227.51,-220.04 "/>
<text text-anchor="middle" x="282.45" y="-204.84" font-family="Times,serif" font-size="14.00">line:9</text>
<polyline fill="none" stroke="black" points="337.39,-198.04 337.39,-220.04 "/>
<text text-anchor="middle" x="396.4" y="-204.84" font-family="Times,serif" font-size="14.00">args {}</text>
<polyline fill="none" stroke="black" points="74.67,-198.04 455.83,-198.04 "/>
<text text-anchor="middle" x="148.47" y="-182.84" font-family="Times,serif" font-size="14.00">self.hasPath(0, 0)</text>
<polyline fill="none" stroke="black" points="222.26,-176.04 222.26,-198.04 "/>
<text text-anchor="middle" x="266.7" y="-182.84" font-family="Times,serif" font-size="14.00">line:12</text>
<polyline fill="none" stroke="black" points="311.15,-176.04 311.15,-198.04 "/>
<text text-anchor="middle" x="383.48" y="-182.84" font-family="Times,serif" font-size="14.00">args {&#39;i&#39;: 0, &#39;j&#39;: 0}</text>
<polyline fill="none" stroke="black" points="74.67,-176.04 455.83,-176.04 "/>
<text text-anchor="middle" x="153.81" y="-160.84" font-family="Times,serif" font-size="14.00">self.hasPath(i + 1, j)</text>
<polyline fill="none" stroke="black" points="232.94,-154.04 232.94,-176.04 "/>
<text text-anchor="middle" x="274.88" y="-160.84" font-family="Times,serif" font-size="14.00">line:43</text>
<polyline fill="none" stroke="black" points="316.82,-154.04 316.82,-176.04 "/>
<text text-anchor="middle" x="386.15" y="-160.84" font-family="Times,serif" font-size="14.00">args {&#39;i&#39;: 1, &#39;j&#39;: 0}</text>
<polyline fill="none" stroke="black" points="74.67,-154.04 455.83,-154.04 "/>
<text text-anchor="middle" x="153.81" y="-138.84" font-family="Times,serif" font-size="14.00">self.hasPath(i, j + 1)</text>
<polyline fill="none" stroke="black" points="232.94,-132.04 232.94,-154.04 "/>
<text text-anchor="middle" x="274.88" y="-138.84" font-family="Times,serif" font-size="14.00">line:45</text>
<polyline fill="none" stroke="black" points="316.82,-132.04 316.82,-154.04 "/>
<text text-anchor="middle" x="386.15" y="-138.84" font-family="Times,serif" font-size="14.00">args {&#39;i&#39;: 1, &#39;j&#39;: 1}</text>
<polyline fill="none" stroke="black" points="74.67,-132.04 455.83,-132.04 "/>
<text text-anchor="middle" x="152.69" y="-116.84" font-family="Times,serif" font-size="14.00">self.hasPath(i, j &#45; 1)</text>
<polyline fill="none" stroke="black" points="230.7,-110.04 230.7,-132.04 "/>
<text text-anchor="middle" x="273.15" y="-116.84" font-family="Times,serif" font-size="14.00">line:46</text>
<polyline fill="none" stroke="black" points="315.59,-110.04 315.59,-132.04 "/>
<text text-anchor="middle" x="385.42" y="-116.84" font-family="Times,serif" font-size="14.00">args {&#39;i&#39;: 1, &#39;j&#39;: 0}</text>
</g>
<!-- call_stack&#45;&gt;return_node -->
<g id="edge1" class="edge">
<title>call_stack:f5&#45;&gt;return_node</title>
<path fill="none" stroke="black" d="M152.25,-109.54C152.25,-101.21 152.25,-92.34 152.25,-83.78"/>
<polygon fill="black" stroke="black" points="155.75,-83.55 152.25,-73.55 148.75,-83.55 155.75,-83.55"/>
</g>
</g>
</svg>
