<?xml version="1.0" encoding="UTF-8" standalone="no"?>
<!DOCTYPE svg PUBLIC "-//W3C//DTD SVG 1.1//EN"
 "http://www.w3.org/Graphics/SVG/1.1/DTD/svg11.dtd">
<!-- Generated by graphviz version 2.42.3 (20191010.1750)
 -->
<!-- Title: Call Stack Pages: 1 -->
<svg width="443pt" height="75pt"
 viewBox="0.00 0.00 442.89 75.00" xmlns="http://www.w3.org/2000/svg" xmlns:xlink="http://www.w3.org/1999/xlink">
<g id="graph0" class="graph" transform="scale(1 1) rotate(0) translate(4 71)">
<title>Call Stack</title>
<!-- call_stack -->
<g id="node1" class="node">
<title>call_stack</title>
<polygon fill="lightblue" stroke="black" points="0,-0.5 0,-66.5 434.89,-66.5 434.89,-0.5 0,-0.5"/>
<text text-anchor="middle" x="78.32" y="-51.3" font-family="Times,serif" font-size="14.00">kthSmallest(a, 1)</text>
<polyline fill="none" stroke="black" points="156.65,-44.5 156.65,-66.5 "/>
<text text-anchor="middle" x="207.09" y="-51.3" font-family="Times,serif" font-size="14.00">line:47</text>
<polyline fill="none" stroke="black" points="257.53,-44.5 257.53,-66.5 "/>
<text text-anchor="middle" x="345.75" y="-51.3" font-family="Times,serif" font-size="14.00">args {&#39;root&#39;: 3, &#39;k&#39;: 1}</text>
<polyline fill="none" stroke="black" points="0,-44.5 434.89,-44.5 "/>
<text text-anchor="middle" x="161.99" y="-29.3" font-family="Times,serif" font-size="14.00">print(f&#39;Found Root at stack : {stack} , root: {root.val}&#39;)</text>
<polyline fill="none" stroke="black" points="323.99,-22.5 323.99,-44.5 "/>
<text text-anchor="middle" x="351.43" y="-29.3" font-family="Times,serif" font-size="14.00">line:35</text>
<polyline fill="none" stroke="black" points="378.87,-22.5 378.87,-44.5 "/>
<text text-anchor="middle" x="406.88" y="-29.3" font-family="Times,serif" font-size="14.00">args {}</text>
<polyline fill="none" stroke="black" points="0,-22.5 434.89,-22.5 "/>
<text text-anchor="middle" x="84.02" y="-7.3" font-family="Times,serif" font-size="14.00">self.__str__()</text>
<polyline fill="none" stroke="black" points="168.04,-0.5 168.04,-22.5 "/>
<text text-anchor="middle" x="234.48" y="-7.3" font-family="Times,serif" font-size="14.00">line:16</text>
<polyline fill="none" stroke="black" points="300.92,-0.5 300.92,-22.5 "/>
<text text-anchor="middle" x="367.43" y="-7.3" font-family="Times,serif" font-size="14.00">args {}</text>
</g>
</g>
</svg>
